<svg width="323" height="191" viewBox="0 0 323 191" fill="none" xmlns="http://www.w3.org/2000/svg">
	<path d="M321.661 185.764C313.261 187.326 292.266 186.636 283.721 186.472C283.87 186.831 284.02 187.192 284.169 187.551C285.552 185.9 286.523 184.009 287.021 181.91C287.143 181.397 286.576 180.889 286.093 181.197C284.756 182.044 283.785 179.644 283.542 178.678C283.051 176.711 283.049 174.499 282.894 172.483C282.578 168.339 282.432 164.182 282.454 160.025C282.467 157.886 282.525 155.746 282.626 153.61C282.707 151.918 282.74 150.092 283.491 148.537C284.078 147.324 285.691 146.53 285.835 145.126C285.954 143.955 285.069 143.28 284.078 142.911C282.657 142.383 281.395 142.244 280.826 140.623C280.227 138.918 280.199 136.949 280.042 135.166C279.673 131.019 279.547 126.854 279.536 122.692C279.519 114.355 279.842 106.011 280.105 97.6815C280.631 80.9799 281.681 64.3037 282.649 47.6223C282.897 43.359 283.362 39.1893 284.063 34.9766C284.728 30.9814 285.281 26.9685 285.795 22.9505C286.048 20.9782 286.505 18.9047 286.531 16.9147C286.548 15.443 285.527 14.5731 284.275 14.0118C282.854 13.3746 281.501 12.8031 280.305 11.7714C279.129 10.7549 278.163 9.52095 277.458 8.13526C276.722 6.69394 276.254 5.03517 276.257 3.40926C276.259 1.74542 277.478 0.90339 279.041 1.44452C280.695 2.01851 281.089 3.84671 280.796 5.4094C280.449 7.25024 279.314 8.75983 278.262 10.2543C277.286 11.6425 276.426 13.0585 275.918 14.6895C275.445 16.2041 275.258 17.8022 275.197 19.3826C275.063 22.7305 275.529 26.0809 275.278 29.4263C275.149 31.1331 274.803 32.8222 274.085 34.3849C274.416 34.3419 274.747 34.299 275.078 34.256C272.031 31.6945 273.111 26.9988 273.516 23.5649C273.933 20.0476 274.252 15.974 271.093 13.5996C270.777 13.3619 270.239 13.6072 270.165 13.9764C269.007 19.7745 267.814 25.9393 269.776 31.7046C271.354 36.3421 274.939 40.2286 279.992 40.7849C282.596 41.0706 285.211 40.3702 287.188 38.6254C287.565 38.2917 287.332 37.7101 286.91 37.5685C283.031 36.2738 278.998 35.4849 274.914 35.2497C273.496 35.1663 272.047 35.2649 270.825 36.0842C269.819 36.7593 269.397 37.7607 269.895 38.896C269.988 39.1059 270.234 39.1893 270.441 39.2096C272.957 39.4523 274.795 42.034 274.687 44.4742C274.621 45.9382 273.617 46.8587 273.091 48.1457C272.469 49.673 273.303 50.5353 274.095 51.749C275.015 53.1651 274.922 55.1399 275.033 56.7608C275.162 58.6522 275.253 60.5486 275.311 62.4451C275.425 66.1799 275.41 69.9197 275.311 73.6545C274.906 88.8136 273.114 103.902 272.805 119.069C272.636 127.464 272.952 135.866 274.173 144.183C274.482 143.945 274.793 143.708 275.101 143.47C273.458 142.476 271.371 143.73 270.916 145.473C270.669 146.428 271.028 147.318 271.743 147.968C272.219 148.401 272.798 148.699 273.278 149.124C273.85 149.63 274.171 150.295 274.35 151.028C274.694 152.434 274.568 153.946 274.552 155.377C274.532 157.087 274.515 158.796 274.494 160.505C274.454 163.985 274.416 167.467 274.375 170.946C274.353 172.901 274.33 174.853 274.307 176.807C274.3 177.414 274.499 181.334 273.093 180.765C272.717 180.613 272.277 180.997 272.294 181.374C272.385 183.417 272.841 185.362 273.642 187.243C273.718 186.955 273.794 186.666 273.87 186.378C272.042 187.182 269.95 186.229 268.699 184.831C267.28 183.243 266.8 181.012 266.476 178.972C265.712 174.165 265.164 169.312 264.516 164.488C264.19 162.058 263.864 159.628 263.535 157.198C263.313 155.544 262.4 152.57 263.705 151.172C265.27 149.496 267.773 148.853 269.349 147.184C271.624 144.772 268.228 142.36 266.42 141.103C264.929 140.066 263.497 138.888 261.94 137.952C260.2 136.906 258.314 136.132 256.541 135.146C255.208 134.402 251.883 132.516 253.026 130.528C253.734 129.302 255.681 129.158 256.769 128.369C258.111 127.395 258.347 125.828 257.785 124.331C257.191 122.755 255.853 121.448 255.891 119.681C255.906 119.016 256.106 118.09 256.923 118.067C257.891 118.042 258.635 118.712 259.616 118.214C261.449 117.283 261.434 114.459 261.439 112.724C261.452 108.762 260.407 102.782 264.888 100.673C264.58 100.546 264.269 100.42 263.96 100.296C266.051 106.939 264.213 113.839 262.939 120.449C261.841 126.139 260.425 133.388 264.458 138.294C267.551 142.054 273.227 143.303 277.739 141.685C282.535 139.965 283.441 134.751 283.843 130.255C284.111 127.256 284.457 124.25 284.664 121.248C284.874 118.204 284.29 115.425 282.465 112.932C282.282 113.248 282.1 113.566 281.918 113.882C285.061 113.665 287.684 110.701 287.294 107.515C287.054 105.566 285.714 104.054 284.973 102.296C284.318 100.741 284.144 99.052 284.303 97.3831C284.958 90.4825 290.091 84.4872 289.251 77.3438C288.43 70.3344 281.822 65.2746 274.861 66.3215C272.107 66.7362 268.471 68.1623 267.219 70.8578C266.696 71.9831 266.357 73.1892 265.801 74.2993C265.674 74.5522 265.374 75.2931 265.037 75.3436C264.729 75.3892 264.446 74.9315 264.312 74.7165C263.657 73.6646 263.467 72.2612 263.348 71.0526C263.229 69.8413 263.179 68.5745 263.348 67.3658C263.621 65.4238 264.36 63.5476 264.671 61.6006C264.987 59.6282 265.057 57.6508 264.716 55.676C264.496 54.4041 264.066 53.1524 263.184 52.1839C262.266 51.1776 260.956 50.6263 259.679 50.2344C256.468 49.2533 252.586 48.8664 249.471 50.3659C247.908 51.1169 246.462 52.2775 245.102 53.3395C243.612 54.5027 242.201 55.767 240.907 57.1451C238.444 59.7648 236.401 62.7865 235.121 66.1597C233.586 70.2029 233.384 74.5901 233.844 78.8559C234.077 81.0027 234.456 83.1293 234.906 85.2407C235.414 87.6226 236.044 90.0223 235.963 92.4751C235.887 94.7458 234.969 96.7535 234.102 98.8118C233.434 100.395 232.901 102.005 232.61 103.705C232.092 106.737 232.228 109.849 232.934 112.843C234.365 118.912 238.138 124.51 243.455 127.828C244.745 128.632 246.121 129.277 247.552 129.788C247.883 129.906 248.232 129.651 248.331 129.345C250.536 122.439 251.777 115.235 251.99 107.988C252.083 104.759 252.108 101.419 251.572 98.2226C251.148 95.6991 250.126 93.1528 247.792 91.848C247.468 91.6659 247.137 91.7974 246.927 92.0756C243.602 96.5032 245.122 102.408 246.04 107.379C247.271 114.054 246.872 120.829 247.38 127.567C247.61 130.602 248.078 133.502 249.155 136.359C250.166 139.042 251.464 141.601 252.672 144.198C253.926 146.894 255.069 149.645 255.621 152.581C256.235 155.86 256.331 159.218 256.177 162.546C255.831 170.008 254.248 177.351 253.853 184.81C253.81 185.625 255.074 185.622 255.117 184.81C255.775 172.395 260.104 159.216 255.317 147.129C253.213 141.819 249.901 136.827 249.018 131.097C247.987 124.399 248.611 117.562 247.835 110.84C247.468 107.672 246.657 104.577 246.303 101.411C245.964 98.3668 246.113 95.254 248.017 92.7178C247.729 92.7937 247.441 92.8695 247.152 92.9454C249.458 94.235 250.184 96.971 250.472 99.4237C250.847 102.595 250.824 105.854 250.687 109.038C250.397 115.827 249.178 122.546 247.112 129.016C247.372 128.87 247.63 128.723 247.891 128.574C242.151 126.528 237.678 121.802 235.356 116.232C234.191 113.435 233.551 110.411 233.558 107.379C233.566 104.013 234.527 101.057 235.824 97.99C236.623 96.0986 237.225 94.2047 237.238 92.1312C237.25 90.0451 236.798 87.9817 236.355 85.9538C235.435 81.7436 234.676 77.4601 234.944 73.1336C235.417 65.4946 239.812 59.1781 245.658 54.5153C247.028 53.4204 248.523 52.2244 250.113 51.4683C251.671 50.7275 253.474 50.5985 255.171 50.6971C257.75 50.8488 261.639 51.4152 262.916 54.0248C263.649 55.5217 263.745 57.3954 263.682 59.0264C263.598 61.1808 263.09 63.2922 262.536 65.3657C261.892 67.7906 261.849 70.2232 262.316 72.6962C262.569 74.0237 263.447 77.2275 265.454 76.5447C266.36 76.2362 266.825 75.1439 267.171 74.3423C267.642 73.26 267.965 72.0918 268.537 71.0551C269.199 69.854 270.734 69.0474 271.938 68.4936C273.498 67.778 275.233 67.424 276.947 67.4417C280.495 67.4746 283.79 69.2446 285.866 72.1095C290.258 78.1656 286.857 85.008 284.616 91.1551C283.57 94.0302 282.662 97.1101 283.099 100.2C283.334 101.871 284.012 103.313 284.839 104.767C285.764 106.395 286.52 108.062 285.684 109.895C285.003 111.387 283.577 112.517 281.921 112.631C281.491 112.661 281.069 113.164 281.375 113.582C282.932 115.706 283.549 118.002 283.438 120.616C283.332 123.137 282.927 125.648 282.743 128.167C282.454 132.114 282.366 137.925 278.34 140.066C274.229 142.254 268.393 141.04 265.427 137.5C261.53 132.85 263.229 125.491 264.284 120.131C265.586 113.513 267.268 106.61 265.176 99.9674C265.045 99.5527 264.623 99.4136 264.248 99.5906C260.643 101.287 259.977 105.667 260.069 109.227C260.099 110.395 260.177 111.564 260.172 112.734C260.167 113.908 260.2 115.281 259.669 116.36C259.085 117.549 258.223 116.942 257.201 116.836C256.521 116.765 255.856 116.965 255.38 117.471C254.455 118.454 254.483 120.128 254.862 121.334C255.368 122.937 257.722 125.127 256.528 126.859C255.659 128.121 253.684 128.172 252.553 129.155C251.198 130.336 251.403 132.152 252.392 133.497C253.57 135.103 255.504 136.074 257.241 136.949C259.183 137.927 261.179 138.812 262.908 140.15C264.319 141.242 265.872 142.152 267.247 143.29C268.226 144.097 269.543 145.339 268.249 146.489C267.321 147.313 266.14 147.918 265.108 148.6C264.236 149.177 263.1 149.771 262.488 150.649C261.305 152.338 261.932 154.758 262.182 156.629C262.534 159.241 262.885 161.853 263.237 164.468C263.621 167.322 264.006 170.18 264.387 173.035C264.749 175.73 264.964 178.504 265.599 181.157C266.114 183.313 267.08 185.41 268.924 186.735C270.57 187.918 272.613 188.308 274.497 187.478C274.836 187.329 274.843 186.897 274.724 186.613C274.014 184.947 273.63 183.192 273.549 181.384C273.283 181.586 273.015 181.791 272.75 181.994C273.622 182.345 274.413 181.885 274.889 181.136C275.546 180.102 275.541 178.911 275.554 177.73C275.592 174.312 275.632 170.893 275.67 167.472C275.708 164.053 275.749 160.634 275.786 157.213C275.814 154.674 276.355 151.331 274.881 149.071C274.517 148.512 274.032 148.097 273.493 147.715C272.942 147.324 272.102 146.889 272.09 146.115C272.072 145.017 273.473 143.973 274.456 144.567C274.975 144.881 275.46 144.365 275.384 143.854C273.114 128.387 274.123 112.707 275.22 97.1884C275.771 89.4129 276.348 81.6374 276.56 73.8442C276.666 69.9298 276.682 66.0155 276.555 62.1012C276.492 60.1466 276.391 58.192 276.252 56.2399C276.14 54.7176 276.138 53.0361 275.463 51.6327C275.114 50.907 274.269 50.2799 274.12 49.4808C273.943 48.525 274.917 47.5844 275.326 46.8056C275.943 45.6323 276.077 44.2972 275.812 43.0076C275.276 40.3828 273.129 38.2183 270.433 37.9579C270.615 38.0616 270.797 38.1678 270.98 38.2714C270.532 37.2499 272.35 36.6961 273.04 36.5646C274.411 36.3016 275.979 36.5823 277.349 36.7366C280.487 37.0906 283.575 37.8036 286.566 38.8025C286.472 38.451 286.379 38.097 286.288 37.7455C284.192 39.5939 281.236 39.9707 278.596 39.2576C275.771 38.494 273.566 36.4837 272.143 33.9702C268.727 27.9369 270.092 20.7531 271.377 14.3228C271.068 14.4492 270.757 14.5757 270.449 14.6996C273.533 17.0183 272.456 21.8 272.064 25.0543C271.652 28.4907 271.22 32.6731 274.176 35.1587C274.456 35.3939 274.985 35.4318 275.169 35.0297C276.644 31.826 276.684 28.3289 276.558 24.8672C276.426 21.3296 276.1 17.5974 277.415 14.2242C278.73 10.8535 282.045 8.42353 282.151 4.58001C282.227 1.84404 279.903 -0.719989 277.028 0.185259C273.875 1.17901 275.028 5.69261 275.958 7.90263C277.157 10.7473 279.4 13.1976 282.212 14.5099C282.905 14.8336 283.653 15.0561 284.313 15.4481C285.385 16.0853 285.279 16.9703 285.14 18.093C284.872 20.255 284.604 22.4169 284.321 24.5764C283.736 29.0293 283.003 33.4493 282.308 37.8846C281.645 42.1023 281.458 46.3605 281.21 50.6187C280.947 55.1475 280.682 59.6763 280.421 64.205C279.911 73.0325 279.42 81.865 279.084 90.7C278.742 99.6109 278.469 108.529 278.318 117.445C278.244 121.792 278.244 126.141 278.459 130.483C278.568 132.711 278.735 134.938 278.975 137.156C279.15 138.764 279.213 140.615 280.093 142.031C280.854 143.255 282.047 143.589 283.339 144.003C283.863 144.173 284.685 144.383 284.548 145.078C284.404 145.809 283.413 146.393 282.973 146.98C282.004 148.279 281.671 149.895 281.506 151.476C281.289 153.582 281.263 155.721 281.22 157.835C281.129 162.296 281.236 166.761 281.539 171.214C281.688 173.409 281.878 175.604 282.131 177.788C282.295 179.212 282.717 180.623 283.693 181.713C284.505 182.618 285.658 182.982 286.733 182.302C286.424 182.064 286.113 181.827 285.805 181.589C285.36 183.47 284.52 185.19 283.279 186.671C282.935 187.084 283.147 187.739 283.726 187.751C292.382 187.918 313.489 188.583 322 187C322.797 186.836 322.458 185.617 321.661 185.764Z" fill="black"/>
	<path d="M167.712 171.412C170.42 169.245 173.872 168.261 177.316 168.549C178.84 168.676 180.459 169.01 181.293 170.428C181.718 171.149 181.938 171.973 182.148 172.777C182.375 173.65 182.598 174.52 182.909 175.367C183.594 177.23 184.575 178.973 185.893 180.462C186.022 180.151 186.151 179.84 186.28 179.526C184.993 179.572 183.705 179.617 182.421 179.665C182.598 179.799 182.772 179.933 182.949 180.067C182.393 178.029 181.72 175.976 180.643 174.148C179.652 172.466 178.244 170.924 176.35 170.284C172.046 168.828 169.515 173.758 167.932 176.864C166.756 179.17 165.735 181.552 164.852 183.984C165.211 184.032 165.57 184.08 165.927 184.131C165.454 180.452 165.967 176.494 167.737 173.2C168.539 171.708 169.664 170.375 171.285 169.761C172.774 169.197 174.387 169.192 175.955 169.298C177.907 169.429 179.854 169.644 181.806 169.776C183.936 169.92 186.07 170.021 188.201 170.094C192.427 170.236 196.655 170.251 200.88 170.201C205.131 170.15 209.379 170.031 213.627 169.905C214.15 169.89 214.674 169.875 215.197 169.859C215.511 169.849 215.72 169.614 215.746 169.311C215.839 168.18 215.933 167.047 216.024 165.917C216.042 165.7 215.842 165.427 215.622 165.389C211.053 164.607 206.499 165.816 201.975 166.347C197.385 166.886 192.755 167.02 188.136 166.886C183.48 166.749 178.838 166.345 174.213 165.816C171.914 165.553 169.616 165.26 167.322 164.954C166.172 164.8 165.024 164.643 163.873 164.483C163.297 164.405 162.71 164.284 162.129 164.243C161.709 164.213 161.383 164.635 161.183 164.964C160.422 166.205 160.7 167.978 161.378 169.189C161.77 169.887 162.344 170.393 163.087 170.694C164.013 171.068 165.039 170.997 165.997 170.787C166.48 170.681 166.951 170.537 167.421 170.385C168.089 170.17 167.803 169.113 167.13 169.328C165.575 169.826 163.39 170.416 162.382 168.732C161.782 167.73 161.476 165.97 162.445 165.166C162.268 165.214 162.091 165.26 161.911 165.308C168.893 166.274 175.879 167.242 182.914 167.723C189.873 168.198 196.875 168.173 203.79 167.209C207.596 166.678 211.48 165.788 215.328 166.446C215.194 166.269 215.06 166.094 214.926 165.917C214.833 167.047 214.739 168.18 214.648 169.311C214.83 169.129 215.012 168.946 215.197 168.762C210.865 168.891 206.534 169.02 202.2 169.086C197.868 169.151 193.537 169.154 189.205 169.027C187.031 168.964 184.856 168.871 182.684 168.734C180.613 168.605 178.547 168.41 176.479 168.238C174.848 168.104 173.164 168.056 171.573 168.509C169.823 169.007 168.428 170.122 167.411 171.614C166.344 173.182 165.649 175.033 165.214 176.871C164.766 178.763 164.589 180.725 164.695 182.664C164.723 183.152 164.769 183.64 164.832 184.126C164.91 184.728 165.686 184.882 165.906 184.273C166.632 182.275 167.454 180.315 168.382 178.404C169.242 176.634 170.137 174.783 171.361 173.23C172.339 171.988 173.715 170.861 175.401 171.164C177.146 171.48 178.499 172.818 179.424 174.254C180.621 176.11 181.313 178.239 181.892 180.353C181.953 180.578 182.181 180.763 182.421 180.755C183.708 180.71 184.995 180.664 186.28 180.616C186.768 180.598 186.983 180.037 186.666 179.681C185.468 178.325 184.563 176.712 183.946 175.015C183.329 173.318 183.157 171.392 182.214 169.826C181.255 168.233 179.566 167.702 177.819 167.498C176.056 167.29 174.253 167.399 172.529 167.826C170.476 168.335 168.584 169.313 166.936 170.631C166.706 170.815 166.743 171.212 166.936 171.404C167.166 171.639 167.482 171.596 167.712 171.412Z" fill="black"/>
	<path d="M236.384 132.963C234.664 137.08 233.256 141.32 232.141 145.639C230.998 150.077 230.169 154.59 229.63 159.142C229.324 161.731 229.119 164.331 229.008 166.935C228.985 167.476 229.772 167.681 230.027 167.211C230.904 165.6 230.234 163.342 228.778 162.29C227.84 161.612 226.591 161.638 225.513 161.89C224.305 162.174 223.136 162.677 221.971 163.097C220.78 163.524 219.581 163.936 218.398 164.386C217.424 164.755 216.468 165.276 215.943 166.219C215.495 167.021 215.318 168.098 215.619 168.981C215.692 169.196 215.788 169.406 215.925 169.59C216.175 169.932 216.433 169.924 216.828 169.868C217.457 169.78 218.084 169.676 218.709 169.56C221.516 169.034 224.262 168.22 226.914 167.165C227.165 167.067 227.415 166.791 227.296 166.493C226.988 165.716 226.446 165.114 225.647 164.831C224.889 164.563 224.07 164.733 223.384 165.12C222.595 165.567 221.966 166.26 221.392 166.948C220.853 167.593 220.35 168.268 219.882 168.966C217.877 171.97 216.534 175.421 215.783 178.946C215.336 181.042 215.095 183.182 215.063 185.323C215.058 185.619 215.318 185.872 215.611 185.872C216.63 185.869 217.647 185.869 218.666 185.867C218.957 185.867 219.22 185.617 219.215 185.318C219.108 181.088 219.928 176.301 222.858 173.054C224.039 171.745 225.637 170.629 227.445 170.495C227.87 170.463 228.32 170.463 228.722 170.624C229.18 170.809 229.448 171.196 229.658 171.626C229.901 172.126 230.065 172.667 230.247 173.191C230.452 173.778 230.649 174.364 230.841 174.956C231.703 177.611 232.447 180.304 233.077 183.025C233.152 183.353 233.595 183.546 233.881 183.351C235.013 182.585 236.146 181.821 237.279 181.055C237.547 180.875 237.6 180.595 237.476 180.306C235.256 175.176 233.054 169.805 232.872 164.141C232.826 162.72 232.905 161.291 233.147 159.89C233.395 158.457 233.787 157.051 234.214 155.662C235.104 152.76 236.04 149.869 236.955 146.974C238 143.669 239.042 140.367 240.086 137.062C240.298 136.389 239.241 136.101 239.029 136.771C237.148 142.726 235.256 148.678 233.385 154.636C232.5 157.455 231.777 160.295 231.762 163.271C231.746 166.151 232.275 169.016 233.077 171.772C233.984 174.888 235.241 177.887 236.528 180.863C236.594 180.612 236.66 180.365 236.725 180.114C235.592 180.88 234.46 181.644 233.327 182.41C233.595 182.519 233.863 182.628 234.131 182.736C233.534 180.152 232.834 177.593 232.025 175.067C231.63 173.836 231.248 172.576 230.743 171.385C230.507 170.832 230.201 170.313 229.716 169.947C229.284 169.62 228.778 169.464 228.244 169.408C226.252 169.198 224.272 170.237 222.836 171.532C221.154 173.049 220.019 175.08 219.28 177.199C218.378 179.793 218.054 182.585 218.122 185.321C218.304 185.139 218.486 184.957 218.671 184.772C217.652 184.775 216.635 184.775 215.616 184.777C215.798 184.959 215.98 185.141 216.165 185.326C216.216 181.907 216.817 178.504 217.965 175.282C219.02 172.326 220.567 169.413 222.717 167.102C223.24 166.541 223.933 165.845 224.75 165.795C225.412 165.752 226.004 166.174 226.247 166.781C226.373 166.556 226.502 166.331 226.629 166.108C223.311 167.428 219.847 168.359 216.309 168.844C216.486 168.892 216.663 168.938 216.843 168.986C216.56 168.637 216.547 168.081 216.608 167.658C216.683 167.145 216.896 166.667 217.262 166.295C217.682 165.868 218.233 165.618 218.787 165.41C219.498 165.145 220.211 164.897 220.924 164.639C222.368 164.118 223.807 163.537 225.276 163.094C226.409 162.753 227.746 162.588 228.591 163.59C229.263 164.386 229.61 165.704 229.089 166.659C229.428 166.751 229.769 166.844 230.108 166.935C230.3 162.378 230.788 157.835 231.587 153.344C232.379 148.903 233.463 144.516 234.857 140.228C235.623 137.869 236.485 135.542 237.441 133.254C237.555 132.981 237.317 132.652 237.059 132.581C236.74 132.493 236.498 132.687 236.384 132.963Z" fill="black"/>
	<path d="M161.877 164.914C166.366 163.056 171.061 161.708 175.866 160.972C177.211 160.765 178.566 160.613 179.924 160.504C180.175 160.484 180.374 160.347 180.453 160.102C181.692 156.15 182.928 152.198 184.167 148.245C185.371 144.402 186.666 140.571 187.69 136.672C188.256 134.515 188.706 132.333 188.967 130.115C189.002 129.812 188.686 129.579 188.418 129.566C187.862 129.541 187.305 129.516 186.749 129.493C186.529 129.483 186.261 129.668 186.221 129.895C185.419 134.353 184.615 138.809 183.813 143.266C183.621 144.341 183.442 145.418 183.232 146.488C183.161 146.845 183.098 147.317 182.847 147.603C182.567 147.927 182.099 147.719 181.757 147.626C180.951 147.403 180.19 147.413 179.459 147.861C178.761 148.288 178.225 148.969 177.851 149.687C176.781 151.737 176.882 154.188 176.958 156.433C176.968 156.739 177.201 156.967 177.507 156.982C185.803 157.366 194.107 157.622 202.411 157.743C210.665 157.864 218.921 157.854 227.174 157.713C228.231 157.695 229.334 157.758 230.383 157.629C231.448 157.498 231.989 156.757 232.315 155.796C232.669 154.754 232.947 153.684 233.261 152.63C233.597 151.492 233.933 150.357 234.27 149.219C234.371 148.872 234.09 148.531 233.741 148.526C227.253 148.448 220.764 148.584 214.283 148.941C211.016 149.12 207.752 149.358 204.492 149.649C202.874 149.793 201.256 149.952 199.64 150.124C198.32 150.266 197 150.435 195.673 150.503C194.34 150.572 192.99 150.544 191.69 150.215C190.327 149.871 189.121 149.191 188.14 148.182C188.011 148.493 187.882 148.804 187.753 149.118C195.549 148.716 203.347 148.311 211.143 147.909C215.029 147.709 218.916 147.507 222.8 147.307C223.677 147.262 224.575 147.267 225.445 147.148C226.175 147.047 226.828 146.695 227.169 146.015C227.553 145.251 227.548 144.329 227.591 143.494C227.642 142.561 227.667 141.625 227.71 140.692C227.796 138.715 227.938 136.717 228.542 134.818C229.012 133.344 229.781 131.766 231.164 130.96C230.896 130.851 230.628 130.742 230.36 130.633C230.987 132.398 230.891 134.287 230.525 136.098C230.335 137.036 230.077 137.961 229.791 138.874C229.526 139.724 229.275 140.601 228.906 141.41C228.57 142.144 228.12 142.761 227.336 143.041C226.446 143.36 225.445 143.449 224.514 143.58C222.479 143.866 220.423 144.015 218.367 144.088C214.225 144.237 210.083 144.063 205.944 143.942C201.721 143.818 197.496 143.798 193.273 143.909C188.542 144.033 183.816 144.313 179.102 144.741C179.285 144.923 179.467 145.105 179.651 145.289C179.803 141.112 180.625 136.965 182.16 133.071C181.983 133.205 181.808 133.339 181.631 133.473C188.709 133.736 195.791 133.89 202.874 133.931C209.98 133.971 217.087 133.898 224.193 133.711C228.178 133.607 232.166 133.466 236.148 133.289C236.851 133.258 236.854 132.163 236.148 132.194C229.073 132.505 221.99 132.707 214.908 132.795C207.802 132.884 200.694 132.859 193.589 132.72C189.601 132.641 185.616 132.527 181.631 132.381C181.371 132.371 181.191 132.56 181.103 132.783C179.535 136.763 178.711 141.019 178.556 145.292C178.546 145.568 178.817 145.866 179.105 145.838C187.786 145.049 196.507 144.781 205.218 145.019C209.479 145.135 213.742 145.332 218.003 145.198C220.157 145.13 222.307 144.973 224.441 144.688C226.251 144.445 228.35 144.346 229.46 142.68C229.999 141.871 230.284 140.895 230.585 139.979C230.932 138.927 231.253 137.865 231.496 136.783C231.966 134.672 232.153 132.416 231.415 130.343C231.298 130.014 230.934 129.827 230.611 130.016C227.918 131.589 227.103 135.195 226.797 138.052C226.598 139.908 226.593 141.777 226.489 143.638C226.454 144.291 226.524 145.353 225.96 145.82C225.743 146 225.445 146.058 225.171 146.086C224.729 146.131 224.281 146.136 223.836 146.159C216.139 146.556 208.442 146.956 200.745 147.353C196.413 147.578 192.082 147.8 187.75 148.025C187.283 148.051 187.022 148.609 187.363 148.961C189.194 150.842 191.667 151.578 194.239 151.629C195.47 151.654 196.699 151.543 197.92 151.409C199.546 151.232 201.172 151.057 202.801 150.903C209.363 150.278 215.945 149.876 222.534 149.702C226.269 149.603 230.004 149.578 233.738 149.623C233.561 149.393 233.387 149.161 233.21 148.931C232.636 150.873 232.059 152.815 231.485 154.757C231.286 155.432 231.134 156.413 230.307 156.544C229.915 156.608 229.493 156.58 229.098 156.587C228.555 156.597 228.011 156.608 227.467 156.618C223.414 156.688 219.361 156.726 215.307 156.734C207.251 156.749 199.192 156.64 191.139 156.405C186.592 156.274 182.046 156.102 177.502 155.892C177.684 156.074 177.866 156.256 178.051 156.441C177.985 154.486 177.833 152.276 178.69 150.455C179.011 149.775 179.479 149.065 180.175 148.721C180.931 148.344 181.629 148.85 182.402 148.88C183.353 148.915 183.907 148.185 184.155 147.353C184.453 146.344 184.564 145.259 184.751 144.225C185.146 142.033 185.54 139.84 185.935 137.65C186.382 135.167 186.83 132.682 187.277 130.199C187.1 130.333 186.926 130.467 186.749 130.601C187.305 130.626 187.862 130.651 188.418 130.674C188.236 130.492 188.054 130.31 187.869 130.125C187.412 134.019 186.289 137.792 185.126 141.524C183.912 145.413 182.691 149.297 181.474 153.184C180.781 155.394 180.089 157.606 179.396 159.816C179.573 159.682 179.747 159.548 179.924 159.414C175.044 159.806 170.222 160.797 165.582 162.363C164.234 162.818 162.902 163.321 161.589 163.865C161.314 163.978 161.124 164.226 161.207 164.537C161.273 164.79 161.604 165.028 161.877 164.914Z" fill="black"/>
	<path d="M282.366 13.6308C283.751 13.7977 285.271 13.608 286.525 12.9657C287.094 12.675 287.592 12.2097 287.777 11.5826C287.972 10.9277 287.769 10.1969 287.383 9.65325C286.662 8.6418 285.479 8.15377 284.285 7.97171C282.95 7.76942 281.584 7.79976 280.237 7.76689C278.684 7.72896 277.132 7.69103 275.581 7.6531C274.17 7.6177 272.744 7.52414 271.336 7.62023C270.024 7.71126 268.615 7.98941 267.571 8.84156C266.678 9.57233 266.028 10.8872 266.655 11.9897C267.391 13.2844 269.088 13.1605 270.36 13.1402C272.102 13.1124 273.847 13.0821 275.589 13.0542C276.401 13.0416 276.403 11.7773 275.589 11.7899C274.262 11.8127 272.931 11.8329 271.604 11.8557C270.926 11.8658 270.246 11.881 269.568 11.8886C269.126 11.8936 268.663 11.8936 268.243 11.7394C267.422 11.441 267.621 10.6167 268.104 10.0806C268.795 9.31441 269.915 9.02868 270.906 8.92247C272.102 8.79351 273.313 8.86179 274.514 8.89213C275.857 8.925 277.2 8.95787 278.54 8.99075C279.86 9.02362 281.182 9.0489 282.502 9.08936C283.448 9.11718 284.485 9.15763 285.352 9.57739C286.093 9.93645 287.185 11.0136 286.174 11.709C285.673 12.0554 285.031 12.2122 284.442 12.3235C283.759 12.4524 283.056 12.4499 282.368 12.3665C282.029 12.326 281.736 12.6851 281.736 12.9986C281.734 13.3729 282.027 13.5878 282.366 13.6308Z" fill="black"/>
	<path d="M269.143 88.6715C257.023 88.9092 244.845 89.1267 232.791 87.6323C226.722 86.8813 220.699 85.6751 214.858 83.857C213.366 83.3918 211.89 82.8886 210.425 82.3449C209.068 81.8392 207.533 81.3916 206.357 80.5167C205.179 79.6393 204.62 78.2131 204.109 76.8856C203.616 75.6011 203.11 74.3266 202.544 73.0724C200.018 67.4715 196.551 62.2676 192.159 57.9563C191.984 58.2572 191.81 58.5581 191.633 58.859C203.168 62.2272 214.337 66.7028 225.39 71.3858C236.397 76.0486 247.321 80.9238 258.497 85.1795C260.083 85.7838 261.673 86.3756 263.271 86.9521C264.51 87.3996 265.777 87.7891 266.961 88.3732C269.138 89.4504 270.994 91.1597 271.072 93.7339C271.252 93.5543 271.431 93.3748 271.611 93.1953C261.82 93.4456 252.019 93.261 242.246 92.6288C232.356 91.9891 222.497 90.8993 212.706 89.3593C211.546 89.1773 210.38 89.0104 209.227 88.7879C208.165 88.583 207.234 88.1987 206.61 87.2732C206.021 86.3983 205.694 85.3717 205.323 84.3931C204.943 83.3918 204.544 82.398 204.127 81.4144C202.438 77.4192 200.44 73.5529 198.121 69.8889C196.996 68.1138 195.797 66.3842 194.523 64.7128C193.916 63.9188 193.294 63.1349 192.654 62.3662C192.03 61.6152 191.408 60.7429 190.614 60.1613C189.822 59.5797 188.955 59.648 188.093 60.0374C186.98 60.5406 185.921 61.2107 184.853 61.8049C182.767 62.968 180.686 64.1439 178.615 65.3348C170.276 70.1241 162.063 75.1282 153.979 80.3372C152.962 80.9921 151.948 81.6495 150.937 82.312C150.591 82.5371 150.573 83.2249 151.066 83.2982C158.945 84.4765 166.91 83.8975 174.744 82.6458C178.742 82.0061 182.709 81.1995 186.672 80.3701C190.657 79.5356 194.677 78.5899 198.771 78.6051C199.952 78.6101 200.657 78.8377 201.08 80.0211C201.434 81.0149 201.649 82.0718 201.919 83.0883C202.529 85.3767 203.138 87.6626 203.745 89.951C203.919 89.7234 204.091 89.4959 204.266 89.2683C190.293 88.0748 176.241 87.7941 162.293 89.4579C158.194 89.946 154.113 90.5908 150.06 91.3772C150.262 91.6427 150.467 91.9057 150.669 92.1712C151.984 90.262 151.612 87.5842 150.515 85.6625C149.202 83.364 146.714 82.5346 144.18 82.5422C141.599 82.5523 138.969 82.9417 136.428 83.3918C134.134 83.7989 131.841 84.0391 129.535 84.3552C127.866 84.5828 127.55 85.842 127.58 87.339C127.623 89.3214 127.671 91.3038 127.717 93.2863C127.722 93.5214 127.881 93.7465 128.114 93.8072C129.193 94.0904 130.399 94.0272 131.502 94.0145C133.398 93.9918 135.292 93.8881 137.184 93.7693C139.202 93.6428 141.214 93.4911 143.23 93.3242C144.272 93.2382 145.366 93.218 146.332 92.7755C147.081 92.4316 147.741 91.888 148.244 91.2381C149.513 89.5995 149.761 87.4173 149.966 85.4223C150.037 84.7319 148.957 84.737 148.886 85.4223C148.717 87.0861 148.522 88.9244 147.564 90.348C147.114 91.0181 146.446 91.5972 145.682 91.8829C144.762 92.2293 143.69 92.2091 142.719 92.2875C139.161 92.5757 135.593 92.8539 132.023 92.9272C130.855 92.95 129.542 93.0663 128.399 92.7679C128.531 92.9424 128.662 93.1143 128.796 93.2888C128.763 91.8146 128.728 90.3379 128.695 88.8637C128.68 88.1608 128.632 87.4527 128.655 86.7498C128.68 85.9002 128.961 85.5133 129.798 85.4096C131.851 85.1567 133.891 84.9494 135.927 84.5802C137.95 84.2136 139.975 83.9354 142.024 83.7534C144.345 83.546 147.131 83.3817 148.874 85.2427C150.376 86.8459 151.036 89.7386 149.733 91.6326C149.443 92.0523 149.92 92.5075 150.343 92.4266C164.238 89.7235 178.37 88.9472 192.497 89.5743C196.424 89.7487 200.346 90.0218 204.263 90.3556C204.62 90.386 204.868 89.9864 204.784 89.6729C204.225 87.5691 203.664 85.4627 203.103 83.3589C202.86 82.4435 202.62 81.5282 202.372 80.6128C202.162 79.839 201.939 78.9844 201.388 78.3724C200.253 77.1157 198.023 77.5051 196.528 77.6139C194.467 77.7656 192.422 78.1069 190.396 78.5039C182.097 80.1298 173.867 82.0819 165.406 82.6888C160.723 83.0251 156.002 82.9594 151.352 82.264C151.395 82.5927 151.438 82.9214 151.481 83.2502C159.504 78.0108 167.656 72.9688 175.932 68.1416C180.006 65.7672 184.075 63.2867 188.28 61.1525C188.952 60.8111 189.554 60.6594 190.169 61.1929C190.553 61.5267 190.874 61.9389 191.205 62.3232C191.878 63.1046 192.53 63.9011 193.165 64.7103C194.477 66.3893 195.709 68.1315 196.862 69.9243C199.183 73.5276 201.193 77.3307 202.898 81.2652C203.747 83.2274 204.347 85.3515 205.338 87.2454C205.76 88.0546 206.337 88.7828 207.143 89.2329C207.99 89.7057 208.956 89.8474 209.899 90.0041C219.45 91.582 229.069 92.7426 238.721 93.4709C248.441 94.2042 258.194 94.5026 267.939 94.3584C269.163 94.3407 270.387 94.3154 271.611 94.2826C271.896 94.275 272.159 94.0423 272.149 93.744C272 88.6968 266.869 87.124 262.93 85.6928C257.119 83.5789 251.382 81.2677 245.68 78.8807C234.278 74.1092 223.005 69.0292 211.48 64.556C205.052 62.0603 198.543 59.7617 191.924 57.8299C191.405 57.6782 191.016 58.3558 191.398 58.7326C195.405 62.6621 198.609 67.3426 201.039 72.3948C201.687 73.7375 202.276 75.108 202.809 76.4987C203.295 77.7605 203.735 79.0906 204.541 80.1905C205.318 81.2526 206.385 81.8898 207.578 82.393C208.999 82.9897 210.451 83.5258 211.907 84.0315C223.595 88.0874 235.99 89.4832 248.299 89.8297C255.245 90.0244 262.197 89.8979 269.143 89.7614C269.836 89.7386 269.838 88.6589 269.143 88.6715Z" fill="black"/>
	<path d="M190.474 57.7699C186.226 58.4982 182.426 60.7234 178.678 62.7311C174.744 64.8375 170.744 66.8275 166.7 68.7189C162.859 70.5167 158.978 72.2236 155.074 73.8798C151.185 75.5285 147.275 77.1291 143.364 78.7247C139.32 80.3759 135.274 82.0296 131.249 83.7238C130.723 83.9463 130.194 84.1688 129.669 84.3913C129.4 84.5051 129.342 84.9021 129.474 85.1297C129.636 85.4078 129.942 85.4382 130.212 85.3244C134.253 83.61 138.316 81.9461 142.377 80.2848C146.269 78.6943 150.163 77.1089 154.037 75.4779C157.941 73.8343 161.828 72.1502 165.676 70.3777C169.666 68.5394 173.616 66.61 177.508 64.5719C181.303 62.5819 185.045 60.2227 189.233 59.1405C189.739 59.009 190.247 58.9002 190.76 58.8143C191.048 58.7662 191.208 58.4122 191.137 58.1492C191.056 57.8433 190.763 57.7219 190.474 57.7699Z" fill="black"/>
	<path d="M202.108 189.006C203.41 189.039 204.713 189.069 206.015 189.102C206.285 189.11 206.581 188.849 206.553 188.564C206.387 186.819 206.222 185.077 206.055 183.332C205.924 183.506 205.792 183.678 205.658 183.853C211.284 182.71 217.05 182.814 222.749 182.389C225.642 182.174 228.525 181.81 231.349 181.129C232.758 180.791 234.151 180.399 235.564 180.078C236.985 179.754 238.422 179.521 239.866 179.332C243.133 178.902 246.407 178.525 249.677 178.123C249.497 177.943 249.318 177.764 249.138 177.584C249.27 178.568 249.401 179.554 249.535 180.538C249.661 181.489 249.747 182.457 249.924 183.398C249.998 183.792 250.18 184.202 250.546 184.407C250.926 184.616 251.338 184.556 251.745 184.495C252.719 184.351 253.695 184.204 254.668 184.06C254.982 184.015 255.083 183.656 255.045 183.395C254.347 178.449 253.763 173.485 253.29 168.512C252.817 163.518 252.456 158.511 252.21 153.502C252.071 150.67 251.968 147.838 251.899 145.003C251.882 144.31 250.802 144.308 250.82 145.003C250.941 150.065 251.176 155.125 251.525 160.177C251.874 165.197 252.337 170.211 252.913 175.21C253.239 178.04 253.604 180.864 254.003 183.686C254.13 183.463 254.253 183.243 254.38 183.021C253.568 183.142 252.756 183.264 251.945 183.385C251.743 183.415 251.54 183.456 251.335 183.476C251.27 183.484 251.148 183.514 251.09 183.479C250.903 183.367 250.911 182.758 250.885 182.573C250.663 180.912 250.44 179.251 250.218 177.589C250.182 177.329 249.998 177.01 249.679 177.051C246.756 177.41 243.83 177.764 240.907 178.125C239.451 178.308 237.992 178.497 236.551 178.773C235.109 179.048 233.691 179.428 232.267 179.792C229.453 180.513 226.616 180.985 223.72 181.236C220.845 181.484 217.963 181.569 215.082 181.724C211.828 181.898 208.569 182.166 205.37 182.816C205.158 182.859 204.953 183.114 204.973 183.337C205.14 185.082 205.304 186.824 205.471 188.569C205.651 188.389 205.83 188.21 206.01 188.03C204.708 187.997 203.405 187.967 202.103 187.934C201.413 187.909 201.413 188.988 202.108 189.006Z" fill="black"/>
	<path d="M252.214 172.055C247.283 171.698 242.347 172.275 237.5 173.16C232.615 174.052 227.798 175.264 222.925 176.212C218.133 177.145 213.261 177.823 208.368 177.61C207.736 177.582 207.106 177.542 206.476 177.484C206.198 177.459 205.918 177.443 205.642 177.398C205.581 177.388 205.49 177.337 205.533 177.398C205.473 177.314 205.485 177.122 205.475 177.019C205.359 175.686 205.255 174.353 205.159 173.018C204.982 170.535 204.84 168.05 204.752 165.561C204.575 160.6 204.623 155.636 204.833 150.678C204.861 150.018 204.891 149.355 204.924 148.695C204.959 148 203.879 148.003 203.844 148.695C203.591 153.803 203.485 158.916 203.624 164.029C203.692 166.522 203.814 169.015 203.976 171.504C204.064 172.849 204.163 174.192 204.271 175.537C204.325 176.197 204.327 176.892 204.456 177.545C204.588 178.207 205.088 178.417 205.695 178.485C210.666 179.054 215.693 178.571 220.606 177.732C225.611 176.877 230.536 175.64 235.513 174.642C240.403 173.661 245.372 172.904 250.373 173.044C250.988 173.061 251.6 173.092 252.214 173.137C252.907 173.185 252.905 172.105 252.214 172.055Z" fill="black"/>
	<path d="M215.291 90.0874C215.038 90.4312 214.755 90.7827 214.432 91.1721C214.032 91.6526 213.622 92.1254 213.208 92.5958C212.249 93.6881 211.273 94.7653 210.3 95.845C208.507 97.8376 206.684 99.8175 205.187 102.05C204.648 102.854 204.178 103.696 203.827 104.602C203.47 105.52 203.273 106.483 203.144 107.456C202.876 109.49 202.934 111.558 202.919 113.606C202.888 117.986 202.858 122.365 202.828 126.745C202.797 131.124 202.767 135.504 202.737 139.884C202.732 140.43 202.729 140.979 202.727 141.525C202.722 142.22 203.801 142.22 203.806 141.525C203.837 137.188 203.867 132.849 203.897 128.512C203.928 124.153 203.958 119.796 203.988 115.437C204.004 113.351 203.963 111.254 204.072 109.168C204.173 107.242 204.507 105.358 205.46 103.659C206.808 101.259 208.641 99.3067 210.495 97.2408C212.272 95.2584 214.121 93.3215 215.769 91.2303C215.923 91.0331 216.078 90.8358 216.224 90.6335C216.396 90.3984 216.265 90.0317 216.03 89.8952C215.757 89.7359 215.463 89.8522 215.291 90.0874Z" fill="black"/>
	<path d="M186.524 89.2418C188.694 91.5707 190.689 94.0538 192.507 96.6659C193.445 98.0136 194.335 99.3942 195.18 100.803C195.996 102.166 197.025 103.599 197.167 105.223C197.314 106.922 197.096 108.684 197.048 110.386C196.998 112.184 196.965 113.982 196.955 115.78C196.929 119.343 196.975 122.905 197.068 126.468C197.256 133.634 197.632 140.79 198.002 147.949C198.371 155.107 198.735 162.269 198.897 169.437C198.978 173.003 199.008 176.568 198.962 180.136C198.924 183.12 198.436 186.89 200.616 189.305C201.031 189.765 201.547 190.106 202.138 190.283C202.806 190.483 203.089 189.441 202.424 189.241C201.119 188.849 200.502 187.287 200.242 186.078C199.873 184.366 200.004 182.573 200.032 180.834C200.085 177.301 200.065 173.769 199.992 170.236C199.847 163.136 199.496 156.041 199.132 148.948C198.768 141.857 198.386 134.765 198.181 127.667C198.077 124.104 198.019 120.541 198.027 116.978C198.037 113.461 198.181 109.954 198.27 106.439C198.29 105.622 198.262 104.785 198.039 103.996C197.832 103.263 197.46 102.59 197.089 101.93C196.29 100.517 195.448 99.1313 194.56 97.7734C192.836 95.1386 190.939 92.6125 188.873 90.233C188.357 89.6363 187.829 89.0522 187.29 88.4756C186.812 87.9699 186.051 88.7335 186.524 89.2418Z" fill="black"/>
	<path d="M162.872 90.2607C161.979 91.0167 161.182 91.8866 160.411 92.7615C159.438 93.864 158.507 95.0044 157.604 96.1676C156.747 97.2751 155.913 98.4003 155.126 99.5584C154.239 100.871 153.455 102.251 152.643 103.609C151.462 105.582 150.284 107.551 149.103 109.524C148.747 110.121 149.68 110.664 150.036 110.067C151.088 108.31 152.138 106.555 153.189 104.798C154.054 103.351 154.886 101.875 155.814 100.469C157.339 98.1601 159.051 95.9627 160.864 93.8741C161.729 92.8778 162.621 91.879 163.633 91.0243C164.166 90.5742 163.4 89.8131 162.872 90.2607Z" fill="black"/>
	<path d="M149.064 110.057C149.084 115.16 149.102 120.26 149.122 125.363C149.142 130.488 149.16 135.614 149.18 140.742C149.2 145.844 149.218 150.945 149.238 156.047C149.259 161.173 149.276 166.298 149.297 171.427C149.307 173.978 149.317 176.529 149.324 179.078C149.327 179.68 149.35 180.287 149.327 180.889C149.309 181.331 149.256 181.683 148.793 181.812C147.592 182.145 146.373 182.421 145.165 182.724C144.553 182.879 143.941 183.033 143.329 183.187C142.656 183.357 142.942 184.398 143.615 184.229C144.864 183.915 146.111 183.602 147.36 183.288C147.961 183.137 148.584 183.015 149.178 182.828C149.668 182.674 150.043 182.373 150.235 181.89C150.429 181.399 150.414 180.851 150.412 180.335C150.409 179.698 150.407 179.06 150.404 178.421C150.399 177.121 150.394 175.821 150.389 174.522C150.369 169.297 150.348 164.073 150.331 158.849C150.311 153.65 150.29 148.449 150.273 143.25C150.252 138.051 150.232 132.85 150.214 127.651C150.194 122.427 150.174 117.203 150.156 111.979C150.154 111.341 150.151 110.704 150.149 110.064C150.141 109.364 149.061 109.361 149.064 110.057Z" fill="black"/>
	<path d="M143.858 183.709C143.868 182.369 144.156 181.037 144.26 179.701C144.293 179.279 144.374 178.71 144.138 178.328C143.774 177.729 143.162 178.101 142.851 178.513C143.162 178.695 143.473 178.877 143.784 179.057C144.204 178.43 144.128 177.464 144.1 176.748C144.063 175.752 143.944 174.763 143.845 173.772C143.729 172.588 143.777 171.395 143.777 170.209C143.777 168.525 143.777 166.838 143.782 165.154C143.795 158.345 143.82 151.535 143.85 144.723C143.88 137.891 143.916 131.061 143.954 124.228C143.964 122.598 144.002 120.974 144.083 119.346C144.161 117.763 144.24 116.175 144.171 114.589C144.06 112.018 143.372 109.671 142.196 107.388C139.782 102.702 136.11 98.7298 132.562 94.8863C132.186 94.4792 131.809 94.0721 131.435 93.665C130.964 93.1516 130.201 93.9178 130.671 94.4286C134.102 98.1583 137.658 101.87 140.302 106.225C141.534 108.25 142.614 110.473 142.945 112.845C143.37 115.897 142.96 119.004 142.894 122.064C142.821 125.409 142.851 128.757 142.834 132.103C142.816 135.473 142.798 138.844 142.783 142.215C142.753 148.913 142.727 155.614 142.71 162.312C142.702 165.622 142.695 168.935 142.702 172.245C142.705 174.083 143.135 175.914 143.023 177.754C143.006 178.035 142.97 178.336 142.856 178.508C142.462 179.097 143.382 179.595 143.789 179.052C143.81 179.026 143.83 179.047 143.797 179.034C143.655 178.983 143.446 179.085 143.294 178.948C143.286 178.943 143.16 178.804 143.193 178.819C143.238 178.839 143.208 178.908 143.208 178.91C143.213 178.988 143.213 179.067 143.213 179.143C143.21 179.628 143.15 180.114 143.094 180.597C142.975 181.626 142.791 182.665 142.783 183.704C142.773 184.405 143.853 184.405 143.858 183.709Z" fill="black"/>
	<path d="M155.217 93.0671C155.29 92.7788 155.394 92.4273 155.235 92.1492C155.03 91.7952 154.567 91.8002 154.299 92.0657C153.955 92.4021 153.743 92.9052 153.505 93.3174C153.025 94.1519 152.451 94.9433 151.922 95.75C151.277 96.7336 150.633 97.7147 149.988 98.6983C149.252 99.821 148.514 100.944 147.778 102.066C148.114 102.157 148.448 102.249 148.784 102.34C148.736 100.926 148.443 99.5126 148.182 98.1243C147.881 96.5212 147.548 94.9231 147.315 93.3098C147.214 92.6145 147.135 91.9115 147.143 91.2085C147.153 90.5132 146.073 90.5132 146.063 91.2085C146.046 92.6195 146.326 94.0431 146.577 95.4238C146.867 97.0294 147.204 98.6275 147.467 100.238C147.58 100.934 147.682 101.632 147.704 102.337C147.725 102.883 148.417 103.058 148.711 102.61C150.046 100.575 151.384 98.539 152.719 96.5035C153.285 95.6412 153.9 94.7916 154.418 93.899C154.547 93.679 154.668 93.4565 154.797 93.2365C154.86 93.1303 154.924 93.0241 154.992 92.923C155.007 92.8977 155.025 92.8749 155.042 92.8496C155.08 92.7991 155.073 92.8066 155.027 92.8699C155.04 92.8547 155.053 92.8395 155.068 92.8269C154.982 92.9027 154.881 92.9432 154.759 92.9457C154.668 92.9204 154.577 92.8977 154.486 92.8724C154.489 92.8749 154.491 92.8749 154.496 92.8774C154.431 92.8117 154.367 92.7485 154.302 92.6827C154.259 92.6246 154.264 92.5487 154.246 92.483C154.269 92.5588 154.269 92.4147 154.248 92.4804C154.218 92.5765 154.205 92.6802 154.183 92.7788C154.006 93.454 155.048 93.7422 155.217 93.0671Z" fill="black"/>
	<path d="M150.552 140.578C157.288 140.375 164.027 140.247 170.761 140.049C177.687 139.847 184.613 139.582 191.523 139.096C195.218 138.836 198.905 138.509 202.584 138.079C202.872 138.047 203.122 137.854 203.122 137.541C203.122 137.275 202.874 136.967 202.584 137.002C195.895 137.786 189.172 138.231 182.448 138.545C175.525 138.868 168.594 139.043 161.663 139.212C157.958 139.303 154.254 139.392 150.55 139.503C149.859 139.518 149.857 140.598 150.552 140.578Z" fill="black"/>
	<path d="M196.038 89.0931C196.336 90.4308 197.125 91.6749 197.866 92.8077C198.759 94.1731 199.75 95.4754 200.769 96.7498C201.217 97.3061 201.672 97.8573 202.135 98.401C202.314 98.6109 202.721 98.6109 202.898 98.401C204.936 95.9963 207.025 93.6371 209.088 91.2526C209.559 90.7089 210.026 90.1678 210.489 89.6191C210.937 89.0931 210.176 88.3244 209.726 88.8554C207.687 91.2602 205.599 93.6194 203.535 96.0039C203.065 96.5475 202.597 97.0886 202.135 97.6374C202.39 97.6374 202.643 97.6374 202.898 97.6374C201.035 95.4526 199.168 93.1566 197.811 90.6154C197.497 90.0287 197.224 89.4572 197.08 88.8074C196.928 88.1272 195.889 88.4155 196.038 89.0931Z" fill="black"/>
	<path d="M204.072 142.516C210.457 141.939 216.855 141.499 223.26 141.201C229.536 140.908 235.837 140.675 242.123 140.728C245.211 140.753 248.417 140.994 251.181 142.496C251.793 142.827 252.336 141.896 251.724 141.562C249.218 140.202 246.371 139.785 243.557 139.679C240.482 139.562 237.39 139.674 234.312 139.739C227.862 139.881 221.414 140.162 214.973 140.584C211.335 140.822 207.701 141.107 204.07 141.434C203.779 141.459 203.531 141.664 203.531 141.972C203.534 142.248 203.782 142.541 204.072 142.516Z" fill="black"/>
	<path d="M204.884 137.776C209.722 138.186 214.584 138.024 219.421 137.718C224.274 137.41 229.119 136.957 233.981 136.793C236.722 136.699 239.468 136.702 242.207 136.868C242.485 136.886 242.763 136.608 242.745 136.33C242.581 133.569 242.419 130.807 242.255 128.044C242.214 127.353 241.135 127.348 241.175 128.044C241.34 130.805 241.501 133.566 241.666 136.33C241.845 136.15 242.025 135.971 242.204 135.791C237.354 135.495 232.494 135.726 227.652 136.059C222.805 136.393 217.96 136.825 213.097 136.927C210.356 136.985 207.615 136.932 204.882 136.702C204.194 136.638 204.197 137.718 204.884 137.776Z" fill="black"/>
	<path d="M143.297 183C134.475 183 125.658 183 116.837 183C107.379 183 97.9212 183 88.4633 183C78.7643 183 69.0653 183 59.3624 183C49.8136 183 40.2609 183 30.7122 183C21.8237 183 12.9392 183 4.05081 183C3.01883 183 1.98685 183 0.954875 183C-0.318292 183 -0.318292 184.264 0.954875 184.264C9.7761 184.264 18.5934 184.264 27.4146 184.264C36.8724 184.264 46.3302 184.264 55.788 184.264C65.487 184.264 75.186 184.264 84.889 184.264C94.4377 184.264 103.99 184.264 113.539 184.264C122.428 184.264 131.312 184.264 140.201 184.264C141.233 184.264 142.265 184.264 143.297 184.264C144.57 184.264 144.574 183 143.297 183Z" fill="black"/>
	<path d="M136.483 94.2265C138.832 96.2342 140.819 98.6212 142.362 101.297C142.645 101.787 143.328 101.534 143.368 101.023C143.581 98.3153 143.525 95.5945 143.206 92.899C143.171 92.6107 142.984 92.3604 142.668 92.3604C142.402 92.3604 142.094 92.6082 142.129 92.899C142.448 95.5945 142.503 98.3153 142.291 101.023C142.627 100.932 142.961 100.841 143.297 100.75C141.712 97.9992 139.661 95.5237 137.249 93.4603C136.72 93.0127 135.954 93.7739 136.483 94.2265Z" fill="black"/>
	<path d="M150.552 177.097C155.26 176.872 159.958 176.503 164.644 175.989C164.935 175.956 165.182 175.764 165.182 175.451C165.182 175.183 164.935 174.879 164.644 174.912C159.958 175.425 155.26 175.795 150.552 176.02C149.859 176.05 149.856 177.13 150.552 177.097Z" fill="black"/>
	<path d="M149.995 171.841C154.468 172.2 158.967 172.01 163.397 171.305C163.685 171.259 163.845 170.9 163.774 170.64C163.69 170.334 163.4 170.217 163.109 170.263C158.777 170.953 154.367 171.11 149.995 170.761C149.302 170.705 149.305 171.785 149.995 171.841Z" fill="black"/>
	<path d="M150.513 147.469C157.965 147.077 165.113 144.693 172.512 143.929C174.598 143.714 176.699 143.636 178.795 143.767C179.488 143.81 179.486 142.731 178.795 142.688C171.323 142.22 164.066 144.425 156.771 145.659C154.698 146.01 152.612 146.278 150.513 146.387C149.82 146.425 149.817 147.505 150.513 147.469Z" fill="black"/>
</svg>