<svg width="274" height="162" viewBox="0 0 274 162" fill="none" xmlns="http://www.w3.org/2000/svg">
<path d="M1.66933 157.274C8.78114 158.597 26.5567 158.012 33.7905 157.873C33.6642 158.177 33.5379 158.483 33.4116 158.787C32.2405 157.389 31.4185 155.788 30.9967 154.011C30.894 153.577 31.3735 153.146 31.7824 153.407C32.9149 154.125 33.737 152.093 33.9425 151.275C34.3578 149.61 34.36 147.736 34.4905 146.03C34.7581 142.521 34.8823 139.002 34.863 135.482C34.8523 133.671 34.8031 131.86 34.7175 130.051C34.649 128.619 34.6211 127.073 33.9853 125.757C33.4886 124.729 32.1228 124.057 32.0008 122.869C31.9001 121.877 32.6494 121.306 33.4886 120.993C34.6918 120.546 35.76 120.428 36.2417 119.056C36.7491 117.613 36.7726 115.945 36.9054 114.436C37.2179 110.925 37.325 107.399 37.3335 103.875C37.3485 96.817 37.0745 89.7523 36.8519 82.7004C36.4066 68.5603 35.5181 54.4416 34.6982 40.3186C34.4884 36.7092 34.0945 33.179 33.5015 29.6124C32.9384 26.2299 32.4696 22.8324 32.035 19.4306C31.8209 17.7608 31.4334 16.0053 31.412 14.3205C31.3971 13.0746 32.2619 12.3381 33.3217 11.8629C34.5248 11.3234 35.6701 10.8395 36.6827 9.96608C37.6782 9.10547 38.496 8.06075 39.0933 6.88759C39.7163 5.66732 40.1123 4.26294 40.1102 2.88639C40.1081 1.47773 39.0762 0.76484 37.7532 1.22298C36.3531 1.70894 36.0191 3.25675 36.2674 4.57978C36.5607 6.1383 37.5219 7.41637 38.4125 8.68159C39.2389 9.8569 39.9668 11.0558 40.3971 12.4366C40.7974 13.7189 40.9558 15.0719 41.0072 16.41C41.1207 19.2444 40.7268 22.081 40.9387 24.9133C41.0479 26.3583 41.3412 27.7884 41.9492 29.1114C41.6687 29.075 41.3883 29.0387 41.1078 29.0023C43.6875 26.8336 42.7734 22.8581 42.4308 19.9509C42.0776 16.973 41.8079 13.5241 44.4818 11.5139C44.7494 11.3127 45.2053 11.5203 45.2674 11.8329C46.2479 16.7418 47.2584 21.9611 45.5971 26.8422C44.2612 30.7684 41.2256 34.0589 36.9482 34.5299C34.7432 34.7718 32.5295 34.1788 30.8554 32.7016C30.5364 32.419 30.7334 31.9266 31.0909 31.8067C34.3749 30.7106 37.7895 30.0427 41.247 29.8436C42.448 29.773 43.6747 29.8564 44.7087 30.5501C45.5607 31.1217 45.9182 31.9694 45.4965 32.9307C45.4173 33.1083 45.2096 33.179 45.0341 33.1961C42.904 33.4016 41.3476 35.5874 41.4396 37.6533C41.4953 38.8928 42.3452 39.6721 42.7905 40.7618C43.3171 42.0548 42.6107 42.7849 41.9406 43.8125C41.1613 45.0113 41.2405 46.6833 41.1463 48.0556C41.0372 49.6569 40.9601 51.2625 40.9109 52.8681C40.8145 56.0301 40.8274 59.1964 40.9109 62.3584C41.2534 75.1926 42.7712 87.9669 43.0324 100.808C43.1758 107.915 42.9082 115.029 41.8742 122.07C41.613 121.869 41.3497 121.668 41.0886 121.466C42.4801 120.625 44.2463 121.687 44.6316 123.162C44.8414 123.971 44.5374 124.725 43.9316 125.275C43.5291 125.641 43.0388 125.894 42.6321 126.253C42.1483 126.681 41.8764 127.244 41.7244 127.865C41.4332 129.056 41.5403 130.336 41.5531 131.548C41.5702 132.995 41.5852 134.442 41.6023 135.889C41.6366 138.835 41.6687 141.783 41.703 144.729C41.7222 146.383 41.7415 148.036 41.7608 149.691C41.7672 150.205 41.5981 153.523 42.7884 153.041C43.1073 152.913 43.4798 153.238 43.4649 153.557C43.3878 155.287 43.0024 156.933 42.3238 158.526C42.2596 158.282 42.1954 158.038 42.1311 157.794C43.6789 158.475 45.4494 157.668 46.5091 156.484C47.7101 155.139 48.1169 153.251 48.3909 151.524C49.0374 147.454 49.502 143.346 50.05 139.261C50.3262 137.204 50.6024 135.146 50.8807 133.089C51.0691 131.689 51.8419 129.171 50.7372 127.987C49.4121 126.568 47.2927 126.024 45.9589 124.611C44.0322 122.569 46.9073 120.527 48.438 119.463C49.7011 118.585 50.9128 117.587 52.2315 116.795C53.7044 115.909 55.3015 115.254 56.8022 114.419C57.9304 113.789 60.7456 112.192 59.7779 110.51C59.1785 109.471 57.5301 109.349 56.6095 108.681C55.4727 107.857 55.2736 106.53 55.7489 105.263C56.252 103.929 57.3845 102.822 57.3524 101.326C57.3395 100.763 57.1704 99.979 56.4789 99.9597C55.659 99.9383 55.0296 100.506 54.1989 100.084C52.6468 99.2961 52.6597 96.9048 52.6554 95.4362C52.6447 92.0815 53.5289 87.0185 49.7353 85.233C49.9965 85.126 50.2598 85.019 50.521 84.9141C48.7505 90.538 50.3069 96.3803 51.3859 101.976C52.315 106.793 53.5139 112.931 50.0993 117.084C47.481 120.268 42.6749 121.325 38.8557 119.955C34.7945 118.499 34.0281 114.085 33.6877 110.278C33.4608 107.739 33.1675 105.194 32.992 102.653C32.8143 100.075 33.3088 97.7226 34.8545 95.6117C35.0086 95.8793 35.1628 96.1491 35.3169 96.4167C32.6559 96.2326 30.4358 93.7235 30.7655 91.0261C30.9689 89.3755 32.1035 88.0953 32.7308 86.6074C33.2853 85.2908 33.433 83.8608 33.2981 82.4478C32.7436 76.6055 28.3978 71.5296 29.1085 65.4818C29.8043 59.5475 35.3982 55.2637 41.2919 56.15C43.6233 56.5011 46.7018 57.7085 47.7615 59.9906C48.2046 60.9433 48.4915 61.9645 48.9625 62.9043C49.0695 63.1184 49.3243 63.7456 49.609 63.7884C49.8702 63.827 50.11 63.4395 50.2234 63.2575C50.7779 62.3669 50.9385 61.1788 51.0391 60.1555C51.1397 59.13 51.1825 58.0575 51.0391 57.0341C50.8079 55.39 50.1828 53.8015 49.9194 52.1531C49.6518 50.4832 49.5919 48.8091 49.8809 47.1371C50.0672 46.0603 50.4311 45.0006 51.1782 44.1807C51.9554 43.3286 53.0643 42.8619 54.1454 42.5301C56.8643 41.6995 60.1504 41.3719 62.7879 42.6414C64.1109 43.2772 65.3355 44.2599 66.4872 45.159C67.7482 46.1438 68.9428 47.2142 70.0389 48.381C72.124 50.5988 73.8538 53.1571 74.9371 56.013C76.2365 59.4362 76.4078 63.1505 76.0182 66.762C75.8212 68.5796 75.5001 70.38 75.119 72.1676C74.6887 74.1843 74.1557 76.2159 74.2242 78.2925C74.2884 80.215 75.0655 81.9148 75.7998 83.6574C76.365 84.9975 76.8167 86.3613 77.0629 87.7999C77.5018 90.3667 77.3862 93.0021 76.7889 95.5368C75.5772 100.675 72.3831 105.415 67.8809 108.223C66.7891 108.904 65.6245 109.45 64.4128 109.882C64.1323 109.983 63.8369 109.767 63.7534 109.508C61.8866 103.661 60.8355 97.562 60.6556 91.4264C60.5764 88.6926 60.555 85.8646 61.0089 83.1586C61.3685 81.022 62.2334 78.8662 64.2094 77.7616C64.4834 77.6074 64.7639 77.7188 64.9416 77.9542C67.7568 81.7028 66.4701 86.7016 65.693 90.9105C64.6504 96.5623 64.9887 102.298 64.5584 108.003C64.3636 110.572 63.9675 113.027 63.0555 115.446C62.1992 117.718 61.1009 119.884 60.0776 122.083C59.0158 124.365 58.0481 126.694 57.5814 129.18C57.0612 131.956 56.9799 134.799 57.1104 137.617C57.4037 143.934 58.7439 150.151 59.0779 156.467C59.1143 157.156 58.0438 157.154 58.0075 156.467C57.4508 145.955 53.7858 134.797 57.8383 124.564C59.6195 120.068 62.424 115.842 63.1711 110.991C64.0446 105.32 63.5158 99.5316 64.173 93.8413C64.4834 91.1588 65.1706 88.5385 65.4704 85.8582C65.7572 83.2806 65.6309 80.6453 64.0189 78.498C64.2629 78.5622 64.507 78.6265 64.751 78.6907C62.7986 79.7825 62.1842 82.0989 61.9401 84.1755C61.6233 86.8601 61.6426 89.6196 61.7582 92.3149C62.0044 98.063 63.0362 103.751 64.7853 109.229C64.5648 109.105 64.3464 108.981 64.1259 108.855C68.9856 107.123 72.7727 103.122 74.738 98.4055C75.7249 96.0378 76.2665 93.4773 76.2601 90.9105C76.2537 88.0611 75.4402 85.5584 74.3419 82.9616C73.6654 81.3603 73.1559 79.7568 73.1452 78.0013C73.1345 76.2352 73.5177 74.4883 73.8923 72.7713C74.6716 69.2069 75.3139 65.5803 75.0869 61.9174C74.6866 55.4499 70.9658 50.1022 66.0163 46.1545C64.8559 45.2275 63.5907 44.2149 62.2441 43.5748C60.9254 42.9476 59.399 42.8384 57.9625 42.9219C55.7789 43.0503 52.4863 43.5299 51.4052 45.7392C50.7843 47.0066 50.703 48.5929 50.7565 49.9737C50.8271 51.7977 51.2575 53.5853 51.7263 55.3408C52.2722 57.3938 52.3086 59.4533 51.9125 61.547C51.6985 62.6709 50.9556 65.3833 49.2558 64.8053C48.4894 64.5442 48.0955 63.6193 47.8022 62.9407C47.404 62.0244 47.1299 61.0353 46.6461 60.1576C46.0852 59.1407 44.7858 58.4578 43.7667 57.989C42.4458 57.3831 40.9772 57.0834 39.5257 57.0984C36.5222 57.1262 33.7327 58.6248 31.9751 61.0503C28.2565 66.1776 31.1359 71.9707 33.0326 77.175C33.9189 79.6091 34.6875 82.2166 34.3171 84.8327C34.118 86.2478 33.5443 87.4681 32.8442 88.699C32.0607 90.0777 31.4206 91.4885 32.1292 93.0406C32.7051 94.3037 33.9125 95.2606 35.3148 95.357C35.6787 95.3827 36.0362 95.8087 35.7772 96.1619C34.4584 97.9602 33.9361 99.9041 34.0303 102.118C34.1202 104.252 34.4627 106.378 34.619 108.51C34.863 111.852 34.938 116.772 38.3462 118.585C41.8271 120.437 46.7682 119.409 49.2793 116.412C52.5783 112.475 51.1397 106.245 50.247 101.707C49.1445 96.1041 47.7208 90.2597 49.4913 84.6357C49.6026 84.2847 49.9601 84.1669 50.277 84.3168C53.3298 85.7533 53.8928 89.4612 53.8157 92.4754C53.79 93.4645 53.7237 94.4536 53.728 95.4447C53.7322 96.4381 53.7044 97.6005 54.154 98.5147C54.6485 99.5209 55.3785 99.0071 56.2434 98.9172C56.8193 98.8572 57.3823 99.0263 57.7848 99.4545C58.5684 100.287 58.5448 101.705 58.2237 102.726C57.7955 104.083 55.8024 105.937 56.8129 107.403C57.5493 108.472 59.2213 108.514 60.1782 109.347C61.3257 110.347 61.1523 111.884 60.3153 113.023C59.3176 114.382 57.6799 115.205 56.2092 115.945C54.565 116.774 52.8759 117.523 51.4116 118.656C50.217 119.58 48.9025 120.351 47.7379 121.314C46.9094 121.997 45.7941 123.048 46.8902 124.023C47.6759 124.72 48.6756 125.232 49.5491 125.81C50.2877 126.298 51.2489 126.801 51.767 127.544C52.7689 128.974 52.2379 131.023 52.026 132.607C51.7284 134.819 51.4309 137.03 51.1333 139.244C50.8079 141.661 50.4825 144.08 50.1592 146.497C49.8531 148.779 49.6711 151.127 49.1337 153.373C48.697 155.199 47.8792 156.974 46.3186 158.096C44.9249 159.098 43.1951 159.427 41.6002 158.725C41.3133 158.599 41.3069 158.233 41.4075 157.993C42.0091 156.582 42.3345 155.097 42.403 153.566C42.6278 153.737 42.8547 153.911 43.0795 154.082C42.3409 154.379 41.6708 153.99 41.2684 153.356C40.7118 152.48 40.716 151.472 40.7053 150.472C40.6732 147.578 40.639 144.684 40.6069 141.787C40.5748 138.893 40.5405 135.998 40.5084 133.102C40.4848 130.952 40.0267 128.122 41.2748 126.208C41.5831 125.735 41.9941 125.384 42.4501 125.061C42.9168 124.729 43.6276 124.361 43.6383 123.706C43.6533 122.777 42.4672 121.892 41.6345 122.396C41.1956 122.661 40.7846 122.224 40.8488 121.792C42.7712 108.696 41.917 95.4212 40.9879 82.283C40.5212 75.7 40.0331 69.1169 39.8533 62.5189C39.7634 59.2049 39.7505 55.891 39.8576 52.577C39.9111 50.9221 39.9967 49.2673 40.1145 47.6145C40.2087 46.3258 40.2108 44.9021 40.7824 43.714C41.0779 43.0996 41.7929 42.5686 41.9192 41.8921C42.069 41.0829 41.2448 40.2865 40.898 39.6271C40.3757 38.6338 40.2622 37.5035 40.487 36.4116C40.9408 34.1895 42.7584 32.3569 45.0405 32.1364C44.8864 32.2242 44.7322 32.3141 44.5781 32.4019C44.957 31.537 43.4178 31.0681 42.8333 30.9568C41.673 30.7342 40.3457 30.9718 39.1854 31.1024C36.5286 31.4021 33.9147 32.0058 31.3821 32.8515C31.4613 32.5539 31.5405 32.2542 31.6176 31.9566C33.3923 33.5215 35.8949 33.8405 38.1299 33.2368C40.5212 32.5903 42.388 30.8883 43.5933 28.7603C46.4855 23.6523 45.3295 17.5703 44.242 12.1262C44.5032 12.2332 44.7665 12.3403 45.0277 12.4452C42.4159 14.4083 43.3279 18.4566 43.6597 21.2118C44.0086 24.1212 44.3747 27.6621 41.8721 29.7665C41.6345 29.9656 41.187 29.9977 41.0308 29.6573C39.7826 26.9449 39.7484 23.9842 39.8554 21.0534C39.9668 18.0584 40.2429 14.8985 39.1297 12.0427C38.0165 9.18897 35.2099 7.13164 35.1199 3.87759C35.0557 1.56122 37.0231 -0.609567 39.4572 0.156847C42.1269 0.998189 41.1506 4.81955 40.3628 6.69063C39.3481 9.09905 37.4492 11.1735 35.0686 12.2846C34.482 12.5586 33.8483 12.747 33.2895 13.0788C32.3818 13.6183 32.4717 14.3676 32.5895 15.3181C32.8164 17.1485 33.0433 18.9789 33.2831 20.8072C33.7776 24.5772 34.3985 28.3193 34.9872 32.0743C35.5481 35.6452 35.7065 39.2504 35.9163 42.8555C36.139 46.6897 36.3638 50.5239 36.5843 54.3581C37.0167 61.8317 37.432 69.3096 37.7168 76.7896C38.0058 84.3339 38.237 91.8846 38.3654 99.4331C38.4275 103.113 38.4275 106.795 38.2455 110.471C38.1535 112.357 38.0122 114.243 37.8088 116.121C37.6611 117.482 37.6076 119.049 36.8626 120.248C36.2182 121.284 35.2077 121.567 34.1138 121.918C33.6706 122.062 32.9748 122.239 33.0904 122.828C33.2125 123.447 34.0517 123.941 34.4242 124.438C35.2441 125.538 35.5267 126.906 35.6659 128.244C35.85 130.028 35.8714 131.839 35.9078 133.628C35.9848 137.405 35.8949 141.186 35.638 144.956C35.5117 146.814 35.3511 148.672 35.1371 150.522C34.9979 151.727 34.6404 152.921 33.814 153.844C33.1268 154.611 32.1506 154.919 31.2408 154.343C31.502 154.142 31.7653 153.941 32.0265 153.739C32.4032 155.332 33.114 156.788 34.1651 158.042C34.4563 158.391 34.2765 158.946 33.7862 158.956C26.4582 159.098 8.58846 159.661 1.38245 158.32C0.708099 158.181 0.994972 157.149 1.66933 157.274Z" fill="black"/>
<path d="M132.008 145.124C129.715 143.289 126.793 142.456 123.877 142.7C122.586 142.807 121.216 143.09 120.51 144.291C120.15 144.901 119.964 145.599 119.786 146.28C119.593 147.018 119.405 147.755 119.142 148.472C118.561 150.05 117.731 151.525 116.615 152.786C116.506 152.522 116.397 152.259 116.288 151.993C117.377 152.032 118.467 152.07 119.555 152.111C119.405 152.225 119.257 152.338 119.107 152.452C119.578 150.726 120.148 148.988 121.06 147.44C121.899 146.016 123.091 144.71 124.695 144.169C128.338 142.936 130.481 147.11 131.822 149.739C132.817 151.692 133.682 153.708 134.429 155.768C134.125 155.808 133.821 155.849 133.519 155.892C133.92 152.777 133.485 149.427 131.986 146.637C131.308 145.374 130.355 144.246 128.983 143.726C127.722 143.248 126.356 143.244 125.029 143.334C123.376 143.445 121.728 143.627 120.075 143.738C118.272 143.86 116.465 143.946 114.661 144.008C111.083 144.128 107.504 144.141 103.927 144.098C100.328 144.055 96.7314 143.955 93.1348 143.848C92.6917 143.835 92.2485 143.822 91.8054 143.809C91.5399 143.8 91.3622 143.601 91.3408 143.344C91.2616 142.388 91.1824 141.428 91.1053 140.472C91.0904 140.287 91.2595 140.056 91.4457 140.024C95.3142 139.363 99.1698 140.386 103 140.835C106.885 141.291 110.805 141.405 114.716 141.291C118.658 141.176 122.588 140.833 126.504 140.386C128.45 140.163 130.396 139.915 132.338 139.656C133.312 139.525 134.284 139.393 135.258 139.258C135.746 139.191 136.242 139.089 136.735 139.054C137.09 139.029 137.366 139.386 137.535 139.664C138.18 140.716 137.944 142.216 137.371 143.242C137.039 143.833 136.553 144.261 135.923 144.516C135.14 144.832 134.271 144.772 133.459 144.595C133.05 144.505 132.652 144.383 132.254 144.254C131.689 144.072 131.931 143.178 132.5 143.359C133.817 143.781 135.667 144.28 136.521 142.854C137.028 142.006 137.287 140.516 136.467 139.836C136.617 139.876 136.767 139.915 136.919 139.956C131.008 140.773 125.093 141.593 119.137 142C113.246 142.403 107.318 142.381 101.463 141.565C98.2407 141.116 94.9524 140.362 91.6941 140.919C91.8075 140.769 91.921 140.621 92.0345 140.472C92.1137 141.428 92.1929 142.388 92.27 143.344C92.1158 143.19 91.9617 143.036 91.8054 142.88C95.4726 142.989 99.1398 143.098 102.809 143.154C106.476 143.21 110.144 143.212 113.811 143.105C115.652 143.051 117.493 142.972 119.332 142.856C121.085 142.747 122.834 142.582 124.586 142.437C125.966 142.323 127.392 142.283 128.739 142.666C130.22 143.088 131.402 144.032 132.263 145.295C133.166 146.622 133.755 148.189 134.123 149.746C134.502 151.347 134.652 153.008 134.562 154.65C134.538 155.063 134.5 155.477 134.446 155.888C134.38 156.397 133.723 156.528 133.536 156.012C132.922 154.32 132.226 152.661 131.441 151.043C130.713 149.544 129.955 147.977 128.919 146.663C128.09 145.612 126.926 144.657 125.498 144.914C124.02 145.181 122.875 146.314 122.092 147.53C121.079 149.101 120.492 150.904 120.002 152.693C119.951 152.884 119.758 153.04 119.555 153.034C118.465 152.995 117.375 152.957 116.288 152.916C115.875 152.901 115.693 152.426 115.96 152.124C116.975 150.977 117.741 149.611 118.264 148.174C118.786 146.738 118.932 145.106 119.73 143.781C120.542 142.433 121.972 141.983 123.451 141.81C124.943 141.634 126.47 141.726 127.93 142.088C129.668 142.518 131.269 143.347 132.665 144.462C132.86 144.618 132.828 144.954 132.665 145.117C132.47 145.316 132.203 145.28 132.008 145.124Z" fill="black"/>
<path d="M73.8665 112.571C75.3223 116.056 76.5147 119.646 77.4588 123.302C78.4265 127.06 79.1286 130.881 79.5846 134.734C79.8437 136.927 80.0171 139.127 80.1113 141.332C80.1306 141.791 79.4648 141.964 79.2485 141.566C78.5057 140.202 79.073 138.29 80.3061 137.4C81.1003 136.826 82.1579 136.847 83.0699 137.062C84.0932 137.301 85.0823 137.727 86.0692 138.083C87.0775 138.445 88.0923 138.793 89.0942 139.175C89.9184 139.487 90.7276 139.928 91.1729 140.727C91.5518 141.405 91.7017 142.317 91.4469 143.064C91.3849 143.246 91.3035 143.424 91.1879 143.58C90.976 143.869 90.7576 143.863 90.4236 143.816C89.8906 143.741 89.3596 143.653 88.8308 143.555C86.4545 143.109 84.1296 142.42 81.8839 141.527C81.6719 141.444 81.46 141.21 81.5606 140.958C81.8218 140.301 82.2799 139.791 82.9564 139.551C83.5987 139.324 84.2923 139.468 84.8725 139.795C85.5404 140.174 86.0735 140.761 86.5594 141.343C87.0154 141.889 87.4415 142.461 87.8375 143.052C89.5352 145.595 90.672 148.517 91.3078 151.501C91.6867 153.276 91.8901 155.087 91.9179 156.901C91.9222 157.151 91.7017 157.365 91.4534 157.365C90.5906 157.363 89.73 157.363 88.8672 157.361C88.621 157.361 88.3984 157.149 88.4027 156.896C88.4926 153.315 87.799 149.262 85.3178 146.513C84.318 145.404 82.965 144.46 81.4343 144.347C81.0747 144.319 80.6936 144.319 80.3532 144.456C79.9657 144.612 79.7388 144.94 79.5611 145.304C79.3556 145.728 79.2164 146.186 79.0623 146.629C78.8889 147.126 78.7219 147.622 78.5592 148.123C77.8292 150.371 77.1998 152.651 76.6667 154.955C76.6025 155.233 76.2278 155.396 75.9859 155.231C75.0268 154.582 74.0677 153.935 73.1087 153.287C72.8817 153.135 72.8368 152.897 72.9417 152.653C74.8213 148.309 76.686 143.762 76.8401 138.967C76.8786 137.764 76.8123 136.554 76.6068 135.368C76.397 134.154 76.0651 132.964 75.7033 131.789C74.9498 129.331 74.1577 126.884 73.3827 124.433C72.4985 121.635 71.6165 118.839 70.7324 116.041C70.5525 115.471 71.4474 115.227 71.6272 115.795C73.22 120.836 74.8213 125.876 76.4055 130.92C77.1548 133.307 77.7671 135.711 77.7799 138.23C77.7928 140.669 77.3453 143.094 76.6667 145.428C75.8981 148.065 74.8342 150.604 73.7445 153.124C73.6888 152.912 73.6332 152.702 73.5775 152.49C74.5366 153.139 75.4957 153.786 76.4548 154.434C76.2278 154.526 76.0009 154.618 75.774 154.71C76.2792 152.523 76.8722 150.356 77.5573 148.217C77.8913 147.175 78.2145 146.109 78.6427 145.1C78.8418 144.631 79.1008 144.193 79.5119 143.882C79.8779 143.606 80.3061 143.473 80.7578 143.426C82.4448 143.249 84.121 144.128 85.337 145.224C86.7607 146.509 87.7219 148.228 88.347 150.022C89.1113 152.219 89.3853 154.582 89.3275 156.898C89.1734 156.744 89.0192 156.59 88.863 156.434C89.7257 156.436 90.5863 156.436 91.4491 156.438C91.2949 156.592 91.1408 156.746 90.9845 156.903C90.9417 154.008 90.4322 151.127 89.4602 148.399C88.5675 145.897 87.2574 143.43 85.4377 141.474C84.9945 140.999 84.4079 140.41 83.7164 140.367C83.1555 140.331 82.6546 140.688 82.4491 141.202C82.342 141.011 82.2328 140.821 82.1258 140.632C84.9346 141.75 87.8675 142.538 90.8625 142.949C90.7126 142.989 90.5628 143.028 90.4108 143.069C90.6505 142.773 90.6612 142.302 90.6099 141.945C90.5456 141.51 90.3658 141.106 90.0554 140.791C89.7 140.429 89.2333 140.217 88.7645 140.042C88.1629 139.817 87.5592 139.607 86.9555 139.389C85.7331 138.948 84.515 138.455 83.2711 138.081C82.3121 137.792 81.1796 137.652 80.4645 138.5C79.8951 139.175 79.6018 140.29 80.0428 141.099C79.7559 141.176 79.4669 141.255 79.18 141.332C79.0173 137.475 78.6041 133.628 77.9277 129.826C77.2576 126.066 76.3392 122.352 75.1596 118.721C74.5109 116.724 73.7809 114.754 72.9716 112.817C72.8753 112.586 73.0765 112.307 73.2949 112.247C73.5647 112.172 73.7702 112.337 73.8665 112.571Z" fill="black"/>
<path d="M136.949 139.622C133.149 138.048 129.174 136.907 125.106 136.284C123.967 136.109 122.82 135.98 121.67 135.888C121.458 135.871 121.289 135.755 121.223 135.548C120.174 132.202 119.127 128.856 118.078 125.509C117.059 122.255 115.963 119.012 115.096 115.711C114.616 113.885 114.235 112.037 114.014 110.16C113.985 109.903 114.252 109.706 114.479 109.695C114.95 109.674 115.421 109.652 115.892 109.633C116.078 109.625 116.305 109.781 116.339 109.974C117.018 113.748 117.699 117.52 118.377 121.294C118.54 122.204 118.692 123.116 118.87 124.022C118.93 124.323 118.983 124.724 119.195 124.966C119.433 125.24 119.829 125.064 120.118 124.985C120.801 124.797 121.445 124.805 122.064 125.184C122.655 125.546 123.109 126.122 123.426 126.73C124.331 128.466 124.245 130.54 124.181 132.441C124.173 132.7 123.976 132.893 123.717 132.906C116.693 133.231 109.662 133.448 102.632 133.55C95.6441 133.653 88.6543 133.645 81.6667 133.525C80.7718 133.51 79.8384 133.563 78.95 133.454C78.0487 133.343 77.5906 132.715 77.3144 131.902C77.0147 131.02 76.7792 130.114 76.5137 129.222C76.229 128.258 75.9443 127.297 75.6595 126.334C75.5739 126.04 75.8115 125.751 76.107 125.747C81.6003 125.681 87.0937 125.796 92.5806 126.098C95.3465 126.25 98.1103 126.451 100.87 126.698C102.24 126.82 103.61 126.955 104.978 127.1C106.096 127.22 107.213 127.363 108.337 127.421C109.465 127.479 110.608 127.455 111.709 127.177C112.863 126.886 113.884 126.31 114.715 125.456C114.824 125.719 114.933 125.983 115.042 126.248C108.442 125.908 101.84 125.565 95.2395 125.225C91.949 125.056 88.6586 124.884 85.3703 124.715C84.6274 124.677 83.8674 124.681 83.131 124.58C82.5123 124.495 81.96 124.197 81.671 123.621C81.3456 122.975 81.3498 122.193 81.3134 121.487C81.2706 120.697 81.2492 119.905 81.2128 119.115C81.14 117.441 81.0202 115.749 80.5085 114.142C80.1103 112.894 79.4595 111.558 78.2885 110.875C78.5154 110.783 78.7423 110.691 78.9692 110.599C78.4383 112.093 78.5197 113.692 78.8301 115.225C78.9907 116.019 79.209 116.803 79.4509 117.576C79.6757 118.295 79.8877 119.038 80.2002 119.723C80.4849 120.344 80.866 120.866 81.5297 121.104C82.2832 121.373 83.131 121.448 83.9188 121.56C85.6422 121.802 87.3827 121.928 89.1232 121.99C92.6298 122.116 96.1365 121.969 99.641 121.866C103.216 121.761 106.793 121.744 110.369 121.838C114.374 121.943 118.375 122.18 122.366 122.542C122.212 122.696 122.058 122.851 121.901 123.007C121.773 119.47 121.077 115.959 119.778 112.662C119.927 112.776 120.075 112.889 120.225 113.003C114.233 113.225 108.236 113.356 102.24 113.39C96.2243 113.425 90.2064 113.362 84.1907 113.204C80.8168 113.116 77.4407 112.996 74.0689 112.847C73.4738 112.821 73.4716 111.894 74.0689 111.92C80.0589 112.183 86.0554 112.354 92.0518 112.429C98.0675 112.504 104.085 112.483 110.101 112.365C113.477 112.298 116.851 112.202 120.225 112.078C120.445 112.069 120.597 112.23 120.672 112.418C122 115.788 122.698 119.391 122.828 123.009C122.837 123.242 122.608 123.495 122.364 123.471C115.014 122.803 107.631 122.577 100.255 122.778C96.6481 122.876 93.0387 123.043 89.4314 122.93C87.6075 122.872 85.7878 122.739 83.9809 122.497C82.4481 122.292 80.6712 122.208 79.7314 120.798C79.2754 120.112 79.0335 119.286 78.7787 118.511C78.4854 117.621 78.2135 116.721 78.008 115.805C77.6098 114.018 77.4514 112.108 78.0765 110.352C78.175 110.074 78.4833 109.916 78.7573 110.076C81.0373 111.408 81.7266 114.461 81.9857 116.88C82.1548 118.451 82.1591 120.033 82.2468 121.609C82.2768 122.161 82.2169 123.06 82.6943 123.456C82.8784 123.608 83.131 123.658 83.3622 123.681C83.7369 123.72 84.1158 123.724 84.4926 123.743C91.0092 124.079 97.5259 124.418 104.043 124.754C107.71 124.944 111.377 125.133 115.044 125.323C115.44 125.345 115.661 125.818 115.372 126.115C113.822 127.708 111.728 128.331 109.551 128.374C108.508 128.395 107.468 128.301 106.434 128.188C105.057 128.038 103.681 127.89 102.302 127.759C96.7466 127.231 91.1741 126.89 85.5951 126.743C82.4331 126.659 79.2711 126.638 76.1091 126.676C76.259 126.481 76.4067 126.284 76.5565 126.09C77.0425 127.734 77.5306 129.378 78.0166 131.022C78.1857 131.594 78.3142 132.424 79.0142 132.536C79.346 132.589 79.7035 132.566 80.0375 132.572C80.4978 132.581 80.9581 132.589 81.4183 132.598C84.8501 132.658 88.2818 132.69 91.7135 132.696C98.5342 132.709 105.357 132.617 112.176 132.418C116.025 132.307 119.874 132.161 123.721 131.983C123.567 132.137 123.413 132.292 123.256 132.448C123.312 130.793 123.441 128.922 122.715 127.381C122.443 126.805 122.047 126.203 121.458 125.912C120.818 125.593 120.227 126.021 119.572 126.047C118.767 126.077 118.298 125.458 118.088 124.754C117.836 123.9 117.742 122.981 117.583 122.106C117.249 120.249 116.915 118.393 116.581 116.539C116.202 114.437 115.823 112.333 115.445 110.23C115.594 110.344 115.742 110.457 115.892 110.571C115.421 110.592 114.95 110.614 114.479 110.633C114.633 110.479 114.787 110.325 114.944 110.168C115.331 113.465 116.282 116.659 117.266 119.819C118.294 123.112 119.328 126.4 120.358 129.69C120.944 131.562 121.531 133.435 122.117 135.306C121.968 135.192 121.82 135.079 121.67 134.965C125.802 135.297 129.884 136.137 133.813 137.462C134.954 137.847 136.082 138.273 137.193 138.733C137.426 138.83 137.587 139.039 137.516 139.303C137.461 139.517 137.18 139.718 136.949 139.622Z" fill="black"/>
<path d="M34.9393 11.5401C33.7661 11.6814 32.4795 11.5209 31.4177 10.9771C30.936 10.7309 30.5142 10.337 30.358 9.80608C30.1931 9.25161 30.3644 8.63292 30.6919 8.17264C31.3021 7.31631 32.304 6.90313 33.3144 6.74899C34.4448 6.57773 35.6008 6.60342 36.7419 6.57559C38.0563 6.54347 39.3708 6.51136 40.6831 6.47925C41.8777 6.44928 43.0851 6.37007 44.2776 6.45142C45.3887 6.52849 46.5811 6.76398 47.4652 7.48543C48.221 8.10413 48.7711 9.21736 48.2402 10.1508C47.6172 11.2469 46.1808 11.142 45.1039 11.1248C43.6289 11.1013 42.1517 11.0756 40.6767 11.052C39.9895 11.0413 39.9874 9.97093 40.6767 9.98163C41.8006 10.0009 42.9267 10.018 44.0506 10.0373C44.6244 10.0459 45.2003 10.0587 45.774 10.0651C46.1486 10.0694 46.5404 10.0694 46.8958 9.93882C47.5916 9.6862 47.4224 8.98829 47.0135 8.53444C46.4291 7.88577 45.4807 7.64386 44.6415 7.55394C43.6289 7.44476 42.6035 7.50256 41.5866 7.52825C40.4498 7.55608 39.313 7.58391 38.1784 7.61174C37.0609 7.63957 35.9412 7.66098 34.8237 7.69524C34.023 7.71878 33.1453 7.75304 32.411 8.10841C31.7837 8.41241 30.8589 9.3244 31.7152 9.91313C32.1391 10.2064 32.6829 10.3391 33.1817 10.4333C33.7597 10.5425 34.3549 10.5404 34.9372 10.4697C35.224 10.4355 35.4724 10.7395 35.4724 11.0049C35.4745 11.3218 35.2262 11.5038 34.9393 11.5401Z" fill="black"/>
<path d="M46.135 75.0719C56.3959 75.2731 66.7061 75.4573 76.9114 74.192C82.0494 73.5562 87.1488 72.535 92.0941 70.9958C93.3572 70.6019 94.6074 70.1759 95.847 69.7156C96.9966 69.2874 98.2961 68.9085 99.2915 68.1678C100.289 67.4249 100.762 66.2175 101.195 65.0935C101.612 64.006 102.04 62.927 102.52 61.8652C104.659 57.1233 107.594 52.7175 111.312 49.0674C111.46 49.3221 111.608 49.5769 111.758 49.8316C101.991 52.6832 92.5351 56.4725 83.1776 60.4373C73.8586 64.3849 64.6102 68.5124 55.1478 72.1154C53.8055 72.6271 52.4589 73.128 51.1059 73.6162C50.0569 73.9951 48.9844 74.3248 47.9825 74.8193C46.1392 75.7313 44.5679 77.1785 44.5015 79.3578C44.3495 79.2058 44.1975 79.0538 44.0455 78.9018C52.3348 79.1138 60.6326 78.9575 68.9069 78.4223C77.2796 77.8807 85.6267 76.958 93.9159 75.6542C94.8986 75.5001 95.8855 75.3588 96.8617 75.1704C97.7608 74.997 98.5487 74.6716 99.0775 73.888C99.5763 73.1473 99.8524 72.2781 100.167 71.4496C100.488 70.6019 100.827 69.7605 101.18 68.9278C102.61 65.5453 104.301 62.2719 106.264 59.1699C107.217 57.667 108.232 56.2027 109.311 54.7876C109.824 54.1154 110.351 53.4518 110.893 52.801C111.421 52.1651 111.948 51.4266 112.62 50.9342C113.29 50.4418 114.025 50.4996 114.755 50.8293C115.697 51.2553 116.594 51.8226 117.497 52.3257C119.263 53.3105 121.025 54.306 122.778 55.3143C129.839 59.369 136.792 63.6057 143.636 68.0158C144.497 68.5702 145.356 69.1269 146.212 69.6877C146.505 69.8783 146.52 70.4606 146.103 70.5227C139.432 71.5203 132.688 71.03 126.056 69.9703C122.671 69.4287 119.312 68.7458 115.958 68.0436C112.584 67.3371 109.18 66.5365 105.714 66.5493C104.714 66.5536 104.117 66.7463 103.759 67.7482C103.46 68.5895 103.278 69.4844 103.049 70.345C102.533 72.2824 102.017 74.2177 101.503 76.1552C101.355 75.9625 101.21 75.7698 101.062 75.5771C112.892 74.5667 124.789 74.3291 136.597 75.7377C140.068 76.1509 143.523 76.6968 146.955 77.3626C146.783 77.5874 146.61 77.81 146.439 78.0348C145.326 76.4185 145.64 74.1514 146.569 72.5243C147.681 70.5783 149.787 69.8761 151.932 69.8826C154.118 69.8911 156.344 70.2208 158.496 70.6019C160.438 70.9465 162.379 71.1499 164.332 71.4175C165.745 71.6102 166.012 72.6763 165.987 73.9437C165.95 75.6221 165.91 77.3005 165.871 78.9789C165.867 79.178 165.732 79.3685 165.535 79.4199C164.621 79.6597 163.6 79.6062 162.666 79.5955C161.061 79.5762 159.457 79.4884 157.856 79.3878C156.147 79.2808 154.443 79.1523 152.737 79.011C151.855 78.9382 150.928 78.9211 150.11 78.5465C149.477 78.2553 148.918 77.795 148.492 77.2448C147.417 75.8576 147.207 74.0101 147.034 72.321C146.974 71.7365 147.888 71.7408 147.948 72.321C148.092 73.7296 148.256 75.286 149.068 76.4913C149.449 77.0586 150.014 77.5488 150.661 77.7908C151.44 78.084 152.347 78.0669 153.17 78.1333C156.182 78.3773 159.202 78.6128 162.225 78.6749C163.214 78.6942 164.325 78.7927 165.293 78.54C165.182 78.6878 165.07 78.8333 164.957 78.9811C164.985 77.733 165.015 76.4827 165.043 75.2346C165.055 74.6395 165.096 74.04 165.077 73.4449C165.055 72.7256 164.818 72.398 164.109 72.3103C162.371 72.0962 160.643 71.9206 158.92 71.6081C157.207 71.2976 155.492 71.0622 153.758 70.908C151.793 70.7325 149.434 70.5933 147.959 72.169C146.687 73.5262 146.128 75.9753 147.231 77.5788C147.477 77.9342 147.073 78.3195 146.715 78.251C134.951 75.9625 122.986 75.3053 111.025 75.8362C107.701 75.9839 104.38 76.2151 101.064 76.4977C100.762 76.5234 100.552 76.1851 100.623 75.9197C101.096 74.1385 101.572 72.3552 102.047 70.5741C102.252 69.7991 102.456 69.0241 102.665 68.2491C102.843 67.594 103.032 66.8704 103.498 66.3524C104.459 65.2884 106.348 65.6181 107.613 65.7101C109.358 65.8386 111.09 66.1276 112.804 66.4637C119.831 67.8402 126.799 69.4929 133.962 70.0067C137.927 70.2915 141.924 70.2358 145.861 69.6471C145.824 69.9254 145.788 70.2037 145.752 70.482C138.959 66.0462 132.057 61.7774 125.05 57.6906C121.601 55.6804 118.156 53.5802 114.596 51.7734C114.027 51.4844 113.517 51.3559 112.997 51.8076C112.672 52.0902 112.4 52.4392 112.119 52.7646C111.55 53.4261 110.998 54.1004 110.46 54.7855C109.349 56.207 108.307 57.682 107.33 59.1999C105.365 62.2505 103.663 65.4703 102.22 68.8015C101.501 70.4627 100.993 72.261 100.154 73.8645C99.7968 74.5496 99.3087 75.1661 98.6257 75.5472C97.9086 75.9475 97.0908 76.0674 96.2923 76.2001C88.2064 77.536 80.0627 78.5186 71.8912 79.1352C63.6619 79.756 55.4047 80.0086 47.154 79.8866C46.1178 79.8716 45.0817 79.8502 44.0455 79.8224C43.8036 79.816 43.581 79.619 43.5895 79.3664C43.7158 75.0933 48.0596 73.7617 51.395 72.55C56.3146 70.7603 61.1721 68.8036 65.9996 66.7827C75.6526 62.7429 85.1964 58.442 94.9542 54.6549C100.396 52.5419 105.907 50.5959 111.511 48.9603C111.95 48.8319 112.28 49.4056 111.957 49.7246C108.563 53.0514 105.851 57.0141 103.794 61.2915C103.246 62.4282 102.747 63.5886 102.295 64.766C101.884 65.8343 101.512 66.9603 100.829 67.8916C100.171 68.7907 99.268 69.3302 98.2575 69.7563C97.0544 70.2615 95.8255 70.7153 94.5924 71.1435C84.6976 74.5774 74.2033 75.7591 63.7817 76.0524C57.9009 76.2173 52.0158 76.1102 46.135 75.9946C45.5484 75.9753 45.5462 75.0612 46.135 75.0719Z" fill="black"/>
<path d="M112.741 48.9097C116.338 49.5263 119.555 51.4102 122.728 53.11C126.059 54.8933 129.446 56.5782 132.869 58.1795C136.121 59.7016 139.407 61.1467 142.712 62.5489C146.005 63.9447 149.315 65.2999 152.627 66.6507C156.05 68.0487 159.475 69.4488 162.883 70.8831C163.329 71.0715 163.776 71.2599 164.221 71.4483C164.448 71.5446 164.497 71.8807 164.386 72.0734C164.249 72.3089 163.99 72.3346 163.761 72.2383C160.34 70.7868 156.9 69.3781 153.462 67.9716C150.167 66.625 146.87 65.2827 143.59 63.9019C140.285 62.5104 136.994 61.0846 133.736 59.5839C130.358 58.0275 127.014 56.394 123.719 54.6685C120.506 52.9837 117.337 50.9863 113.792 50.0701C113.364 49.9587 112.934 49.8667 112.499 49.7939C112.255 49.7532 112.12 49.4535 112.18 49.2309C112.249 48.9718 112.497 48.8691 112.741 48.9097Z" fill="black"/>
<path d="M102.892 160.019C101.789 160.046 100.687 160.072 99.5843 160.1C99.3553 160.106 99.1048 159.886 99.1283 159.644C99.2696 158.167 99.4088 156.692 99.5501 155.215C99.6614 155.362 99.7727 155.508 99.8862 155.656C95.1229 154.688 90.2418 154.776 85.4164 154.416C82.9673 154.234 80.5267 153.926 78.1355 153.35C76.943 153.063 75.7634 152.731 74.5667 152.459C73.3636 152.185 72.1476 151.988 70.9252 151.828C68.1592 151.464 65.3869 151.145 62.6188 150.804C62.7708 150.652 62.9228 150.5 63.0748 150.348C62.9635 151.181 62.8521 152.016 62.7387 152.849C62.6316 153.654 62.5589 154.474 62.409 155.27C62.3469 155.604 62.1928 155.951 61.8823 156.124C61.5612 156.302 61.2123 156.251 60.8676 156.199C60.0434 156.077 59.217 155.953 58.3928 155.831C58.1273 155.793 58.0417 155.489 58.0738 155.268C58.6647 151.081 59.1592 146.878 59.5596 142.667C59.9599 138.439 60.266 134.2 60.4737 129.959C60.5914 127.562 60.6792 125.164 60.737 122.764C60.752 122.177 61.6661 122.175 61.6511 122.764C61.5484 127.05 61.3493 131.334 61.0539 135.611C60.7584 139.861 60.3666 144.106 59.8785 148.338C59.6024 150.734 59.2941 153.125 58.9558 155.514C58.8488 155.326 58.7439 155.14 58.6369 154.951C59.3241 155.054 60.0113 155.157 60.6985 155.26C60.8697 155.285 61.041 155.319 61.2144 155.337C61.2701 155.343 61.3728 155.369 61.4221 155.339C61.5805 155.245 61.5741 154.729 61.5955 154.572C61.7839 153.166 61.9723 151.759 62.1607 150.353C62.1906 150.132 62.3469 149.862 62.6166 149.897C65.0914 150.201 67.5684 150.5 70.0432 150.807C71.2763 150.961 72.5115 151.121 73.7318 151.355C74.9521 151.588 76.1531 151.909 77.3583 152.217C79.7411 152.828 82.1431 153.228 84.5943 153.44C87.0284 153.65 89.469 153.722 91.9074 153.853C94.6626 154.001 97.4221 154.228 100.13 154.778C100.31 154.814 100.483 155.03 100.466 155.219C100.325 156.696 100.186 158.171 100.045 159.648C99.8926 159.496 99.7406 159.344 99.5886 159.192C100.691 159.164 101.794 159.139 102.896 159.111C103.481 159.089 103.481 160.004 102.892 160.019Z" fill="black"/>
<path d="M60.47 145.667C64.6446 145.365 68.8235 145.854 72.9274 146.603C77.0635 147.359 81.1418 148.384 85.2671 149.187C89.324 149.977 93.4493 150.551 97.5918 150.371C98.127 150.347 98.6601 150.313 99.1932 150.264C99.4286 150.242 99.6663 150.229 99.8996 150.191C99.951 150.182 100.028 150.14 99.9917 150.191C100.043 150.12 100.032 149.958 100.041 149.87C100.139 148.742 100.227 147.613 100.309 146.483C100.458 144.381 100.578 142.276 100.653 140.17C100.803 135.969 100.762 131.767 100.585 127.569C100.561 127.01 100.535 126.449 100.508 125.89C100.478 125.302 101.392 125.304 101.422 125.89C101.636 130.215 101.726 134.544 101.608 138.872C101.55 140.983 101.447 143.094 101.31 145.201C101.236 146.34 101.152 147.476 101.06 148.615C101.015 149.174 101.013 149.763 100.904 150.315C100.792 150.876 100.368 151.054 99.8547 151.111C95.6458 151.593 91.3899 151.184 87.2303 150.473C82.9936 149.75 78.8232 148.703 74.6101 147.857C70.4698 147.027 66.2631 146.387 62.0285 146.504C61.5083 146.519 60.9902 146.545 60.47 146.584C59.8834 146.624 59.8856 145.71 60.47 145.667Z" fill="black"/>
<path d="M91.7275 76.2712C91.9416 76.5624 92.1813 76.86 92.4554 77.1896C92.7936 77.5964 93.1404 77.9967 93.4915 78.3949C94.3029 79.3198 95.1292 80.2318 95.9535 81.1459C97.4713 82.8328 99.0148 84.5091 100.282 86.3995C100.738 87.0802 101.136 87.7931 101.434 88.5595C101.736 89.3367 101.903 90.1523 102.012 90.9765C102.239 92.6978 102.19 94.4489 102.203 96.183C102.228 99.8909 102.254 103.599 102.28 107.307C102.305 111.015 102.331 114.723 102.357 118.43C102.361 118.893 102.363 119.357 102.365 119.82C102.37 120.409 101.455 120.409 101.451 119.82C101.425 116.148 101.4 112.475 101.374 108.803C101.348 105.112 101.323 101.424 101.297 97.733C101.284 95.9668 101.318 94.192 101.226 92.4259C101.141 90.7946 100.858 89.1997 100.051 87.761C98.9099 85.7294 97.3578 84.0767 95.7886 82.3276C94.2836 80.6492 92.7187 79.0093 91.3229 77.2389C91.1923 77.0719 91.0617 76.9049 90.9375 76.7337C90.7919 76.5346 90.9033 76.2241 91.1024 76.1085C91.3336 75.9737 91.5819 76.0721 91.7275 76.2712Z" fill="black"/>
<path d="M116.081 75.5554C114.244 77.5271 112.555 79.6294 111.016 81.8408C110.221 82.9819 109.468 84.1508 108.753 85.3432C108.061 86.4971 107.19 87.711 107.07 89.0854C106.946 90.524 107.13 92.0161 107.171 93.4569C107.214 94.979 107.241 96.5012 107.25 98.0233C107.271 101.04 107.233 104.056 107.154 107.073C106.995 113.14 106.676 119.198 106.364 125.259C106.051 131.319 105.743 137.382 105.606 143.451C105.537 146.47 105.512 149.489 105.55 152.509C105.582 155.035 105.995 158.227 104.15 160.272C103.799 160.662 103.362 160.951 102.861 161.1C102.296 161.27 102.056 160.388 102.619 160.218C103.724 159.887 104.246 158.564 104.467 157.54C104.779 156.091 104.668 154.573 104.645 153.1C104.6 150.109 104.617 147.119 104.679 144.128C104.801 138.117 105.098 132.109 105.407 126.104C105.715 120.102 106.038 114.097 106.212 108.087C106.299 105.071 106.349 102.054 106.342 99.038C106.334 96.0602 106.212 93.0908 106.137 90.1151C106.12 89.4236 106.143 88.715 106.332 88.0471C106.507 87.4262 106.822 86.8568 107.136 86.298C107.813 85.1013 108.526 83.9281 109.277 82.7785C110.737 80.5478 112.343 78.4091 114.092 76.3946C114.529 75.8893 114.976 75.3948 115.432 74.9067C115.837 74.4785 116.481 75.1251 116.081 75.5554Z" fill="black"/>
<path d="M136.106 76.4178C136.861 77.0579 137.536 77.7943 138.189 78.5351C139.013 79.4685 139.801 80.434 140.565 81.4187C141.291 82.3564 141.997 83.3091 142.663 84.2896C143.415 85.4007 144.078 86.5695 144.765 87.7192C145.765 89.389 146.763 91.0567 147.763 92.7265C148.064 93.2318 147.274 93.6921 146.973 93.1868C146.082 91.6989 145.194 90.2132 144.303 88.7254C143.571 87.5008 142.866 86.2506 142.081 85.0603C140.79 83.1057 139.341 81.2453 137.806 79.477C137.073 78.6335 136.318 77.7879 135.461 77.0643C135.01 76.6832 135.658 76.0389 136.106 76.4178Z" fill="black"/>
<path d="M147.8 93.1775C147.783 97.4977 147.768 101.816 147.751 106.136C147.734 110.475 147.719 114.815 147.702 119.156C147.685 123.477 147.67 127.795 147.653 132.115C147.635 136.454 147.62 140.794 147.603 145.135C147.595 147.295 147.586 149.455 147.58 151.613C147.578 152.123 147.558 152.637 147.578 153.146C147.593 153.521 147.638 153.818 148.029 153.928C149.046 154.21 150.078 154.443 151.101 154.7C151.619 154.831 152.138 154.962 152.656 155.092C153.225 155.236 152.983 156.118 152.414 155.974C151.356 155.709 150.301 155.443 149.243 155.178C148.734 155.049 148.207 154.947 147.704 154.788C147.289 154.658 146.972 154.403 146.809 153.994C146.644 153.579 146.657 153.114 146.659 152.677C146.661 152.138 146.663 151.598 146.666 151.057C146.67 149.956 146.674 148.856 146.678 147.756C146.696 143.333 146.713 138.91 146.728 134.487C146.745 130.085 146.762 125.682 146.777 121.28C146.794 116.879 146.811 112.475 146.826 108.073C146.843 103.65 146.86 99.2275 146.875 94.8045C146.878 94.265 146.88 93.7255 146.882 93.1839C146.888 92.5909 147.802 92.5888 147.8 93.1775Z" fill="black"/>
<path d="M152.205 155.534C152.196 154.399 151.952 153.271 151.864 152.141C151.837 151.783 151.768 151.302 151.967 150.978C152.276 150.471 152.794 150.786 153.057 151.135C152.794 151.289 152.53 151.443 152.267 151.595C151.912 151.064 151.976 150.246 151.999 149.64C152.031 148.797 152.132 147.96 152.216 147.12C152.314 146.119 152.273 145.108 152.273 144.104C152.273 142.678 152.273 141.25 152.269 139.825C152.258 134.059 152.237 128.294 152.211 122.527C152.186 116.742 152.156 110.96 152.124 105.175C152.115 103.795 152.083 102.42 152.014 101.041C151.948 99.7013 151.882 98.3569 151.939 97.0146C152.034 94.8374 152.616 92.8507 153.611 90.9175C155.656 86.9506 158.764 83.5874 161.768 80.3333C162.087 79.9887 162.406 79.644 162.723 79.2993C163.121 78.8647 163.767 79.5134 163.369 79.9458C160.464 83.1035 157.454 86.2463 155.215 89.9328C154.172 91.6476 153.258 93.5293 152.978 95.5374C152.618 98.1214 152.965 100.752 153.021 103.343C153.083 106.175 153.057 109.01 153.072 111.842C153.087 114.696 153.102 117.549 153.115 120.403C153.14 126.074 153.162 131.747 153.177 137.418C153.183 140.221 153.19 143.025 153.183 145.827C153.181 147.384 152.817 148.934 152.911 150.492C152.926 150.73 152.956 150.985 153.053 151.13C153.387 151.629 152.607 152.051 152.263 151.591C152.246 151.569 152.228 151.586 152.256 151.576C152.376 151.533 152.554 151.618 152.682 151.503C152.689 151.498 152.796 151.381 152.768 151.394C152.729 151.411 152.755 151.469 152.755 151.471C152.751 151.537 152.751 151.603 152.751 151.668C152.753 152.079 152.804 152.49 152.851 152.899C152.952 153.77 153.108 154.65 153.115 155.53C153.123 156.123 152.209 156.123 152.205 155.534Z" fill="black"/>
<path d="M142.591 78.7931C142.529 78.5491 142.441 78.2515 142.576 78.016C142.75 77.7163 143.142 77.7206 143.368 77.9454C143.66 78.2301 143.839 78.6561 144.041 79.0051C144.447 79.7115 144.933 80.3816 145.381 81.0645C145.927 81.8973 146.473 82.728 147.019 83.5607C147.642 84.5113 148.267 85.4618 148.89 86.4123C148.605 86.4894 148.322 86.5664 148.038 86.6435C148.078 85.4468 148.327 84.2501 148.547 83.0748C148.802 81.7175 149.084 80.3645 149.281 78.9986C149.367 78.4099 149.433 77.8148 149.427 77.2196C149.418 76.6309 150.333 76.6309 150.341 77.2196C150.356 78.4142 150.118 79.6195 149.907 80.7884C149.66 82.1478 149.376 83.5008 149.153 84.8645C149.057 85.4532 148.971 86.0441 148.952 86.6414C148.935 87.1038 148.348 87.2515 148.1 86.8726C146.969 85.1492 145.837 83.4259 144.706 81.7025C144.227 80.9725 143.707 80.2532 143.268 79.4975C143.159 79.3112 143.056 79.1228 142.947 78.9366C142.893 78.8466 142.84 78.7567 142.782 78.6711C142.769 78.6497 142.754 78.6304 142.739 78.609C142.707 78.5662 142.713 78.5726 142.752 78.6261C142.741 78.6133 142.731 78.6005 142.718 78.5898C142.79 78.654 142.876 78.6882 142.979 78.6904C143.056 78.669 143.133 78.6497 143.21 78.6283C143.208 78.6304 143.206 78.6304 143.201 78.6326C143.257 78.5769 143.311 78.5234 143.366 78.4677C143.403 78.4185 143.398 78.3543 143.413 78.2986C143.394 78.3628 143.394 78.2408 143.411 78.2965C143.437 78.3778 143.448 78.4656 143.467 78.5491C143.617 79.1207 142.735 79.3647 142.591 78.7931Z" fill="black"/>
<path d="M146.536 119.018C140.832 118.846 135.127 118.737 129.426 118.57C123.562 118.399 117.699 118.174 111.848 117.763C108.72 117.543 105.599 117.267 102.484 116.903C102.24 116.875 102.028 116.712 102.028 116.447C102.028 116.222 102.238 115.961 102.484 115.991C108.146 116.654 113.839 117.031 119.531 117.297C125.393 117.571 131.261 117.718 137.129 117.862C140.265 117.939 143.401 118.014 146.538 118.108C147.122 118.121 147.124 119.035 146.536 119.018Z" fill="black"/>
<path d="M108.033 75.4292C107.78 76.5617 107.112 77.615 106.485 78.574C105.729 79.7301 104.89 80.8326 104.027 81.9116C103.648 82.3826 103.263 82.8493 102.871 83.3095C102.719 83.4872 102.374 83.4872 102.225 83.3095C100.499 81.2736 98.7307 79.2762 96.9838 77.2574C96.5856 76.7972 96.1895 76.339 95.7978 75.8745C95.4188 75.4292 96.0632 74.7784 96.4443 75.2279C98.1698 77.2639 99.9381 79.2612 101.685 81.28C102.083 81.7403 102.479 82.1985 102.871 82.663C102.655 82.663 102.441 82.663 102.225 82.663C103.802 80.8133 105.382 78.8695 106.532 76.718C106.797 76.2213 107.029 75.7375 107.151 75.1873C107.279 74.6114 108.159 74.8554 108.033 75.4292Z" fill="black"/>
<path d="M101.225 120.659C95.8199 120.171 90.4036 119.798 84.9809 119.546C79.6674 119.297 74.3325 119.101 69.0104 119.145C66.3965 119.167 63.6819 119.37 61.342 120.642C60.8239 120.922 60.3636 120.135 60.8817 119.852C63.0033 118.7 65.4138 118.347 67.7965 118.257C70.3998 118.159 73.018 118.253 75.6234 118.308C81.0846 118.428 86.5437 118.666 91.9964 119.023C95.077 119.225 98.1534 119.467 101.228 119.743C101.474 119.764 101.684 119.938 101.684 120.199C101.681 120.432 101.472 120.68 101.225 120.659Z" fill="black"/>
<path d="M100.535 116.646C96.4395 116.993 92.3227 116.856 88.2273 116.597C84.119 116.336 80.0172 115.953 75.9004 115.813C73.5798 115.734 71.2549 115.736 68.9364 115.878C68.7009 115.893 68.4654 115.657 68.4804 115.422C68.6195 113.084 68.7565 110.746 68.8957 108.406C68.9299 107.822 69.8441 107.818 69.8098 108.406C69.6707 110.744 69.5336 113.082 69.3945 115.422C69.2425 115.27 69.0905 115.118 68.9385 114.966C73.0446 114.715 77.1592 114.91 81.2589 115.193C85.3629 115.475 89.4647 115.841 93.5815 115.927C95.9021 115.976 98.2228 115.931 100.537 115.736C101.119 115.683 101.117 116.597 100.535 116.646Z" fill="black"/>
<path d="M152.68 154.934C160.149 154.934 167.614 154.934 175.082 154.934C183.089 154.934 191.097 154.934 199.104 154.934C207.315 154.934 215.527 154.934 223.742 154.934C231.826 154.934 239.914 154.934 247.998 154.934C255.523 154.934 263.045 154.934 270.57 154.934C271.444 154.934 272.318 154.934 273.192 154.934C274.269 154.934 274.269 156.004 273.192 156.004C265.723 156.004 258.258 156.004 250.79 156.004C242.783 156.004 234.775 156.004 226.768 156.004C218.556 156.004 210.345 156.004 202.13 156.004C194.046 156.004 185.958 156.004 177.874 156.004C170.349 156.004 162.827 156.004 155.302 156.004C154.428 156.004 153.554 156.004 152.68 156.004C151.602 156.004 151.599 154.934 152.68 154.934Z" fill="black"/>
<path d="M158.449 79.7755C156.46 81.4753 154.777 83.4962 153.472 85.7612C153.232 86.1765 152.654 85.9625 152.619 85.53C152.44 83.2372 152.487 80.9337 152.756 78.6516C152.786 78.4075 152.945 78.1956 153.212 78.1956C153.437 78.1956 153.698 78.4054 153.668 78.6516C153.399 80.9337 153.352 83.2372 153.531 85.53C153.247 85.4529 152.964 85.3759 152.679 85.2988C154.022 82.9696 155.758 80.8737 157.8 79.1268C158.248 78.7479 158.896 79.3923 158.449 79.7755Z" fill="black"/>
<path d="M146.538 149.936C142.552 149.745 138.574 149.433 134.607 148.998C134.361 148.97 134.151 148.808 134.151 148.542C134.151 148.315 134.361 148.058 134.607 148.086C138.574 148.521 142.552 148.833 146.538 149.024C147.124 149.05 147.126 149.964 146.538 149.936Z" fill="black"/>
<path d="M147.01 145.487C143.223 145.791 139.414 145.63 135.664 145.033C135.42 144.994 135.285 144.69 135.345 144.47C135.415 144.211 135.662 144.112 135.908 144.151C139.575 144.735 143.309 144.868 147.01 144.572C147.597 144.525 147.595 145.439 147.01 145.487Z" fill="black"/>
<path d="M146.569 124.852C140.26 124.52 134.208 122.501 127.944 121.855C126.178 121.673 124.399 121.607 122.624 121.718C122.037 121.754 122.039 120.84 122.624 120.804C128.95 120.408 135.094 122.275 141.27 123.319C143.026 123.617 144.792 123.844 146.569 123.936C147.156 123.968 147.158 124.882 146.569 124.852Z" fill="black"/>
</svg>
