<svg width="273" height="278" viewBox="0 0 273 278" fill="none" xmlns="http://www.w3.org/2000/svg">
<path d="M7.56199 135.167L5.33446 135.517V138.474L7.56199 139.631V140.263L0.396484 136.475V135.685L7.56199 134.559V135.167ZM0.982039 136.173V136.216L4.7972 138.203V135.583L0.982039 136.173Z" fill="black"/>
<path d="M2.31019 132.299V131.739L3.45111 131.974V131.943C3.02855 131.727 2.71464 131.48 2.50336 131.209C2.29208 130.938 2.18945 130.594 2.18945 130.185C2.18945 129.932 2.23775 129.703 2.33433 129.504C2.43092 129.305 2.56373 129.13 2.73275 128.992C2.90178 128.853 3.11306 128.745 3.36056 128.667C3.60807 128.594 3.87971 128.552 4.16947 128.552C4.59204 128.552 5.01461 128.606 5.43717 128.709C5.85974 128.811 6.23401 128.974 6.56602 129.191C6.89804 129.408 7.16969 129.673 7.37494 129.992C7.58622 130.311 7.68884 130.685 7.68884 131.106C7.68884 131.474 7.60433 131.793 7.42927 132.052C7.2542 132.317 7.0067 132.492 6.68072 132.582V132.612L9.61453 133.196V133.763L2.31019 132.299ZM7.18176 131.16C7.18176 130.666 7.01877 130.263 6.69279 129.95C6.36681 129.63 5.91407 129.414 5.32851 129.299L4.71277 129.179C4.61619 129.167 4.5196 129.155 4.42301 129.143C4.32643 129.13 4.21777 129.124 4.10307 129.124C3.90386 129.124 3.71673 129.149 3.5477 129.191C3.37264 129.233 3.22776 129.305 3.10099 129.408C2.97422 129.504 2.87159 129.63 2.79915 129.781C2.72671 129.932 2.6905 130.106 2.6905 130.311C2.6905 130.528 2.73275 130.727 2.81726 130.907C2.90178 131.088 3.02251 131.257 3.17946 131.419C3.34245 131.6 3.54166 131.763 3.77709 131.907C4.01252 132.046 4.28417 132.142 4.59204 132.196L5.81748 132.443C5.98047 132.48 6.1495 132.48 6.31249 132.449C6.47547 132.419 6.62639 132.353 6.7592 132.251C6.892 132.148 6.99463 132.004 7.0731 131.823C7.15158 131.642 7.18176 131.419 7.18176 131.16Z" fill="black"/>
<path d="M7.56225 123.608C7.56225 123.782 7.51999 123.915 7.43548 123.999C7.35097 124.084 7.24231 124.12 7.10346 124.12C7.03102 124.12 6.94651 124.108 6.84992 124.09L6.42132 124.005V124.035C6.84389 124.252 7.15779 124.499 7.36908 124.77C7.58036 125.041 7.68298 125.385 7.68298 125.794C7.68298 126.047 7.63469 126.276 7.5381 126.475C7.44152 126.674 7.30871 126.848 7.13968 126.987C6.97066 127.126 6.75937 127.234 6.51791 127.312C6.27644 127.385 6.00479 127.427 5.70296 127.427C5.2804 127.427 4.85783 127.372 4.43526 127.27C4.0127 127.162 3.63843 127.005 3.30641 126.788C2.97439 126.571 2.70275 126.306 2.4975 125.987C2.29225 125.668 2.18359 125.294 2.18359 124.873C2.18359 124.505 2.26811 124.186 2.44317 123.927C2.61823 123.662 2.86574 123.487 3.19171 123.397V123.367L2.31036 123.192V122.626L7.06121 123.566V122.765L7.56225 122.867V123.608ZM7.18194 125.662C7.18194 125.445 7.13968 125.246 7.05517 125.065C6.97066 124.891 6.84992 124.716 6.69297 124.553C6.52998 124.367 6.33077 124.204 6.09534 124.066C5.85991 123.927 5.58826 123.831 5.2804 123.776L4.05496 123.529C3.89197 123.493 3.72294 123.493 3.55995 123.523C3.39696 123.554 3.24604 123.62 3.11927 123.722C2.98647 123.825 2.88385 123.969 2.80537 124.15C2.72689 124.331 2.68464 124.553 2.68464 124.813C2.68464 125.306 2.84763 125.71 3.1736 126.023C3.49958 126.342 3.95233 126.559 4.53789 126.674L5.15363 126.794C5.25021 126.806 5.3468 126.818 5.44339 126.83C5.53997 126.842 5.64863 126.848 5.76333 126.848C5.96254 126.848 6.14967 126.824 6.3187 126.782C6.48773 126.74 6.63864 126.668 6.76541 126.565C6.89218 126.469 6.9948 126.342 7.06724 126.192C7.14572 126.047 7.18194 125.867 7.18194 125.662Z" fill="black"/>
<path d="M1.40654 118.62C1.40654 118.915 1.34617 119.144 1.2194 119.318C1.09263 119.493 0.905498 119.62 0.645922 119.716L0.205246 119.867L0 119.385L0.778728 119.162C0.899461 119.017 0.965864 118.818 0.965864 118.565C0.965864 118.451 0.953791 118.343 0.923607 118.24C0.899461 118.138 0.851168 118.041 0.778728 117.945L0 117.433L0.247503 116.993L0.645922 117.288C0.905498 117.487 1.09867 117.686 1.2194 117.891C1.34617 118.096 1.40654 118.337 1.40654 118.62ZM2.31204 120.101L5.58994 120.758C5.69256 120.776 5.80122 120.794 5.90988 120.8C6.01854 120.806 6.10909 120.812 6.17549 120.812C6.50751 120.812 6.75501 120.74 6.92404 120.589C7.09306 120.445 7.18361 120.204 7.18361 119.879C7.18361 119.674 7.14136 119.475 7.06288 119.288C6.9844 119.102 6.85763 118.927 6.67654 118.758C6.50147 118.602 6.29623 118.463 6.06683 118.343C5.83744 118.222 5.60201 118.138 5.36055 118.084L2.306 117.481V116.915L7.05684 117.855V117.066L7.55789 117.156V117.903C7.55789 118.072 7.51563 118.198 7.43112 118.282C7.3466 118.367 7.23191 118.403 7.09306 118.403C7.04477 118.403 6.96629 118.391 6.8516 118.373L6.51355 118.312V118.355C6.90593 118.547 7.20172 118.776 7.3949 119.047C7.58807 119.318 7.68466 119.644 7.68466 120.035C7.68466 120.487 7.55789 120.824 7.31038 121.047C7.06288 121.27 6.70672 121.384 6.26001 121.384C6.16342 121.384 6.05476 121.378 5.93403 121.366C5.81329 121.354 5.6986 121.336 5.57786 121.318L2.306 120.662V120.101H2.31204Z" fill="black"/>
<path d="M7.06139 116.458V115.831C6.91651 115.705 6.74748 115.578 6.54224 115.458C6.33699 115.337 6.1076 115.223 5.83595 115.109C5.57034 114.994 5.26851 114.892 4.93045 114.789C4.5924 114.693 4.20606 114.597 3.77745 114.506L2.31055 114.211V111.055L7.56243 112.109V112.675L2.81159 111.723V113.771L3.74727 113.958C4.71917 114.157 5.47979 114.374 6.03516 114.615C6.59053 114.856 6.98895 115.09 7.22438 115.331C7.36322 115.47 7.45377 115.602 7.49603 115.735C7.53829 115.867 7.56243 116.024 7.56243 116.199V116.554L7.06139 116.458Z" fill="black"/>
<path d="M2.31055 104.639V104.073L7.56243 105.127V105.694L2.31055 104.639ZM2.31055 109.145V108.579L4.33282 108.976V107.73C4.33282 107.211 4.44148 106.838 4.6588 106.615C4.87612 106.392 5.19003 106.278 5.59448 106.278C5.83595 106.278 6.07138 106.314 6.30681 106.386C6.54224 106.459 6.75352 106.573 6.93462 106.73C7.11572 106.886 7.27267 107.085 7.38737 107.326C7.50207 107.567 7.56243 107.862 7.56243 108.199V110.187L2.31055 109.145ZM7.06139 108.205C7.06139 107.814 6.97688 107.519 6.80785 107.314C6.63882 107.109 6.4034 106.977 6.1076 106.916C5.92046 106.868 5.75144 106.844 5.58241 106.844C5.32887 106.844 5.14174 106.916 5.021 107.067C4.90027 107.218 4.83387 107.464 4.83387 107.82V109.091L7.06139 109.543V108.205Z" fill="black"/>
<path d="M83.3075 269.87C82.6555 269.816 82.1726 269.599 81.8768 269.207C81.5749 268.816 81.4542 268.304 81.5025 267.665C81.5448 267.147 81.6776 266.641 81.913 266.147C82.1424 265.653 82.4382 265.19 82.8004 264.756C83.1626 264.328 83.567 263.937 84.0258 263.593C84.4846 263.25 84.9615 262.967 85.4565 262.744L86.3077 262.81C85.3358 263.286 84.5208 263.816 83.8689 264.401C83.2109 264.979 82.734 265.641 82.4261 266.376L82.4684 266.388C82.7279 266.009 83.0117 265.744 83.3316 265.599C83.6515 265.455 84.0017 265.401 84.376 265.425C84.9374 265.467 85.372 265.672 85.6799 266.027C85.9938 266.382 86.1266 266.852 86.0783 267.43C86.0481 267.804 85.9576 268.147 85.8066 268.46C85.6557 268.768 85.4565 269.033 85.209 269.25C84.9615 269.466 84.6778 269.629 84.3518 269.737C84.0258 269.858 83.6757 269.9 83.3075 269.87ZM83.3799 269.34C83.893 269.382 84.3216 269.262 84.6657 268.99C85.0158 268.719 85.2513 268.358 85.3841 267.9C85.4143 267.792 85.4324 267.701 85.4444 267.629C85.4565 267.557 85.4626 267.491 85.4686 267.436C85.5048 267.009 85.4082 266.659 85.1969 266.4C84.9796 266.135 84.6416 265.985 84.1767 265.949C83.6636 265.906 83.235 266.021 82.8909 266.292C82.5408 266.563 82.3054 266.924 82.1726 267.382C82.1424 267.491 82.1243 267.581 82.1122 267.653C82.1001 267.726 82.0881 267.792 82.0881 267.846C82.0518 268.274 82.1484 268.623 82.3597 268.882C82.577 269.153 82.9211 269.304 83.3799 269.34Z" fill="black"/>
<path d="M87.7148 267.267L87.8839 266.683L90.3589 266.875L90.2019 267.46L87.7148 267.267Z" fill="black"/>
<path d="M98.9379 265.798L98.0264 269.008C97.9962 269.11 97.9781 269.213 97.96 269.321C97.9419 269.43 97.9359 269.52 97.9298 269.586C97.9057 269.912 97.96 270.171 98.0928 270.351C98.2256 270.532 98.455 270.634 98.781 270.665C98.9862 270.683 99.1854 270.659 99.3786 270.592C99.5718 270.526 99.7589 270.418 99.934 270.249C100.103 270.086 100.26 269.894 100.399 269.671C100.538 269.454 100.64 269.225 100.713 268.99L101.558 265.996L102.119 266.038L100.803 270.689L101.594 270.749L101.461 271.243L100.713 271.183C100.544 271.171 100.417 271.116 100.344 271.026C100.272 270.936 100.236 270.821 100.248 270.677C100.254 270.628 100.266 270.55 100.296 270.436L100.387 270.104H100.344C100.121 270.478 99.8676 270.755 99.5839 270.93C99.3001 271.098 98.9621 271.171 98.5757 271.14C98.123 271.104 97.797 270.954 97.5918 270.689C97.3865 270.424 97.302 270.062 97.3382 269.616C97.3443 269.52 97.3624 269.418 97.3865 269.297C97.4107 269.177 97.4348 269.062 97.465 268.948L98.3765 265.743L98.9379 265.798ZM100.495 265.015C100.2 264.99 99.9762 264.912 99.8133 264.774C99.6503 264.635 99.5356 264.436 99.4571 264.171L99.3364 263.719L99.8314 263.551L99.9944 264.346C100.127 264.478 100.32 264.557 100.574 264.575C100.689 264.587 100.797 264.581 100.906 264.557C101.009 264.539 101.111 264.496 101.214 264.436L101.787 263.701L102.21 263.978L101.884 264.352C101.667 264.593 101.449 264.768 101.238 264.876C101.021 264.996 100.773 265.039 100.495 265.015Z" fill="black"/>
<path d="M105.109 271.544L106.564 266.4L107.138 266.443L106.842 267.467L106.884 267.473C107.108 267.093 107.361 266.822 107.645 266.653C107.928 266.479 108.273 266.412 108.677 266.443C109.13 266.479 109.456 266.629 109.661 266.894C109.866 267.159 109.951 267.515 109.915 267.966C109.909 268.063 109.896 268.165 109.872 268.286C109.854 268.406 109.824 268.521 109.788 268.635L109.021 271.346L109.818 271.406L109.679 271.9L108.925 271.84C108.768 271.828 108.647 271.785 108.562 271.701C108.478 271.617 108.442 271.508 108.454 271.37C108.46 271.322 108.466 271.279 108.472 271.231C108.484 271.189 108.496 271.141 108.514 271.087L109.226 268.581C109.257 268.472 109.281 268.37 109.299 268.262C109.317 268.159 109.329 268.069 109.335 268.003C109.389 267.334 109.1 266.973 108.46 266.924C108.254 266.906 108.055 266.93 107.862 266.997C107.669 267.063 107.482 267.171 107.295 267.34C107.132 267.485 106.981 267.671 106.842 267.894C106.703 268.117 106.594 268.352 106.516 268.599L105.671 271.587L105.109 271.544Z" fill="black"/>
<path d="M112.822 272.273C112.206 272.224 111.747 272.008 111.445 271.628C111.144 271.243 111.017 270.7 111.077 269.99C111.113 269.538 111.21 269.116 111.373 268.725C111.536 268.327 111.741 267.99 112.001 267.707C112.254 267.424 112.556 267.201 112.894 267.05C113.238 266.894 113.607 266.833 114.011 266.863C114.24 266.882 114.458 266.93 114.651 267.002C114.85 267.074 115.019 267.177 115.158 267.297C115.297 267.418 115.405 267.574 115.484 267.749C115.556 267.924 115.587 268.122 115.568 268.339C115.55 268.58 115.472 268.791 115.333 268.99C115.194 269.183 114.971 269.345 114.675 269.472C114.373 269.598 113.981 269.688 113.498 269.737C113.015 269.785 112.417 269.791 111.705 269.743C111.687 269.809 111.669 269.887 111.663 269.972C111.651 270.056 111.645 270.128 111.639 270.182C111.602 270.67 111.687 271.056 111.892 271.321C112.103 271.592 112.435 271.742 112.888 271.779C113.256 271.809 113.594 271.743 113.902 271.58C114.21 271.417 114.476 271.194 114.705 270.905L115.067 271.243C114.723 271.652 114.367 271.935 113.987 272.092C113.613 272.242 113.22 272.303 112.822 272.273ZM113.908 267.351C113.431 267.315 113.015 267.454 112.659 267.767C112.303 268.08 112.043 268.514 111.886 269.05L111.814 269.291C112.454 269.321 112.979 269.321 113.389 269.285C113.794 269.255 114.12 269.189 114.349 269.098C114.584 269.008 114.741 268.893 114.832 268.755C114.922 268.616 114.977 268.46 114.989 268.279C115.013 267.99 114.922 267.767 114.729 267.616C114.53 267.472 114.258 267.381 113.908 267.351Z" fill="black"/>
<path d="M117.47 267.256L118.031 267.298L117.706 268.412H117.736C117.989 268.009 118.255 267.714 118.545 267.527C118.834 267.34 119.184 267.262 119.595 267.292C119.849 267.31 120.072 267.376 120.265 267.491C120.458 267.605 120.621 267.75 120.748 267.931C120.875 268.111 120.965 268.328 121.02 268.581C121.074 268.834 121.092 269.105 121.068 269.394C121.032 269.816 120.947 270.231 120.808 270.641C120.67 271.051 120.482 271.412 120.241 271.725C119.999 272.039 119.71 272.285 119.372 272.466C119.034 272.647 118.653 272.725 118.231 272.689C117.862 272.659 117.555 272.55 117.307 272.358C117.06 272.165 116.903 271.906 116.836 271.575H116.806L115.991 274.448L115.43 274.406L117.47 267.256ZM118.219 272.189C118.708 272.225 119.124 272.099 119.468 271.798C119.812 271.496 120.06 271.063 120.223 270.49L120.392 269.882C120.41 269.786 120.434 269.689 120.452 269.599C120.47 269.503 120.482 269.4 120.494 269.28C120.513 269.081 120.5 268.894 120.47 268.72C120.44 268.545 120.38 268.388 120.289 268.256C120.199 268.123 120.084 268.015 119.939 267.931C119.794 267.846 119.619 267.798 119.414 267.78C119.197 267.762 118.997 267.786 118.81 267.858C118.629 267.924 118.448 268.033 118.273 268.177C118.074 268.328 117.899 268.515 117.742 268.732C117.585 268.954 117.464 269.22 117.386 269.521L117.041 270.725C116.993 270.888 116.981 271.051 116.999 271.219C117.017 271.388 117.072 271.539 117.162 271.677C117.253 271.816 117.386 271.93 117.561 272.02C117.736 272.111 117.959 272.171 118.219 272.189Z" fill="black"/>
<path d="M123.81 273.134C123.194 273.086 122.736 272.869 122.434 272.489C122.132 272.104 122.005 271.562 122.065 270.851C122.102 270.399 122.198 269.978 122.361 269.586C122.524 269.195 122.729 268.851 122.989 268.568C123.243 268.285 123.544 268.062 123.882 267.912C124.227 267.755 124.595 267.695 124.999 267.725C125.229 267.743 125.446 267.791 125.645 267.863C125.844 267.936 126.013 268.038 126.152 268.158C126.291 268.279 126.4 268.436 126.478 268.61C126.551 268.785 126.581 268.984 126.563 269.201C126.545 269.441 126.466 269.652 126.327 269.851C126.188 270.044 125.965 270.206 125.663 270.333C125.361 270.459 124.969 270.55 124.486 270.598C124.003 270.646 123.406 270.652 122.693 270.604C122.675 270.67 122.657 270.749 122.651 270.833C122.639 270.917 122.633 270.989 122.627 271.044C122.591 271.532 122.675 271.917 122.88 272.182C123.092 272.453 123.424 272.604 123.876 272.64C124.245 272.67 124.583 272.604 124.891 272.441C125.198 272.279 125.464 272.056 125.693 271.767L126.056 272.104C125.712 272.513 125.355 272.797 124.975 272.953C124.601 273.104 124.214 273.164 123.81 273.134ZM124.897 268.219C124.42 268.183 124.003 268.321 123.647 268.634C123.291 268.948 123.031 269.381 122.874 269.917L122.802 270.158C123.442 270.188 123.967 270.188 124.377 270.152C124.782 270.122 125.108 270.056 125.337 269.965C125.567 269.875 125.73 269.761 125.82 269.622C125.911 269.484 125.965 269.327 125.977 269.146C126.001 268.857 125.911 268.634 125.718 268.484C125.518 268.333 125.247 268.243 124.897 268.219Z" fill="black"/>
<path d="M131.444 268.352L132.047 268.4L127.798 274.761C127.659 274.978 127.526 275.122 127.399 275.207C127.273 275.291 127.11 275.321 126.904 275.309L126.107 275.249L126.246 274.755L127.158 274.827L128.069 273.46L127.623 268.051L128.178 268.093L128.54 272.755L128.582 272.761L131.444 268.352Z" fill="black"/>
<path d="M130.825 273.057L131.446 273.105C131.585 272.972 131.724 272.81 131.863 272.617C132.002 272.424 132.135 272.201 132.267 271.942C132.4 271.689 132.533 271.394 132.654 271.063C132.78 270.732 132.901 270.358 133.028 269.937L133.438 268.503L136.59 268.75L135.123 273.894L134.561 273.852L135.883 269.202L133.837 269.039L133.577 269.955C133.306 270.906 133.028 271.647 132.744 272.177C132.461 272.707 132.195 273.087 131.935 273.304C131.784 273.43 131.646 273.508 131.507 273.545C131.368 273.581 131.211 273.587 131.036 273.575L130.68 273.545L130.825 273.057Z" fill="black"/>
<path d="M138.959 274.32C138.404 274.278 137.981 274.061 137.679 273.675C137.378 273.29 137.251 272.778 137.299 272.133C137.335 271.676 137.432 271.248 137.589 270.844C137.746 270.441 137.945 270.092 138.199 269.79C138.452 269.489 138.754 269.26 139.098 269.104C139.442 268.947 139.822 268.881 140.233 268.911C140.788 268.953 141.211 269.17 141.513 269.555C141.814 269.941 141.941 270.453 141.893 271.097C141.857 271.555 141.76 271.983 141.609 272.386C141.452 272.79 141.247 273.139 140.993 273.441C140.74 273.742 140.438 273.971 140.094 274.127C139.744 274.29 139.37 274.356 138.959 274.32ZM139.068 273.826C139.527 273.862 139.931 273.73 140.281 273.429C140.631 273.127 140.891 272.682 141.054 272.091L141.223 271.477C141.253 271.381 141.271 271.29 141.283 271.2C141.295 271.109 141.307 271.013 141.313 270.911C141.332 270.712 141.313 270.525 141.277 270.351C141.235 270.176 141.169 270.025 141.066 269.887C140.963 269.754 140.837 269.64 140.68 269.561C140.523 269.483 140.329 269.429 140.106 269.411C139.647 269.375 139.243 269.507 138.893 269.808C138.543 270.11 138.283 270.555 138.12 271.146L137.945 271.76C137.915 271.856 137.897 271.947 137.885 272.037C137.873 272.127 137.86 272.224 137.854 272.326C137.824 272.73 137.903 273.067 138.102 273.35C138.307 273.633 138.627 273.79 139.068 273.826Z" fill="black"/>
<path d="M93.4669 270.697C92.9116 270.655 92.489 270.438 92.1872 270.053C91.8853 269.667 91.7586 269.155 91.8069 268.511C91.8431 268.053 91.9397 267.625 92.0966 267.222C92.2536 266.818 92.4528 266.469 92.7063 266.168C92.9599 265.867 93.2617 265.638 93.6058 265.481C93.9499 265.324 94.3302 265.258 94.7407 265.288C95.2961 265.33 95.7186 265.547 96.0204 265.933C96.3223 266.318 96.4491 266.83 96.4008 267.475C96.3645 267.933 96.268 268.36 96.117 268.764C95.9601 269.167 95.7548 269.517 95.5013 269.818C95.2478 270.119 94.9459 270.348 94.6018 270.505C94.2517 270.667 93.8774 270.734 93.4669 270.697ZM93.5756 270.204C94.0344 270.24 94.4388 270.107 94.789 269.806C95.1391 269.505 95.3987 269.059 95.5617 268.469L95.7307 267.854C95.7609 267.758 95.779 267.668 95.7911 267.577C95.8031 267.487 95.8152 267.391 95.8212 267.288C95.8393 267.089 95.8212 266.903 95.785 266.728C95.7428 266.553 95.6764 266.403 95.5737 266.264C95.4711 266.132 95.3443 266.017 95.1874 265.939C95.0304 265.861 94.8373 265.806 94.6139 265.788C94.1551 265.752 93.7507 265.885 93.4005 266.186C93.0504 266.487 92.7908 266.933 92.6279 267.523L92.4528 268.137C92.4226 268.234 92.4045 268.324 92.3924 268.415C92.3803 268.505 92.3683 268.601 92.3622 268.704C92.3321 269.107 92.4105 269.445 92.6097 269.728C92.815 270.011 93.1349 270.167 93.5756 270.204Z" fill="black"/>
<path d="M144.067 269.341L144.629 269.383L144.001 271.612L144.985 271.69L146.73 269.919C146.856 269.793 146.977 269.702 147.086 269.66C147.194 269.612 147.327 269.6 147.478 269.612L147.961 269.648L147.822 270.142L147.231 270.094L145.709 271.636C145.607 271.744 145.516 271.816 145.438 271.859C145.365 271.901 145.275 271.925 145.172 271.931L145.16 271.973C145.263 272.003 145.341 272.051 145.395 272.124C145.45 272.196 145.504 272.316 145.565 272.473L146.156 274.256L146.73 274.298L146.591 274.792L146.204 274.762C146.011 274.744 145.872 274.69 145.776 274.593C145.679 274.497 145.601 274.346 145.546 274.142L144.876 272.16L143.886 272.081L143.198 274.521L142.637 274.479L144.067 269.341Z" fill="black"/>
<path d="M246.543 198.469L246.664 197.897L244.491 195.578C244.358 195.433 244.267 195.301 244.213 195.192C244.159 195.078 244.14 194.957 244.153 194.819L244.11 194.813C244.062 194.891 243.996 194.957 243.911 194.993C243.82 195.036 243.682 195.066 243.488 195.078L240.977 195.282L240.857 195.855L240.355 195.644L240.446 195.204C240.476 195.048 240.543 194.933 240.639 194.855C240.736 194.777 240.881 194.728 241.08 194.716L243.917 194.487L244.171 193.265L241.116 191.964L241.237 191.385L244.291 192.686L244.545 191.464L242.209 189.078C242.058 188.922 241.961 188.777 241.919 188.645C241.877 188.512 241.871 188.343 241.913 188.145L242.003 187.711L242.505 187.928L242.384 188.5L244.454 190.62C244.599 190.771 244.696 190.897 244.744 191C244.798 191.102 244.817 191.217 244.817 191.331L244.853 191.349C244.895 191.271 244.961 191.205 245.046 191.156C245.13 191.108 245.269 191.078 245.469 191.054L248.137 190.759L248.257 190.169L248.758 190.379L248.662 190.849C248.632 191 248.565 191.12 248.475 191.199C248.378 191.277 248.233 191.325 248.034 191.337L245.04 191.668L244.786 192.891L247.956 194.234L247.835 194.819L244.666 193.475L244.412 194.698L246.839 197.294C246.99 197.451 247.08 197.602 247.123 197.74C247.165 197.879 247.165 198.047 247.123 198.24L247.032 198.68L246.543 198.469Z" fill="black"/>
<path d="M249.774 185.566C249.737 185.741 249.671 185.862 249.568 185.922C249.466 185.988 249.351 186 249.218 185.976C249.146 185.958 249.061 185.934 248.977 185.892L248.572 185.723L248.566 185.753C248.934 186.054 249.194 186.355 249.345 186.669C249.496 186.976 249.532 187.337 249.448 187.735C249.399 187.982 249.303 188.193 249.17 188.373C249.037 188.548 248.868 188.693 248.675 188.795C248.482 188.897 248.252 188.964 247.999 188.988C247.745 189.012 247.474 188.994 247.178 188.933C246.761 188.849 246.357 188.711 245.97 188.524C245.578 188.337 245.246 188.102 244.962 187.825C244.685 187.548 244.473 187.229 244.334 186.873C244.196 186.518 244.171 186.133 244.256 185.717C244.328 185.356 244.479 185.066 244.703 184.844C244.926 184.621 245.204 184.5 245.542 184.476L245.548 184.446L244.715 184.097L244.829 183.542L249.291 185.428L249.454 184.645L249.924 184.844L249.774 185.566ZM248.983 187.5C249.025 187.283 249.025 187.084 248.983 186.892C248.94 186.699 248.856 186.512 248.735 186.319C248.608 186.102 248.451 185.904 248.246 185.723C248.047 185.536 247.8 185.392 247.51 185.271L246.357 184.783C246.2 184.717 246.043 184.681 245.874 184.681C245.705 184.681 245.548 184.711 245.397 184.789C245.246 184.862 245.119 184.982 245.005 185.139C244.89 185.301 244.805 185.506 244.757 185.759C244.654 186.241 244.733 186.669 244.986 187.048C245.24 187.422 245.644 187.729 246.194 187.964L246.773 188.211C246.864 188.241 246.954 188.277 247.051 188.307C247.148 188.337 247.244 188.361 247.359 188.385C247.552 188.427 247.739 188.44 247.92 188.434C248.095 188.428 248.258 188.385 248.403 188.313C248.548 188.241 248.669 188.138 248.771 188.006C248.868 187.867 248.94 187.705 248.983 187.5Z" fill="black"/>
<path d="M250.685 181.778C250.625 182.067 250.522 182.308 250.378 182.507C250.233 182.706 250.052 182.862 249.84 182.977C249.629 183.091 249.388 183.158 249.116 183.182C248.844 183.206 248.555 183.188 248.247 183.121C247.794 183.025 247.371 182.88 246.997 182.688C246.617 182.489 246.303 182.254 246.043 181.983C245.784 181.712 245.603 181.405 245.488 181.061C245.379 180.718 245.361 180.351 245.446 179.953C245.536 179.519 245.723 179.182 246.001 178.947C246.279 178.712 246.605 178.586 246.979 178.574L247.076 179.074C246.442 179.116 246.061 179.447 245.935 180.074C245.844 180.513 245.917 180.917 246.158 181.278C246.399 181.64 246.774 181.929 247.275 182.134L247.951 182.417C248.041 182.447 248.126 182.477 248.21 182.507C248.289 182.531 248.373 182.555 248.464 182.573C248.887 182.658 249.261 182.628 249.581 182.483C249.907 182.332 250.112 182.043 250.203 181.616C250.269 181.308 250.239 181.013 250.118 180.736C249.997 180.459 249.774 180.17 249.442 179.881L249.744 179.483C250.118 179.796 250.39 180.146 250.565 180.531C250.734 180.923 250.776 181.338 250.685 181.778Z" fill="black"/>
<path d="M246.246 176.7L246.361 176.146L248.256 176.947L248.51 175.724C248.612 175.218 248.8 174.875 249.059 174.694C249.319 174.519 249.645 174.471 250.043 174.555C250.279 174.604 250.502 174.688 250.719 174.802C250.937 174.917 251.118 175.073 251.269 175.266C251.419 175.459 251.522 175.682 251.588 175.947C251.655 176.206 251.649 176.507 251.582 176.838L251.178 178.784L246.246 176.7ZM247.164 172.285L247.278 171.73L252.21 173.827L252.096 174.381L247.164 172.285ZM251.087 176.736C251.166 176.356 251.142 176.049 251.015 175.808C250.888 175.567 250.689 175.399 250.411 175.278C250.242 175.194 250.073 175.134 249.916 175.104C249.669 175.049 249.47 175.086 249.319 175.206C249.168 175.326 249.059 175.555 248.987 175.905L248.727 177.146L250.816 178.037L251.087 176.736Z" fill="black"/>
<path d="M251.944 172.64L252.07 172.026C251.956 171.869 251.811 171.712 251.642 171.556C251.467 171.399 251.261 171.237 251.026 171.074C250.791 170.911 250.513 170.743 250.199 170.58C249.885 170.417 249.529 170.243 249.124 170.068L247.748 169.478L248.388 166.388L253.32 168.484L253.205 169.038L248.744 167.141L248.328 169.146L249.203 169.514C250.114 169.905 250.815 170.273 251.31 170.616C251.805 170.966 252.143 171.279 252.33 171.562C252.432 171.724 252.499 171.875 252.511 172.014C252.529 172.152 252.517 172.309 252.481 172.483L252.408 172.833L251.944 172.64Z" fill="black"/>
<path d="M247.484 161.364L248.287 157.491L248.788 157.702L248.106 160.991L250.388 161.967L250.78 160.093C250.841 159.798 250.937 159.557 251.064 159.364C251.191 159.172 251.342 159.021 251.517 158.913C251.692 158.804 251.891 158.744 252.108 158.72C252.326 158.696 252.561 158.714 252.809 158.768C253.171 158.84 253.491 158.967 253.769 159.136C254.046 159.304 254.27 159.509 254.445 159.75C254.614 159.991 254.728 160.262 254.789 160.569C254.849 160.876 254.837 161.202 254.765 161.557L254.209 164.225L247.484 161.364ZM254.258 161.364C254.342 160.943 254.306 160.581 254.149 160.286C253.992 159.991 253.726 159.762 253.364 159.611C253.189 159.539 253.032 159.485 252.893 159.437C252.754 159.389 252.634 159.358 252.543 159.34C252.247 159.28 251.988 159.316 251.764 159.443C251.541 159.569 251.384 159.84 251.3 160.256L250.901 162.183L253.841 163.43L254.258 161.364Z" fill="black"/>
<path d="M255.996 156.208C255.869 156.81 255.597 157.238 255.181 157.485C254.764 157.738 254.203 157.792 253.509 157.647C253.068 157.557 252.657 157.406 252.289 157.196C251.915 156.985 251.607 156.738 251.353 156.449C251.1 156.16 250.925 155.834 250.81 155.479C250.702 155.124 250.683 154.744 250.768 154.352C250.816 154.124 250.889 153.919 250.985 153.732C251.082 153.545 251.203 153.395 251.341 153.268C251.48 153.142 251.643 153.057 251.83 153.003C252.018 152.949 252.217 152.949 252.428 152.991C252.663 153.039 252.869 153.142 253.044 153.304C253.219 153.467 253.352 153.708 253.442 154.021C253.533 154.334 253.569 154.738 253.557 155.22C253.545 155.702 253.472 156.298 253.334 156.991C253.4 157.015 253.472 157.045 253.557 157.063C253.641 157.087 253.708 157.099 253.762 157.111C254.245 157.214 254.631 157.178 254.927 157.003C255.223 156.828 255.416 156.521 255.507 156.075C255.579 155.714 255.561 155.37 255.44 155.045C255.32 154.72 255.126 154.425 254.867 154.166L255.247 153.847C255.615 154.238 255.851 154.63 255.953 155.021C256.062 155.419 256.074 155.816 255.996 156.208ZM251.245 154.515C251.148 154.985 251.233 155.413 251.504 155.804C251.776 156.196 252.168 156.509 252.682 156.732L252.911 156.834C253.02 156.202 253.086 155.684 253.104 155.274C253.122 154.865 253.104 154.539 253.044 154.298C252.983 154.057 252.887 153.883 252.76 153.774C252.633 153.666 252.482 153.594 252.307 153.557C252.024 153.497 251.788 153.557 251.613 153.732C251.438 153.919 251.311 154.178 251.245 154.515Z" fill="black"/>
<path d="M255.885 153.679L256.012 153.064C255.897 152.908 255.752 152.751 255.583 152.594C255.408 152.438 255.203 152.275 254.967 152.113C254.732 151.95 254.454 151.781 254.14 151.619C253.826 151.456 253.47 151.281 253.066 151.107L251.689 150.516L252.329 147.426L257.261 149.522L257.147 150.077L252.685 148.185L252.269 150.191L253.144 150.558C254.056 150.95 254.756 151.317 255.251 151.661C255.746 152.004 256.084 152.323 256.271 152.606C256.38 152.769 256.44 152.92 256.452 153.058C256.47 153.197 256.458 153.353 256.422 153.528L256.35 153.877L255.885 153.679Z" fill="black"/>
<path d="M258.183 145.69C258.056 146.293 257.785 146.72 257.368 146.967C256.952 147.22 256.39 147.274 255.696 147.13C255.255 147.039 254.845 146.889 254.477 146.678C254.102 146.467 253.795 146.22 253.541 145.931C253.287 145.642 253.112 145.317 252.998 144.961C252.889 144.606 252.871 144.226 252.955 143.835C253.004 143.606 253.076 143.401 253.173 143.214C253.269 143.028 253.39 142.877 253.529 142.751C253.668 142.624 253.831 142.54 254.018 142.486C254.205 142.431 254.404 142.431 254.616 142.474C254.851 142.522 255.056 142.624 255.231 142.787C255.406 142.949 255.539 143.19 255.63 143.504C255.72 143.817 255.756 144.22 255.744 144.702C255.732 145.19 255.66 145.781 255.521 146.473C255.587 146.497 255.66 146.521 255.744 146.545C255.829 146.57 255.895 146.582 255.95 146.594C256.433 146.696 256.819 146.66 257.115 146.485C257.41 146.311 257.604 146.003 257.694 145.552C257.767 145.19 257.749 144.847 257.628 144.522C257.507 144.196 257.314 143.901 257.054 143.642L257.435 143.323C257.803 143.714 258.038 144.106 258.141 144.498C258.25 144.901 258.262 145.299 258.183 145.69ZM253.432 143.998C253.336 144.467 253.42 144.895 253.692 145.287C253.964 145.678 254.356 145.991 254.869 146.214L255.098 146.317C255.207 145.684 255.273 145.166 255.292 144.757C255.31 144.347 255.292 144.022 255.231 143.781C255.171 143.54 255.074 143.365 254.948 143.257C254.821 143.148 254.67 143.082 254.495 143.046C254.211 142.986 253.976 143.046 253.801 143.221C253.625 143.401 253.499 143.654 253.432 143.998Z" fill="black"/>
<path d="M259.22 140.692C259.16 140.981 259.057 141.222 258.913 141.421C258.768 141.619 258.587 141.776 258.375 141.89C258.164 142.005 257.923 142.071 257.651 142.095C257.379 142.119 257.09 142.101 256.782 142.035C256.329 141.939 255.906 141.794 255.532 141.601C255.152 141.403 254.838 141.168 254.578 140.897C254.319 140.626 254.138 140.318 254.029 139.975C253.92 139.632 253.902 139.264 253.987 138.867C254.077 138.433 254.264 138.096 254.542 137.861C254.82 137.626 255.146 137.499 255.52 137.487L255.617 137.987C254.989 138.029 254.608 138.361 254.476 138.987C254.385 139.427 254.458 139.83 254.699 140.198C254.94 140.559 255.315 140.848 255.816 141.053L256.492 141.336C256.582 141.366 256.667 141.397 256.751 141.427C256.83 141.451 256.92 141.475 257.005 141.493C257.428 141.577 257.802 141.547 258.122 141.403C258.448 141.252 258.653 140.963 258.744 140.535C258.81 140.228 258.78 139.933 258.659 139.656C258.538 139.379 258.315 139.09 257.983 138.8L258.285 138.403C258.659 138.716 258.931 139.065 259.106 139.451C259.275 139.836 259.311 140.246 259.22 140.692Z" fill="black"/>
<path fill-rule="evenodd" clip-rule="evenodd" d="M4.37695 92.5029V0.20752H5.23784V92.5029H4.37695Z" fill="black"/>
<path fill-rule="evenodd" clip-rule="evenodd" d="M4.37695 243.358V151.062H5.23784V243.358H4.37695Z" fill="black"/>
<path fill-rule="evenodd" clip-rule="evenodd" d="M19.0308 261.171L72.099 265.616L72.0272 266.474L18.959 262.029L19.0308 261.171Z" fill="black"/>
<path fill-rule="evenodd" clip-rule="evenodd" d="M155.152 272.579L208.28 277.03L208.209 277.888L155.08 273.437L155.152 272.579Z" fill="black"/>
<path fill-rule="evenodd" clip-rule="evenodd" d="M242.751 208.355L229.796 271.185L228.953 271.011L241.908 208.181L242.751 208.355Z" fill="black"/>
<path fill-rule="evenodd" clip-rule="evenodd" d="M273.001 61.7012L259.593 126.713L258.75 126.539L272.157 61.5273L273.001 61.7012Z" fill="black"/>
</svg>
