<svg viewBox="0 0 502437 188901" fill="none" xmlns="http://www.w3.org/2000/svg">
	<polygon stroke-width="1936.51" stroke="red" points="2.662e5 99426 2.6733e5 1.0171e5 2.6847e5 1.0444e5 2.699e5 1.0809e5 2.7182e5 1.129e5 2.7406e5 1.1874e5 2.7574e5 1.2361e5 2.7685e5 1.2735e5 2.7766e5 1.3128e5 2.7803e5 1.3461e5 2.782e5 1.3747e5 2.781e5 1.3883e5 2.7791e5 1.3962e5 2.7737e5 1.403e5 2.7645e5 1.4038e5 2.7488e5 1.4016e5 2.733e5 1.3947e5 2.7199e5 1.3855e5 2.7075e5 1.3705e5 2.696e5 1.349e5 2.6789e5 1.3069e5 2.6644e5 1.2585e5 2.651e5 1.2003e5 2.6436e5 1.1539e5 2.6396e5 1.1206e5 2.6382e5 1.0803e5 2.6389e5 1.0503e5 2.6429e5 1.0298e5 2.647e5 1.015e5 2.6515e5 1.0021e5"/>
	<polyline stroke-width="1936.51" stroke="red" points="46 1.8738e5 9295 1.8694e5 19518 1.8661e5 32264 1.8614e5 46997 1.8573e5 62371 1.8547e5 75554 1.8526e5 88065 1.8533e5 1.2116e5 1.8527e5 1.4645e5 1.8533e5 1.7201e5 1.8527e5 2.0336e5 1.854e5 2.304e5 1.856e5 2.4823e5 1.8561e5 2.6309e5 1.8581e5 2.7651e5 1.8611e5 2.893e5 1.8648e5 2.9959e5 1.8689e5 3.0962e5 1.8723e5 3.1738e5 1.876e5 3.227e5 1.878e5 3.1305e5 1.8117e5 3.0511e5 1.7566e5 2.9896e5 1.7118e5 2.9189e5 1.6614e5 2.8557e5 1.6072e5 2.8288e5 1.5773e5 2.8002e5 1.538e5 2.7807e5 1.4993e5 2.7753e5 1.4778e5 2.7758e5 1.4624e5 2.7804e5 1.4503e5 2.7903e5 1.4427e5 2.8053e5 1.4376e5 2.8167e5 1.4386e5 2.8286e5 1.443e5 2.8398e5 1.4474e5 2.8695e5 1.4625e5 2.8967e5 1.4796e5 2.925e5 1.4974e5 2.9522e5 1.5132e5 2.9896e5 1.5334e5 3.0225e5 1.5459e5 3.0494e5 1.5523e5 3.0686e5 1.5533e5 3.0875e5 1.5486e5 3.1029e5 1.5381e5 3.116e5 1.5227e5 3.1483e5 1.4705e5 3.1806e5 1.4218e5 3.2099e5 1.3831e5 3.2368e5 1.3548e5 3.2732e5 1.33e5 3.2953e5 1.3232e5 3.3091e5 1.3229e5 3.3283e5 1.3232e5 3.3516e5 1.3307e5 3.4114e5 1.3508e5 3.4824e5 1.3751e5 3.5473e5 1.3952e5 3.5941e5 1.407e5 3.6267e5 1.4148e5 3.6536e5 1.4232e5 3.6769e5 1.4353e5 3.6916e5 1.4538e5 3.7021e5 1.4753e5 3.7146e5 1.5113e5 3.7307e5 1.5614e5 3.7395e5 1.6058e5 3.7452e5 1.6502e5 3.7466e5 1.6896e5 3.7456e5 1.7188e5 3.7432e5 1.7347e5 3.7363e5 1.7445e5 3.7228e5 1.7546e5 3.7057e5 1.762e5 3.6485e5 1.7781e5 3.5994e5 1.7895e5 3.547e5 1.7996e5 3.5026e5 1.8057e5 3.4609e5 1.8057e5 3.4192e5 1.801e5 3.3714e5 1.7929e5 3.3284e5 1.7808e5 3.2826e5 1.7593e5 3.243e5 1.7337e5 3.2033e5 1.7021e5 3.1716e5 1.6712e5 3.1448e5 1.6402e5 3.136e5 1.6227e5 3.1326e5 1.6052e5 3.1374e5 1.5891e5 3.1441e5 1.5729e5 3.1548e5 1.5615e5 3.1656e5 1.5494e5 3.1864e5 1.5306e5 3.2086e5 1.5057e5 3.2234e5 1.4835e5 3.2335e5 1.4633e5 3.2416e5 1.4404e5 3.249e5 1.4156e5 3.253e5 1.3799e5 3.2547e5 1.353e5 3.2504e5 1.3133e5 3.242e5 1.2363e5 3.2251e5 1.1623e5 3.205e5 1.093e5 3.1808e5 1.0345e5 3.1538e5 97938 3.1256e5 93768 3.0994e5 90405 3.0691e5 87782 3.0348e5 85427 2.9998e5 83813 2.9669e5 83073 2.9433e5 82871 2.9238e5 83073 2.8989e5 83611 2.8747e5 84620 2.8566e5 86032 2.8364e5 88926 2.8209e5 91549 2.8048e5 94240 2.7886e5 96728 2.7671e5 99352 2.7462e5 1.007e5 2.7227e5 1.0144e5 2.7025e5 1.0124e5 2.685e5 1.0002e5 2.6702e5 98209 2.6615e5 95787 2.6574e5 93601 2.6544e5 89028 2.6618e5 84320 2.6746e5 79275 2.7035e5 72280 2.7277e5 66428 2.7486e5 61653 2.7728e5 55934 2.799e5 50620 2.8306e5 45576 2.8649e5 40329 2.8972e5 36428 2.9194e5 34478 2.9335e5 33199 2.9483e5 32796 2.9651e5 33805 2.9914e5 35755 3.0048e5 37841 3.0122e5 40060 3.0149e5 42213 3.0129e5 44163 3.0102e5 46316 3.0008e5 48535 2.9914e5 50755 2.951e5 57750 2.9409e5 61046 2.9376e5 63602 2.9369e5 66091 2.9436e5 68714 2.955e5 71337 2.9651e5 73220 2.982e5 75373 3.0055e5 77189 3.0438e5 79745 3.0892e5 82906 3.1256e5 84823 3.1491e5 85866 3.1703e5 86572 3.1898e5 86942 3.209e5 87043 3.2275e5 86707 3.244e5 86336 3.2608e5 85832 3.2914e5 84218 3.3159e5 82704 3.3411e5 80653 3.3647e5 78467 3.3876e5 75844 3.4128e5 72615 3.431e5 69658 3.4414e5 67236 3.4465e5 64545 3.4478e5 61619 3.4455e5 58323 3.4351e5 52810 3.4233e5 48807 3.4051e5 45175 3.3866e5 41543 3.3668e5 38517 3.3456e5 36297 3.3292e5 35256 3.3117e5 34617 3.2932e5 34448 3.2733e5 34717 3.2532e5 35222 3.2256e5 36096 3.197e5 37072 3.1711e5 37946 3.1449e5 38551 3.12e5 38921 3.0985e5 38787 3.0796e5 38182 3.0618e5 37240 3.0342e5 33944 3.0083e5 30513 2.9965e5 28024 2.9969e5 26242 3.0056e5 24930 3.0184e5 23686 3.0446e5 22206 3.0816e5 20222 3.1243e5 17701 3.1963e5 13867 3.2723e5 10235 3.344e5 7174 3.4149e5 4519 3.4728e5 3039 3.5272e5 2232 3.5716e5 2165 3.6053e5 2702 3.6261e5 3375 3.6456e5 4754 3.6641e5 6907 3.6772e5 8453 3.6971e5 10337 3.7233e5 11884 3.758e5 13632 3.8091e5 15717 3.8548e5 17332 3.8945e5 18542 3.947e5 19887 3.9988e5 20963 4.0365e5 21569 4.0775e5 22107 4.1199e5 22241 4.1395e5 22143 4.1566e5 21538 4.1677e5 20125 4.1708e5 18551 4.1637e5 17334 4.1479e5 15551 4.1263e5 14072 4.0954e5 12626 4.052e5 10641 4.0026e5 8556 3.9565e5 6841 3.9155e5 5361 3.8805e5 4353 3.8428e5 3343 3.8085e5 2469 3.783e5 1796"/>
	<polyline stroke-width="1936.51" stroke="red" points="4.0703e5 1.8159e5 4.0936e5 1.8128e5 4.1171e5 1.8054e5 4.1524e5 1.7886e5 4.1844e5 1.7688e5 4.215e5 1.7452e5 4.2459e5 1.7177e5 4.2789e5 1.6864e5 4.3152e5 1.6454e5 4.3462e5 1.6131e5 4.374e5 1.5857e5 4.3941e5 1.5677e5 4.4124e5 1.5519e5 4.4318e5 1.5379e5 4.4501e5 1.5241e5 4.4617e5 1.5098e5 4.4687e5 1.4932e5 4.4712e5 1.4779e5 4.4692e5 1.4663e5 4.4614e5 1.4547e5 4.4508e5 1.4496e5 4.4384e5 1.4481e5 4.4288e5 1.4512e5 4.4229e5 1.4554e5 4.4207e5 1.4619e5 4.4266e5 1.4654e5 4.4354e5 1.4648e5 4.4453e5 1.4607e5 4.452e5 1.458e5 4.4714e5 1.4421e5 4.4882e5 1.4222e5 4.5017e5 1.3984e5 4.5178e5 1.3715e5 4.5339e5 1.3429e5 4.5484e5 1.3092e5 4.5629e5 1.2477e5 4.5838e5 1.1609e5 4.5915e5 1.1199e5 4.5996e5 1.0685e5 4.6043e5 1.0086e5 4.6084e5 95278 4.6077e5 88519 4.603e5 84180 4.5956e5 80951 4.5823e5 79086 4.5672e5 78699 4.5499e5 78833 4.5322e5 79405 4.5073e5 80382 4.4831e5 81761 4.4666e5 83207 4.4576e5 84990 4.4522e5 87445 4.4512e5 89295 4.4495e5 91583 4.4428e5 93567 4.436e5 95383 4.4169e5 1.0134e5 4.3903e5 1.1018e5 4.3728e5 1.1802e5 4.3637e5 1.2397e5 4.3627e5 1.277e5 4.3641e5 1.3173e5"/>
	<polyline stroke-width="1936.51" stroke="red" points="5.0244e5 1.8624e5 4.905e5 1.8626e5 4.8314e5 1.8624e5 4.7606e5 1.8617e5 4.5279e5 1.8617e5 4.3019e5 1.8621e5 4.2026e5 1.8617e5 4.1594e5 1.8634e5 4.1382e5 1.8618e5 4.1189e5 1.856e5 4.103e5 1.848e5 4.0841e5 1.8291e5 4.0703e5 1.8159e5 4.0522e5 1.8036e5 4.0395e5 1.7942e5 4.0013e5 1.7752e5 3.9573e5 1.7634e5 3.921e5 1.7574e5 3.891e5 1.7567e5 3.8631e5 1.7584e5 3.8423e5 1.7614e5 3.8212e5 1.7663e5 3.8038e5 1.7715e5 3.7978e5 1.7758e5 3.828e5 1.7784e5 3.8556e5 1.7782e5 3.8887e5 1.7777e5 3.9321e5 1.7776e5 3.9625e5 1.7784e5 4.0313e5 1.7747e5 4.066e5 1.7721e5 4.0848e5 1.77e5 4.1014e5 1.7712e5 4.1074e5 1.7815e5 4.1058e5 1.7932e5 4.1012e5 1.7998e5 4.0905e5 1.7973e5 4.0888e5 1.7896e5 4.1053e5 1.7603e5 4.1205e5 1.7435e5 4.1359e5 1.7283e5 4.1608e5 1.7109e5 4.1884e5 1.693e5 4.2136e5 1.6742e5 4.2415e5 1.6523e5 4.2732e5 1.6234e5 4.3142e5 1.5824e5 4.3405e5 1.5501e5 4.3616e5 1.5172e5 4.3741e5 1.4859e5 4.3795e5 1.4512e5 4.3785e5 1.4119e5 4.3718e5 1.3783e5 4.359e5 1.3381e5 4.3331e5 1.2716e5 4.3173e5 1.2414e5 4.3019e5 1.2252e5 4.2864e5 1.2178e5 4.2649e5 1.2121e5 4.238e5 1.2101e5 4.2094e5 1.2088e5 4.1243e5 1.2027e5 4.0207e5 1.1966e5 3.9938e5 1.197e5 3.9582e5 1.2024e5 3.9319e5 1.2101e5 3.9026e5 1.2256e5 3.8781e5 1.2444e5 3.8576e5 1.2646e5 3.836e5 1.2858e5 3.8196e5 1.305e5 3.8075e5 1.3198e5 3.7962e5 1.337e5 3.7829e5 1.351e5 3.7742e5 1.3635e5 3.7678e5 1.3722e5 3.7536e5 1.384e5 3.7459e5 1.3911e5 3.7365e5 1.3944e5 3.7395e5 1.382e5 3.7494e5 1.3709e5 3.8095e5 1.3406e5 3.8566e5 1.303e5 3.8956e5 1.27e5 3.9282e5 1.2421e5 3.9504e5 1.2189e5 3.9652e5 1.1876e5 3.9699e5 1.1604e5 3.9696e5 1.1304e5 3.9628e5 1.078e5 3.9511e5 1.0124e5 3.9433e5 96294 3.9346e5 91317 3.9287e5 88225 3.9223e5 85837 3.9181e5 84206 3.9134e5 82827 3.9095e5 81513 3.9137e5 80945 3.9211e5 80861 3.9257e5 81853 3.9237e5 82542 3.9154e5 84173 3.9119e5 86057 3.9117e5 87334 3.9131e5 88915 3.9186e5 94314 3.925e5 98249 3.9334e5 1.0195e5 3.9375e5 1.0393e5 3.9452e5 1.0726e5 3.9509e5 1.0975e5 3.9553e5 1.114e5 3.964e5 1.1295e5 3.9825e5 1.1416e5 3.999e5 1.146e5 4.034e5 1.1466e5 4.0777e5 1.149e5 4.118e5 1.149e5 4.1658e5 1.1463e5 4.2078e5 1.1429e5 4.2384e5 1.1392e5 4.261e5 1.1318e5 4.2761e5 1.1228e5 4.2892e5 1.1086e5 4.3023e5 1.0888e5 4.343e5 1.0111e5 4.3695e5 95679 4.3924e5 90164 4.4031e5 86666 4.4041e5 84311 4.4001e5 82697 4.3922e5 81251 4.3848e5 80410 4.3737e5 79081 4.3487e5 77283 4.3076e5 74895 4.2764e5 73147 4.2357e5 70625 4.2158e5 68960 4.1975e5 67010 4.1827e5 64958 4.1635e5 60705 4.1494e5 55458 4.1396e5 50616 4.1329e5 46984 4.1164e5 41151 4.0895e5 35972 4.0566e5 32071 4.0162e5 28977 3.957e5 25749 3.8857e5 22722 3.8171e5 20369 3.7559e5 18620 3.7008e5 17812 3.65e5 18216 3.6106e5 19393 3.5531e5 22152 3.4966e5 25751 3.4621e5 28222 3.4485e5 29618 3.4401e5 31249 3.4322e5 38685 3.4302e5 43528 3.4322e5 46823 3.449e5 52036 3.4692e5 55332 3.4887e5 57956 3.5331e5 62295 3.5782e5 65254 3.6172e5 67406 3.6582e5 69021 3.708e5 70231 3.7524e5 71173 3.8102e5 72047 3.8688e5 72586 3.9071e5 72922 3.936e5 72989 3.9589e5 72720 3.9811e5 72249 4.0013e5 71307 4.0262e5 69559 4.1277e5 61151 4.1775e5 56981 4.1977e5 56241 4.2152e5 55904 4.2286e5 56442 4.2407e5 57048 4.2542e5 58192 4.267e5 59200 4.3255e5 65321 4.3749e5 70669 4.4106e5 73696 4.4392e5 75412 4.4671e5 76084 4.496e5 76219 4.5196e5 75210 4.5377e5 73662 4.5502e5 71275 4.5542e5 68584 4.5498e5 65961 4.538e5 62262 4.4644e5 47600 4.4026e5 37847 4.3259e5 29170 4.266e5 24125 4.2196e5 20762 4.1847e5 18408 4.1479e5 15551 4.1208e5 14036 4.0869e5 12237 4.0446e5 10329 3.9795e5 7699 3.9155e5 5361 3.8554e5 3409 3.8228e5 2333 3.7983e5 1559 3.7792e5 918"/>
</svg>