<svg width="331" height="175" viewBox="0 0 331 175" fill="none" xmlns="http://www.w3.org/2000/svg">
<path d="M1 137.006C55.4737 138.237 172.376 135.919 166.755 135.52C161.135 135.12 160.732 75.5763 163.141 70.3803C165.55 65.1857 170.369 63.1874 170.369 63.1874C170.369 63.1874 171.026 70.133 169.584 66.2346C168.14 62.3375 167.522 57.4144 169.584 56.3883C171.645 55.3621 242.342 53.5174 232.448 56.799C222.555 60.0806 167.109 59.8746 168.14 51.6698C169.171 43.4636 238.631 44.4897 231.006 48.3882C223.379 52.2852 168.553 50.2343 168.553 47.362C168.553 44.4911 169.171 62.1329 165.667 62.5422C162.163 62.9529 154.537 62.1329 149.797 50.439C145.056 38.7465 151.857 27.668 159.897 24.1803C167.935 20.6926 180.095 20.4879 185.455 27.8727C190.814 35.2574 192.05 41.8221 190.401 42.2328C188.752 42.6435 172.469 46.7466 173.912 44.899C175.354 43.0528 186.073 42.4374 185.455 39.3605C184.836 36.2835 184.836 29.5128 182.363 30.7435C179.89 31.9743 171.852 44.899 171.233 41.4113C170.615 37.925 178.86 30.3342 177.829 28.6927C176.8 27.0526 170.409 24.7957 168.76 25.2064C167.111 25.6172 170.202 40.7973 168.347 39.7712C166.492 38.7465 164.43 28.2834 162.988 28.0787C161.546 27.8727 156.805 31.1557 156.392 33.0019C155.98 34.8481 168.14 41.4127 166.285 42.0281C164.43 42.6435 156.392 35.8742 154.95 37.105C153.508 38.3358 152.477 45.3112 153.095 46.1312C153.713 46.9513 165.256 43.465 164.637 44.6958C164.019 45.9266 156.394 47.9774 156.394 49.6189C156.394 51.259 160.928 56.3883 162.577 56.1836C164.226 55.9775 165.256 46.1312 165.874 48.1821C166.492 50.2343 164.225 60.2853 174.738 63.3637C185.249 66.4392 206.273 64.3884 213.282 64.3884C220.289 64.3884 231.213 62.9529 231.831 61.5175C232.449 60.082 232.655 52.902 231.213 51.4651C229.77 50.0297 218.846 50.8497 219.465 47.9774C220.083 45.1065 227.916 17.617 229.976 15.3601C232.037 13.1032 244.404 6.74462 244.404 4.89844C244.404 3.05226 242.754 1 241.31 1C239.868 1 226.058 11.257 225.439 11.871C224.821 12.4864 205.034 77.9271 205.858 80.184C206.683 82.4395 227.5 83.0548 228.944 79.5686C230.386 76.0809 228.325 70.5423 219.462 70.3362C210.6 70.1316 203.797 73.6179 195.759 73.824C187.721 74.0286 178.652 70.9516 173.292 71.7731C167.933 72.5932 165.46 76.6963 170.819 79.5686C176.178 82.4395 195.141 79.9779 198.232 81.2087C201.324 82.4395 203.797 135.982 197.819 134.545C191.842 133.109 192.666 99.2612 189.987 98.0304C187.308 96.7996 183.186 95.9795 182.978 104.39C182.773 112.801 185.452 130.443 180.918 127.571C176.383 124.698 174.322 103.364 171.436 107.466C168.55 111.569 167.108 133.314 170.199 137.006C173.291 140.699 178.238 145.417 191.018 146.442C203.797 147.468 221.317 143.776 225.851 140.493C230.386 137.211 236.156 130.851 232.859 132.288C229.562 133.723 229.768 140.493 228.118 143.365C226.47 146.236 217.814 149.93 207.92 150.134C198.027 150.339 183.187 149.93 178.652 148.288C174.116 146.648 170.819 143.159 170.614 140.903C170.407 138.646 179.064 136.802 181.332 138.237C183.598 139.672 189.37 143.982 195.142 142.135C200.914 140.289 199.883 135.775 207.303 131.058C214.724 126.34 216.372 134.135 223.999 133.315C231.625 132.495 234.923 131.264 235.954 125.52C236.985 119.775 238.427 102.544 238.427 94.338C238.427 86.1332 238.014 73.2086 236.366 70.3362C234.717 67.4639 229.565 61.5161 230.389 64.593C231.213 67.67 249.762 64.1823 258.42 65.8224C267.076 67.4639 266.871 89.4149 266.458 100.697C266.045 111.978 258.213 123.672 249.557 124.494C240.9 125.314 238.633 124.698 239.045 121.417C239.458 118.135 248.938 117.518 252.855 114.441C256.772 111.364 259.245 98.4411 257.596 91.2611C255.948 84.081 257.803 78.5424 251.413 76.4902C245.023 74.4393 236.161 76.0794 234.717 78.3364C233.275 80.5919 233.275 123.468 233.48 127.775C233.687 132.083 234.924 141.52 239.045 142.956C239.045 142.956 243.302 143.454 245.325 139.427C247.349 135.397 249.822 131.817 254.77 130.476C259.717 129.133 265.563 127.566 265.563 127.566C265.563 127.566 258.142 125.551 251.397 128.014C244.651 130.476 237.906 140.994 235.432 144.799C232.959 148.604 228.687 148.156 228.237 150.393C227.787 152.631 235.207 154.197 236.78 157.107C238.354 160.016 245.325 168.744 252.52 171.653C259.715 174.562 271.407 174.562 275.229 172.772C279.051 170.981 284.448 161.358 283.998 149.721C283.55 138.084 277.926 130.922 272.981 130.028C268.033 129.133 261.289 128.686 257.916 134.503C254.543 140.322 255.217 154.868 258.14 161.582C261.063 168.295 268.033 172.324 272.306 170.309C276.578 168.295 279.051 160.687 279.276 158.672C279.5 156.658 269.607 151.959 271.406 151.287C273.205 150.616 277.702 154.867 279.5 152.182C281.299 149.496 281.523 141.216 278.824 141.441C276.127 141.664 270.955 149.05 271.63 147.034C272.304 145.021 276.802 139.65 276.127 137.636C275.453 135.622 270.731 132.488 269.383 132.936C268.033 133.384 269.832 146.139 268.259 144.573C266.685 143.007 266.01 134.277 263.312 134.727C260.613 135.173 257.692 140.993 258.366 143.007C259.04 145.021 268.709 146.139 267.134 147.034C265.56 147.93 259.264 145.691 259.04 147.707C258.816 149.721 258.14 155.762 260.613 155.762C263.087 155.762 267.583 151.958 267.583 152.63C267.583 153.301 261.963 157.328 262.187 159.567C262.411 161.805 268.257 168.072 269.383 166.504C270.506 164.938 268.033 152.182 269.832 155.316C271.632 158.448 270.508 166.504 272.755 165.385C275.003 164.267 276.802 161.805 276.802 160.461C276.802 159.118 275.003 156.433 275.229 158.224C275.454 160.015 330 159.119 330 159.119" stroke="black" stroke-miterlimit="10" stroke-linecap="round" stroke-linejoin="round"/>
</svg>
