<svg width="346" height="118" viewBox="0 0 346 118" fill="none" xmlns="http://www.w3.org/2000/svg">
<path d="M345.5 114.954C345.5 114.954 224.362 115.193 227.918 113.411C231.474 111.631 240.235 115.828 240.616 112.776C240.997 109.723 238.204 107.687 235.537 106.925C232.87 106.162 230.965 107.052 229.949 106.162C228.932 105.272 228.172 103.745 226.265 104.127C224.36 104.51 222.963 104.255 223.726 106.035C224.488 107.816 227.408 111.633 226.648 113.413C225.884 115.194 193.757 119.392 183.852 115.194C173.946 110.996 177.883 103.49 183.598 99.547C189.311 95.6038 208.869 86.8275 210.012 87.081C211.155 87.3359 208.488 85.1728 204.297 87.7175C200.106 90.2622 180.55 100.183 179.408 101.583C178.265 102.982 172.931 97.6401 180.042 92.424C188.534 86.1974 199.832 84.2608 209.578 80.9735C211.587 80.2956 213.567 79.24 214.78 77.4974C215.993 75.7561 216.226 73.2075 214.882 71.5645C213.96 70.4377 212.503 69.9177 211.108 69.505C208.827 68.831 206.438 68.276 204.527 66.8594C202.617 65.4428 201.312 62.8606 202.188 60.6471C202.356 60.2241 202.769 59.7661 203.185 59.9511C203.487 60.0856 203.561 60.4737 203.595 60.8023C204.217 66.655 205.249 72.4636 206.678 78.1727C207.537 81.5984 208.777 86.156 212.101 88.0539C214.271 89.2932 217.55 88.5959 219.972 88.8236C221.766 88.9918 235.704 89.9271 235.917 86.9516C236.043 85.1702 236.805 89.6231 234.393 94.2028C231.98 98.7824 230.711 102.217 223.091 103.742C215.471 105.269 203.407 103.742 197.946 104.124C192.486 104.507 188.422 106.287 192.358 106.922C196.295 107.559 215.724 107.686 221.439 105.269C227.154 102.852 233.376 97.001 230.709 95.3464C228.042 93.6931 214.454 92.0384 219.407 92.0384C224.36 92.0384 232.36 91.6568 234.646 89.6218C236.932 87.5856 236.296 82.7523 234.265 77.2826C232.232 71.8129 228.423 61.51 228.169 55.277C227.915 49.044 223.978 38.4862 218.899 38.3594C213.819 38.2326 203.279 45.2276 204.422 45.9922C205.565 46.7555 208.613 47.9004 209.629 51.3351C210.645 54.7699 209.122 56.5513 210.01 56.2951C210.899 56.0403 220.297 55.5318 221.186 51.5887C222.074 47.6455 221.821 44.084 221.312 45.4825C220.805 46.8822 220.55 49.8086 218.138 51.9703C215.725 54.1334 207.47 57.1865 203.661 58.2033C199.851 59.2202 193.248 59.6018 191.978 59.3482C190.709 59.0934 179.914 58.4582 169.629 49.6818C159.342 40.9041 157.565 40.6493 156.041 40.3957C154.517 40.1408 144.105 38.2339 145.374 37.0877C146.645 35.9428 152.613 37.4694 151.089 37.4694C149.565 37.4694 142.581 36.0709 144.359 34.7992C146.136 33.5262 151.598 35.5625 150.582 35.3076C149.565 35.0528 143.597 34.2895 145.755 32.891C147.915 31.4925 152.74 33.2726 151.978 33.0178C151.216 32.7629 146.645 31.3645 148.422 30.9828C150.199 30.5999 154.011 33.0178 154.011 32.2545C154.011 31.4912 152.232 28.4381 154.265 28.9465C156.297 29.455 157.44 34.543 158.964 35.5612C160.488 36.5793 173.187 43.5743 178.139 45.8654C183.092 48.1539 184.488 49.0453 186.775 49.3001C189.061 49.555 200.108 48.1552 206.204 45.3557C212.3 42.5575 219.157 38.9959 218.523 37.2145C217.889 35.4344 215.475 36.9597 214.967 32.8897C214.46 28.8198 221.444 27.8016 221.952 23.9853C222.459 20.1689 219.539 21.4406 219.539 23.7304C219.539 26.0202 219.157 27.1651 222.586 30.345C226.015 33.5249 228.427 43.9559 226.905 42.4307C225.381 40.9041 235.413 37.851 234.524 27.8016C233.635 17.7523 229.191 15.0808 225.127 15.9709C221.064 16.8622 220.683 22.0771 221.699 20.1689C222.715 18.262 222.842 16.7341 221.191 13.0458C219.54 9.35623 216.747 5.92278 210.016 5.41307C203.284 4.90465 199.602 7.7029 198.84 11.5193C198.078 15.3357 199.221 16.989 205.19 21.3138C211.159 25.6386 210.778 29.9634 211.54 28.0552C212.302 26.147 209.255 21.4406 211.285 22.839C213.317 24.2388 213.445 28.182 214.079 26.5274C214.714 24.874 214.841 22.0758 215.475 23.0926C216.11 24.1107 215.22 28.0539 216.618 25.8909C218.014 23.7278 220.428 21.8209 218.268 17.24C216.11 12.6603 211.919 8.46358 207.347 9.10008C202.775 9.73528 200.236 12.28 199.855 13.5517C199.474 14.8234 198.078 14.6966 197.443 18.8933C196.807 23.0913 197.062 29.5792 198.586 32.6323C200.11 35.6854 210.142 32.2506 210.142 29.3243C210.142 26.398 209.761 30.8509 209.126 32.3774C208.492 33.904 205.825 33.7759 205.825 34.4124C205.825 35.0489 206.587 36.4474 206.713 38.7385C206.84 41.0283 204.554 41.2819 206.84 41.0283C209.126 40.7734 213.062 36.5767 211.538 36.7035C210.014 36.8303 204.808 37.0851 202.649 37.4668C200.489 37.8484 194.776 37.8484 194.648 38.2313C194.521 38.613 194.521 47.3894 196.044 47.2626C197.568 47.1358 202.012 40.7747 200.107 39.7579C198.202 38.7411 198.076 38.8678 193.885 38.8678C189.694 38.8678 187.917 38.8678 183.345 37.3413C178.773 35.8147 166.835 30.7267 165.058 28.5649C163.28 26.4019 162.01 22.4587 161.248 23.0952C160.485 23.7317 161.629 27.0384 161.248 28.4381C160.867 29.8366 138.135 36.0709 137.501 35.3076C136.866 34.543 132.422 21.1883 133.565 20.425C134.708 19.6605 157.947 13.8104 158.455 14.7005C158.962 15.5905 161.629 23.2233 160.613 22.0784C159.598 20.9334 158.581 16.227 157.438 16.227C156.295 16.227 138.39 19.6617 138.39 21.5699C138.39 23.4781 141.564 31.8742 141.945 32.891C142.326 33.9078 142.962 35.5625 142.962 36.1977C142.962 36.8342 122.77 35.5612 122.643 36.7061C122.516 37.851 122.388 51.3351 123.15 51.5887C123.912 51.8435 157.438 52.4787 157.565 51.7155C157.691 50.9522 157.183 40.0128 157.056 41.9209C156.929 43.8291 156.548 50.1902 155.913 50.317C155.278 50.4438 130.516 50.8254 130.516 49.8086C130.516 48.7904 129.5 35.816 129.119 38.7424C128.738 41.6674 129.246 50.5718 129.246 50.5718H115.151C115.151 50.5718 113.246 66.3445 115.531 66.981C117.817 67.6175 134.072 67.1078 134.326 66.5993C134.58 66.0909 135.214 51.59 134.833 53.3701C134.452 55.1502 134.326 65.9628 135.595 66.4713C136.865 66.9797 151.469 66.4713 151.85 65.9628C152.231 65.4544 153.374 52.0971 152.485 53.6249C151.597 55.1515 151.85 66.0909 153.12 66.7261C154.39 67.3626 169.501 66.7261 169.501 66.7261C169.501 66.7261 169.882 51.5887 168.867 51.5887C167.85 51.5887 158.834 51.8435 160.358 52.0971C161.882 52.352 168.359 52.6055 168.359 53.7517C168.359 54.8966 168.486 85.2983 168.486 85.2983L153.374 85.0435C153.374 85.0435 151.85 70.4144 142.072 72.4507C132.294 74.4857 134.452 85.8067 132.803 86.4432C131.151 87.0784 115.786 87.3333 115.531 85.6787C115.277 84.0253 114.008 69.6512 115.531 69.1427C117.055 68.6343 119.722 68.6343 120.484 69.016C121.246 69.3976 120.358 87.4601 119.977 87.5881C119.596 87.7149 107.786 87.0797 107.66 87.4613C107.533 87.843 107.024 100.309 108.675 100.563C110.327 100.817 133.057 100.181 133.184 99.6725C133.31 99.1641 132.422 87.9698 132.422 87.9698C132.422 87.9698 121.246 87.7149 121.246 88.3514C121.246 88.9879 121.754 113.665 120.992 114.047C120.23 114.428 106.897 115.828 106.897 114.302C106.897 112.776 107.659 97.2572 108.293 102.217C108.928 107.177 107.531 113.793 109.436 113.793C111.341 113.793 133.31 114.43 133.564 113.285C133.818 112.141 134.199 97.3852 133.564 100.692C132.928 103.999 133.945 113.54 135.469 113.793C136.992 114.048 148.422 113.666 149.056 113.03C149.691 112.393 149.437 86.8262 149.691 86.3165C149.945 85.8067 172.549 85.1715 173.057 86.1897C173.564 87.2078 173.818 100.054 173.818 100.054C173.818 100.054 162.262 101.327 162.262 99.7993C162.262 98.2727 163.024 86.4432 163.405 89.4963C163.786 92.5481 163.278 100.563 161.881 100.563C160.484 100.563 151.341 99.7993 151.087 100.563C150.832 101.327 150.072 113.665 151.213 113.792C152.356 113.919 175.087 114.682 175.087 113.41C175.087 112.138 173.055 99.5444 173.055 102.344C173.055 105.142 173.436 112.012 172.42 112.902C171.403 113.792 103.592 113.029 103.592 113.029C103.592 113.029 103.465 109.975 103.084 110.612C102.703 111.248 97.4956 110.23 96.8615 111.12C96.2261 112.012 95.3376 114.937 97.2425 115.446C99.1475 115.955 104.354 116.973 104.862 115.32C105.37 113.666 102.957 111.375 102.957 109.723C102.957 108.07 106.004 98.5289 106.259 94.0773C106.513 89.6257 105.623 81.1016 104.607 81.1016C103.592 81.1016 104.733 82.2465 98.7652 82.883C92.7971 83.5195 88.4796 80.2115 88.0986 80.9748C87.7177 81.7381 88.0986 89.4976 87.4632 93.0591C86.8278 96.6207 82.2572 109.468 82.8913 110.868C83.5267 112.268 88.2252 110.868 88.9872 112.013C89.7492 113.158 92.2896 114.811 90.2568 115.956C88.2252 117.101 82.8913 117.355 82.7647 115.32C82.6382 113.283 82.5116 110.103 83.9077 110.232C85.3051 110.358 87.9721 110.867 89.1151 110.358C90.258 109.85 95.3375 99.9273 96.0995 96.8755C96.8615 93.8224 95.592 91.4058 96.354 89.6244C97.116 87.843 101.052 85.1715 99.655 86.8262C98.2576 88.4795 95.8451 89.6244 98.1311 89.4976C100.417 89.3695 102.957 88.3527 101.052 89.2428C99.1475 90.1341 97.8779 88.6063 97.4969 90.8974C97.116 93.1872 97.4969 96.239 97.8779 98.7837C98.2589 101.328 94.83 109.342 96.354 109.978C97.878 110.614 102.449 112.141 101.307 109.724C100.164 107.307 96.9894 107.688 99.4019 104.891C101.814 102.093 103.974 99.8019 104.608 96.1136C105.243 92.4253 103.719 88.354 103.719 85.9374C103.719 83.5208 105.497 80.086 103.719 80.3396C101.941 80.5945 97.2425 81.6113 92.925 80.7212C88.6075 79.8312 87.5911 79.0679 87.5911 77.7949C87.5911 76.5232 85.0507 64.4389 86.8291 60.8774C88.6062 57.3158 89.8771 55.7893 91.401 56.5526C92.925 57.3158 96.4805 60.4957 100.545 61.0041C104.608 61.5126 102.195 64.9473 101.814 63.6756C101.433 62.4026 100.29 61.1309 103.085 60.2409C105.879 59.3495 108.799 56.5526 109.308 57.1878C109.817 57.823 111.213 62.4026 110.451 61.1309C109.689 59.8579 108.165 57.823 109.943 55.788C111.72 53.753 112.609 50.6999 112.863 52.6081C113.118 54.5163 112.356 55.788 112.356 55.788C112.356 55.788 116.292 49.1734 117.054 53.2446C117.816 57.3145 112.229 59.6044 111.975 60.4944C111.72 61.3845 105.117 65.4557 102.323 66.0909C99.5298 66.7261 91.6567 62.911 92.4187 64.4376C93.1807 65.9641 96.3553 67.6175 98.2602 67.8723C100.165 68.1272 102.451 67.3626 102.832 68.5088C103.213 69.6537 105.117 78.1753 103.975 79.0666C102.832 79.9567 90.1328 79.4483 91.5302 77.6668C92.9276 75.8867 100.927 75.6319 99.0235 73.8505C97.1185 72.0704 93.182 72.3239 91.4036 67.3626C89.6252 62.4026 91.0226 58.4582 91.0226 58.4582C91.0226 58.4582 91.658 56.8048 90.6416 55.4051C89.6252 54.0066 87.9747 55.6599 85.6887 51.5887C83.4027 47.5187 82.7673 44.2108 85.1799 42.5574C87.5924 40.9028 86.0684 44.084 85.5608 43.5743C85.0533 43.0659 83.7837 42.0477 86.0684 39.886C88.3544 37.7229 94.4503 35.1795 97.4969 36.0696C100.545 36.9596 101.688 40.5212 100.418 41.5393C99.1488 42.5574 94.068 42.8123 94.3224 43.9559C94.5769 45.1008 95.7198 46.119 94.3224 46.6274C92.9263 47.1358 91.5289 47.1358 91.5289 48.4075C91.5289 49.6805 91.7833 50.9522 91.7833 50.9522C91.7833 50.9522 90.0049 48.2807 88.9898 49.9353C87.9734 51.5887 91.2757 52.9885 90.2593 53.2433C89.2442 53.4982 85.5609 52.6068 86.5773 48.9172C87.5924 45.2289 93.0542 35.688 98.0058 39.1227C102.959 42.5574 104.102 48.9172 102.706 52.8604C101.308 56.8048 92.5466 57.6949 92.7997 55.6586C93.0542 53.6237 97.3717 58.8385 99.5311 58.8385C101.689 58.8385 99.7855 57.312 100.674 56.9316C101.563 56.55 107.404 54.0053 109.055 52.0971C110.706 50.1889 114.262 44.846 115.405 45.6093C116.548 46.3738 117.945 49.2989 116.929 48.0259C115.914 46.7542 114.897 45.2276 116.04 44.0827C117.183 42.9378 118.581 38.8678 118.834 40.9028C119.088 42.9391 117.182 45.3544 118.2 44.3376C119.215 43.3207 121.121 40.1395 121.755 41.9209C122.391 43.7024 121.755 47.009 121.248 48.1539C120.739 49.2988 117.947 49.2989 117.947 49.2989C117.947 49.2989 113.397 45.0167 113.397 43.2496C113.397 41.4824 102.811 45.4592 105.898 44.1332C108.986 42.8071 111.192 39.7152 115.603 38.6104C120.013 37.5056 126.849 35.9596 125.086 32.4253C123.322 28.8896 114.722 33.75 114.722 32.2041C114.722 30.6568 115.604 33.5301 115.825 31.3205C116.044 29.1108 111.855 28.8896 116.044 29.1108C120.234 29.3308 133.026 26.68 132.805 26.0176C132.585 25.3553 116.265 6.79861 115.162 9.44938C114.059 12.1001 111.193 30.4356 109.87 30.6568C108.546 30.878 106.12 32.4253 105.899 31.0992C105.68 29.7745 110.531 11.2178 112.075 10.333C113.619 9.44937 116.486 9.22945 116.486 10.5542C116.486 11.8789 113.398 27.5649 112.956 26.68C112.515 25.7964 112.074 18.5065 110.972 18.7277C109.87 18.9489 107.665 18.7277 106.562 21.5997C105.459 24.4717 98.6218 32.8651 93.9918 33.9699C89.3605 35.0747 82.9649 34.6336 81.8619 35.7384C80.759 36.8432 79.4365 47.4463 79.8769 43.4708C80.3173 39.494 83.1845 34.6349 78.9948 34.6349C74.8052 34.6349 68.85 33.9712 68.4096 34.6349C67.9679 35.2973 72.5993 42.1448 67.3067 41.0412C62.0141 39.9364 55.6186 35.2973 56.059 32.8677C56.5007 30.4382 57.1619 25.799 57.6036 26.4614C58.0453 27.1237 63.7783 35.9609 70.1738 32.8677C76.5694 29.7758 77.4515 22.0434 76.3485 16.0782C75.2456 10.113 74.3635 7.90471 74.3635 9.00952C74.3635 10.1143 71.4963 14.3111 67.0859 14.0898C62.6754 13.8699 59.1469 11.8802 58.9261 12.7651C58.7053 13.6487 63.3366 16.2995 60.6903 18.0679C58.044 19.8351 56.9411 21.1598 56.9411 21.1598C56.9411 21.1598 54.0739 16.2995 53.8531 18.7303C53.6322 21.1598 57.1606 24.9154 56.0577 24.9154C54.9547 24.9154 50.5442 23.1482 49.0009 16.9631C47.4562 10.7767 50.1038 6.8012 51.868 7.24234C53.6322 7.68478 56.7202 12.3227 54.0739 10.5555C51.4276 8.7883 52.0734 5.08706 54.4988 3.09866C56.9243 1.11155 64.1632 0.613484 68.7945 1.27715C73.4259 1.93951 78.278 7.88013 76.0721 9.86853C73.8663 11.8569 66.5499 3.85676 61.2573 5.18279C55.9647 6.50753 50.7664 12.9863 51.2068 15.6371C51.6485 18.2879 55.3964 24.2531 55.1769 27.5662C54.956 30.8793 52.3097 32.4266 50.5455 34.6362C48.7813 36.8458 41.9441 43.9132 39.7395 52.3093C37.5336 60.704 31.8006 83.0149 32.9022 84.7834C34.0052 86.5506 41.062 87.4342 49.0009 85.2246C56.9398 83.015 70.6129 81.9101 67.5262 81.0278C64.4383 80.1443 63.777 77.7147 65.3216 72.4119C66.865 67.1091 71.2755 57.6108 68.85 58.7156C66.4233 59.8204 58.2636 66.0055 55.1769 62.9136C52.0889 59.8204 53.4127 49.2173 53.4127 51.4257C53.4127 53.6353 56.4994 55.8436 61.5724 56.7272C66.6454 57.6108 69.0709 58.7156 70.1738 56.9484C71.2768 55.1813 73.9231 46.3454 72.8201 45.0193C71.7172 43.6946 59.8082 38.3918 59.3665 41.485C58.9248 44.5782 77.8919 46.5653 80.0978 46.3454C82.3037 46.1241 82.3036 46.1241 82.3036 46.1241C82.3036 46.1241 86.935 52.7517 85.1708 54.7401C83.4066 56.7285 71.0559 57.1697 66.6454 55.8449C62.2349 54.5202 54.9573 50.5434 51.8693 50.9845C48.7813 51.427 43.7096 57.6121 43.7096 61.5876C43.7096 65.5644 61.132 71.9707 57.3828 72.4132C53.6335 72.8556 38.6365 69.7624 44.15 72.8556C49.6634 75.9475 57.3828 77.716 54.0739 79.0407C50.7664 80.3668 38.6365 80.3668 36.8723 82.3539C35.1082 84.3423 33.7844 88.0979 36.8723 94.9466C39.9603 101.794 46.7963 102.237 59.3678 103.563C71.9381 104.889 80.5395 102.899 75.4677 102.015C70.3947 101.132 45.6946 104.225 45.6946 104.225C45.6946 104.225 43.9304 103.341 43.4887 105.55C43.047 107.759 39.9603 110.851 42.1649 112.177C44.3708 113.503 78.3336 113.944 80.9799 113.061C83.6262 112.177 86.4933 100.469 84.0666 98.4797C81.6411 96.4926 54.2935 86.1095 61.1307 90.3062C67.9679 94.5042 72.3784 90.9698 75.686 88.3178C78.9935 85.667 79.8769 81.2491 78.1114 82.5738C76.3472 83.8998 71.9367 91.6322 75.2443 93.6206C78.5518 95.6077 84.7278 98.0385 85.6099 96.4926C86.492 94.9466 91.5638 79.9243 86.2712 76.1688C80.9786 72.4132 75.686 73.9591 69.7309 76.8311C63.777 79.7031 56.0577 84.3423 49.2204 86.7718C42.3845 89.2014 39.2965 92.0746 42.6041 93.8418C45.9116 95.609 47.8967 94.9466 47.8967 97.5974C47.8967 100.248 47.0146 105.107 47.0146 105.107C47.0146 105.107 42.3832 101.352 39.5174 102.015C36.6502 102.678 35.1069 105.55 31.3576 106.655C27.6084 107.759 23.1979 110.19 25.1829 112.398C27.168 114.607 42.3858 113.061 39.959 111.515C37.5336 109.969 15.1405 114.212 1 112.177" stroke="black" stroke-miterlimit="10" stroke-linecap="round" stroke-linejoin="round"/>
</svg>
