<svg width="313" height="118" viewBox="0 0 313 118" fill="none" xmlns="http://www.w3.org/2000/svg">
	<path d="M0.56927 117.249C15.7718 116.537 30.9885 116.113 46.2076 115.988C61.4267 115.863 159.733 116.033 174.945 116.499C183.537 116.762 192.127 117.121 200.713 117.571C201.333 117.604 201.47 116.771 201.011 116.468C196.329 113.371 191.709 110.18 187.157 106.894C183.23 104.057 178.981 101.263 175.948 97.4213C175.309 96.6122 174.739 95.7487 174.256 94.8379C173.75 93.8821 172.87 92.3396 173.22 91.2206C173.935 88.9447 178.112 91.7364 179.151 92.3562C181.162 93.5556 183.102 94.8876 185.226 95.8836C187.091 96.7589 189.542 97.7218 191.633 97.2415C193.542 96.8015 194.443 94.8237 195.392 93.312C196.431 91.6583 197.46 89.9975 198.61 88.4195C200.635 85.6397 203.573 82.1171 207.396 83.3757C212.464 85.0435 217.496 86.8439 222.658 88.209C224.974 88.8217 227.808 88.9589 229.031 91.3294C230.264 93.7189 230.938 96.5673 231.511 99.1791C231.918 101.041 232.145 102.846 232.147 104.751C232.147 105.51 232.135 106.279 232.033 107.031C231.934 107.779 231.816 108.141 231.142 108.51C229.433 109.444 227.399 109.924 225.528 110.417C223.344 110.991 221.12 111.434 218.87 111.649C214.91 112.03 210.883 111.72 207.129 110.346C203.107 108.872 199.665 106.201 196.897 102.964C196.1 102.032 195.163 100.937 195.444 99.6168C195.681 98.5049 196.62 97.6413 197.408 96.889C198.849 95.5121 200.15 94.1258 201.039 92.3207C202.885 88.578 203.024 84.2345 202.551 80.1606C202.059 75.9282 200.987 71.7194 199.594 67.6976C198.269 63.8745 196.509 60.1247 193.845 57.0445C191.186 53.969 187.363 51.4423 183.185 51.3311C181.233 51.2791 179.328 51.8421 177.829 53.1149C176.537 54.2126 175.633 55.7102 174.796 57.1628C173.963 58.6106 173.192 60.1744 172.004 61.3739C170.932 62.4574 168.955 63.3872 167.533 62.377C166.146 61.3904 165.881 59.0412 165.791 57.4822C165.673 55.4334 166.139 53.3397 166.664 51.3737C167.658 47.6452 169.413 44.177 170.887 40.6236C172.115 37.664 173.258 34.6287 174.897 31.8678C176.605 28.991 178.453 26.0716 180.641 23.5332C181.044 23.0647 181.472 22.6413 181.952 22.2509C182.236 22.0214 182.631 21.6311 183.024 21.5956C183.44 21.5601 183.864 21.8937 184.195 22.1042C186.009 23.2611 186.785 24.8178 186.707 26.9801C186.537 31.6644 182.487 35.064 182.035 39.6986C181.824 41.8514 182.475 44.0398 183.641 45.8425C184.689 47.4631 186.116 48.6128 187.673 49.7058C189.255 50.8154 190.871 51.8871 192.56 52.831C194.143 53.7158 195.861 54.5912 197.661 54.9177C201.673 55.644 205.835 53.0061 208.65 50.4227C210.247 48.9582 211.657 47.2762 212.854 45.4687C213.803 44.0398 214.508 42.644 214.74 40.9311C215.225 37.3541 214.3 33.5665 212.996 30.252C212.355 28.622 211.588 27.0322 210.635 25.5606C209.828 24.3162 208.842 22.9322 207.555 22.1421C206.078 21.2336 204.257 21.4016 202.646 21.7896C200.663 22.2651 198.789 23.1002 196.821 23.6254C195.276 24.0394 193.171 24.3777 191.626 23.7603C190.762 23.4125 190.211 22.6555 189.674 21.9363C188.976 21.0018 188.148 20.1572 187.516 19.173C186.887 18.1936 186.639 17.1905 187.495 16.2513C188.304 15.3641 189.546 14.8744 190.587 14.3113C192.447 13.3059 194.292 12.272 196.147 11.2571C199.953 9.17758 203.829 7.24946 207.872 5.67622C212.376 3.92317 217.181 2.234 222.092 2.57467C223.055 2.64092 224.2 2.74028 225.045 3.24419C225.904 3.75757 226.571 4.59742 227.219 5.34264C227.775 5.98377 228.322 6.64856 228.965 7.20451C229.81 7.93554 230.858 8.39214 231.854 8.87949C236.538 11.1743 241.518 12.8635 246.633 13.8808C249.164 14.3847 251.731 14.7277 254.305 14.9075C255.999 15.0234 258.504 15.3026 259.299 13.3508C260.042 11.5315 258.208 9.8471 256.808 9.01197C254.624 7.71079 252.162 6.74319 249.815 5.77795C245.064 3.82381 240.153 2.28132 235.142 1.14574C234.402 0.97777 234.085 2.11808 234.827 2.28605C240.124 3.4855 245.317 5.13919 250.319 7.25893C251.625 7.81252 252.916 8.39923 254.196 9.01434C255.287 9.53954 256.446 10.0269 257.336 10.8738C258.123 11.6238 258.866 13.0149 257.468 13.5969C256.387 14.0464 254.963 13.7767 253.832 13.6891C248.473 13.2751 243.174 12.1112 238.125 10.2729C235.558 9.33845 233.013 8.24783 230.621 6.92299C228.925 5.98377 227.95 4.14319 226.516 2.88459C225 1.55266 222.939 1.36103 220.99 1.35393C218.624 1.34447 216.242 1.74192 213.959 2.34756C209.367 3.56357 204.877 5.49405 200.621 7.58541C196.809 9.45911 193.14 11.6001 189.4 13.6087C187.732 14.503 185.468 15.674 185.754 17.9286C185.875 18.8868 186.419 19.7148 186.991 20.4671C187.699 21.3969 188.441 22.31 189.165 23.2256C191.564 26.2585 195.811 25.2673 198.995 24.1932C200.878 23.5568 202.851 22.6886 204.87 22.6602C206.67 22.6365 207.817 23.7295 208.853 25.078C211.16 28.0849 212.613 31.882 213.32 35.5821C213.651 37.3162 213.822 39.145 213.557 40.9028C213.28 42.7528 212.296 44.2693 211.217 45.7621C208.562 49.4314 204.647 53.0203 200.017 53.7537C198.103 54.0565 196.365 53.4319 194.661 52.6039C192.823 51.7096 191.086 50.6143 189.397 49.4693C187.744 48.3479 186.059 47.2454 184.89 45.587C183.483 43.5903 182.83 41.1275 183.391 38.7191C184.417 34.3117 188.174 30.9475 187.883 26.171C187.772 24.3304 187.046 22.6555 185.517 21.5719C184.848 21.0964 184.015 20.4411 183.152 20.4174C182.397 20.3985 181.777 20.8835 181.221 21.3353C178.791 23.3084 177.053 26.2727 175.375 28.8704C174.531 30.1763 173.696 31.4988 172.974 32.8804C172.103 34.5483 171.422 36.3321 170.691 38.0638C169.312 41.3286 167.772 44.5697 166.534 47.8865C165.148 51.6032 164.112 55.748 164.914 59.706C165.233 61.2816 165.9 63.0394 167.497 63.7018C168.985 64.3193 170.793 63.8461 172.044 62.9164C174.796 60.87 175.643 57.2148 177.885 54.7284C181.148 51.1135 186.409 52.5353 189.901 55.0217C193.443 57.5413 195.799 61.4236 197.448 65.3721C199.106 69.3489 200.28 73.6121 201.025 77.8516C201.768 82.0792 202.04 86.6901 200.445 90.764C199.627 92.8577 198.276 94.4452 196.665 95.9711C195.245 97.3172 193.729 99.0206 194.354 101.133C194.668 102.203 195.437 103.085 196.152 103.911C196.885 104.762 197.663 105.576 198.491 106.34C200.022 107.755 201.716 109.009 203.545 110.01C207.025 111.916 210.931 112.865 214.884 112.979C219.239 113.104 223.571 112.267 227.73 111.029C229.254 110.575 231.333 110.137 232.521 108.997C233.477 108.077 233.328 106.066 233.33 104.864C233.342 100.36 232.154 95.7937 230.46 91.6417C230.051 90.641 229.54 89.6758 228.672 88.9991C227.794 88.3154 226.72 87.9866 225.655 87.7311C223.15 87.1254 220.671 86.4536 218.205 85.6918C215.563 84.8732 212.939 83.9931 210.318 83.1131C208.387 82.4648 206.447 81.5138 204.38 82.0414C200.85 82.9427 198.38 86.5789 196.478 89.425C195.387 91.055 194.384 92.7394 193.327 94.3884C192.586 95.5429 191.744 96.2408 190.306 96.1604C189.071 96.0894 187.833 95.7109 186.691 95.2519C184.484 94.3671 182.492 93.0186 180.474 91.7813C178.754 90.7285 176.717 89.2617 174.613 89.231C172.406 89.2002 171.626 91.1496 172.212 93.0588C172.851 95.136 174.069 97.031 175.453 98.687C178.607 102.46 182.875 105.269 186.833 108.119C191.297 111.337 195.825 114.462 200.415 117.497C200.514 117.131 200.613 116.762 200.713 116.395C185.515 115.598 170.301 115.091 155.084 114.883C56.7827 114.675 41.5588 114.76 26.3445 115.143C17.7496 115.359 9.15707 115.671 0.571636 116.073C-0.187781 116.102 -0.192513 117.284 0.56927 117.249Z" fill="black"/>
	<path d="M165.605 61.249C164.276 62.2071 163.774 63.7354 163.606 65.3063C163.415 67.0925 163.561 68.9449 163.727 70.7287C164.089 74.663 164.948 78.5476 166.301 82.2595C166.916 83.9416 167.564 85.8555 168.991 87.0384C169.689 87.618 170.507 88.0131 171.418 88.0935C171.844 88.1314 172.315 88.0912 172.71 87.9185C173.204 87.7008 173.431 87.2679 173.486 86.7498C173.588 85.8011 173.533 84.8145 173.455 83.8682C173.372 82.8675 173.226 81.8715 173.029 80.8873C172.641 78.9474 172.055 77.05 171.392 75.1882C170.022 71.3272 168.451 67.5325 166.963 63.7165C166.772 63.222 166.578 62.7299 166.386 62.2355C166.27 61.9374 165.989 61.7316 165.657 61.8215C165.374 61.8996 165.128 62.2497 165.243 62.5501C166.663 66.1864 168.106 69.8155 169.497 73.4611C170.798 76.8773 172.021 80.4142 172.289 84.0859C172.322 84.5425 172.341 84.9991 172.343 85.458C172.343 85.6781 172.341 85.8981 172.336 86.1181C172.331 86.3121 172.355 86.5463 172.301 86.7332C172.234 86.965 171.799 86.9272 171.603 86.9225C171.255 86.913 170.905 86.8207 170.59 86.6764C169.074 85.9809 168.364 84.339 167.794 82.8746C166.464 79.4702 165.539 75.8908 165.078 72.2641C164.846 70.4377 164.721 68.5924 164.721 66.7494C164.721 65.4388 164.82 63.9909 165.598 62.8837C165.762 62.6519 165.974 62.4366 166.204 62.271C166.462 62.0841 166.587 61.7552 166.417 61.4619C166.265 61.2064 165.866 61.0621 165.605 61.249Z" fill="black"/>
	<path d="M311.8 115.376C299.981 115.376 293.454 115.376 281.635 115.373C275.725 115.373 269.815 115.373 263.905 115.373C262.42 115.373 260.932 115.373 259.446 115.373C258.147 115.373 256.692 115.553 255.561 114.787C254.613 114.146 253.865 113.211 252.957 112.509C252.076 111.827 251.137 111.233 250.139 110.739C245.689 108.529 240.326 108.189 235.696 110.053C235.1 110.292 235.147 111.188 235.852 111.214C241.949 111.432 248.052 111.326 254.137 110.895C253.948 110.751 253.756 110.606 253.567 110.46C253.664 111.075 253.763 111.69 253.86 112.303C253.964 112.953 255.098 112.809 255.022 112.147C254.74 109.684 257.293 108.089 259.074 106.918C261.585 105.267 263.95 103.4 266.113 101.316C268.152 99.35 270.324 97.1641 271.535 94.5664C272.794 91.8647 272.758 88.8744 272.067 86.0236C271.71 84.545 271.19 83.1066 270.61 81.7013C270.071 80.3907 269.524 79.0516 268.843 77.8072C268.223 76.674 267.359 75.7206 266.089 75.3421C264.658 74.9139 263.025 74.9872 261.547 74.8926C258.232 74.6796 254.918 74.4644 251.606 74.2514C248.729 74.0669 245.857 74.0196 243.231 75.3776C238.516 77.8143 236.143 82.9906 232.031 86.1632C231.447 86.615 231.991 87.6276 232.627 87.1852C235.003 85.5315 237.33 83.8092 239.606 82.023C240.725 81.1453 241.83 80.2511 242.923 79.3402C243.884 78.5382 244.873 77.7433 245.656 76.7615C247.335 74.656 247.369 72.0702 247.014 69.5151C246.616 66.6573 246.103 63.8089 245.644 60.9605C245.102 57.6082 244.56 54.2535 244.019 50.9012C243.926 50.3334 242.975 50.3381 242.878 50.9012C241.87 56.7612 243.335 62.5905 244.894 68.214C245.199 69.3164 245.481 70.5632 246.417 71.3155C247.423 72.1246 248.878 72.0678 250.099 72.1388C253.11 72.3139 256.134 72.3068 259.145 72.1199C261.629 71.9661 264.636 72.0371 266.477 70.0853C267.331 69.1816 267.901 68.0531 268.476 66.9648C269.157 65.6731 269.817 64.3696 270.454 63.0542C271.09 61.7388 271.705 60.414 272.299 59.0797C272.857 57.8211 273.47 56.5506 273.813 55.2116C274.135 53.9648 274.199 52.6424 273.69 51.4358C273.224 50.3334 272.375 49.4722 271.445 48.7459C267.754 45.8691 262.696 44.769 260.224 40.4893C257.955 36.5645 257.984 31.7738 256.765 27.4988C256.153 25.3459 255.211 23.3374 253.787 21.6009C252.36 19.8597 250.536 18.4686 248.601 17.3354C246.619 16.1762 244.499 15.2677 242.358 14.4444C239.883 13.4934 237.373 12.5494 234.809 11.8752C232.1 11.1631 229.282 10.8532 226.519 11.4422C223.928 11.9935 221.532 13.2237 219.287 14.5911C218.165 15.2748 217.051 15.9845 215.97 16.7298C214.983 17.4111 214.061 18.1989 213.561 19.3179C213.041 20.4819 212.968 21.7831 212.845 23.0346C212.7 24.4895 212.577 25.9516 212.629 27.4136C212.793 32.1831 215.251 36.3752 218.882 39.3798C222.883 42.6919 227.867 44.3219 232.925 45.1831C235.698 45.6538 238.502 45.9235 241.303 46.1814C242.736 46.3139 244.179 46.4487 245.615 46.2619C246.91 46.0939 248.114 45.6278 249.223 44.9465C250.309 44.2793 251.286 43.4489 252.256 42.628C253.392 41.6628 254.527 40.6975 255.663 39.7323C256.761 38.8002 257.828 37.7923 258.996 36.9478C260.016 36.212 261.308 35.5283 262.562 36.1126C263.735 36.6591 264.627 37.8586 265.505 38.7694C266.562 39.8671 267.617 40.9625 268.675 42.0602C270.504 43.9599 272.292 46.1507 274.637 47.44C276.56 48.4999 279.103 48.8453 281.05 47.634C282.959 46.4464 283.494 44.1918 283.205 42.0839C282.884 39.7252 281.691 37.6409 280.636 35.5472C279.527 33.3447 278.393 31.154 277.158 29.0224C274.748 24.861 271.892 20.9598 268.362 17.6737C266.624 16.0532 264.75 14.5793 262.767 13.2686C262.11 12.8333 261.438 12.4169 260.79 11.9651C260.051 11.4517 259.396 10.8366 258.677 10.2996C256.55 8.70739 254.097 7.64042 251.655 6.63023C248.928 5.50175 246.171 4.44425 243.392 3.45535C240.671 2.48301 237.936 1.58638 235.182 0.753624C234.451 0.533606 234.139 1.67391 234.868 1.89393C240.236 3.51686 245.526 5.3882 250.716 7.5103C253.117 8.4921 255.538 9.51649 257.667 11.0211C258.433 11.5629 259.117 12.2088 259.874 12.7623C260.456 13.1858 261.066 13.5714 261.672 13.9642C265.464 16.4317 268.843 19.4551 271.672 22.992C274.509 26.5383 276.733 30.527 278.8 34.556C279.359 35.6466 279.908 36.7419 280.456 37.8397C280.956 38.8404 281.441 39.8316 281.746 40.9104C282.283 42.8031 282.389 45.2517 280.579 46.5174C278.684 47.8422 276.155 47.1064 274.412 45.9117C273.392 45.2114 272.507 44.329 271.649 43.4442C270.664 42.4316 269.69 41.412 268.71 40.3947C267.707 39.3538 266.702 38.3105 265.699 37.2695C264.89 36.4297 264.078 35.4952 262.99 35.0125C260.589 33.9527 258.41 35.8358 256.692 37.2979C254.589 39.0841 252.516 40.9152 250.375 42.654C249.417 43.43 248.386 44.1776 247.231 44.6366C245.956 45.1428 244.593 45.2138 243.238 45.1476C240.56 45.0151 237.858 44.7052 235.201 44.3408C232.587 43.9812 229.982 43.4773 227.468 42.6611C223.169 41.2653 219.083 38.8002 216.434 35.0622C215.196 33.3163 214.314 31.3314 213.971 29.2116C213.746 27.8253 213.765 26.4035 213.855 25.0029C213.94 23.6875 214.016 22.3248 214.266 21.0284C214.51 19.7722 215.099 18.8448 216.117 18.0688C217.089 17.3259 218.161 16.6848 219.194 16.0342C221.345 14.6834 223.595 13.4248 226.062 12.7647C231.279 11.3689 236.559 13.5218 241.395 15.3387C245.417 16.8481 249.592 18.6744 252.516 21.9321C255.483 25.2371 256.086 29.6067 256.872 33.8084C257.26 35.8737 257.716 37.9319 258.575 39.86C259.465 41.8568 260.835 43.5081 262.592 44.7998C264.426 46.1459 266.517 47.0686 268.481 48.2018C270.388 49.3019 272.834 50.7923 272.884 53.2669C272.912 54.5894 272.399 55.8811 271.888 57.0782C271.341 58.3534 270.771 59.6191 270.182 60.8753C269.049 63.2955 267.915 65.7819 266.515 68.0626C265.881 69.0964 265.086 69.9717 263.903 70.3503C262.67 70.743 261.315 70.7808 260.033 70.8755C257.21 71.086 254.374 71.1357 251.544 71.0245C250.875 70.9985 250.205 70.963 249.536 70.9204C248.887 70.8778 248.166 70.8897 247.553 70.6365C246.429 70.1681 246.223 68.609 245.94 67.5799C245.192 64.8782 244.478 62.1599 244.056 59.3849C243.647 56.6831 243.548 53.9128 244.011 51.2134C243.631 51.2134 243.252 51.2134 242.871 51.2134C243.775 56.8014 244.676 62.3918 245.58 67.9798C245.973 70.4141 246.548 73.2081 245.152 75.4367C244.515 76.4516 243.576 77.2442 242.668 78.0083C241.636 78.8789 240.593 79.733 239.538 80.5728C237.096 82.5175 234.589 84.377 232.026 86.1608C232.225 86.5015 232.424 86.8421 232.623 87.1828C236.209 84.4149 238.452 80.3008 242.031 77.5423C244.156 75.9051 246.552 75.2806 249.219 75.3208C252.346 75.3657 255.483 75.6851 258.604 75.8862C260.26 75.9927 261.918 76.0991 263.574 76.2079C264.946 76.2955 266.311 76.3523 267.239 77.5091C268.045 78.517 268.519 79.8394 269.032 81.0105C269.623 82.3613 270.17 83.7359 270.596 85.1482C271.426 87.9091 271.781 90.9326 270.643 93.6651C269.574 96.2319 267.449 98.3564 265.488 100.268C263.165 102.534 260.615 104.448 257.929 106.256C255.952 107.588 253.524 109.464 253.832 112.149C254.22 112.097 254.605 112.045 254.993 111.993C254.896 111.378 254.797 110.763 254.7 110.15C254.662 109.911 254.367 109.698 254.13 109.715C248.045 110.145 241.941 110.252 235.845 110.034C235.897 110.422 235.949 110.808 236.001 111.196C240.12 109.539 244.858 109.662 248.911 111.47C249.928 111.924 250.901 112.48 251.807 113.128C252.751 113.805 253.517 114.654 254.404 115.392C255.372 116.199 256.425 116.519 257.676 116.554C259.1 116.594 260.529 116.559 261.951 116.559C273.695 116.559 285.436 116.559 297.18 116.561C303.814 116.561 305.157 116.561 311.791 116.561C312.562 116.559 312.562 115.376 311.8 115.376Z" fill="black"/>
	<path d="M271.584 81.6416C271.26 73.7801 273.827 66.2096 276.392 58.8898C276.638 58.1896 276.82 57.513 276.917 56.7748C277.007 56.0888 277.052 55.3979 277.142 54.7142C277.222 54.1062 277.331 53.4556 277.615 52.9068C277.866 52.4218 278.22 52.1355 278.611 51.8635C279.626 51.1537 280.768 50.5718 281.958 50.2216C282.512 50.0584 282.99 49.9543 283.555 49.9827C283.617 49.985 283.678 49.9898 283.74 49.9969C283.624 49.9803 283.813 50.0134 283.818 50.0134C283.875 50.0276 283.929 50.0418 283.983 50.056C283.993 50.0584 284.163 50.1246 284.05 50.0749C284.147 50.1175 284.244 50.1719 284.329 50.2382C284.23 50.1601 284.362 50.276 284.369 50.2855C284.395 50.3115 284.419 50.3375 284.442 50.3659C284.388 50.2926 284.381 50.2831 284.419 50.3352C284.509 50.4677 284.584 50.6072 284.651 50.7539C284.719 50.903 284.608 50.6404 284.67 50.7989C284.688 50.8485 284.707 50.8982 284.726 50.9503C284.771 51.078 284.814 51.2058 284.852 51.3335C285.01 51.8658 285.119 52.4147 285.211 52.9636C285.41 54.1464 285.517 55.3577 285.576 56.5666C285.694 58.9253 285.422 61.2817 285.244 63.6309C285.166 64.66 285.084 65.6867 284.979 66.7135C284.935 67.1559 284.885 67.5983 284.83 68.0407C284.816 68.1495 284.802 68.256 284.788 68.3648C284.764 68.5422 284.804 68.2442 284.781 68.4216C284.774 68.476 284.767 68.5281 284.759 68.5825C284.729 68.7978 284.698 69.013 284.665 69.226C284.341 71.3197 283.863 73.385 283.354 75.4409C282.973 76.9786 282.573 78.5093 282.171 80.04C281.973 80.7994 281.812 81.5872 281.551 82.3277C281.386 82.7985 281.161 83.2574 280.903 83.7613C280.314 84.9229 279.659 86.049 278.985 87.1633C278.362 88.1924 277.778 89.3186 276.73 89.9762C276.134 90.35 275.419 90.589 274.71 90.4778C274.828 90.7664 274.946 91.0574 275.062 91.346C275.211 91.0574 275.445 90.9439 275.755 90.9344C276.091 90.9249 276.434 91.0219 276.678 91.2632C277.395 91.973 276.969 93.2671 276.425 93.9697C275.675 94.9349 274.556 95.5784 273.605 96.3236C272.597 97.1115 271.646 97.9679 270.73 98.8574C267.146 102.345 264.083 106.414 259.992 109.354C257.818 110.918 255.398 112.127 252.741 112.584C252.426 112.638 252.249 113.026 252.327 113.312C252.419 113.646 252.739 113.781 253.056 113.726C258.334 112.82 262.568 109.146 266.148 105.394C268.085 103.364 269.931 101.242 271.968 99.3093C272.964 98.3653 274.002 97.4687 275.109 96.6572C276.176 95.8765 277.336 95.0651 277.882 93.8136C278.429 92.5668 278.369 90.8682 277.08 90.0969C276.096 89.5078 274.603 89.6545 274.038 90.7499C273.882 91.0527 273.99 91.5566 274.39 91.6181C276.179 91.8949 277.816 90.9557 278.866 89.5457C279.576 88.5923 280.16 87.5111 280.754 86.4843C281.414 85.3417 282.067 84.1801 282.564 82.957C282.838 82.2803 282.987 81.5564 283.174 80.8538C283.404 79.9879 283.631 79.122 283.853 78.2538C284.483 75.8218 285.107 73.3826 285.564 70.9128C285.919 68.9988 286.139 67.066 286.302 65.1284C286.404 63.9124 286.491 62.6964 286.579 61.478C286.666 60.2691 286.803 59.0555 286.792 57.8418C286.78 56.614 286.697 55.3861 286.555 54.1677C286.418 52.9848 286.264 51.757 285.86 50.6309C285.708 50.2074 285.521 49.7721 285.199 49.4456C284.785 49.0245 284.215 48.8495 283.64 48.8021C282.344 48.6933 280.991 49.2351 279.843 49.7792C279.257 50.0584 278.686 50.3778 278.145 50.7421C277.627 51.0899 277.127 51.466 276.773 51.9865C275.963 53.1717 275.942 54.7616 275.798 56.1361C275.727 56.8127 275.625 57.4775 275.4 58.121C275.069 59.0649 274.738 60.0089 274.414 60.9528C273.749 62.888 273.11 64.8303 272.543 66.7963C271.426 70.662 270.579 74.6318 270.397 78.6607C270.352 79.652 270.349 80.6456 270.392 81.6392C270.435 82.3986 271.618 82.4034 271.584 81.6416Z" fill="black"/>
</svg>