<svg class="svg" viewBox="0 0 430787 254964" fill="none" xmlns="http://www.w3.org/2000/svg">
	<polyline stroke-width="1606.14" stroke="black" stroke-linecap="round" stroke-linejoin="round" points="1 2.457e5 1.9079e5 2.4582e5 1.9148e5 2.3966e5 1.9062e5 2.3182e5 1.9091e5 1.6638e5 1.9102e5 1.6186e5 1.9118e5 1.5821e5 1.9132e5 1.5491e5 1.9118e5 1.5215e5 1.9079e5 1.4973e5 1.904e5 1.4805e5 1.8992e5 1.4671e5 1.8943e5 1.4549e5 1.8883e5 1.4426e5 1.882e5 1.4296e5 1.8737e5 1.4165e5 1.8647e5 1.4019e5 1.8562e5 1.3892e5 1.8367e5 1.3627e5 1.7472e5 1.2616e5 1.7399e5 1.2524e5 1.724e5 1.2505e5 1.7067e5 1.2487e5 1.7052e5 1.2405e5 1.7047e5 1.1574e5 1.7072e5 1.1461e5 1.715e5 1.1391e5 1.7224e5 1.1364e5 1.7347e5 1.1342e5 1.7552e5 1.1324e5 1.7785e5 1.1295e5 1.8038e5 1.1258e5 1.8319e5 1.1213e5 1.8609e5 1.1157e5 1.8922e5 1.1124e5 1.9109e5 1.1118e5 1.9312e5 1.1121e5 1.9505e5 1.1143e5 1.9647e5 1.1194e5 1.9758e5 1.1252e5 1.9873e5 1.1338e5 2.0004e5 1.1517e5 2.0057e5 1.1642e5 2.0104e5 1.1782e5 2.0113e5 1.1905e5 2.0104e5 1.2052e5 2.0074e5 1.2159e5 2.003e5 1.228e5 2.0417e5 1.2226e5 2.0816e5 1.2156e5 2.1243e5 1.2097e5 2.1569e5 1.2052e5 2.1996e5 1.2e5 2.2417e5 1.1963e5 2.275e5 1.1938e5 2.3188e5 1.1919e5 2.3547e5 1.1908e5 2.3835e5 1.1894e5 2.4184e5 1.1888e5 2.4521e5 1.1891e5 2.4851e5 1.1892e5 2.5088e5 1.1894e5 2.5545e5 1.1908e5 2.5986e5 1.1925e5 2.6424e5 1.1955e5 2.6792e5 1.1983e5 2.7059e5 1.2005e5 2.7229e5 1.2019e5 2.7184e5 1.1774e5 2.7098e5 1.1453e5 2.7023e5 1.1173e5 2.6939e5 1.086e5 2.688e5 1.0659e5 2.6819e5 1.0542e5 2.676e5 1.0492e5 2.6632e5 1.0442e5 2.6473e5 1.0437e5 2.6258e5 1.0459e5 2.5945e5 1.049e5 2.5664e5 1.0523e5 2.541e5 1.057e5 2.5167e5 1.0618e5 2.493e5 1.0665e5 2.459e5 1.0738e5 2.4255e5 1.0822e5 2.392e5 1.0866e5 2.3586e5 1.0939e5 2.3256e5 1.0989e5 2.295e5 1.1028e5 2.2657e5 1.107e5 2.2397e5 1.1098e5 2.2035e5 1.1137e5 2.1538e5 1.1156e5 2.1162e5 1.1162e5 2.0735e5 1.1145e5 2.0423e5 1.1115e5 2.017e5 1.1073e5 2.0431e5 1.0891e5 2.0757e5 1.0682e5 2.107e5 1.0484e5 2.141e5 1.0261e5 2.2116e5 98289 2.288e5 93603 2.4044e5 86881 2.4984e5 81664 2.5164e5 80757 2.5256e5 80548 2.5341e5 80744 2.5447e5 81692 2.5877e5 87034 2.6251e5 92334 2.6569e5 97243 2.679e5 1.013e5 2.6991e5 1.0539e5 2.7167e5 1.0938e5 2.7325e5 1.1335e5 2.7424e5 1.1588e5 2.7497e5 1.1724e5 2.7589e5 1.1832e5 2.7723e5 1.1907e5 2.8126e5 1.1991e5 2.8469e5 1.2052e5 2.8857e5 1.2102e5 2.9664e5 1.2211e5 3.0191e5 1.2278e5 3.0632e5 1.232e5 3.1338e5 1.2396e5 3.184e5 1.244e5 3.2225e5 1.2468e5 3.2618e5 1.2485e5 3.3034e5 1.2512e5 3.3461e5 1.2532e5 3.3862e5 1.2543e5 3.4437e5 1.256e5 3.4928e5 1.256e5 3.5507e5 1.256e5 3.5962e5 1.2555e5 3.6261e5 1.2544e5 3.6244e5 1.2385e5 3.6205e5 1.2259e5 3.6146e5 1.2148e5 3.6065e5 1.205e5 3.594e5 1.1924e5 3.5753e5 1.1807e5 3.5494e5 1.1696e5 3.4926e5 1.1482e5 3.4179e5 1.1192e5 3.3398e5 1.0891e5 3.2695e5 1.0579e5 3.2076e5 1.0333e5 3.1534e5 1.0104e5 3.0352e5 95802 2.9219e5 91116 2.8271e5 87322 2.7593e5 84756 2.6684e5 81634 2.6003e5 79291 2.5576e5 77993 2.5741e5 79848 2.5936e5 81878 2.6069e5 83503 2.6253e5 85903 2.6437e5 88665 2.6688e5 92795 2.6887e5 96672 2.7048e5 1.0027e5 2.718e5 1.037e5 2.728e5 1.0593e5 2.7355e5 1.0719e5 2.7484e5 1.0844e5 2.7724e5 1.0968e5 2.8008e5 1.1074e5 2.8304e5 1.1174e5 2.8572e5 1.1274e5 2.8901e5 1.1375e5 2.9208e5 1.1453e5 2.9492e5 1.152e5 2.9894e5 1.162e5 3.0296e5 1.1682e5 3.0647e5 1.1737e5 3.101e5 1.1793e5 3.1406e5 1.1838e5 3.1841e5 1.1877e5 3.2363e5 1.1919e5 3.3035e5 1.1944e5 3.371e5 1.1958e5 3.4366e5 1.1955e5 3.506e5 1.196e5 3.594e5 1.1924e5"/>
	<polyline stroke-width="1606.14" stroke="black" stroke-linecap="round" stroke-linejoin="round" points="1.732e5 1.2514e5 1.7731e5 1.2513e5 1.833e5 1.248e5 1.8794e5 1.2449e5 1.9184e5 1.2421e5 1.9413e5 1.2379e5 1.9672e5 1.2198e5 1.98e5 1.1961e5 1.9879e5 1.1657e5 1.9924e5 1.1409e5"/>
	<polyline stroke-width="1606.14" stroke="black" stroke-linecap="round" stroke-linejoin="round" points="1.7302e5 1.135e5 1.7924e5 1.1093e5 1.8599e5 1.0817e5 1.9193e5 1.0572e5 1.9999e5 1.0243e5 2.0694e5 99526 2.1629e5 95399 2.2226e5 92665 2.2726e5 90309 2.3243e5 87756 2.3644e5 85636 2.4233e5 82455 2.4604e5 80614 2.4948e5 79221 2.5227e5 78273 2.5488e5 77781"/>
	<polyline stroke-width="1606.14" stroke="black" stroke-linecap="round" stroke-linejoin="round" points="1.9092e5 2.4597e5 1.947e5 2.4502e5 1.9796e5 2.4418e5 1.9897e5 2.4376e5 1.9958e5 2.4309e5 1.9969e5 2.4202e5 1.9965e5 2.3934e5 1.9968e5 2.3262e5 1.9962e5 2.2551e5 1.9957e5 2.2172e5 1.9957e5 2.0548e5 1.994e5 1.8406e5 1.9938e5 1.6487e5 1.9928e5 1.4658e5"/>
	<polyline stroke-width="1606.14" stroke="black" stroke-linecap="round" stroke-linejoin="round" points="1.8217e5 1.2549e5 1.8443e5 1.2755e5 1.8613e5 1.2945e5 1.8794e5 1.3162e5 1.8906e5 1.3335e5 1.8985e5 1.3473e5 1.9026e5 1.3538e5 1.9038e5 1.322e5 1.9042e5 1.296e5 1.9018e5 1.2639e5 1.8989e5 1.2435e5"/>
	<polyline stroke-width="1606.14" stroke="black" stroke-linecap="round" stroke-linejoin="round" points="1.9526e5 1.2134e5 1.9528e5 1.2316e5 1.9559e5 1.255e5 1.9592e5 1.2754e5 1.9642e5 1.2996e5 1.9684e5 1.3217e5 1.9718e5 1.3404e5 1.9732e5 1.3532e5 1.9751e5 1.3676e5 1.9893e5 1.3487e5 2.02e5 1.2988e5 2.0384e5 1.2726e5 2.0627e5 1.2366e5 2.0619e5 1.2461e5"/>
	<polyline stroke-width="1606.14" stroke="black" stroke-linecap="round" stroke-linejoin="round" points="1.9888e5 1.4753e5 2.0186e5 1.4266e5 2.0499e5 1.3733e5 2.073e5 1.3354e5 2.1193e5 1.274e5 2.1486e5 1.2391e5 2.181e5 1.2085e5"/>
	<polyline stroke-width="1606.14" stroke="black" stroke-linecap="round" stroke-linejoin="round" points="1.9985e5 1.8743e5 2.0679e5 1.8723e5 2.1203e5 1.8712e5 2.1783e5 1.8698e5 2.2355e5 1.8681e5 2.2846e5 1.8668e5 2.3273e5 1.8659e5 2.3767e5 1.8642e5 2.4261e5 1.8623e5 2.476e5 1.8597e5 2.524e5 1.8562e5 2.5918e5 1.8517e5 2.6464e5 1.8463e5 2.679e5 1.8433e5 2.7044e5 1.8401e5"/>
	<polyline stroke-width="1606.14" stroke="black" stroke-linecap="round" stroke-linejoin="round" points="2.7112e5 1.9011e5 2.7118e5 1.785e5 2.7124e5 1.6618e5 2.7136e5 1.5602e5 2.713e5 1.4944e5 2.7147e5 1.4459e5 2.7191e5 1.4202e5 2.7284e5 1.3934e5 2.742e5 1.3697e5 2.7624e5 1.3421e5 2.7914e5 1.3078e5 2.8207e5 1.2754e5 2.8495e5 1.2439e5 2.8802e5 1.2052e5"/>
	<polyline stroke-width="1606.14" stroke="black" stroke-linecap="round" stroke-linejoin="round" points="2.6198e5 1.1834e5 2.6222e5 1.1941e5 2.6272e5 1.2082e5 2.6358e5 1.225e5 2.647e5 1.2425e5 2.6556e5 1.2545e5 2.6679e5 1.2715e5 2.6793e5 1.2858e5 2.6891e5 1.2969e5 2.7002e5 1.3123e5 2.7189e5 1.2902e5 2.7387e5 1.2679e5 2.7557e5 1.2487e5 2.7822e5 1.2166e5 2.8069e5 1.1883e5"/>
	<polyline stroke-width="1606.14" stroke="black" stroke-linecap="round" stroke-linejoin="round" points="2.488e5 1.1834e5 2.5069e5 1.205e5 2.5291e5 1.2314e5 2.5466e5 1.253e5 2.568e5 1.282e5 2.5934e5 1.3197e5 2.6099e5 1.3473e5 2.6247e5 1.3704e5 2.6322e5 1.3894e5 2.6364e5 1.4031e5 2.6369e5 1.4173e5 2.6339e5 1.496e5 2.6339e5 1.5858e5 2.6339e5 1.6656e5 2.6372e5 1.7437e5 2.6395e5 1.8028e5 2.6451e5 1.9038e5 2.6506e5 2.0432e5 2.6562e5 2.147e5 2.6585e5 2.2385e5 2.6601e5 2.3205e5 2.6601e5 2.3713e5 2.6613e5 2.4159e5 2.6588e5 2.4555e5 2.6599e5 2.4787e5 2.6649e5 2.4993e5 2.6688e5 2.5094e5 2.6764e5 2.525e5 2.6839e5 2.5325e5 2.6903e5 2.5381e5 2.7048e5 2.5419e5"/>
	<polyline stroke-width="1606.14" stroke="black" stroke-linecap="round" stroke-linejoin="round" points="1.998e5 1.9666e5 2.022e5 1.9655e5 2.0454e5 1.9638e5 2.0683e5 1.9607e5 2.1076e5 1.9532e5 2.1497e5 1.9448e5 2.1927e5 1.9365e5 2.234e5 1.9287e5 2.2725e5 1.9225e5 2.3026e5 1.9189e5 2.3271e5 1.9169e5 2.3497e5 1.9158e5 2.3651e5 1.9161e5 2.3782e5 1.9161e5 2.3905e5 1.9171e5"/>
	<polyline stroke-width="1606.14" stroke="black" stroke-linecap="round" stroke-linejoin="round" points="1.9965e5 2.2906e5 2.0167e5 2.2938e5 2.0393e5 2.2954e5 2.0594e5 2.2954e5 2.085e5 2.2952e5 2.1157e5 2.2941e5 2.1456e5 2.2913e5 2.1825e5 2.2839e5"/>
	<polyline stroke-width="1606.14" stroke="black" stroke-linecap="round" stroke-linejoin="round" points="1.9985e5 2.3633e5 2.0237e5 2.3627e5 2.0504e5 2.361e5 2.0836e5 2.3585e5 2.1115e5 2.3568e5 2.1411e5 2.354e5 2.1634e5 2.3521e5 2.1815e5 2.3501e5 2.2013e5 2.3475e5"/>
	<polyline stroke-width="1606.14" stroke="black" stroke-linecap="round" stroke-linejoin="round" points="2.2241e5 2.2933e5 2.2554e5 2.2712e5 2.2795e5 2.2596e5 2.3047e5 2.2518e5 2.3264e5 2.249e5 2.3496e5 2.2473e5 2.3682e5 2.2476e5 2.3816e5 2.2498e5 2.398e5 2.2556e5 2.4207e5 2.2721e5 2.4276e5 2.2833e5 2.433e5 2.3009e5 2.4388e5 2.3232e5 2.4449e5 2.3438e5 2.4525e5 2.3608e5 2.4614e5 2.379e5 2.4714e5 2.3949e5 2.4812e5 2.4092e5 2.4544e5 2.4119e5 2.4327e5 2.4125e5 2.4293e5 2.4019e5 2.4243e5 2.3865e5 2.4179e5 2.3692e5 2.412e5 2.3528e5 2.4039e5 2.3377e5 2.3931e5 2.3212e5 2.3833e5 2.3095e5 2.3741e5 2.3006e5 2.361e5 2.292e5 2.3484e5 2.2864e5 2.3342e5 2.2828e5 2.3208e5 2.2842e5 2.3077e5 2.2886e5 2.2924e5 2.2989e5 2.274e5 2.3198e5 2.2567e5 2.3469e5 2.2413e5 2.3762e5 2.2279e5 2.4046e5 2.2159e5 2.4328e5 2.2041e5 2.4635e5 2.2034e5 2.4608e5 2.2022e5 2.4483e5 2.2014e5 2.4327e5 2.2025e5 2.4103e5 2.2047e5 2.3897e5 2.208e5 2.37e5 2.2132e5 2.3512e5 2.2203e5 2.3303e5 2.2276e5 2.3152e5 2.2375e5 2.3e5 2.2554e5 2.2803e5 2.2721e5 2.2689e5 2.2998e5 2.2597e5 2.3276e5 2.2582e5 2.3643e5 2.2602e5 2.4121e5 2.2636e5 2.4595e5 2.2673e5 2.5719e5 2.2704e5 2.7018e5 2.2707e5 2.7717e5 2.269e5 2.8114e5 2.2683e5 2.8514e5 2.2673e5 2.871e5 2.2666e5 2.875e5 2.2197e5 2.8676e5 2.2188e5 2.8579e5 2.2187e5 2.8339e5 2.2173e5 2.8087e5 2.2184e5 2.7864e5 2.2206e5 2.7546e5 2.2245e5 2.7099e5 2.2319e5 2.6765e5 2.2356e5 2.6364e5 2.2391e5 2.6066e5 2.2405e5 2.575e5 2.2415e5 2.5438e5 2.2422e5 2.4978e5 2.2409e5 2.4594e5 2.2393e5 2.4287e5 2.2369e5 2.3751e5 2.2321e5 2.3283e5 2.2277e5 2.2834e5 2.2229e5 2.2362e5 2.2165e5 2.1994e5 2.2112e5 2.1604e5 2.2026e5 2.1553e5 2.2068e5 2.1497e5 2.2183e5 2.1477e5 2.2302e5 2.1494e5 2.2436e5 2.1542e5 2.2554e5 2.1648e5 2.2719e5 2.1734e5 2.2783e5 2.1876e5 2.283e5 2.2055e5 2.2822e5 2.2191e5 2.2789e5 2.2361e5 2.2714e5"/>
	<polyline stroke-width="1606.14" stroke="black" stroke-linecap="round" stroke-linejoin="round" points="2.6887e5 2.5225e5 2.7477e5 2.5241e5 2.7419e5 2.4554e5 2.7698e5 2.449e5 2.7966e5 2.4446e5 2.8356e5 2.4418e5 2.876e5 2.439e5 2.9201e5 2.4365e5 2.9589e5 2.434e5 3.0021e5 2.4312e5 3.0415e5 2.4267e5 3.0755e5 2.4192e5 3.1106e5 2.4108e5 3.1501e5 2.401e5 3.1893e5 2.3949e5 3.2337e5 2.3892e5 3.2726e5 2.3844e5 3.3109e5 2.3797e5 3.3332e5 2.3775e5 3.3383e5 2.4177e5 3.3434e5 2.4518e5 3.3462e5 2.4624e5 3.3545e5 2.4632e5 3.3693e5 2.4607e5 3.3975e5 2.4564e5 3.3919e5 2.4124e5 3.385e5 2.3622e5 3.3805e5 2.3223e5 3.3772e5 2.2875e5 3.3702e5 2.2116e5 3.3646e5 2.1363e5 3.3602e5 2.0504e5 3.3563e5 1.9784e5 3.355e5 1.9337e5"/>
	<polyline stroke-width="1606.14" stroke="black" stroke-linecap="round" stroke-linejoin="round" points="2.7264e5 1.9831e5 2.7251e5 2.0274e5 2.7231e5 2.1047e5 2.7233e5 2.1514e5 2.724e5 2.2079e5 2.7273e5 2.2531e5 2.729e5 2.3173e5 2.7335e5 2.3686e5 2.7343e5 2.3772e5 2.7402e5 2.3831e5 2.755e5 2.3839e5 2.7901e5 2.3867e5 2.8239e5 2.3867e5 2.8526e5 2.3842e5 2.8919e5 2.3803e5 2.9405e5 2.3722e5 2.9924e5 2.3633e5 3.035e5 2.3532e5 3.0693e5 2.346e5 3.1173e5 2.3351e5 3.1542e5 2.3279e5 3.201e5 2.3192e5 3.2359e5 2.315e5 3.2875e5 2.3103e5 3.3252e5 2.3092e5 3.3492e5 2.3086e5 3.3735e5 2.3104e5"/>
	<polyline stroke-width="1606.14" stroke="black" stroke-linecap="round" stroke-linejoin="round" points="2.7151e5 1.9019e5 2.743e5 1.8979e5 2.7857e5 1.8944e5 2.8471e5 1.8896e5 2.8992e5 1.8868e5 2.96e5 1.8837e5 3.0172e5 1.8809e5 3.0736e5 1.8788e5 3.106e5 1.8776e5 3.1742e5 1.8755e5 3.2191e5 1.876e5 3.259e5 1.8763e5 3.291e5 1.8797e5 3.3139e5 1.8836e5 3.3301e5 1.8894e5 3.3435e5 1.8942e5 3.3625e5 1.9043e5"/>
	<polyline stroke-width="1606.14" stroke="black" stroke-linecap="round" stroke-linejoin="round" points="3.2258e5 1.7066e5 3.2328e5 1.8244e5 3.2051e5 1.8225e5 3.1633e5 1.8222e5 3.1111e5 1.825e5 3.035e5 1.8289e5 2.9792e5 1.8331e5 2.9008e5 1.8381e5 2.8291e5 1.8404e5 2.7756e5 1.8392e5 2.7508e5 1.8381e5 2.726e5 1.8364e5"/>
	<polyline stroke-width="1606.14" stroke="black" stroke-linecap="round" stroke-linejoin="round" points="3.1991e5 1.8256e5 3.191e5 1.8512e5 3.181e5 1.8843e5 3.1661e5 1.931e5 3.1558e5 1.9625e5 3.1457e5 1.9954e5 3.1324e5 2.0376e5 3.1212e5 2.0733e5 3.1123e5 2.104e5 3.1045e5 2.1341e5 3.0995e5 2.1654e5 3.0984e5 2.1949e5 3.1017e5 2.2301e5 3.1073e5 2.2568e5 3.114e5 2.287e5 3.1201e5 2.3082e5 3.1324e5 2.3467e5 3.1452e5 2.3746e5 3.1566e5 2.4e5 3.1636e5 2.417e5 3.1177e5 2.4474e5 3.1114e5 2.4204e5 3.1003e5 2.381e5 3.0881e5 2.3418e5 3.0798e5 2.3158e5 3.0709e5 2.293e5 3.0592e5 2.2785e5 3.0419e5 2.274e5 3.0162e5 2.2774e5 2.9984e5 2.2868e5 2.9738e5 2.3041e5 2.9593e5 2.3214e5 2.947e5 2.3393e5 2.9381e5 2.3577e5 2.9281e5 2.3834e5 2.9242e5 2.4023e5 2.9208e5 2.4191e5 2.9169e5 2.4531e5 2.9169e5 2.4796e5 2.8759e5 2.4801e5 2.8782e5 2.4508e5 2.8823e5 2.4152e5 2.8868e5 2.3912e5 2.8954e5 2.3582e5 2.9049e5 2.3298e5 2.918e5 2.3033e5 2.9339e5 2.2743e5 2.9462e5 2.2542e5 2.9649e5 2.2324e5 2.9802e5 2.2182e5 2.9925e5 2.2124e5 3.0045e5 2.2121e5 3.0151e5 2.2168e5 3.0268e5 2.2319e5 3.0101e5 2.2366e5 2.9752e5 2.2472e5 2.9228e5 2.2603e5 2.8885e5 2.2679e5 2.8801e5 2.2536e5 2.8832e5 2.235e5 2.8926e5 2.2182e5 2.9077e5 2.2087e5 2.927e5 2.202e5 2.9582e5 2.1906e5 2.9985e5 2.1765e5 3.0217e5 2.1715e5 3.039e5 2.1729e5 3.0507e5 2.1782e5 3.0638e5 2.1955e5 3.0694e5 2.21e5 3.0694e5 2.2214e5 3.0662e5 2.2331e5 3.0621e5 2.2368e5 3.0671e5 2.171e5 3.0772e5 2.0834e5 3.0884e5 2.0242e5 3.1045e5 1.9473e5 3.1207e5 1.8937e5 3.1391e5 1.8362e5 3.1637e5 1.7744e5"/>
	<path stroke-width="1606.14" stroke="black" stroke-linecap="round" stroke-linejoin="round" d="m2.1489e5 2.204e5l2934-1234 3348-1200 3626-1143 3403-893 3040-558 2622-557 2539-391 2064-139 1339-335 2175-6415 2041-6527 2177-7164 1480-4551 1592-5241 865-3236 892-4770 324-1826-2218-168-906 4185-780 4240-808 5246-731 4663-802 3705-390 1786-745 692-594 172-1172-278-892-363h-893l-1060 613-781 753-1199 1757-558 1757-251 2037 224 4575 7281 223 7951 279 9177 251 8285 84 11549 83 12388 1 9123-28 4325-139 1674-419 780-1255 2595-9038-4993-111h-5132l-6806 167-6193 195-5746 363-6136 363-4519 362-5299 530-4882 502-3347 197-3124-307-2092-837-1590-864-1451-1240 5552-406 4825-307 8480-335 7308-418 8814-446 5806-307 6109-278 3207-224 1186-474 586-670 293-822 167-921 199-5303 196-3510 519-3152 739-2134 1548-2942 1090-1214 893-460 446 1660 251 1478-69 1674-126 1715-628 2817-1282 3935-1114 2620-586 893-920 809-2344 557-3263 391-2594 223-3654 363-4882 56h-7084l-6387-251-4519-223-8341-167-5969 306-7587 364-5215 279-3514 391 278-3849 363-2874 781-3905 1004-3458 948-2594 3375 167 7281 223 5606 251 6722 56 5216-56 13391 83 11856-251 6331-84s5331-166 5526-194c196-28 8378-701 8378-701"/>
	<path stroke-width="1606.14" stroke="black" stroke-linecap="round" stroke-linejoin="round" d="m4.3066e5 2.4928e5l-4901 798-4937 474-5439 168-7364 139h-5635l-12580-195-10660-357 1985-3354 1126-3429-1405 193-1506-725-1255-2037-980-4630-335-5244-334-6583-224-9092 168-9149 418-4825 670-2594 892-1673 1200-1200 948-948 390-1449-558-1032-1199-558-2260-697-1953-1171-920-1702-670-3096-394-6861-613-10990-28-8409 446-17517 667-18299 670-17405 641-11910 893-13835 781-13946 613-9290 1283-9788 1394-8424 1226-9203 669-6583-362-1771-405-711-2580-1325-3152-1618-2175-1869-2343-2789-1897-3820-753-3012-111-2733 947-1590 1450-753 2009-56 1813 865 1255 1534 697 1869-83 2203-558 1702-949 2064-1199 1813-2622 3654-1561 3432-614 3709-112 2650-55 4491 223 4603-28 3291-251 3208-781 2595-781 1869-1729-2092-1283-3598v-4742l641-3961 517-4504-223-3501-1173-3249-1966-2022-878 5121-892 6583-112 4462 279 3627 1004 3458 1785 3961 2623 3738 2009 1618 2176 1450 2119 893 2957 613 4323-446 1674-642 2343-2036-3431-1032-6415-1422-5106-642-2848-153-2785 963-1088 781-391 753-139 1144 461 940 1212-214 1255 334 1060 753 1534 1395 1005 1618 446 1896v1953l-503 1674-1199 1675-670 1311-279 753-27 642 251 865 418 725 893 781 557 753 586 1088 251 1004 278 6056 84 3235 389 11995-500 11493-307 7197-671 10322-614 9541-670 9316-390 7978-224 6750-223 5411-56 7534 278 6638 391 7087 669 6080 363 2901 31 1528-1342-49-1423 418-948 823-460 1116-98 920 529 1340 921 865 1199 892 865 614 1059 1732 418 1896 168 2762-84 2789-168 10545-28 7757-140 4992-112 5161-84 2539-446 2036-419 725-656 518-990-41-28 1771 587 3112 500 2317-1616 695-2622-502-3291-2176-1730-2510-1283-4072-558-4296-1395-12050-1562-10711-614-5133-669-3849v-2622l1339-1562 1730-1339 2008-1339 1841-1115 1505-1060 1060-1506-223-2009-1785-1283-2287-1952-3431-2483-3793-2454-3152-1645-5272-2790-1981-1952-976-1451-307-1394 251-1227 1117-1212 1115-585 1213-447 1033-335 1325-710 837-892 390-1032-55-1339-920-2245-1144-2120-725-1799-168-1618 252-1465 740-1115 1227-363 1227 307 1060 167 1395-167 753-921 725-1896 58-6303-56-5383 447-2985 615-1923 962-1465 1185-1255 1856-1158 878 3445 446 3096 29 2901-724 7602-1451 7531-1505 8928-558 6471 558 5523 1953 4017 2231 2510 2400 1785 2622 1172 2343 558 2427 334 4435-446 2566-1144 3041-2259 1227-2148 948-2650 670-2789 474-4100 562-5969 530-5355-12-4701-544-2483-1029-2539-1046-1743 1882-503 1283-697 1507-1367 948-1757 447-2260-527-3178-1200-2567-1199-2203-946-3066-334-3626 725-3682 1283-3822 1534-4407 2179-6302 1115-4519v-3905l-613-3236-1004-2510-2788-3821-2901-2399-3053-1373-3111-803-3354-164-3815 583-3487 1422-1813 1004-1144 865-669 1144s-586 1088-614 1311c-27 223-641 1729-641 1729l-614 1451-558 1255-781 1088-1116 334-1339-1060-864-1980-446-3151-167-3459 446-3514 1060-3961 892-4798-279-4352-669-2956-1772-2748-2608-1381-3304-879-3654-418-3599 195-2761 642-2594 1282-5327 4046-4017 3626-2817 3180-2844 4604-2009 3849-1199 3933-586 3765-222 6639 362 3961 753 4267 1117 5524 949 5133 56 3626-391 2566-1283 2901-1618 3068-1450 4407-391 3906 56 3179 558 3403 724 3962 1284 3793 1617 3124 2790 4017 2789 3068 1870 1869 2092 1535 2370 1534 3850 1395 1980-7058 1088-4742 865-5718 809-7392 84-7614-278-7476-863-4323-1228-2343-2649-2594-1952 3291-781 1897-335 3347 335 3403 558 3627 613 3235 782 3515 390 4184 167 3068 222 7001 143 4577 280 4303 445 5795 669 3180 1116 3626 1841 4463 2566 5578 1841 4130 1673 4128 1116 4352 502 3737 280 6862-112 4352-724 8173-642 4267-1171 8760-737 7681"/>
	<polyline stroke-width="1606.14" stroke="black" stroke-linecap="round" stroke-linejoin="round" points="3.6877e5 16551 3.6432e5 16654 3.6047e5 16710 3.5784e5 16459 3.5659e5 15482 3.5673e5 13585 3.5779e5 12303 3.5958e5 11382 3.6139e5 10964 3.6393e5 10796 3.6725e5 11047 3.7176e5 11131 3.76e5 11215 3.7838e5 11215 3.8044e5 11633 3.8206e5 12330 3.8295e5 13167 3.8348e5 14171 3.8362e5 14980 3.8323e5 15984 3.822e5 16710 3.8097e5 17156 3.7935e5 17490 3.781e5 17574 3.7618e5 17330"/>
</svg>