<svg width="311" height="183" viewBox="0 0 311 183" fill="none" xmlns="http://www.w3.org/2000/svg">
	<path d="M1 143.296C58.1617 144.583 131.513 142.158 125.615 141.74C119.717 141.322 119.295 79.0249 121.823 73.5886C124.35 68.1538 129.408 66.0632 129.408 66.0632C129.408 66.0632 130.097 73.3299 128.584 69.2512C127.069 65.174 126.42 60.0232 128.584 58.9496C130.746 57.876 204.932 55.9459 194.55 59.3793C184.168 62.8127 125.987 62.5971 127.069 54.0129C128.151 45.4272 201.038 46.5008 193.036 50.5795C185.033 54.6567 127.502 52.5111 127.502 49.5059C127.502 46.5023 128.151 64.9598 124.473 65.3881C120.796 65.8178 112.794 64.9598 107.82 52.7252C102.845 40.492 109.982 28.9012 118.418 25.2522C126.853 21.6032 139.614 21.3891 145.237 29.1153C150.861 36.8415 152.159 43.7098 150.428 44.1395C148.697 44.5692 131.61 48.8621 133.125 46.929C134.639 44.9975 145.886 44.3536 145.237 41.1344C144.588 37.9151 144.588 30.8313 141.993 32.119C139.398 33.4067 130.963 46.929 130.314 43.28C129.665 39.6325 138.317 31.6907 137.236 29.9733C136.155 28.2574 129.45 25.8961 127.719 26.3258C125.988 26.7555 129.232 42.6377 127.286 41.5641C125.339 40.492 123.176 29.5451 121.662 29.3309C120.149 29.1153 115.174 32.5502 114.741 34.4817C114.308 36.4133 127.069 43.2815 125.122 43.9254C123.176 44.5692 114.741 37.4869 113.228 38.7746C111.714 40.0623 110.632 47.3603 111.281 48.2182C111.93 49.0762 124.042 45.4287 123.393 46.7164C122.744 48.0041 114.742 50.1498 114.742 51.8672C114.742 53.5832 119.5 58.9496 121.231 58.7354C122.961 58.5198 124.042 48.2182 124.691 50.3639C125.339 52.5111 122.96 63.0268 133.991 66.2475C145.021 69.4653 167.083 67.3196 174.437 67.3196C181.79 67.3196 193.253 65.8178 193.902 64.316C194.551 62.8142 194.767 55.3021 193.253 53.7988C191.74 52.2969 180.277 53.1549 180.926 50.1498C181.575 47.1461 189.793 18.3855 191.956 16.0242C194.118 13.6629 207.096 7.01027 207.096 5.07871C207.096 3.14716 205.364 1 203.849 1C202.335 1 187.844 11.7313 187.195 12.3737C186.546 13.0176 165.782 81.4844 166.647 83.8456C167.513 86.2054 189.357 86.8493 190.872 83.2018C192.386 79.5528 190.224 73.7581 180.923 73.5425C171.623 73.3284 164.485 76.9759 156.05 77.1915C147.615 77.4056 138.099 74.1864 132.475 75.0458C126.851 75.9038 124.256 80.1967 129.88 83.2018C135.503 86.2054 155.401 83.63 158.645 84.9177C161.889 86.2054 164.485 142.223 158.212 140.72C151.94 139.218 152.804 103.805 149.993 102.517C147.182 101.23 142.856 100.372 142.639 109.171C142.423 117.971 145.234 136.429 140.477 133.424C135.718 130.419 133.555 108.098 130.527 112.389C127.499 116.682 125.985 139.432 129.229 143.296C132.474 147.159 137.664 152.095 151.075 153.167C164.485 154.241 182.869 150.378 187.627 146.943C192.386 143.51 198.441 136.856 194.981 138.359C191.521 139.861 191.737 146.943 190.006 149.948C188.277 152.952 179.193 156.816 168.811 157.031C158.43 157.245 142.858 156.816 138.099 155.099C133.34 153.383 129.88 149.733 129.664 147.373C129.447 145.011 138.532 143.081 140.911 144.583C143.289 146.085 149.346 150.594 155.403 148.662C161.459 146.73 160.378 142.008 168.163 137.073C175.951 132.136 177.68 140.292 185.683 139.434C193.686 138.576 197.146 137.288 198.228 131.278C199.31 125.268 200.824 107.24 200.824 98.6542C200.824 90.07 200.39 76.5477 198.661 73.5425C196.931 70.5374 191.524 64.3145 192.389 67.5338C193.253 70.753 212.718 67.104 221.803 68.82C230.887 70.5374 230.671 93.5034 230.238 105.307C229.805 117.11 221.586 129.345 212.502 130.204C203.419 131.062 201.039 130.419 201.472 126.985C201.905 123.552 211.854 122.906 215.964 119.687C220.074 116.468 222.669 102.947 220.939 95.435C219.209 87.9229 221.156 82.1282 214.45 79.9811C207.745 77.8354 198.445 79.5513 196.931 81.9126C195.417 84.2724 195.417 129.131 195.633 133.638C195.85 138.145 197.148 148.018 201.472 149.52C201.472 149.52 205.939 150.042 208.062 145.828C210.186 141.612 212.781 137.867 217.973 136.463C223.164 135.058 229.298 133.419 229.298 133.419C229.298 133.419 221.511 131.311 214.434 133.888C207.355 136.463 200.277 147.468 197.681 151.449C195.086 155.429 190.603 154.961 190.131 157.301C189.659 159.643 197.445 161.282 199.096 164.326C200.747 167.369 208.063 176.501 215.612 179.544C223.162 182.588 235.432 182.588 239.441 180.715C243.453 178.841 249.115 168.773 248.643 156.598C248.173 144.423 242.272 136.93 237.083 135.995C231.891 135.058 224.814 134.591 221.274 140.677C217.735 146.765 218.442 161.984 221.51 169.008C224.577 176.031 231.891 180.246 236.374 178.138C240.857 176.031 243.453 168.071 243.688 165.963C243.923 163.856 233.542 158.94 235.43 158.236C237.318 157.535 242.037 161.982 243.923 159.173C245.811 156.363 246.047 147.7 243.214 147.935C240.384 148.168 234.957 155.896 235.665 153.787C236.373 151.68 241.093 146.061 240.384 143.954C239.677 141.847 234.721 138.569 233.307 139.037C231.891 139.505 233.779 152.851 232.127 151.212C230.476 149.573 229.767 140.441 226.937 140.91C224.105 141.377 221.039 147.466 221.746 149.573C222.454 151.68 232.6 152.851 230.947 153.787C229.295 154.724 222.689 152.382 222.454 154.491C222.218 156.598 221.51 162.919 224.105 162.919C226.7 162.919 231.419 158.938 231.419 159.642C231.419 160.343 225.521 164.558 225.756 166.899C225.991 169.241 232.126 175.797 233.307 174.157C234.486 172.519 231.891 159.173 233.779 162.452C235.667 165.729 234.488 174.157 236.846 172.987C239.205 171.817 241.093 169.241 241.093 167.835C241.093 166.43 239.205 163.621 239.441 165.494C239.678 167.368 310 166.431 310 166.431" stroke="black" stroke-miterlimit="10" stroke-linecap="round" stroke-linejoin="round"/>
</svg>