<svg width="291" height="70" viewBox="0 0 291 70" fill="none" xmlns="http://www.w3.org/2000/svg">
<path d="M0.0018708 21.2864H7.389C7.389 22.25 7.85416 23.0031 8.78447 23.5347C9.71478 24.0774 10.8223 24.3432 12.0959 24.3432C13.281 24.3432 14.3331 24.0885 15.2634 23.579C16.1827 23.0695 16.6478 22.394 16.6478 21.5412C16.6478 21.0871 16.5703 20.6884 16.4153 20.334C16.2602 19.9796 16.0166 19.6916 15.6732 19.4812C15.3299 19.2708 15.0309 19.0936 14.7651 18.9717C14.4993 18.8499 14.0895 18.7502 13.5357 18.6727C12.982 18.6063 12.5943 18.5509 12.3728 18.5287C12.1513 18.5066 11.7526 18.4734 11.1878 18.4401C9.74801 18.3515 8.40792 18.1411 7.17857 17.7978C5.94923 17.4545 4.79741 16.9671 3.74527 16.3137C2.68206 15.6603 1.85142 14.7743 1.24229 13.6557C0.633155 12.5371 0.334126 11.2302 0.334126 9.72399C0.334126 6.64509 1.45272 4.25286 3.6899 2.54728C5.92708 0.852782 8.65157 0 11.8855 0C13.868 0 15.7175 0.343324 17.4231 1.04106C19.1397 1.73879 20.5463 2.83524 21.6649 4.35254C22.7835 5.86983 23.3262 7.65293 23.304 9.72399H16.0387C16.0055 8.76045 15.6178 8.04056 14.8537 7.56433C14.0895 7.0881 13.137 6.84445 12.0073 6.84445C9.31608 6.84445 7.97599 7.75261 7.97599 9.55786C7.97599 10.4882 8.34147 11.1416 9.06135 11.5071C9.78124 11.8726 10.9331 12.1494 12.5168 12.3156C13.9344 12.4263 15.1638 12.5814 16.2048 12.7807C17.257 12.9801 18.3091 13.3013 19.3945 13.7332C20.4688 14.1762 21.3437 14.7078 22.0304 15.3502C22.7059 15.9925 23.2708 16.8342 23.7027 17.8975C24.1346 18.9607 24.3561 20.1789 24.3561 21.5744C24.3561 24.5204 23.149 26.8351 20.7456 28.5407C18.3423 30.2352 15.496 31.088 12.2067 31.088C8.80662 31.088 5.91601 30.2352 3.52377 28.5407C1.12046 26.8462 -0.053505 24.4207 0.0018708 21.2864Z" fill="white"/>
<path d="M56.209 0.687012V23.4465H66.9519V30.4127H48.4453V0.687012H56.209Z" fill="white"/>
<path d="M80.6172 17.2887H80.7501L83.1645 9.52499L86.8193 0.698089H95.1035V1.84991L82.2785 30.7228H79.0556L66.0977 1.83883V0.687012H74.3708L78.1031 9.51391L80.6172 17.2887Z" fill="white"/>
<path d="M119.101 0.687012V7.44286H108.314V11.6846H118.248V18.4737H108.314V23.3136H119.478V30.4017H100.539V0.687012H119.101Z" fill="white"/>
<path d="M146.593 19.8359L152.408 29.2609V30.3684H144.168L139.073 21.0764H134.997V30.3684H127.223V0.653772C127.256 0.653772 129.438 0.6427 133.779 0.631625C138.121 0.62055 140.291 0.620546 140.291 0.653772C143.658 0.653772 146.283 1.70592 148.166 3.79912C150.049 5.89233 150.99 8.35101 150.99 11.1862C150.946 14.974 149.484 17.8535 146.593 19.8359ZM134.876 14.7414H140.269C141.288 14.7414 142.074 14.3759 142.65 13.6339C143.215 12.9029 143.503 12.0169 143.503 10.998C143.503 9.97906 143.226 9.12627 142.673 8.42854C142.119 7.7308 141.321 7.38747 140.28 7.38747H134.887V14.7414H134.876Z" fill="white"/>
<path d="M192.82 30.4127H185.056V18.5291H175.842V30.4127H168.078V0.687012H175.842V11.4299H185.056V0.687012H192.82V30.4127Z" fill="white"/>
<path d="M226.354 0.687012V23.4465H237.096V30.4127H218.59V0.687012H226.354Z" fill="white"/>
<path d="M251.131 0.687012V23.4465H261.874V30.4127H243.367V0.687012H251.131Z" fill="white"/>
<path d="M266.646 21.2864H274.034C274.034 22.25 274.499 23.0031 275.429 23.5347C276.359 24.0774 277.467 24.3432 278.74 24.3432C279.926 24.3432 280.978 24.0885 281.908 23.579C282.827 23.0695 283.292 22.394 283.292 21.5412C283.292 21.0871 283.215 20.6884 283.06 20.334C282.905 19.9796 282.661 19.6916 282.318 19.4812C281.974 19.2708 281.675 19.0936 281.41 18.9717C281.144 18.8499 280.734 18.7502 280.18 18.6727C279.627 18.6063 279.239 18.5509 279.017 18.5287C278.796 18.5066 278.397 18.4734 277.832 18.4401C276.393 18.3515 275.052 18.1411 273.823 17.7978C272.594 17.4545 271.442 16.9671 270.39 16.3137C269.327 15.6603 268.496 14.7743 267.887 13.6557C267.278 12.5371 266.979 11.2302 266.979 9.72399C266.979 6.64509 268.097 4.25286 270.334 2.54728C272.572 0.852782 275.296 0 278.53 0C280.513 0 282.362 0.343324 284.068 1.04106C285.784 1.73879 287.191 2.83524 288.309 4.35254C289.428 5.86983 289.971 7.65293 289.949 9.72399H282.683C282.661 8.76045 282.262 8.04056 281.498 7.56433C280.734 7.0881 279.782 6.84445 278.652 6.84445C275.961 6.84445 274.621 7.75261 274.621 9.55786C274.621 10.4882 274.986 11.1416 275.706 11.5071C276.426 11.8726 277.578 12.1494 279.161 12.3156C280.579 12.4263 281.808 12.5814 282.849 12.7807C283.902 12.9801 284.954 13.3013 286.039 13.7332C287.113 14.1762 287.988 14.7078 288.675 15.3502C289.35 15.9925 289.915 16.8342 290.347 17.8975C290.779 18.9607 291.001 20.1789 291.001 21.5744C291.001 24.5204 289.793 26.8351 287.39 28.5407C284.987 30.2352 282.141 31.088 278.862 31.088C275.462 31.088 272.572 30.2352 270.179 28.5407C267.754 26.8462 266.591 24.4207 266.646 21.2864Z" fill="white"/>
<path d="M39.4434 24.122V6.9777V0.687012H31.6797V6.9777V24.122V30.4127H39.4434V24.122Z" fill="white"/>
<path d="M209.587 24.122V6.9777V0.687012H201.812V6.9777V24.122V30.4127H209.587V24.122Z" fill="white"/>
<path d="M26.3946 26.4701C28.3659 25.0414 30.6474 23.6902 33.1836 22.4609C35.7198 21.2315 38.389 20.1462 41.1135 19.2601C43.849 18.3741 46.5957 17.6542 49.2758 17.1337C51.956 16.6132 54.459 16.3474 56.7073 16.3474C58.1692 16.3474 59.5204 16.5689 60.7386 16.9897C61.9569 17.4217 63.0533 18.0086 63.9947 18.7618C64.9361 19.5149 65.7446 20.3898 66.3759 21.3755C67.0182 22.3612 67.5166 23.4244 67.86 24.5319C67.9818 24.9749 68.2919 25.0414 68.4691 25.0414C68.5245 25.0414 68.5909 25.0303 68.6574 25.0192C68.8456 24.9749 68.9896 24.8863 69.0672 24.7534C69.1558 24.6094 69.1779 24.4101 69.1115 24.1775C68.757 22.9482 68.2144 21.7631 67.4834 20.6556C66.7524 19.5592 65.8664 18.5735 64.8254 17.7318C63.7843 16.89 62.566 16.2366 61.2038 15.7715C59.8415 15.3063 58.3242 15.0737 56.6962 15.0737C54.3372 15.0737 51.7456 15.3506 48.9657 15.8933C46.1969 16.436 43.3728 17.2002 40.5597 18.1637C37.7577 19.1162 35 20.2569 32.3862 21.5416C29.7614 22.8263 27.4135 24.255 25.3867 25.7834C23.3489 27.3229 21.6987 28.9398 20.4694 30.6011C19.2289 32.2845 18.5977 34.0122 18.5977 35.751C18.5977 36.8143 19.1071 37.6671 20.126 38.2873C21.1006 38.8853 22.4297 39.3505 24.0799 39.6495C25.719 39.9596 27.6239 40.17 29.7393 40.2697C31.7882 40.3805 34.0253 40.4801 36.3844 40.5687C39.0424 40.6573 41.7226 40.7792 44.3363 40.9342C46.9611 41.0893 49.3534 41.3772 51.4466 41.8092C53.5287 42.2411 55.2454 42.8724 56.5301 43.6809C57.7926 44.4783 58.4128 45.5747 58.4128 47.0034C58.4128 48.3546 57.7373 49.8497 56.3861 51.4445C55.0238 53.0615 53.3183 54.5788 51.3137 55.9632C49.298 57.3476 47.1051 58.5105 44.7683 59.4187C42.4425 60.3268 40.305 60.7809 38.4111 60.7809C37.37 60.7809 36.5948 60.504 36.0853 59.9503C35.5759 59.3965 35.3101 58.6988 35.3101 57.8792C35.3101 56.9046 35.6202 55.8082 36.2404 54.6231C36.8606 53.427 37.802 52.2973 39.0202 51.2895C39.3193 51.1123 39.3857 50.8133 39.2196 50.4699C39.0867 50.2152 38.9095 50.1598 38.7766 50.1598C38.6326 50.1598 38.4886 50.2152 38.3004 50.3481C36.8938 51.5331 35.8195 52.8068 35.1107 54.1358C34.4019 55.4648 34.0475 56.7274 34.0475 57.8903C34.0475 59.0643 34.413 60.061 35.1439 60.8584C35.8749 61.6558 36.9713 62.0656 38.4111 62.0656C39.7734 62.0656 41.2685 61.833 42.8412 61.3679C44.4138 60.9138 45.9976 60.2936 47.5481 59.5183C49.0986 58.7541 50.627 57.8571 52.0889 56.8492C53.5509 55.8414 54.8577 54.7782 55.9763 53.6928C57.0949 52.5964 57.992 51.4556 58.6565 50.3149C59.321 49.1631 59.6643 48.0445 59.6643 47.0145C59.6643 45.2978 58.9334 43.9356 57.4936 42.9388C56.0871 41.9753 54.2486 41.2222 52.0336 40.7238C49.8296 40.2254 47.3155 39.8821 44.5689 39.7049C41.8333 39.5277 39.0756 39.3948 36.3844 39.3062C34.3355 39.2176 32.3198 39.1179 30.3262 39.0071C28.3659 38.8964 26.5828 38.7192 25.0102 38.4534C23.4596 38.1987 22.186 37.8442 21.2225 37.4234C20.3032 37.0136 19.8491 36.4709 19.8491 35.751C19.8491 34.1784 20.4472 32.5836 21.6101 31.0109C22.8394 29.4271 24.4343 27.8988 26.3946 26.4701Z" fill="black"/>
<path d="M68.5775 44.7886C68.5 44.7886 68.4114 44.7996 68.3228 44.8218L66.4068 45.287C66.0524 45.4088 65.9195 45.6967 66.0302 46.0844C66.152 46.5052 66.4178 46.5717 66.5618 46.5717C66.6283 46.5717 66.7058 46.5606 66.7612 46.5385L68.6661 46.0733C69.0537 45.9625 69.2309 45.6746 69.1534 45.2759C69.087 44.9658 68.8876 44.7886 68.5775 44.7886Z" fill="black"/>
<path d="M144.123 51.3009C144.012 51.3009 143.902 51.3342 143.769 51.4006C142.861 51.9987 141.82 52.5635 140.657 53.0508C139.494 53.5492 138.242 53.9922 136.946 54.3577C135.651 54.7232 134.333 55.0222 133.037 55.2326C131.741 55.4431 130.512 55.5538 129.393 55.5538C128.939 55.5538 128.563 55.432 128.219 55.1883C127.898 54.9558 127.732 54.701 127.732 54.4131C127.732 54.0808 127.787 53.6821 127.887 53.2391C127.987 52.8072 128.142 52.4417 128.341 52.1648C128.563 51.8879 128.585 51.5889 128.419 51.2899C128.264 51.0019 128.031 50.9355 127.876 50.9355C127.798 50.9355 127.71 50.9465 127.632 50.9798C127.178 51.1127 126.757 51.1902 126.414 51.1902C126.126 51.1902 125.871 51.1459 125.661 51.0573C125.207 50.869 124.985 50.5589 124.985 50.1048C124.985 49.7504 124.786 49.5289 124.465 49.5289C124.42 49.5289 124.376 49.5289 124.332 49.54C123.8 49.6175 123.723 49.9276 123.723 50.1048C123.723 50.8026 123.933 51.3452 124.343 51.7329C123.701 52.1205 122.925 52.4971 122.039 52.8293C120.899 53.2612 119.669 53.6489 118.396 53.9701C117.111 54.2912 115.837 54.557 114.608 54.7564C113.379 54.9558 112.315 55.0443 111.463 55.0443C108.517 55.0443 108.361 54.5903 108.361 54.5017C108.361 54.3134 108.716 54.1583 109.303 54.0808C109.613 54.0808 109.801 53.8925 109.834 53.5603C109.868 53.228 109.702 53.0065 109.414 52.9511C109.07 52.8625 108.76 52.7518 108.472 52.6078C108.284 52.5081 108.173 52.3752 108.129 52.187C108.151 52.1094 108.151 52.0097 108.129 51.8879C108.162 51.755 108.262 51.6221 108.417 51.4781C108.638 51.2788 108.937 51.1016 109.314 50.9576C109.69 50.8136 110.111 50.6918 110.565 50.6032C111.008 50.5146 111.451 50.4703 111.872 50.4703C112.238 50.4703 112.437 50.2377 112.437 49.839C112.437 49.4403 112.227 49.2077 111.872 49.2077C111.341 49.2077 110.776 49.2742 110.2 49.4071C109.624 49.54 109.092 49.7283 108.616 49.983C108.14 50.2266 107.741 50.5257 107.42 50.869C107.254 51.0462 107.121 51.2345 107.044 51.4339C105.249 51.9987 103.544 52.2977 101.982 52.2977C100.864 52.2977 99.8114 52.1648 98.8479 51.9101C97.8844 51.6553 97.0316 51.2899 96.3117 50.8247C96.1123 50.6807 95.913 50.6143 95.7358 50.6143C95.4368 50.6143 95.171 50.7915 94.9495 51.1459C94.6837 51.6221 94.4068 52.1094 94.1077 52.6078C93.853 53.0176 93.6094 53.4938 93.3657 54.0254C93.2107 53.5603 93.0778 53.084 92.9559 52.6189C92.9338 52.5192 92.9227 52.4195 92.9005 52.3199C93.0334 52.1537 93.0445 51.9322 92.9116 51.6886C92.8673 51.6111 92.823 51.5557 92.7787 51.5003C92.7566 51.312 92.7344 51.1127 92.7344 50.9244C92.6791 50.57 92.4686 50.3706 92.1474 50.3706C92.1031 50.3706 92.0588 50.3706 92.0145 50.3817C91.782 50.4149 91.6269 50.4925 91.5383 50.6143C91.494 50.6807 91.4386 50.8026 91.4718 50.9465C91.4718 51.1791 91.494 51.4449 91.5272 51.7107C89.7552 52.6632 88.1493 53.3831 86.776 53.8261C85.2476 54.3245 83.9186 54.5681 82.8 54.5681C81.7036 54.5681 80.8065 54.3577 80.142 53.9368C79.5439 53.5714 79.123 53.084 78.8572 52.5192C78.9015 52.4971 78.9458 52.4749 78.9791 52.4528C79.0123 52.4306 79.0234 52.4085 79.0455 52.3863C80.5075 51.7661 81.8143 51.0351 82.9329 50.2045C84.1401 49.3074 85.159 48.3771 85.9675 47.4246C86.7871 46.4833 87.3962 45.5308 87.7949 44.6005C88.1936 43.6702 88.393 42.8284 88.393 42.1086C88.393 41.3222 88.1825 40.6799 87.7617 40.1926C87.3408 39.6942 86.6985 39.4395 85.8567 39.4395C84.9154 39.4395 83.9297 39.7496 82.9218 40.3476C81.9251 40.9457 80.9837 41.7652 80.1309 42.7731C79.267 43.792 78.5582 44.9881 78.0045 46.3282C77.4507 47.6683 77.1738 49.1191 77.1738 50.6143C77.1738 51.0573 77.2181 51.4781 77.3067 51.8879C76.7419 52.1759 76.1438 52.4528 75.5126 52.7186C74.5158 53.1283 73.4969 53.4938 72.489 53.7929C71.4701 54.0919 70.4512 54.3355 69.4655 54.5127C68.4798 54.6899 67.5606 54.7675 66.741 54.7675C65.9547 54.7675 65.3788 54.5349 64.9801 54.0476C64.5814 53.5714 64.5038 52.9401 64.7586 52.0984C64.7918 51.9211 64.7807 51.6 64.2823 51.4449C64.1827 51.4117 64.0941 51.4006 64.0165 51.4006C63.784 51.4006 63.6068 51.5224 63.5182 51.755C63.1084 53.073 63.2302 54.1362 63.8836 54.9004C64.526 55.6535 65.5006 56.0411 66.7632 56.0411C67.6381 56.0411 68.6127 55.9525 69.6759 55.7753C70.7281 55.5981 71.8024 55.3544 72.8656 55.0554C73.9399 54.7453 75.0142 54.3688 76.0552 53.9368C76.6422 53.6932 77.196 53.4274 77.7387 53.1505C77.938 53.5713 78.1927 53.959 78.5028 54.3134C79.3889 55.3323 80.8286 55.8418 82.7889 55.8418C83.974 55.8418 85.4137 55.587 87.0639 55.0776C88.4594 54.6456 90.0321 53.9479 91.7709 53.0065C91.793 53.084 91.8041 53.1505 91.8263 53.228C92.0699 54.103 92.3911 54.9557 92.7898 55.7532C92.9559 56.0965 93.1885 56.1629 93.3436 56.1629C93.3989 56.1629 93.4543 56.1519 93.5208 56.1408C93.7866 56.0633 93.9859 55.8861 94.0967 55.6092C94.3514 54.8782 94.6615 54.1805 95.0048 53.5381C95.3039 52.9733 95.5807 52.486 95.8244 52.0651C97.3638 53.0619 99.4349 53.5603 101.993 53.5603C103.655 53.5603 105.36 53.2834 107.088 52.785C107.232 53.1173 107.475 53.372 107.841 53.5492C107.73 53.6156 107.619 53.6932 107.509 53.7818C107.243 53.9922 107.121 54.2359 107.121 54.5017C107.121 55.1994 107.553 55.6756 108.384 55.9414C109.159 56.1851 110.2 56.3069 111.485 56.3069C112.404 56.3069 113.522 56.2072 114.818 56.0079C116.114 55.8085 117.443 55.5317 118.761 55.1883C120.09 54.8339 121.386 54.4241 122.604 53.9701C123.833 53.5049 124.841 53.0065 125.617 52.4528C125.65 52.4195 125.661 52.3863 125.694 52.3531C125.927 52.3974 126.181 52.4306 126.447 52.4306C126.602 52.4306 126.768 52.4195 126.935 52.4085C126.835 52.6964 126.746 52.9954 126.669 53.3055C126.558 53.7375 126.503 54.114 126.503 54.4352C126.503 55.0997 126.802 55.6756 127.389 56.1408C127.964 56.606 128.651 56.8385 129.426 56.8385C130.611 56.8385 131.896 56.7278 133.247 56.5063C134.61 56.2848 135.983 55.9747 137.323 55.587C138.674 55.1883 139.992 54.7343 141.244 54.2026C142.495 53.671 143.592 53.0951 144.522 52.4749C144.81 52.2423 144.865 51.9433 144.655 51.6221C144.466 51.3563 144.267 51.3009 144.123 51.3009ZM85.8457 40.7131C86.7095 40.7131 87.1082 41.1561 87.1082 42.1086C87.1082 42.6955 86.931 43.3933 86.5656 44.2018C86.2001 45.0103 85.6463 45.852 84.9264 46.6826C84.1955 47.5243 83.2652 48.366 82.1687 49.1745C81.1277 49.9498 79.8651 50.6475 78.4475 51.2345C78.4253 51.0794 78.4253 50.8801 78.4253 50.6254C78.4253 49.2963 78.669 48.0227 79.1341 46.8266C79.6104 45.6305 80.2195 44.5673 80.9726 43.6702C81.7146 42.7731 82.5453 42.0532 83.4202 41.5105C84.2841 40.9789 85.1036 40.7131 85.8457 40.7131Z" fill="black"/>
<path d="M213.574 39.45C210.252 38.5972 206.995 38.0103 203.883 37.7001C204.515 35.9392 205.168 34.2115 205.833 32.5502C206.53 30.8003 207.228 29.128 207.893 27.5775C208.568 25.9937 209.222 24.5429 209.82 23.2581C210.429 21.9624 210.994 20.7995 211.514 19.8138C211.636 19.6366 211.669 19.4704 211.625 19.3265C211.581 19.1825 211.47 19.0607 211.282 18.9721C211.16 18.9167 211.049 18.8945 210.949 18.8945C210.794 18.8945 210.584 18.961 210.429 19.2489C209.377 21.2646 208.136 23.9448 206.719 27.212C205.312 30.4681 203.928 33.9678 202.599 37.6005C201.735 37.5229 200.838 37.4565 199.941 37.4122C198.988 37.3679 198.069 37.3457 197.216 37.3457C195.433 37.3457 193.683 37.4233 192.022 37.5783C190.46 37.7223 188.899 37.9217 187.392 38.1542C188.345 35.4297 189.164 32.7606 189.818 30.2355C190.493 27.6218 191.08 25.2184 191.557 23.0809C191.59 22.8816 191.546 22.7155 191.457 22.5936C191.357 22.4718 191.213 22.4054 191.003 22.3943H190.925C190.571 22.3943 190.35 22.5715 190.294 22.8927C189.818 25.0634 189.209 27.5221 188.5 30.1912C187.791 32.8271 186.938 35.5959 185.953 38.4311C180.758 39.4389 176.018 40.9895 171.865 43.0384C167.679 45.1094 164.057 47.4241 161.089 49.905C158.121 52.3969 155.806 54.9109 154.211 57.4139C152.605 59.9169 151.797 62.1098 151.797 63.9261C151.797 65.5874 152.417 67.005 153.658 68.1458C154.887 69.2865 156.393 69.8624 158.132 69.8624C161.765 69.8624 165.12 68.9542 168.077 67.149C171.023 65.3548 173.715 62.9847 176.074 60.1052C178.433 57.2257 180.526 53.9474 182.32 50.348C184.092 46.7818 185.643 43.1491 186.949 39.5165C188.566 39.2285 190.239 38.9959 191.911 38.852C193.628 38.6969 195.422 38.6194 197.238 38.6194C198.091 38.6194 198.955 38.6415 199.819 38.6858C200.594 38.7301 201.38 38.7855 202.178 38.863C200.948 42.2631 199.841 45.6521 198.877 48.9414C197.892 52.2972 197.227 55.2654 196.884 57.713C196.828 57.9123 196.84 58.0784 196.928 58.2113C197.017 58.3442 197.172 58.4328 197.393 58.455C197.438 58.4661 197.493 58.4661 197.526 58.4661C197.87 58.4661 198.091 58.2667 198.135 57.9123C198.479 55.4425 199.154 52.4855 200.129 49.1297C201.092 45.7961 202.211 42.3739 203.451 38.9516C206.53 39.2617 209.831 39.8487 213.231 40.7015C213.308 40.7237 213.386 40.7347 213.452 40.7347C213.629 40.7347 213.873 40.6572 214.006 40.2585C214.072 40.0592 214.072 39.882 214.006 39.738C213.917 39.6162 213.785 39.5165 213.574 39.45ZM185.499 39.7934C184.258 43.2156 182.785 46.6489 181.091 50.0268C179.363 53.4933 177.336 56.6387 175.088 59.3964C172.84 62.143 170.281 64.3802 167.468 66.0636C164.666 67.7471 161.532 68.5888 158.132 68.5888C156.747 68.5888 155.54 68.1347 154.555 67.2265C153.569 66.3294 153.071 65.2108 153.071 63.915C153.071 62.2538 153.835 60.2159 155.33 57.8569C156.847 55.4758 159.04 53.0946 161.842 50.7578C164.655 48.4209 168.122 46.228 172.153 44.2345C176.107 42.2853 180.592 40.7901 185.499 39.7934Z" fill="black"/>
<path d="M217.628 46.572C217.695 46.572 217.772 46.5609 217.828 46.5388L219.732 46.0736C220.12 45.9629 220.297 45.6749 220.22 45.2762C220.153 44.955 219.943 44.7778 219.644 44.7778C219.566 44.7778 219.478 44.7889 219.389 44.8111L217.473 45.2762C217.119 45.398 216.986 45.686 217.097 46.0736C217.218 46.5056 217.484 46.572 217.628 46.572Z" fill="black"/>
<path d="M272.295 51.7106C272.207 51.4669 272.018 51.334 271.764 51.334C271.686 51.334 271.586 51.3451 271.487 51.3783C269.958 51.9431 268.308 52.5412 266.547 53.1836C264.831 53.7927 263.28 54.4683 261.918 55.1882C261.397 54.435 260.711 53.7152 259.88 53.0174C259.005 52.2975 258.174 51.7438 257.41 51.3894C257.388 51.3783 257.377 51.3783 257.355 51.3783C257.288 51.3561 257.233 51.3451 257.189 51.3451C257.111 51.3451 257.034 51.3562 256.945 51.4005C254.918 52.5301 253.102 53.3497 251.574 53.8481C250.045 54.3464 248.716 54.5901 247.598 54.5901C246.501 54.5901 245.604 54.3797 244.94 53.9588C244.353 53.5933 243.921 53.1171 243.655 52.5412C243.688 52.519 243.721 52.508 243.755 52.4858C243.799 52.4637 243.832 52.4194 243.865 52.3972C245.327 51.777 246.623 51.046 247.731 50.2265C248.938 49.3294 249.957 48.3991 250.765 47.4466C251.585 46.5052 252.194 45.5528 252.593 44.6224C252.991 43.6921 253.191 42.8504 253.191 42.1305C253.191 41.3442 252.98 40.7018 252.559 40.2145C252.138 39.7162 251.496 39.4614 250.654 39.4614C249.713 39.4614 248.716 39.7715 247.719 40.3696C246.723 40.9676 245.781 41.7872 244.929 42.7951C244.065 43.814 243.356 45.0101 242.802 46.3502C242.248 47.6903 241.971 49.1411 241.971 50.6363C241.971 51.1014 242.027 51.5444 242.115 51.9653C240.51 52.7959 239.059 53.4383 237.807 53.8481C236.279 54.3464 234.95 54.5901 233.831 54.5901C232.735 54.5901 231.838 54.3797 231.173 53.9588C230.575 53.5933 230.154 53.106 229.889 52.5412C229.933 52.519 229.977 52.4969 230.01 52.4747C230.044 52.4526 230.055 52.4304 230.077 52.4083C231.539 51.7881 232.846 51.0571 233.964 50.2265C235.171 49.3294 236.19 48.3991 236.999 47.4466C237.818 46.5052 238.427 45.5528 238.826 44.6224C239.225 43.6921 239.424 42.8504 239.424 42.1305C239.424 41.3442 239.214 40.7018 238.793 40.2145C238.372 39.7162 237.73 39.4614 236.888 39.4614C235.947 39.4614 234.961 39.7715 233.953 40.3696C232.956 40.9676 232.015 41.7872 231.162 42.7951C230.298 43.814 229.589 45.0101 229.036 46.3502C228.482 47.6903 228.205 49.1411 228.205 50.6363C228.205 51.0793 228.249 51.5001 228.338 51.9099C227.773 52.1979 227.175 52.4747 226.544 52.7405C225.547 53.1503 224.528 53.5158 223.52 53.8148C222.501 54.1139 221.482 54.3575 220.497 54.5347C219.511 54.7119 218.592 54.7895 217.772 54.7895C216.986 54.7895 216.41 54.5569 216.011 54.0696C215.613 53.5933 215.535 52.962 215.79 52.1203C215.823 51.9431 215.812 51.622 215.314 51.4669C215.214 51.4337 215.125 51.4226 215.048 51.4226C214.815 51.4226 214.638 51.5444 214.549 51.777C214.14 53.0949 214.261 54.1582 214.915 54.9223C215.557 55.6755 216.532 56.0631 217.794 56.0631C218.669 56.0631 219.644 55.9745 220.707 55.7973C221.759 55.6201 222.834 55.3764 223.897 55.0774C224.971 54.7673 226.045 54.3907 227.086 53.9588C227.673 53.7152 228.227 53.4493 228.77 53.1725C228.969 53.5933 229.224 53.981 229.534 54.3354C230.42 55.3543 231.86 55.8637 233.82 55.8637C235.005 55.8637 236.445 55.609 238.095 55.0996C239.413 54.7008 240.897 54.0474 242.525 53.1725C242.725 53.5823 242.979 53.9699 243.289 54.3243C244.175 55.3432 245.615 55.8527 247.576 55.8527C248.761 55.8527 250.2 55.5979 251.851 55.0885C253.412 54.6122 255.206 53.7927 257.178 52.663C257.776 52.9953 258.418 53.4161 259.094 53.9477C259.814 54.5126 260.401 55.0996 260.81 55.6865C260.002 56.1406 259.359 56.6058 258.883 57.0599C258.352 57.5693 258.075 58.1009 258.075 58.6214C258.075 59.0202 258.23 59.3635 258.518 59.6625C258.817 59.9615 259.16 60.1055 259.559 60.1055C260.522 60.1055 261.287 59.8176 261.84 59.2306C262.394 58.6547 262.671 57.9569 262.671 57.1817C262.671 56.9048 262.616 56.6058 262.516 56.2957C263.823 55.7087 265.351 55.0774 267.079 54.4018C268.873 53.7041 270.501 53.0728 272.018 52.4858C272.317 52.2975 272.417 52.0317 272.295 51.7106ZM259.902 57.8019C260.268 57.5139 260.777 57.1928 261.408 56.8494C261.419 56.938 261.419 57.0377 261.419 57.1706C261.419 57.6136 261.264 57.9902 260.943 58.3335C260.622 58.6768 260.168 58.8319 259.559 58.8319C259.393 58.8319 259.337 58.7765 259.337 58.6104C259.348 58.3667 259.537 58.0898 259.902 57.8019ZM243.267 51.2343C243.245 51.0793 243.245 50.8799 243.245 50.6252C243.245 49.2962 243.489 48.0225 243.954 46.8264C244.43 45.6303 245.039 44.5671 245.792 43.67C246.534 42.7729 247.365 42.053 248.24 41.5103C249.104 40.9787 249.923 40.7129 250.665 40.7129C251.529 40.7129 251.928 41.1559 251.928 42.1084C251.928 42.6954 251.751 43.3931 251.385 44.2016C251.02 45.0101 250.466 45.8407 249.746 46.6824C249.015 47.5241 248.085 48.3659 246.989 49.1743C245.936 49.9607 244.685 50.6473 243.267 51.2343ZM236.91 40.7129C237.774 40.7129 238.173 41.1559 238.173 42.1084C238.173 42.6954 237.996 43.3931 237.63 44.2016C237.265 45.0101 236.711 45.8518 235.991 46.6824C235.26 47.5241 234.33 48.3659 233.233 49.1743C232.192 49.9496 230.941 50.6473 229.512 51.2343C229.49 51.0793 229.49 50.8799 229.49 50.6252C229.49 49.2962 229.733 48.0225 230.199 46.8264C230.675 45.6303 231.284 44.5671 232.037 43.67C232.779 42.7729 233.61 42.053 234.485 41.5103C235.337 40.9787 236.157 40.7129 236.91 40.7129Z" fill="black"/>
</svg>
