<svg width="91" height="47" viewBox="0 0 91 47" fill="none" xmlns="http://www.w3.org/2000/svg">
<path fill-rule="evenodd" clip-rule="evenodd" d="M5.1925 13.4875H0.844851C0.81226 15.3321 1.50319 16.7596 2.91764 17.7568C4.32557 18.7541 6.02683 19.256 8.02792 19.256C9.96382 19.256 11.639 18.7541 13.0535 17.7568C14.4679 16.7531 15.1784 15.3908 15.1784 13.657C15.1784 12.8357 15.048 12.1188 14.7938 11.493C14.5396 10.8673 14.2072 10.3719 13.8096 9.9939C13.4054 9.61586 12.8905 9.30299 12.2582 9.04227C11.6194 8.78807 11.0002 8.59905 10.381 8.48172C9.76828 8.3644 9.04476 8.27315 8.21043 8.20797C7.27832 8.1102 6.60043 7.94725 6.17674 7.73216C5.75306 7.51706 5.53796 7.1325 5.53796 6.58499C5.53796 5.52256 6.32666 4.98808 7.91059 4.98808C8.57544 4.98808 9.13601 5.13147 9.58577 5.41175C10.0355 5.69202 10.2637 6.11569 10.2832 6.68276H14.5592C14.5722 5.4639 14.2528 4.4145 13.5945 3.52153C12.9361 2.62857 12.1083 1.98328 11.098 1.57265C10.0942 1.16202 9.00565 0.959961 7.83889 0.959961C5.93557 0.959961 4.33209 1.46184 3.01541 2.4591C1.69874 3.46287 1.0404 4.87076 1.0404 6.68276C1.0404 7.56921 1.21639 8.33833 1.57489 8.99665C1.93339 9.65496 2.42226 10.1764 3.04801 10.561C3.66723 10.9455 4.34513 11.2323 5.06865 11.4344C5.79217 11.6364 6.58087 11.7603 7.42824 11.8124C7.76067 11.832 7.99532 11.8515 8.12569 11.8646C8.19545 11.8715 8.2932 11.8841 8.41894 11.9003C8.5282 11.9143 8.65858 11.9311 8.8101 11.9493C9.13601 11.9949 9.37718 12.0536 9.53362 12.1253C9.69006 12.197 9.86605 12.3013 10.0681 12.4251C10.2702 12.549 10.4136 12.7184 10.5048 12.927C10.5961 13.1356 10.6417 13.3702 10.6417 13.6375C10.6417 14.1393 10.368 14.5369 9.82694 14.8368C9.27941 15.1366 8.66018 15.2865 7.96273 15.2865C7.21314 15.2865 6.56132 15.1301 6.01379 14.8107C5.46626 14.4978 5.1925 14.0546 5.1925 13.4875ZM33.9286 14.7572V1.36278H29.3593V18.8571H40.2513V14.7572H33.9286ZM48.2913 11.134H48.3695L49.7905 6.56456L51.9415 1.3693H56.8171V2.04723L49.269 19.041H47.3722L39.7459 2.04071V1.36278H44.615L46.8117 6.55804L48.2913 11.134ZM70.9437 5.33889V1.36278H60.0192V18.8511H71.1653V14.6795H64.595V11.831H70.4418V7.83536H64.595V5.33889H70.9437ZM87.1233 12.6354L90.5454 18.1821V18.8339H85.6958L82.6974 13.3654H80.2987V18.8339H75.723V1.34652L75.7814 1.34627C76.0592 1.345 77.3245 1.33925 79.5817 1.33349C82.1369 1.32697 83.4144 1.32697 83.4144 1.34652C85.396 1.34652 86.9408 1.96572 88.0489 3.19759C89.157 4.42946 89.711 5.87642 89.711 7.54498C89.685 9.77408 88.8246 11.4687 87.1233 12.6354ZM80.2336 9.6372H83.4014C84.0011 9.6372 84.4639 9.42212 84.8028 8.98542C85.1353 8.55524 85.3047 8.03382 85.3047 7.43418C85.3047 6.83454 85.1418 6.33267 84.8159 5.92204C84.49 5.51142 84.0206 5.30937 83.4079 5.30937H80.2336V9.6372ZM24.0502 5.065V15.1548V18.8571H19.4809V15.1548V5.065V1.36278H24.0502V5.065Z" fill="white"/>
<path fill-rule="evenodd" clip-rule="evenodd" d="M67.5151 40.2711H71.8628C71.8628 40.8383 72.1365 41.2815 72.6841 41.5944C73.2316 41.9139 73.8834 42.0703 74.633 42.0703C75.3305 42.0703 75.9497 41.9204 76.4972 41.6205C77.0382 41.3207 77.312 40.923 77.312 40.4211C77.312 40.1538 77.2664 39.9191 77.1751 39.7105C77.0839 39.5019 76.9405 39.3324 76.7384 39.2086C76.5363 39.0847 76.3603 38.9804 76.2039 38.9087C76.0475 38.837 75.8063 38.7784 75.4804 38.7327C75.329 38.7146 75.1987 38.6978 75.0895 38.6837L75.0893 38.6837C74.9635 38.6675 74.8657 38.655 74.796 38.648C74.6656 38.6349 74.431 38.6154 74.0985 38.5958C73.2512 38.5437 72.4625 38.4198 71.7389 38.2178C71.0154 38.0157 70.3375 37.7288 69.7183 37.3442C69.0925 36.9596 68.6037 36.4381 68.2452 35.7798C67.8867 35.1214 67.7107 34.3522 67.7107 33.4656C67.7107 31.6534 68.369 30.2454 69.6857 29.2415C71.0024 28.2441 72.6059 27.7422 74.5092 27.7422C75.6759 27.7422 76.7645 27.9443 77.7683 28.3549C78.7786 28.7656 79.6064 29.411 80.2647 30.304C80.9231 31.1971 81.2425 32.2466 81.2294 33.4656H76.9535C76.9405 32.8985 76.7058 32.4748 76.2561 32.1945C75.8063 31.9142 75.2457 31.7707 74.5809 31.7707C72.997 31.7707 72.2083 32.3053 72.2083 33.3678C72.2083 33.9154 72.4233 34.3 72.847 34.5151C73.2707 34.7302 73.9486 34.8932 74.8807 34.991C75.715 35.0562 76.4386 35.1474 77.0513 35.2648C77.6705 35.3821 78.2897 35.5712 78.9285 35.8254C79.5608 36.0861 80.0757 36.399 80.4798 36.7771C80.8774 37.1552 81.2099 37.6506 81.4641 38.2764C81.7183 38.9022 81.8487 39.6193 81.8487 40.4406C81.8487 42.1746 81.1382 43.537 79.7237 44.5409C78.3093 45.5383 76.6341 46.0402 74.7047 46.0402C72.7036 46.0402 71.0024 45.5383 69.5944 44.5409C68.167 43.5435 67.4825 42.1159 67.5151 40.2711ZM24.0695 45.6413H19.5002V38.6467H14.0771V45.6413H9.50781V28.145H14.0771V34.4682H19.5002V28.145H24.0695V45.6413ZM43.8032 28.145V41.541H50.1259V45.6413H39.2339V28.145H43.8032ZM58.3833 41.541V28.145H53.814V45.6413H64.7059V41.541H58.3833ZM33.9396 31.8476V41.9386V45.6413H29.3638V41.9386V31.8476V28.145H33.9396V31.8476Z" fill="white"/>
</svg>
