<svg width="8" height="150" viewBox="0 0 8 150" fill="none" xmlns="http://www.w3.org/2000/svg">
<path d="M2.17187 142.365L2.17187 142.793L5.40961 145.843L2.17187 145.843L2.17187 146.167L5.40961 146.167L2.17187 149.227L2.17187 149.645L4.28162 147.629L7.864 150L7.864 149.603L4.53227 147.389L5.81693 146.167L7.864 146.167L7.864 145.843L5.81693 145.843L4.53227 144.621L7.864 142.407L7.864 142.021L4.28162 144.381L2.17187 142.365Z" fill="black"/>
<path d="M7.30002 135.504L2.17187 135.504L2.17188 135.849L7.864 135.849L7.864 135.504L2.74631 131.807L7.864 131.807L7.864 131.462L2.17187 131.462L2.17187 131.807L7.30002 135.504Z" fill="black"/>
<path d="M4.94215 124.002C6.31034 124.002 7.62633 124.075 7.62633 124.858L7.62633 125.13L7.93966 125.13L7.93966 124.796C7.96055 123.73 6.42523 123.657 4.94215 123.657L2.50864 123.657L2.50864 120.628L7.877 120.628L7.877 120.284L2.19531 120.284L2.19531 124.012L4.94215 124.012L4.94215 124.002Z" fill="black"/>
<path d="M2.04687 111.02C2.04687 112.545 3.1644 113.517 5.02348 113.517C6.88256 113.517 8.00011 112.556 8.00011 111.02C8.00011 109.496 6.88256 108.514 5.02348 108.514C3.15396 108.514 2.04687 109.485 2.04687 111.02ZM7.68678 111.02C7.68678 112.316 6.71546 113.161 5.02348 113.161C3.33151 113.161 2.36021 112.316 2.36021 111.02C2.36021 109.715 3.33151 108.869 5.02348 108.869C6.71546 108.858 7.68678 109.715 7.68678 111.02Z" fill="black"/>
<path d="M7.30002 101.415L2.17187 101.415L2.17188 101.76L7.864 101.76L7.864 101.415L2.74631 97.7178L7.864 97.7178L7.864 97.3732L2.17187 97.3732L2.17187 97.7178L7.30002 101.415Z" fill="black"/>
<path d="M-1.98333e-08 100.701L0 101.024C0.866875 101.014 1.45175 100.513 1.45175 99.51C1.45175 98.5073 0.866874 98.006 -1.85534e-07 97.9956L-1.65702e-07 98.3193C0.793764 98.382 1.13842 98.7998 1.13842 99.4996C1.12798 100.231 0.78332 100.638 -1.98333e-08 100.701Z" fill="black"/>
<path d="M2.17187 79.5325L2.17187 79.9607L5.44094 83.2716L2.17187 83.2716L2.17188 83.6162L7.864 83.6162L7.864 83.2716L5.86916 83.2716L4.50094 81.8929L7.864 79.6474L7.864 79.2192L4.23984 81.6422L2.17187 79.5325Z" fill="black"/>
<path d="M2.04687 70.8515C2.04687 72.3763 3.1644 73.3477 5.02348 73.3477C6.88256 73.3477 8.00011 72.3868 8.00011 70.8515C8.00011 69.3162 6.88256 68.3449 5.02348 68.3449C3.15396 68.3449 2.04687 69.3266 2.04687 70.8515ZM7.68678 70.8515C7.68678 72.1466 6.71546 72.9926 5.02348 72.9926C3.33151 72.9926 2.36021 72.1466 2.36021 70.8515C2.36021 69.5564 3.33151 68.7 5.02348 68.7C6.71546 68.6895 7.68678 69.5459 7.68678 70.8515Z" fill="black"/>
<path d="M7.30002 58.7174L2.17187 61.224L2.17188 61.5791L7.864 61.5791L7.864 61.2344L2.80898 61.2344L7.66556 58.8949L7.66556 58.5607L2.80898 56.2212L7.864 56.2212L7.864 55.8661L2.17187 55.8661L2.17187 56.2316L7.30002 58.7174Z" fill="black"/>
<path d="M7.864 48.8496L7.864 48.5049L2.48521 48.5049L2.48521 44.9852L7.864 44.9852L7.864 44.6406L2.17187 44.6406L2.17188 48.8496L7.864 48.8496Z" fill="black"/>
<path d="M4.94215 37.1826C6.31034 37.1826 7.62633 37.2557 7.62633 38.039L7.62633 38.3105L7.93966 38.3105L7.93966 37.9763C7.96055 36.911 6.42523 36.8379 4.94215 36.8379L2.50864 36.8379L2.50864 33.8091L7.877 33.8091L7.877 33.4644L2.19531 33.4644L2.19531 37.193L4.94215 37.193L4.94215 37.1826Z" fill="black"/>
<path d="M2.04687 24.2912C2.04687 25.7429 3.1644 26.6934 5.02348 26.6934C6.88256 26.6934 8.00011 25.7429 8.00011 24.2912C8.00011 23.1632 7.28989 22.265 6.1828 22.0143L6.1828 22.3485C7.12278 22.6096 7.68678 23.3512 7.68678 24.2912C7.68678 25.4714 6.71546 26.3383 5.12793 26.3383L5.04438 26.3383L5.04438 21.9099L4.83549 21.9099C3.05997 21.9099 2.04687 22.829 2.04687 24.2912ZM4.73104 26.3278C3.23751 26.2443 2.36021 25.4192 2.36021 24.2285C2.36021 23.1005 3.24796 22.2754 4.73104 22.2754L4.73104 26.3278Z" fill="black"/>
<path d="M2.17187 11.2903L2.17187 11.7185L5.44094 15.0189L2.17187 15.0189L2.17188 15.374L7.864 15.374L7.864 15.0189L5.86916 15.0189L4.50094 13.6507L7.864 11.4052L7.864 10.9665L4.23984 13.4001L2.17187 11.2903Z" fill="black"/>
<path d="M7.68678 2.60831C7.68678 3.9034 6.71546 4.74939 5.02348 4.74939C3.33151 4.74939 2.36021 3.9034 2.36021 2.60831C2.36021 1.65788 2.92418 0.947677 3.83284 0.801457L3.83284 0.456794C2.7153 0.603014 2.04687 1.40722 2.04687 2.60831C2.04687 4.13318 3.1644 5.10449 5.02348 5.10449C6.88256 5.10449 8.00011 4.12272 8.00011 2.65008C8.00011 1.40721 7.23768 0.540345 6.0157 0.40457L6.0157 0.728339C7.03924 0.85367 7.68678 1.61611 7.68678 2.60831Z" fill="black"/>
</svg>
