<svg width="1278" height="319" fill="none" version="1.1" viewBox="0 0 1278 319" xmlns="http://www.w3.org/2000/svg">
 <path d="m1277 316.17s-782.24 0.507-787.44 0-5.801-1.118-9.059-0.202c-3.257 0.913 0.507 0.913 3.359-0.103 2.849-1.015 0.509-3.862 0.102-6.708-0.408-2.846-1.118-5.185-2.035-8.943-0.915-3.761-5.191-17.077-7.735-20.633-2.545-3.557-2.749-2.541-5.396-3.252-2.646-0.711 1.832-3.252 4.683-5.488 2.85-2.234-2.849-1.118-7.023-1.422-4.173-0.305 2.037-2.136 6.311-4.472 4.276-2.338 2.647-9.555 5.598-18.906 2.954-9.351 7.635-35.776 9.365-34.658 1.731 1.118-12.417 6.099-23.918 3.659-11.502-2.438-15.166-7.826-16.693-6.504-1.527 1.321 2.747-2.644 4.071-6.098 1.323-3.457-1.527-7.115-1.527-7.624 0-0.507 15.776 11.689 24.733 13.009 8.959 1.322-14.453-9.35-19.542-13.111-5.088-3.759 15.37 3.456 23.513 2.847s-9.059-6.708-13.028-8.944c-3.969-2.234 6.107-3.252 10.179-10.264 4.071-7.011-1.425-9.249-4.886-17.38-3.461-8.13-17.71-9.857-20.154-12.297-2.442-2.441-2.544-7.115-2.239-5.286 0.307 1.829-8.245 10.773-12.622 11.485-4.376 0.711-9.466-7.928-10.586-13.009-1.12-5.083-0.61-10.978 1.629-14.027 2.24-3.05 10.179-2.541 17.915 1.016 7.735 3.556 4.171 10.264 3.969 12.297-0.203 2.032 2.239-5.692 1.832-9.554-0.409-3.861-1.12 2.542-1.63 5.185-0.507 2.642 0.917 2.642 3.767 3.963 2.851 1.32 3.258 6.606 0.917 6.606-2.342 0 0.915-5.184 4.071-8.131 3.156-2.945 3.768-8.638 2.444-13.923-1.323-5.283-7.125-5.283-10.687-4.268-3.564 1.018-1.629 8.538 0.203 7.928 1.832-0.609-4.987-7.825-10.18-8.841-5.191-1.016-12.316 1.118-16.692 9.655-4.378 8.537 0.508 6.505 2.035 6.708 1.527 0.202-3.767-3.557-3.767-3.252s3.664 2.541 9.467 4.268c5.801 1.727 4.377 0.508 5.089 0.508 0.71 0-4.786-3.963-4.786-3.963s3.462 2.134 6.72 4.574c3.257 2.439 4.479 1.221 6.718 1.625 2.239 0.407 0.508-4.167 2.747-4.574 2.241-0.406 0.815 4.979 0.102 7.013-0.71 2.033 0 2.947-2.034 5.997-2.037 3.049-4.124 5.133-4.124 5.133s1.07 2.134 1.222 3.201c0.153 1.066-1.069 1.677-5.038 5.64-3.969 3.965-3.512 8.539-4.886 14.027-1.373 5.488-1.22 4.268-5.344 10.671-4.121 6.404-14.808 13.721-18.235 15.418-3.426 1.698-8.792-1.222-9.873-0.146-1.08 1.081 3.528 3.329 3.833 3.786 0.305 0.459-5.648 0.916-6.718 2.44-1.069 1.525 8.855-1.067 9.313-1.067 0.459 0-7.176 1.981-9.313 3.963-2.137 1.981 8.703-1.068 9.465-1.068 0.765 0-5.494 1.372-7.938 2.897-2.442 1.525 3.666 1.218 7.787-0.611 4.122-1.829 3.512-4.42 3.928-5.409 0.415-0.989 6.456-1.91 13.632-6.178 7.175-4.269 11.449-10.671 12.519-13.568 1.067-2.897 3.511-11.739 3.969-11.586 0.457 0.15 5.648 5.335 6.258 8.385 0.612 3.047-2.289 6.401-5.801 7.774-3.511 1.372 1.987 0.915 2.444 1.677 0.459 0.763-0.763 3.201-1.832 4.878s-3.357 3.963-6.565 5.64c-3.205 1.676-0.458-2.288-0.458-2.288s-2.137 2.745-4.121 3.507c-1.987 0.761 1.679-2.745 1.832-3.202 0.15-0.457-1.987 1.677-4.124 2.44-2.137 0.762-0.152-1.22 1.527-2.897 1.68-1.677 2.137-4.117 2.076-5.249-0.063-1.135-2.076-0.393-2.228-1.765-0.153-1.371 9.314-0.762 9.314-0.762s1.985 2.441 3.817 2.897c1.832 0.457 22.75-12.959 24.887-18.905 2.137-5.945 3.206-17.531 0.457-22.715-2.749-5.185-8.702-3.658-10.994 0.457-2.291 4.117 0.306 15.093-1.069 19.515-1.373 4.422-7.938 11.587-8.855 11.434-0.917-0.152-2.751-1.22-5.65-3.049-2.902-1.829-3.664-10.825-3.964-14.127-0.3-3.304 4.269-10.571 5.643-11.334 1.375-0.762 2.292 5.946 3.359 9.148 1.07 3.202 6.413-12.044 7.94-14.788 1.527-2.745 11.451-1.677 14.963 1.829 3.511 3.506 18.322 37.046 20.764 48.328 2.444 11.282-5.191 19.667-12.672 21.344-7.48 1.677-14.198-0.916-17.252-2.897-3.054-1.984 4.426 2.134 4.121 5.64s-9.924 19.819-9.924 19.819-10.382 12.959-14.198 14.027c-3.817 1.066 0.915 2.591 1.679 3.963 0.764 1.371-2.289 0.609-5.343 2.439-3.054 1.829 1.681 2.897 2.901 6.251s-3.818 5.183-6.108 11.282c-2.291 6.098-1.832 11.891-5.038 16.465-3.207 4.572-7.483 2.286-7.94 1.829-0.458-0.457 1.222-5.335 1.832-8.537s7.482-26.223 7.94-28.204c0.457-1.982 0.305-2.897 0.762-4.574 0.46-1.677 1.07-3.813 2.292-7.776 1.22-3.963 11.144-40.4 12.671-42.229 1.527-1.83 4.124 0.304 9.62 4.878s11.908 4.422 27.024-0.152c15.115-4.574 6.87-5.946 6.87-5.946s0.61 6.86-1.679 18.599c-2.292 11.737-7.483 26.375-7.94 28.204-0.458 1.829-1.527 3.354-1.985 5.335-0.457 1.982 0 1.068 0 2.288v4.727c0 2.134 7.483 28.356 7.483 31.253 0 2.896-0.305 4.42-1.832 5.793-1.527 1.372-5.496 0.152-7.328 0.152-1.834 0-3.512 5.642-2.292 8.844 1.222 3.201 13.284 2.438 14.201 0.152 0.915-2.288-2.597-11.891-2.749-11.434-0.153 0.456-9.16 1.524-9.925 1.067-0.762-0.455-1.527-4.42-3.054-8.078-1.527-3.659-8.855-20.276-10.534-25.155-1.681-4.879-1.375-16.161-1.375-22.869s0.611-17.531-0.764-20.428c-1.374-2.897-0.762 2.134-0.457 4.268 0.305 2.135-4.429-1.677-8.245-1.523-3.817 0.152 7.787 4.42 7.94 5.944 0.152 1.525-7.025 0.764-11.299 3.354-4.276 2.591 13.436-2.287 13.436-0.915s-9.313 18.294-12.519 23.173c-3.207 4.879-0.458 2.134-1.832 5.336-1.375 3.201-1.68 2.743-3.512 6.555-1.834 3.811-10.689 28.966-11.299 30.186s-8.702 2.745-11.489 2.365c-2.786-0.382-13.396 5.565-15.169 8.029-1.771 2.465 24.064 2.108 25.286 0.736 1.222-1.373-0.682-8.98-0.682-8.98s-0.693 0.745-4.662 1.05-4.337-2.383-4.337-2.383-11.998-0.057-15.664-1.734c-3.664-1.677 4.886-9.603 4.276-12.501-0.61-2.897-7.633-5.489-11.757-8.995-4.121-3.507-6.565-10.824-4.886-10.672 1.682 0.155 3.361 5.49 5.956 8.844 2.594 3.354 8.397 4.726 8.855 6.251 0.457 1.523-2.597 4.572-3.472 5.531-0.878 0.958-3.706 8.953-0.652 9.714 3.054 0.762 8.093-9.148 7.635-10.977-0.459-1.829-2.444-3.354-3.054-3.05-0.61 0.307-1.525 3.05-3.969 2.898-2.442-0.153-14.353-6.708-16.49-8.233s-2.596-5.183-3.054-6.099c-0.457-0.914-10.839 0.611-10.077-0.304 0.765-0.916 1.07 2.287-0.457 8.232-1.527 5.947 0 17.075-0.305 20.276-0.305 3.2-0.458 2.743-1.832 3.963-1.375 1.219-2.444 0-4.429 0-1.984 0-7.071 2.887-7.48 5.488-0.409 2.602 13.741 0.914 15.42-0.763 1.68-1.677-0.61-6.556-0.61-6.556s-4.579 1.525-6.545 0.079c-1.965-1.446-3.684-24.166-3.684-26.299 0-2.134 2.291-22.108 2.444-25.003 0.152-2.897-5.651 14.941-5.651 19.362 0 4.422 7.788 3.659 12.062 4.727 4.276 1.066 3.664-0.305 4.886-1.22 1.22-0.916 5.953 1.677 7.633 1.524 1.679-0.152 3.206-1.524 5.191-3.506 1.984-1.981 2.596-1.372 6.718-1.372 4.121 0 3.969-1.22 5.801-6.099 1.834-4.879 8.092-4.117 5.955-2.897-2.139 1.22-13.588-15.093-15.115-17.99s-3.054-3.356-5.956-3.202c-2.901 0.152-14.81-2.745-16.642-4.574-1.83-1.831 2.444-1.068 7.33-1.068s2.289-0.306-0.458-0.915c-2.749-0.609-8.092-5.947-8.55-8.69-0.457-2.745-3.054-4.574-4.886-4.269-1.832 0.304-8.397 6.555-12.519 7.775-4.121 1.219-7.787-8.843-8.397-12.654-0.61-3.813-3.511-8.08-1.527-9.757 1.985-1.679 4.428 0.913 4.428 2.59s-3.511-1.372-3.054-3.049c0.458-1.679 3.099 0.477 4.275 1.982 1.175 1.505-0.153 2.288-0.916 4.117-0.762 1.827 0.916 2.591 2.597 5.64 1.679 3.048 1.067 3.2 0.61 3.963-0.458 0.762 1.068-0.459 3.664-0.915 2.595-0.457 5.343-3.2 5.993-4.274 0.65-1.071-2.939 1.224-3.092 2.292-0.152 1.068 3.817 6.86 3.817 6.86s5.648-3.963 5.038-3.963 0.61 8.994 2.137 15.55c1.527 6.555 0.915 8.539-0.917 11.13-1.832 2.59-0.915-3.507 0.612-4.575 1.527-1.066 8.093 2.898 16.948 0.916 8.855-1.983 7.328-3.049 8.092-3.813 0.763-0.763 0 0-2.444-4.117-2.444-4.115-3.206-18.293-2.901-19.665s-0.763 6.099-3.512 6.86c-2.747 0.763-9.465-1.372-10.943-2.255-1.477-0.886 2.241-5.062 2.241-6.13s-3.02-0.783-8.855-3.66c-5.835-2.876-10.84-8.383-12.214-11.128s-0.915-4.879-1.832-6.403c-0.915-1.525-1.069 1.524-1.305 3.054s-1.596-4.122-3.581-5.038c-1.984-0.915-1.985 1.982-1.985 5.64 0 3.659 1.843 4.297 4.429 5.641 2.585 1.345 2.749 5.794 8.245 9.605 5.496 3.81 13.434 7.928 12.824 7.774-0.612-0.153 2.289-8.536 2.747-8.69 0.457-0.152 10.994 1.982 10.994 1.982s-2.292-1.371-2.597-4.116 0-10.673-5.496-13.263c-5.497-2.593-9.467 5.64-9.467 5.64s-0.457 2.592 1.07 7.623 8.396 3.659 9.885 3.524c1.489-0.134 10.574-15.872 3.856-21.512s-14.81 0.609-15.88 3.506c-1.068 2.896 0.154 3.659 1.069 5.031 0.917 1.373 0.765-3.354 0.765-3.354s1.679 2.134 2.901 3.05c1.222 0.915 0.153-3.813 0.153-4.422s0.61 1.981 2.289 5.183c1.68 3.202 4.276 1.22 6.566 1.829 2.291 0.611 2.444 4.574 2.444 4.574s1.679-0.456 2.354-3.658c0.673-3.202 0.09-5.64-0.779-7.305-0.867-1.662 0.562-1.994 4.227-1.385 3.665 0.61 5.497 2.441 4.275 11.892-1.221 9.451-1.07 8.841 0.373 9.832 1.441 0.991 11.121-13.084 11.121-13.084s-4.412 9.186-12.637 22.876c-8.227 13.69-12.683 16.427-26.196 19.425-9.149 2.03-17.812-2.7-20.712-9.014-8.429-18.361 9.098-33.343 4.576-51.469-12.598-50.507-46.064-54.285-71.105-58.008-61.49-9.141-137.26 57.72-202.6-14.921-23.974-26.651-19.592-35.093-27.679-67.096-1.6939-10.157-9.928-11.123-11.866-11.364-1.9378-0.2419-15.984 31.676-16.953 36.514-0.9689 4.8356 19.616-36.03 19.616-36.03l-21.069-34.337s23.007 31.193 23.491 32.16c0.9026 1.7684 17.732-0.8958 19.562-1.0481 10.447-0.869 20.737-1.6215 31.139-2.0013 0.9456-0.034 1.9361-0.0609 2.7902 0.3494 0.6782 0.3243 1.2058 0.8994 1.6131 1.5283 1.5072 2.3273 1.4659 5.3176 1.0819 8.0624-0.3857 2.7448-1.0604 5.5147-0.6441 8.2541 0.4396 2.8864 2.1442 5.5541 4.5773 7.1702 2.4331 1.6143 5.5571 2.15 8.3901 1.4387 0.782-1.1681 0.39-2.8236-0.529-3.8879-0.919-1.0642-2.243-1.6752-3.526-2.2539-2.979-1.3473-5.959-2.6946-8.9375-4.0419-0.8703-0.3942-1.7854-0.8242-2.3075-1.6215-0.4325-0.6593-0.5329-1.4745-0.5724-2.261-0.1167-2.2611 0.1704-4.5258 0.1435-6.7922s-0.4019-4.6153-1.6902-6.4804c-1.9128-2.7717-6.02-3.0046-8.9663-4.3483-2.5551-1.1664-5.1371-2.2826-7.7102-3.4113-6.4739-2.8398-12.964-5.6455-19.461-8.4351-11.891-5.1009-23.778-10.238-35.79-15.048-1.518-0.60737-3.6622-1.935-5.3417-1.9887-1.9594-0.060912 0.0233 80.343 3.4146 80.585 3.3895 0.24-1.4534-1.935-1.4534-1.935s-2.4223 5.3194-2.9068 9.4294c-0.4827 4.1119 3.6335 5.5631 2.9068 13.058-0.7267 7.496-11.866 4.596-14.288 4.354" stroke="#000" stroke-linecap="round" stroke-linejoin="round" stroke-miterlimit="10"/>
</svg>
