<svg width="291" height="70" viewBox="0 0 291 70" fill="none" xmlns="http://www.w3.org/2000/svg">
<path d="M0.0018708 21.2869H7.389C7.389 22.2505 7.85416 23.0036 8.78447 23.5352C9.71478 24.0779 10.8223 24.3437 12.0959 24.3437C13.281 24.3437 14.3331 24.089 15.2634 23.5795C16.1827 23.07 16.6478 22.3945 16.6478 21.5417C16.6478 21.0876 16.5703 20.6889 16.4153 20.3345C16.2602 19.9801 16.0166 19.6921 15.6732 19.4817C15.3299 19.2713 15.0309 19.0941 14.7651 18.9722C14.4993 18.8504 14.0895 18.7507 13.5357 18.6732C12.982 18.6068 12.5943 18.5514 12.3728 18.5292C12.1513 18.5071 11.7526 18.4738 11.1878 18.4406C9.74801 18.352 8.40792 18.1416 7.17857 17.7983C5.94923 17.4549 4.79741 16.9676 3.74527 16.3142C2.68206 15.6608 1.85142 14.7747 1.24229 13.6562C0.633155 12.5376 0.334126 11.2307 0.334126 9.72448C0.334126 6.64558 1.45272 4.25334 3.6899 2.54777C5.92708 0.853271 8.65157 0.000488281 11.8855 0.000488281C13.868 0.000488281 15.7175 0.343812 17.4231 1.04155C19.1397 1.73928 20.5463 2.83573 21.6649 4.35303C22.7835 5.87032 23.3262 7.65342 23.304 9.72448H16.0387C16.0055 8.76094 15.6178 8.04105 14.8537 7.56482C14.0895 7.08858 13.137 6.84494 12.0073 6.84494C9.31608 6.84494 7.97599 7.7531 7.97599 9.55835C7.97599 10.4887 8.34147 11.1421 9.06135 11.5076C9.78124 11.8731 10.9331 12.1499 12.5168 12.3161C13.9344 12.4268 15.1638 12.5819 16.2048 12.7812C17.257 12.9806 18.3091 13.3017 19.3945 13.7337C20.4688 14.1767 21.3437 14.7083 22.0304 15.3507C22.7059 15.993 23.2708 16.8347 23.7027 17.8979C24.1346 18.9612 24.3561 20.1794 24.3561 21.5749C24.3561 24.5209 23.149 26.8356 20.7456 28.5412C18.3423 30.2357 15.496 31.0885 12.2067 31.0885C8.80662 31.0885 5.91601 30.2357 3.52377 28.5412C1.12046 26.8467 -0.053505 24.4212 0.0018708 21.2869Z" fill="#AABDC5"/>
<path d="M56.209 0.6875V23.447H66.9519V30.4132H48.4453V0.6875H56.209Z" fill="#AABDC5"/>
<path d="M80.6172 17.2892H80.7501L83.1645 9.52548L86.8193 0.698578H95.1035V1.85039L82.2785 30.7233H79.0556L66.0977 1.83932V0.6875H74.3708L78.1031 9.5144L80.6172 17.2892Z" fill="#AABDC5"/>
<path d="M119.101 0.6875V7.44334H108.314V11.6851H118.248V18.4742H108.314V23.314H119.478V30.4021H100.539V0.6875H119.101Z" fill="#AABDC5"/>
<path d="M146.593 19.8359L152.408 29.2609V30.3684H144.168L139.073 21.0764H134.997V30.3684H127.223V0.653772C127.256 0.653772 129.438 0.6427 133.779 0.631625C138.121 0.62055 140.291 0.620546 140.291 0.653772C143.658 0.653772 146.283 1.70592 148.166 3.79912C150.049 5.89233 150.99 8.35101 150.99 11.1862C150.946 14.974 149.484 17.8535 146.593 19.8359ZM134.876 14.7414H140.269C141.288 14.7414 142.074 14.3759 142.65 13.6339C143.215 12.9029 143.503 12.0169 143.503 10.998C143.503 9.97906 143.226 9.12627 142.673 8.42854C142.119 7.7308 141.321 7.38747 140.28 7.38747H134.887V14.7414H134.876Z" fill="#AABDC5"/>
<path d="M192.82 30.4132H185.056V18.5296H175.842V30.4132H168.078V0.6875H175.842V11.4304H185.056V0.6875H192.82V30.4132Z" fill="#AABDC5"/>
<path d="M226.354 0.6875V23.447H237.096V30.4132H218.59V0.6875H226.354Z" fill="#AABDC5"/>
<path d="M251.131 0.6875V23.447H261.874V30.4132H243.367V0.6875H251.131Z" fill="#AABDC5"/>
<path d="M266.646 21.2869H274.034C274.034 22.2505 274.499 23.0036 275.429 23.5352C276.359 24.0779 277.467 24.3437 278.74 24.3437C279.926 24.3437 280.978 24.089 281.908 23.5795C282.827 23.07 283.292 22.3945 283.292 21.5417C283.292 21.0876 283.215 20.6889 283.06 20.3345C282.905 19.9801 282.661 19.6921 282.318 19.4817C281.974 19.2713 281.675 19.0941 281.41 18.9722C281.144 18.8504 280.734 18.7507 280.18 18.6732C279.627 18.6068 279.239 18.5514 279.017 18.5292C278.796 18.5071 278.397 18.4738 277.832 18.4406C276.393 18.352 275.052 18.1416 273.823 17.7983C272.594 17.4549 271.442 16.9676 270.39 16.3142C269.327 15.6608 268.496 14.7747 267.887 13.6562C267.278 12.5376 266.979 11.2307 266.979 9.72448C266.979 6.64558 268.097 4.25334 270.334 2.54777C272.572 0.853271 275.296 0.000488281 278.53 0.000488281C280.513 0.000488281 282.362 0.343812 284.068 1.04155C285.784 1.73928 287.191 2.83573 288.309 4.35303C289.428 5.87032 289.971 7.65342 289.949 9.72448H282.683C282.661 8.76094 282.262 8.04105 281.498 7.56482C280.734 7.08858 279.782 6.84494 278.652 6.84494C275.961 6.84494 274.621 7.7531 274.621 9.55835C274.621 10.4887 274.986 11.1421 275.706 11.5076C276.426 11.8731 277.578 12.1499 279.161 12.3161C280.579 12.4268 281.808 12.5819 282.849 12.7812C283.902 12.9806 284.954 13.3017 286.039 13.7337C287.113 14.1767 287.988 14.7083 288.675 15.3507C289.35 15.993 289.915 16.8347 290.347 17.8979C290.779 18.9612 291.001 20.1794 291.001 21.5749C291.001 24.5209 289.793 26.8356 287.39 28.5412C284.987 30.2357 282.141 31.0885 278.862 31.0885C275.462 31.0885 272.572 30.2357 270.179 28.5412C267.754 26.8467 266.591 24.4212 266.646 21.2869Z" fill="#AABDC5"/>
<path d="M39.4434 24.1225V6.97819V0.6875H31.6797V6.97819V24.1225V30.4132H39.4434V24.1225Z" fill="#AABDC5"/>
<path d="M209.587 24.1225V6.97819V0.6875H201.812V6.97819V24.1225V30.4132H209.587V24.1225Z" fill="#AABDC5"/>
<path d="M26.3946 26.4705C28.3659 25.0419 30.6474 23.6907 33.1836 22.4613C35.7198 21.232 38.389 20.1466 41.1135 19.2606C43.849 18.3746 46.5957 17.6547 49.2758 17.1342C51.956 16.6137 54.459 16.3479 56.7073 16.3479C58.1692 16.3479 59.5204 16.5694 60.7386 16.9902C61.9569 17.4221 63.0533 18.0091 63.9947 18.7622C64.9361 19.5154 65.7446 20.3903 66.3759 21.376C67.0182 22.3617 67.5166 23.4249 67.86 24.5324C67.9818 24.9754 68.2919 25.0419 68.4691 25.0419C68.5245 25.0419 68.5909 25.0308 68.6574 25.0197C68.8456 24.9754 68.9896 24.8868 69.0672 24.7539C69.1558 24.6099 69.1779 24.4106 69.1115 24.178C68.757 22.9486 68.2144 21.7636 67.4834 20.6561C66.7524 19.5597 65.8664 18.574 64.8254 17.7322C63.7843 16.8905 62.566 16.2371 61.2038 15.772C59.8415 15.3068 58.3242 15.0742 56.6962 15.0742C54.3372 15.0742 51.7456 15.3511 48.9657 15.8938C46.1969 16.4365 43.3728 17.2006 40.5597 18.1642C37.7577 19.1166 35 20.2574 32.3862 21.5421C29.7614 22.8268 27.4135 24.2555 25.3867 25.7839C23.3489 27.3233 21.6987 28.9403 20.4694 30.6016C19.2289 32.285 18.5977 34.0127 18.5977 35.7515C18.5977 36.8148 19.1071 37.6675 20.126 38.2877C21.1006 38.8858 22.4297 39.351 24.0799 39.65C25.719 39.9601 27.6239 40.1705 29.7393 40.2702C31.7882 40.381 34.0253 40.4806 36.3844 40.5692C39.0424 40.6578 41.7226 40.7797 44.3363 40.9347C46.9611 41.0898 49.3534 41.3777 51.4466 41.8097C53.5287 42.2416 55.2454 42.8729 56.5301 43.6813C57.7926 44.4788 58.4128 45.5752 58.4128 47.0039C58.4128 48.3551 57.7373 49.8502 56.3861 51.445C55.0238 53.062 53.3183 54.5793 51.3137 55.9637C49.298 57.3481 47.1051 58.511 44.7683 59.4191C42.4425 60.3273 40.305 60.7814 38.4111 60.7814C37.37 60.7814 36.5948 60.5045 36.0853 59.9507C35.5759 59.397 35.3101 58.6993 35.3101 57.8797C35.3101 56.9051 35.6202 55.8086 36.2404 54.6236C36.8606 53.4275 37.802 52.2978 39.0202 51.29C39.3193 51.1128 39.3857 50.8137 39.2196 50.4704C39.0867 50.2157 38.9095 50.1603 38.7766 50.1603C38.6326 50.1603 38.4886 50.2157 38.3004 50.3486C36.8938 51.5336 35.8195 52.8073 35.1107 54.1363C34.4019 55.4653 34.0475 56.7279 34.0475 57.8908C34.0475 59.0648 34.413 60.0615 35.1439 60.8589C35.8749 61.6563 36.9713 62.0661 38.4111 62.0661C39.7734 62.0661 41.2685 61.8335 42.8412 61.3684C44.4138 60.9143 45.9976 60.2941 47.5481 59.5188C49.0986 58.7546 50.627 57.8576 52.0889 56.8497C53.5509 55.8419 54.8577 54.7787 55.9763 53.6933C57.0949 52.5968 57.992 51.4561 58.6565 50.3154C59.321 49.1635 59.6643 48.045 59.6643 47.015C59.6643 45.2983 58.9334 43.9361 57.4936 42.9393C56.0871 41.9758 54.2486 41.2227 52.0336 40.7243C49.8296 40.2259 47.3155 39.8826 44.5689 39.7054C41.8333 39.5282 39.0756 39.3953 36.3844 39.3067C34.3355 39.2181 32.3198 39.1184 30.3262 39.0076C28.3659 38.8969 26.5828 38.7197 25.0102 38.4539C23.4596 38.1991 22.186 37.8447 21.2225 37.4239C20.3032 37.0141 19.8491 36.4714 19.8491 35.7515C19.8491 34.1789 20.4472 32.584 21.6101 31.0114C22.8394 29.4276 24.4343 27.8992 26.3946 26.4705Z" fill="black"/>
<path d="M68.5775 44.7891C68.5 44.7891 68.4114 44.8001 68.3228 44.8223L66.4068 45.2874C66.0524 45.4093 65.9195 45.6972 66.0302 46.0849C66.152 46.5057 66.4178 46.5722 66.5618 46.5722C66.6283 46.5722 66.7058 46.5611 66.7612 46.5389L68.6661 46.0738C69.0537 45.963 69.2309 45.6751 69.1534 45.2764C69.087 44.9663 68.8876 44.7891 68.5775 44.7891Z" fill="black"/>
<path d="M144.123 51.3009C144.012 51.3009 143.902 51.3342 143.769 51.4006C142.861 51.9987 141.82 52.5635 140.657 53.0508C139.494 53.5492 138.242 53.9922 136.946 54.3577C135.651 54.7232 134.333 55.0222 133.037 55.2326C131.741 55.4431 130.512 55.5538 129.393 55.5538C128.939 55.5538 128.563 55.432 128.219 55.1883C127.898 54.9558 127.732 54.701 127.732 54.4131C127.732 54.0808 127.787 53.6821 127.887 53.2391C127.987 52.8072 128.142 52.4417 128.341 52.1648C128.563 51.8879 128.585 51.5889 128.419 51.2899C128.264 51.0019 128.031 50.9355 127.876 50.9355C127.798 50.9355 127.71 50.9465 127.632 50.9798C127.178 51.1127 126.757 51.1902 126.414 51.1902C126.126 51.1902 125.871 51.1459 125.661 51.0573C125.207 50.869 124.985 50.5589 124.985 50.1048C124.985 49.7504 124.786 49.5289 124.465 49.5289C124.42 49.5289 124.376 49.5289 124.332 49.54C123.8 49.6175 123.723 49.9276 123.723 50.1048C123.723 50.8026 123.933 51.3452 124.343 51.7329C123.701 52.1205 122.925 52.4971 122.039 52.8293C120.899 53.2612 119.669 53.6489 118.396 53.9701C117.111 54.2912 115.837 54.557 114.608 54.7564C113.379 54.9558 112.315 55.0443 111.463 55.0443C108.517 55.0443 108.361 54.5903 108.361 54.5017C108.361 54.3134 108.716 54.1583 109.303 54.0808C109.613 54.0808 109.801 53.8925 109.834 53.5603C109.868 53.228 109.702 53.0065 109.414 52.9511C109.07 52.8625 108.76 52.7518 108.472 52.6078C108.284 52.5081 108.173 52.3752 108.129 52.187C108.151 52.1094 108.151 52.0097 108.129 51.8879C108.162 51.755 108.262 51.6221 108.417 51.4781C108.638 51.2788 108.937 51.1016 109.314 50.9576C109.69 50.8136 110.111 50.6918 110.565 50.6032C111.008 50.5146 111.451 50.4703 111.872 50.4703C112.238 50.4703 112.437 50.2377 112.437 49.839C112.437 49.4403 112.227 49.2077 111.872 49.2077C111.341 49.2077 110.776 49.2742 110.2 49.4071C109.624 49.54 109.092 49.7283 108.616 49.983C108.14 50.2266 107.741 50.5257 107.42 50.869C107.254 51.0462 107.121 51.2345 107.044 51.4339C105.249 51.9987 103.544 52.2977 101.982 52.2977C100.864 52.2977 99.8114 52.1648 98.8479 51.9101C97.8844 51.6553 97.0316 51.2899 96.3117 50.8247C96.1123 50.6807 95.913 50.6143 95.7358 50.6143C95.4368 50.6143 95.171 50.7915 94.9495 51.1459C94.6837 51.6221 94.4068 52.1094 94.1077 52.6078C93.853 53.0176 93.6094 53.4938 93.3657 54.0254C93.2107 53.5603 93.0778 53.084 92.9559 52.6189C92.9338 52.5192 92.9227 52.4195 92.9005 52.3199C93.0334 52.1537 93.0445 51.9322 92.9116 51.6886C92.8673 51.6111 92.823 51.5557 92.7787 51.5003C92.7566 51.312 92.7344 51.1127 92.7344 50.9244C92.6791 50.57 92.4686 50.3706 92.1474 50.3706C92.1031 50.3706 92.0588 50.3706 92.0145 50.3817C91.782 50.4149 91.6269 50.4925 91.5383 50.6143C91.494 50.6807 91.4386 50.8026 91.4718 50.9465C91.4718 51.1791 91.494 51.4449 91.5272 51.7107C89.7552 52.6632 88.1493 53.3831 86.776 53.8261C85.2476 54.3245 83.9186 54.5681 82.8 54.5681C81.7036 54.5681 80.8065 54.3577 80.142 53.9368C79.5439 53.5714 79.123 53.084 78.8572 52.5192C78.9015 52.4971 78.9458 52.4749 78.9791 52.4528C79.0123 52.4306 79.0234 52.4085 79.0455 52.3863C80.5075 51.7661 81.8143 51.0351 82.9329 50.2045C84.1401 49.3074 85.159 48.3771 85.9675 47.4246C86.7871 46.4833 87.3962 45.5308 87.7949 44.6005C88.1936 43.6702 88.393 42.8284 88.393 42.1086C88.393 41.3222 88.1825 40.6799 87.7617 40.1926C87.3408 39.6942 86.6985 39.4395 85.8567 39.4395C84.9154 39.4395 83.9297 39.7496 82.9218 40.3476C81.9251 40.9457 80.9837 41.7652 80.1309 42.7731C79.267 43.792 78.5582 44.9881 78.0045 46.3282C77.4507 47.6683 77.1738 49.1191 77.1738 50.6143C77.1738 51.0573 77.2181 51.4781 77.3067 51.8879C76.7419 52.1759 76.1438 52.4528 75.5126 52.7186C74.5158 53.1283 73.4969 53.4938 72.489 53.7929C71.4701 54.0919 70.4512 54.3355 69.4655 54.5127C68.4798 54.6899 67.5606 54.7675 66.741 54.7675C65.9547 54.7675 65.3788 54.5349 64.9801 54.0476C64.5814 53.5714 64.5038 52.9401 64.7586 52.0984C64.7918 51.9211 64.7807 51.6 64.2823 51.4449C64.1827 51.4117 64.0941 51.4006 64.0165 51.4006C63.784 51.4006 63.6068 51.5224 63.5182 51.755C63.1084 53.073 63.2302 54.1362 63.8836 54.9004C64.526 55.6535 65.5006 56.0411 66.7632 56.0411C67.6381 56.0411 68.6127 55.9525 69.6759 55.7753C70.7281 55.5981 71.8024 55.3544 72.8656 55.0554C73.9399 54.7453 75.0142 54.3688 76.0552 53.9368C76.6422 53.6932 77.196 53.4274 77.7387 53.1505C77.938 53.5713 78.1927 53.959 78.5028 54.3134C79.3889 55.3323 80.8286 55.8418 82.7889 55.8418C83.974 55.8418 85.4137 55.587 87.0639 55.0776C88.4594 54.6456 90.0321 53.9479 91.7709 53.0065C91.793 53.084 91.8041 53.1505 91.8263 53.228C92.0699 54.103 92.3911 54.9557 92.7898 55.7532C92.9559 56.0965 93.1885 56.1629 93.3436 56.1629C93.3989 56.1629 93.4543 56.1519 93.5208 56.1408C93.7866 56.0633 93.9859 55.8861 94.0967 55.6092C94.3514 54.8782 94.6615 54.1805 95.0048 53.5381C95.3039 52.9733 95.5807 52.486 95.8244 52.0651C97.3638 53.0619 99.4349 53.5603 101.993 53.5603C103.655 53.5603 105.36 53.2834 107.088 52.785C107.232 53.1173 107.475 53.372 107.841 53.5492C107.73 53.6156 107.619 53.6932 107.509 53.7818C107.243 53.9922 107.121 54.2359 107.121 54.5017C107.121 55.1994 107.553 55.6756 108.384 55.9414C109.159 56.1851 110.2 56.3069 111.485 56.3069C112.404 56.3069 113.522 56.2072 114.818 56.0079C116.114 55.8085 117.443 55.5317 118.761 55.1883C120.09 54.8339 121.386 54.4241 122.604 53.9701C123.833 53.5049 124.841 53.0065 125.617 52.4528C125.65 52.4195 125.661 52.3863 125.694 52.3531C125.927 52.3974 126.181 52.4306 126.447 52.4306C126.602 52.4306 126.768 52.4195 126.935 52.4085C126.835 52.6964 126.746 52.9954 126.669 53.3055C126.558 53.7375 126.503 54.114 126.503 54.4352C126.503 55.0997 126.802 55.6756 127.389 56.1408C127.964 56.606 128.651 56.8385 129.426 56.8385C130.611 56.8385 131.896 56.7278 133.247 56.5063C134.61 56.2848 135.983 55.9747 137.323 55.587C138.674 55.1883 139.992 54.7343 141.244 54.2026C142.495 53.671 143.592 53.0951 144.522 52.4749C144.81 52.2423 144.865 51.9433 144.655 51.6221C144.466 51.3563 144.267 51.3009 144.123 51.3009ZM85.8457 40.7131C86.7095 40.7131 87.1082 41.1561 87.1082 42.1086C87.1082 42.6955 86.931 43.3933 86.5656 44.2018C86.2001 45.0103 85.6463 45.852 84.9264 46.6826C84.1955 47.5243 83.2652 48.366 82.1687 49.1745C81.1277 49.9498 79.8651 50.6475 78.4475 51.2345C78.4253 51.0794 78.4253 50.8801 78.4253 50.6254C78.4253 49.2963 78.669 48.0227 79.1341 46.8266C79.6104 45.6305 80.2195 44.5673 80.9726 43.6702C81.7146 42.7731 82.5453 42.0532 83.4202 41.5105C84.2841 40.9789 85.1036 40.7131 85.8457 40.7131Z" fill="black"/>
<path d="M213.574 39.4505C210.252 38.5977 206.995 38.0107 203.883 37.7006C204.515 35.9397 205.168 34.212 205.833 32.5507C206.53 30.8008 207.228 29.1285 207.893 27.5779C208.568 25.9942 209.222 24.5434 209.82 23.2586C210.429 21.9628 210.994 20.7999 211.514 19.8143C211.636 19.6371 211.669 19.4709 211.625 19.327C211.581 19.183 211.47 19.0611 211.282 18.9725C211.16 18.9172 211.049 18.895 210.949 18.895C210.794 18.895 210.584 18.9615 210.429 19.2494C209.377 21.2651 208.136 23.9453 206.719 27.2125C205.312 30.4686 203.928 33.9683 202.599 37.601C201.735 37.5234 200.838 37.457 199.941 37.4127C198.988 37.3684 198.069 37.3462 197.216 37.3462C195.433 37.3462 193.683 37.4238 192.022 37.5788C190.46 37.7228 188.899 37.9221 187.392 38.1547C188.345 35.4302 189.164 32.7611 189.818 30.236C190.493 27.6222 191.08 25.2189 191.557 23.0814C191.59 22.8821 191.546 22.7159 191.457 22.5941C191.357 22.4723 191.213 22.4058 191.003 22.3948H190.925C190.571 22.3948 190.35 22.572 190.294 22.8932C189.818 25.0639 189.209 27.5226 188.5 30.1917C187.791 32.8276 186.938 35.5964 185.953 38.4316C180.758 39.4394 176.018 40.99 171.865 43.0389C167.679 45.1099 164.057 47.4246 161.089 49.9055C158.121 52.3974 155.806 54.9114 154.211 57.4144C152.605 59.9174 151.797 62.1103 151.797 63.9266C151.797 65.5879 152.417 67.0055 153.658 68.1462C154.887 69.287 156.393 69.8629 158.132 69.8629C161.765 69.8629 165.12 68.9547 168.077 67.1495C171.023 65.3553 173.715 62.9852 176.074 60.1057C178.433 57.2262 180.526 53.9479 182.32 50.3485C184.092 46.7823 185.643 43.1496 186.949 39.517C188.566 39.229 190.239 38.9964 191.911 38.8525C193.628 38.6974 195.422 38.6199 197.238 38.6199C198.091 38.6199 198.955 38.642 199.819 38.6863C200.594 38.7306 201.38 38.786 202.178 38.8635C200.948 42.2636 199.841 45.6526 198.877 48.9419C197.892 52.2977 197.227 55.2658 196.884 57.7135C196.828 57.9128 196.84 58.0789 196.928 58.2118C197.017 58.3447 197.172 58.4333 197.393 58.4555C197.438 58.4666 197.493 58.4666 197.526 58.4666C197.87 58.4666 198.091 58.2672 198.135 57.9128C198.479 55.443 199.154 52.486 200.129 49.1302C201.092 45.7966 202.211 42.3744 203.451 38.9521C206.53 39.2622 209.831 39.8492 213.231 40.702C213.308 40.7242 213.386 40.7352 213.452 40.7352C213.629 40.7352 213.873 40.6577 214.006 40.259C214.072 40.0596 214.072 39.8824 214.006 39.7385C213.917 39.6166 213.785 39.517 213.574 39.4505ZM185.499 39.7938C184.258 43.2161 182.785 46.6494 181.091 50.0273C179.363 53.4938 177.336 56.6391 175.088 59.3969C172.84 62.1435 170.281 64.3807 167.468 66.0641C164.666 67.7475 161.532 68.5892 158.132 68.5892C156.747 68.5892 155.54 68.1352 154.555 67.227C153.569 66.3299 153.071 65.2113 153.071 63.9155C153.071 62.2543 153.835 60.2164 155.33 57.8574C156.847 55.4763 159.04 53.0951 161.842 50.7583C164.655 48.4214 168.122 46.2285 172.153 44.235C176.107 42.2858 180.592 40.7906 185.499 39.7938Z" fill="black"/>
<path d="M217.628 46.5725C217.695 46.5725 217.772 46.5614 217.828 46.5393L219.732 46.0741C220.12 45.9634 220.297 45.6754 220.22 45.2767C220.153 44.9555 219.943 44.7783 219.644 44.7783C219.566 44.7783 219.478 44.7894 219.389 44.8115L217.473 45.2767C217.119 45.3985 216.986 45.6865 217.097 46.0741C217.218 46.506 217.484 46.5725 217.628 46.5725Z" fill="black"/>
<path d="M272.295 51.711C272.207 51.4674 272.018 51.3345 271.764 51.3345C271.686 51.3345 271.586 51.3456 271.487 51.3788C269.958 51.9436 268.308 52.5417 266.547 53.184C264.831 53.7932 263.28 54.4688 261.918 55.1886C261.397 54.4355 260.711 53.7156 259.88 53.0179C259.005 52.298 258.174 51.7443 257.41 51.3899C257.388 51.3788 257.377 51.3788 257.355 51.3788C257.288 51.3566 257.233 51.3456 257.189 51.3456C257.111 51.3456 257.034 51.3566 256.945 51.4009C254.918 52.5306 253.102 53.3502 251.574 53.8485C250.045 54.3469 248.716 54.5906 247.598 54.5906C246.501 54.5906 245.604 54.3802 244.94 53.9593C244.353 53.5938 243.921 53.1176 243.655 52.5417C243.688 52.5195 243.721 52.5085 243.755 52.4863C243.799 52.4642 243.832 52.4199 243.865 52.3977C245.327 51.7775 246.623 51.0465 247.731 50.227C248.938 49.3299 249.957 48.3996 250.765 47.4471C251.585 46.5057 252.194 45.5532 252.593 44.6229C252.991 43.6926 253.191 42.8509 253.191 42.131C253.191 41.3447 252.98 40.7023 252.559 40.215C252.138 39.7166 251.496 39.4619 250.654 39.4619C249.713 39.4619 248.716 39.772 247.719 40.3701C246.723 40.9681 245.781 41.7877 244.929 42.7955C244.065 43.8145 243.356 45.0106 242.802 46.3507C242.248 47.6908 241.971 49.1416 241.971 50.6368C241.971 51.1019 242.027 51.5449 242.115 51.9658C240.51 52.7964 239.059 53.4388 237.807 53.8485C236.279 54.3469 234.95 54.5906 233.831 54.5906C232.735 54.5906 231.838 54.3802 231.173 53.9593C230.575 53.5938 230.154 53.1065 229.889 52.5417C229.933 52.5195 229.977 52.4974 230.01 52.4752C230.044 52.4531 230.055 52.4309 230.077 52.4088C231.539 51.7886 232.846 51.0576 233.964 50.227C235.171 49.3299 236.19 48.3996 236.999 47.4471C237.818 46.5057 238.427 45.5532 238.826 44.6229C239.225 43.6926 239.424 42.8509 239.424 42.131C239.424 41.3447 239.214 40.7023 238.793 40.215C238.372 39.7166 237.73 39.4619 236.888 39.4619C235.947 39.4619 234.961 39.772 233.953 40.3701C232.956 40.9681 232.015 41.7877 231.162 42.7955C230.298 43.8145 229.589 45.0106 229.036 46.3507C228.482 47.6908 228.205 49.1416 228.205 50.6368C228.205 51.0798 228.249 51.5006 228.338 51.9104C227.773 52.1983 227.175 52.4752 226.544 52.741C225.547 53.1508 224.528 53.5163 223.52 53.8153C222.501 54.1143 221.482 54.358 220.497 54.5352C219.511 54.7124 218.592 54.7899 217.772 54.7899C216.986 54.7899 216.41 54.5574 216.011 54.07C215.613 53.5938 215.535 52.9625 215.79 52.1208C215.823 51.9436 215.812 51.6224 215.314 51.4674C215.214 51.4342 215.125 51.4231 215.048 51.4231C214.815 51.4231 214.638 51.5449 214.549 51.7775C214.14 53.0954 214.261 54.1586 214.915 54.9228C215.557 55.6759 216.532 56.0636 217.794 56.0636C218.669 56.0636 219.644 55.975 220.707 55.7978C221.759 55.6206 222.834 55.3769 223.897 55.0779C224.971 54.7678 226.045 54.3912 227.086 53.9593C227.673 53.7156 228.227 53.4498 228.77 53.173C228.969 53.5938 229.224 53.9814 229.534 54.3359C230.42 55.3548 231.86 55.8642 233.82 55.8642C235.005 55.8642 236.445 55.6095 238.095 55.1C239.413 54.7013 240.897 54.0479 242.525 53.173C242.725 53.5827 242.979 53.9704 243.289 54.3248C244.175 55.3437 245.615 55.8531 247.576 55.8531C248.761 55.8531 250.2 55.5984 251.851 55.089C253.412 54.6127 255.206 53.7932 257.178 52.6635C257.776 52.9958 258.418 53.4166 259.094 53.9482C259.814 54.513 260.401 55.1 260.81 55.687C260.002 56.1411 259.359 56.6063 258.883 57.0604C258.352 57.5698 258.075 58.1014 258.075 58.6219C258.075 59.0206 258.23 59.364 258.518 59.663C258.817 59.962 259.16 60.106 259.559 60.106C260.522 60.106 261.287 59.8181 261.84 59.2311C262.394 58.6552 262.671 57.9574 262.671 57.1822C262.671 56.9053 262.616 56.6063 262.516 56.2962C263.823 55.7092 265.351 55.0779 267.079 54.4023C268.873 53.7046 270.501 53.0733 272.018 52.4863C272.317 52.298 272.417 52.0322 272.295 51.711ZM259.902 57.8024C260.268 57.5144 260.777 57.1932 261.408 56.8499C261.419 56.9385 261.419 57.0382 261.419 57.1711C261.419 57.6141 261.264 57.9907 260.943 58.334C260.622 58.6773 260.168 58.8324 259.559 58.8324C259.393 58.8324 259.337 58.777 259.337 58.6109C259.348 58.3672 259.537 58.0903 259.902 57.8024ZM243.267 51.2348C243.245 51.0798 243.245 50.8804 243.245 50.6257C243.245 49.2966 243.489 48.023 243.954 46.8269C244.43 45.6308 245.039 44.5676 245.792 43.6705C246.534 42.7734 247.365 42.0535 248.24 41.5108C249.104 40.9792 249.923 40.7134 250.665 40.7134C251.529 40.7134 251.928 41.1564 251.928 42.1089C251.928 42.6959 251.751 43.3936 251.385 44.2021C251.02 45.0106 250.466 45.8412 249.746 46.6829C249.015 47.5246 248.085 48.3663 246.989 49.1748C245.936 49.9612 244.685 50.6478 243.267 51.2348ZM236.91 40.7134C237.774 40.7134 238.173 41.1564 238.173 42.1089C238.173 42.6959 237.996 43.3936 237.63 44.2021C237.265 45.0106 236.711 45.8523 235.991 46.6829C235.26 47.5246 234.33 48.3663 233.233 49.1748C232.192 49.9501 230.941 50.6478 229.512 51.2348C229.49 51.0798 229.49 50.8804 229.49 50.6257C229.49 49.2966 229.733 48.023 230.199 46.8269C230.675 45.6308 231.284 44.5676 232.037 43.6705C232.779 42.7734 233.61 42.0535 234.485 41.5108C235.337 40.9792 236.157 40.7134 236.91 40.7134Z" fill="black"/>
</svg>
