<svg width="445" height="145" viewBox="0 0 445 145" fill="none" xmlns="http://www.w3.org/2000/svg">
	<path d="M1 141.477C1 141.477 150.483 141.772 146.094 139.576C141.706 137.382 130.895 142.555 130.424 138.793C129.954 135.029 133.401 132.519 136.692 131.58C139.983 130.639 142.334 131.736 143.588 130.639C144.843 129.542 145.781 127.66 148.134 128.13C150.484 128.602 152.209 128.288 151.267 130.483C150.327 132.679 146.723 137.383 147.662 139.578C148.604 141.774 188.249 146.949 200.471 141.774C212.694 136.599 207.837 127.346 200.785 122.485C193.734 117.624 169.601 106.805 168.19 107.117C166.78 107.431 170.071 104.765 175.242 107.902C180.414 111.039 204.546 123.269 205.955 124.995C207.365 126.719 213.947 120.134 205.172 113.704C194.694 106.028 180.752 103.64 168.726 99.588C166.246 98.7524 163.803 97.451 162.306 95.3028C160.81 93.1562 160.521 90.0144 162.18 87.989C163.318 86.5999 165.116 85.9588 166.837 85.4501C169.652 84.6192 172.6 83.935 174.959 82.1887C177.316 80.4424 178.925 77.2592 177.845 74.5305C177.638 74.009 177.128 73.4444 176.615 73.6725C176.242 73.8383 176.151 74.3168 176.108 74.7218C175.341 81.9367 174.068 89.0974 172.304 96.1353C171.244 100.358 169.714 105.977 165.612 108.316C162.934 109.844 158.888 108.985 155.9 109.265C153.686 109.473 136.487 110.626 136.224 106.958C136.068 104.762 135.127 110.251 138.104 115.897C141.082 121.542 142.648 125.776 152.051 127.657C161.454 129.538 176.34 127.657 183.079 128.127C189.817 128.599 194.832 130.794 189.975 131.577C185.117 132.361 161.141 132.518 154.089 129.538C147.037 126.559 139.359 119.346 142.65 117.306C145.941 115.268 162.708 113.228 156.596 113.228C150.484 113.228 140.613 112.758 137.792 110.249C134.971 107.739 135.755 101.781 138.262 95.0381C140.771 88.2952 145.471 75.5942 145.785 67.9104C146.099 60.2266 150.956 47.2114 157.224 47.0552C163.492 46.8989 176.498 55.522 175.088 56.4645C173.677 57.4054 169.916 58.8168 168.662 63.051C167.409 67.2853 169.288 69.4813 168.192 69.1655C167.095 68.8514 155.498 68.2246 154.402 63.3636C153.305 58.5027 153.618 54.1122 154.246 55.8362C154.872 57.5617 155.186 61.1692 158.163 63.8341C161.14 66.5006 171.327 70.2644 176.026 71.5179C180.728 72.7714 188.877 73.2418 190.443 72.9293C192.01 72.6151 205.33 71.832 218.022 61.0129C230.716 50.1921 232.909 49.878 234.789 49.5654C236.67 49.2512 249.518 46.9005 247.952 45.4875C246.383 44.0761 239.019 45.9579 240.9 45.9579C242.78 45.9579 251.399 44.2339 249.204 42.6662C247.011 41.097 240.272 43.6072 241.526 43.293C242.78 42.9788 250.145 42.0379 247.482 40.3139C244.817 38.5899 238.863 40.7844 239.803 40.4702C240.743 40.156 246.383 38.432 244.191 37.9616C241.998 37.4895 237.295 40.4702 237.295 39.5293C237.295 38.5883 239.489 34.8246 236.981 35.4513C234.474 36.0781 233.063 42.3505 231.183 43.6056C229.302 44.8607 213.631 53.4838 207.521 56.3082C201.409 59.1294 199.687 60.2282 196.864 60.5424C194.043 60.8566 180.411 59.131 172.889 55.6799C165.366 52.2303 156.905 47.8398 157.688 45.6437C158.47 43.4493 161.449 45.3296 162.075 40.3123C162.702 35.2951 154.083 34.0399 153.457 29.3353C152.83 24.6306 156.434 26.1983 156.434 29.0211C156.434 31.8439 156.905 33.2553 152.674 37.1753C148.443 41.0954 145.466 53.9543 147.345 52.074C149.225 50.1921 136.845 46.4284 137.942 34.0399C139.04 21.6515 144.524 18.3582 149.538 19.4555C154.551 20.5543 155.022 26.9829 153.769 24.6306C152.515 22.2799 152.358 20.3964 154.395 15.8496C156.432 11.3012 159.879 7.0686 168.186 6.44025C176.492 5.81349 181.036 9.26305 181.976 13.9677C182.916 18.6724 181.506 20.7106 174.14 26.042C166.775 31.3734 167.245 36.7049 166.305 34.3525C165.365 32.0002 169.124 26.1983 166.619 27.9223C164.112 29.6479 163.954 34.5088 163.172 32.4691C162.388 30.4309 162.231 26.9813 161.449 28.2349C160.665 29.49 161.763 34.3509 160.039 31.6844C158.316 29.0179 155.337 26.6672 158.002 21.02C160.665 15.3743 165.836 10.2008 171.478 10.9854C177.12 11.7685 180.253 14.9055 180.723 16.4732C181.193 18.0409 182.916 17.8846 183.7 23.0581C184.484 28.2333 184.17 36.2312 182.29 39.9949C180.409 43.7587 168.029 39.5245 168.029 35.917C168.029 32.3096 168.5 37.7989 169.284 39.6808C170.066 41.5626 173.357 41.4048 173.357 42.1894C173.357 42.974 172.417 44.698 172.261 47.5224C172.104 50.3452 174.925 50.6578 172.104 50.3452C169.284 50.0311 164.426 44.8575 166.307 45.0138C168.187 45.1701 174.611 45.4843 177.276 45.9547C179.941 46.4252 186.991 46.4252 187.149 46.8973C187.305 47.3677 187.305 58.1869 185.426 58.0306C183.546 57.8743 178.062 50.0326 180.412 48.7791C182.763 47.5256 182.919 47.6819 188.091 47.6819C193.262 47.6819 195.455 47.6819 201.097 45.8C206.739 43.9182 221.469 37.6458 223.662 34.9809C225.857 32.3144 227.423 27.4534 228.364 28.238C229.305 29.0227 227.893 33.099 228.364 34.8246C228.834 36.5486 256.884 44.2339 257.667 43.293C258.451 42.3505 263.935 25.8873 262.524 24.9464C261.114 24.0038 232.437 16.7921 231.811 17.8894C231.184 18.9866 227.893 28.3959 229.148 26.9845C230.4 25.5731 231.655 19.7712 233.065 19.7712C234.475 19.7712 256.57 24.0054 256.57 26.3578C256.57 28.7101 252.653 39.0604 252.183 40.3139C251.713 41.5674 250.929 43.6072 250.929 44.3902C250.929 45.1749 275.845 43.6056 276.002 45.017C276.159 46.4284 276.316 63.051 275.376 63.3636C274.436 63.6778 233.065 64.4609 232.909 63.5199C232.753 62.579 233.38 49.0933 233.537 51.4457C233.693 53.798 234.163 61.6396 234.947 61.7959C235.731 61.9522 266.287 62.4227 266.287 61.1692C266.287 59.9141 267.54 43.9198 268.01 47.5272C268.48 51.1331 267.854 62.1101 267.854 62.1101H285.247C285.247 62.1101 287.598 81.554 284.777 82.3386C281.956 83.1233 261.898 82.4949 261.586 81.8682C261.272 81.2414 260.489 63.3652 260.959 65.5597C261.43 67.7541 261.586 81.0835 260.019 81.7103C258.453 82.337 240.431 81.7103 239.961 81.0835C239.491 80.4567 238.08 63.9904 239.177 65.8739C240.273 67.7557 239.961 81.2414 238.394 82.0245C236.826 82.8091 218.18 82.0245 218.18 82.0245C218.18 82.0245 217.71 63.3636 218.962 63.3636C220.217 63.3636 231.342 63.6778 229.462 63.9904C227.581 64.3046 219.589 64.6172 219.589 66.0302C219.589 67.4416 219.432 104.919 219.432 104.919L238.08 104.605C238.08 104.605 239.961 86.5712 252.027 89.0815C264.093 91.5901 261.43 105.546 263.465 106.331C265.503 107.114 284.463 107.428 284.777 105.388C285.091 103.35 286.658 85.6303 284.777 85.0035C282.897 84.3768 279.606 84.3768 278.665 84.8473C277.725 85.3177 278.822 107.584 279.292 107.742C279.762 107.899 294.335 107.116 294.491 107.586C294.647 108.056 295.275 123.424 293.238 123.737C291.2 124.051 263.151 123.266 262.995 122.639C262.838 122.013 263.935 108.213 263.935 108.213C263.935 108.213 277.725 107.899 277.725 108.683C277.725 109.468 277.099 139.889 278.039 140.359C278.979 140.83 295.433 142.555 295.433 140.673C295.433 138.793 294.492 119.662 293.71 125.776C292.926 131.891 294.65 140.047 292.3 140.047C289.949 140.047 262.838 140.831 262.526 139.42C262.212 138.01 261.742 119.82 262.526 123.896C263.31 127.972 262.056 139.734 260.175 140.047C258.295 140.361 244.191 139.89 243.408 139.106C242.626 138.321 242.938 106.803 242.626 106.175C242.312 105.546 214.419 104.763 213.792 106.018C213.166 107.273 212.852 123.11 212.852 123.11C212.852 123.11 227.113 124.679 227.113 122.796C227.113 120.914 226.172 106.331 225.702 110.095C225.232 113.857 225.858 123.737 227.583 123.737C229.307 123.737 240.589 122.796 240.903 123.737C241.217 124.679 242.155 139.889 240.747 140.045C239.336 140.201 211.287 141.142 211.287 139.575C211.287 138.007 213.794 122.481 213.794 125.933C213.794 129.382 213.324 137.851 214.578 138.948C215.832 140.045 299.511 139.104 299.511 139.104C299.511 139.104 299.667 135.34 300.137 136.125C300.607 136.91 307.033 135.655 307.816 136.752C308.6 137.851 309.696 141.456 307.346 142.085C304.995 142.712 298.571 143.967 297.943 141.929C297.316 139.89 300.293 137.066 300.293 135.029C300.293 132.991 296.534 121.23 296.22 115.742C295.906 110.254 297.004 99.7459 298.258 99.7459C299.511 99.7459 298.102 101.157 305.467 101.942C312.831 102.727 318.159 98.6487 318.629 99.5896C319.099 100.531 318.629 110.096 319.413 114.487C320.197 118.877 325.837 134.715 325.055 136.441C324.271 138.166 318.473 136.441 317.532 137.852C316.592 139.264 313.457 141.302 315.966 142.713C318.473 144.125 325.055 144.437 325.211 141.929C325.367 139.418 325.523 135.498 323.801 135.656C322.076 135.812 318.785 136.439 317.375 135.812C315.964 135.186 309.696 122.954 308.756 119.191C307.816 115.428 309.382 112.449 308.442 110.253C307.502 108.056 302.644 104.763 304.369 106.803C306.093 108.841 309.07 110.252 306.249 110.096C303.428 109.938 300.293 108.685 302.644 109.782C304.995 110.881 306.561 108.997 307.032 111.822C307.502 114.645 307.032 118.407 306.562 121.544C306.091 124.681 310.323 134.559 308.442 135.344C306.561 136.128 300.921 138.01 302.33 135.031C303.741 132.05 307.658 132.521 304.681 129.073C301.704 125.623 299.039 122.799 298.257 118.252C297.473 113.705 299.353 108.686 299.353 105.707C299.353 102.728 297.16 98.494 299.353 98.8066C301.548 99.1208 307.346 100.374 312.673 99.277C318.001 98.1798 319.255 97.2389 319.255 95.6696C319.255 94.1019 322.39 79.2048 320.196 74.8143C318.003 70.4238 316.434 68.542 314.554 69.4829C312.673 70.4238 308.286 74.3439 303.27 74.9706C298.257 75.5974 301.234 79.8316 301.704 78.2639C302.174 76.6946 303.584 75.1269 300.136 74.0297C296.689 72.9309 293.085 69.4829 292.457 70.266C291.829 71.049 290.107 76.6946 291.047 75.1269C291.987 73.5576 293.868 71.049 291.673 68.5404C289.48 66.0317 288.384 62.268 288.07 64.6203C287.756 66.9727 288.696 68.5404 288.696 68.5404C288.696 68.5404 283.839 60.3861 282.898 65.405C281.958 70.4222 288.852 73.245 289.166 74.3423C289.48 75.4395 297.629 80.4583 301.076 81.2414C304.523 82.0244 314.238 77.3214 313.298 79.2032C312.358 81.0851 308.44 83.1233 306.09 83.4374C303.739 83.7516 300.918 82.8091 300.448 84.2221C299.978 85.6335 297.629 96.1385 299.038 97.2373C300.448 98.3345 316.119 97.7078 314.394 95.5117C312.67 93.3173 302.799 93.0031 305.148 90.807C307.499 88.6126 312.356 88.9252 314.551 82.8091C316.745 76.6946 315.021 71.832 315.021 71.832C315.021 71.832 314.237 69.7939 315.491 68.0683C316.745 66.3443 318.782 68.3825 321.603 63.3636C324.424 58.3464 325.208 54.2685 322.231 52.2303C319.254 50.1905 321.134 54.1122 321.761 53.4838C322.387 52.8571 323.953 51.6019 321.134 48.937C318.313 46.2705 310.791 43.1351 307.032 44.2323C303.27 45.3296 301.86 49.7201 303.427 50.9752C304.993 52.2303 311.263 52.5445 310.949 53.9543C310.635 55.3657 309.225 56.6208 310.949 57.2476C312.672 57.8743 314.396 57.8743 314.396 59.442C314.396 61.0113 314.082 62.579 314.082 62.579C314.082 62.579 316.277 59.2857 317.529 61.3255C318.784 63.3636 314.708 65.0892 315.963 65.4034C317.215 65.7176 321.761 64.6188 320.506 60.0704C319.254 55.5236 312.514 43.7619 306.404 47.9961C300.292 52.2303 298.881 60.0704 300.604 64.9313C302.329 69.7939 313.14 70.8911 312.828 68.3809C312.514 65.8723 307.186 72.3009 304.522 72.3009C301.858 72.3009 304.208 70.4191 303.111 69.9502C302.015 69.4797 294.806 66.3427 292.77 63.9904C290.731 61.638 286.344 55.0515 284.933 55.9924C283.523 56.935 281.799 60.5408 283.053 58.9715C284.306 57.4038 285.56 55.522 284.149 54.1106C282.739 52.6992 281.015 47.6819 280.702 50.1905C280.388 52.7008 282.74 55.6783 281.485 54.4247C280.232 53.1712 277.88 49.2496 277.097 51.4457C276.313 53.6417 277.097 57.718 277.724 59.1294C278.351 60.5408 281.797 60.5408 281.797 60.5408C281.797 60.5408 287.412 55.262 287.412 53.0835C287.412 50.905 300.474 55.8074 296.665 54.1728C292.854 52.5381 290.132 48.7265 284.69 47.3645C279.247 46.0026 270.812 44.0968 272.987 39.7398C275.164 35.3812 285.777 41.3729 285.777 39.4671C285.777 37.5597 284.688 41.1017 284.415 38.3778C284.145 35.6539 289.314 35.3812 284.145 35.6539C278.975 35.925 263.189 32.6572 263.462 31.8407C263.734 31.0242 283.872 8.14828 285.233 11.416C286.594 14.6838 290.13 37.287 291.764 37.5597C293.398 37.8324 296.391 39.7398 296.663 38.1051C296.934 36.472 290.948 13.5961 289.042 12.5053C287.138 11.416 283.6 11.1449 283.6 12.778C283.6 14.4111 287.41 33.7481 287.955 32.6572C288.5 31.568 289.044 22.5813 290.403 22.854C291.764 23.1267 294.484 22.854 295.845 26.3944C297.206 29.9349 305.644 40.282 311.357 41.644C317.072 43.0059 324.964 42.4621 326.325 43.8241C327.686 45.186 329.318 58.2571 328.774 53.3562C328.231 48.4538 324.693 42.4637 329.863 42.4637C335.033 42.4637 342.381 41.6456 342.925 42.4637C343.47 43.2802 337.755 51.7216 344.286 50.3612C350.817 48.9992 358.709 43.2803 358.165 40.2852C357.62 37.2902 356.804 31.5712 356.259 32.3877C355.714 33.2043 348.64 44.0984 340.748 40.2852C332.856 36.4736 331.767 26.9415 333.128 19.5878C334.489 12.2342 335.578 9.51184 335.578 10.8738C335.578 12.2358 339.116 17.4093 344.558 17.1366C350.001 16.8655 354.355 14.4127 354.627 15.5035C354.9 16.5928 349.185 19.8605 352.45 22.0406C355.716 24.2191 357.077 25.8522 357.077 25.8522C357.077 25.8522 360.615 19.8605 360.887 22.8572C361.16 25.8522 356.806 30.4819 358.167 30.4819C359.528 30.4819 364.97 28.3034 366.875 20.6787C368.781 13.0523 365.514 8.15147 363.337 8.6953C361.16 9.24073 357.349 14.9581 360.615 12.7796C363.88 10.6011 363.084 6.03836 360.091 3.58714C357.098 1.13752 348.165 0.523519 342.45 1.34165C336.735 2.15819 330.747 9.48154 333.469 11.9328C336.192 14.384 345.22 4.5217 351.751 6.15637C358.282 7.78945 364.696 15.7762 364.153 19.044C363.608 22.3117 358.983 29.6654 359.254 33.7497C359.526 37.834 362.792 39.7414 364.969 42.4653C367.146 45.1892 375.583 53.9017 378.303 64.2519C381.025 74.6006 388.1 102.105 386.74 104.285C385.379 106.463 376.671 107.552 366.875 104.829C357.078 102.105 340.206 100.743 344.015 99.655C347.825 98.5658 348.641 95.5707 346.735 89.0336C344.831 82.4965 339.388 70.7875 342.381 72.1494C345.376 73.5114 355.445 81.1361 359.254 77.3246C363.064 73.5114 361.431 60.4403 361.431 63.1627C361.431 65.8866 357.622 68.6089 351.362 69.6982C345.102 70.7874 342.109 72.1494 340.748 69.9709C339.387 67.7924 336.121 56.8999 337.482 55.2652C338.843 53.6321 353.539 47.095 354.084 50.9082C354.629 54.7214 331.224 57.171 328.502 56.8999C325.78 56.6272 325.78 56.6272 325.78 56.6272C325.78 56.6272 320.065 64.7974 322.242 67.2486C324.419 69.6998 339.659 70.2436 345.102 68.6105C350.544 66.9775 359.525 62.075 363.335 62.6189C367.146 63.1643 373.404 70.789 373.404 75.6899C373.404 80.5923 351.905 88.4898 356.532 89.0352C361.158 89.5806 379.664 85.7675 372.861 89.5806C366.057 93.3922 356.532 95.5723 360.615 97.2054C364.696 98.8401 379.664 98.8401 381.841 101.29C384.018 103.741 385.652 108.371 381.841 116.814C378.031 125.255 369.595 125.8 354.082 127.435C338.571 129.07 327.957 126.617 334.215 125.528C340.475 124.438 370.955 128.251 370.955 128.251C370.955 128.251 373.132 127.162 373.677 129.885C374.222 132.608 378.031 136.42 375.31 138.055C372.588 139.689 330.679 140.233 327.413 139.144C324.148 138.055 320.61 123.622 323.604 121.169C326.597 118.719 360.344 105.919 351.907 111.093C343.47 116.268 338.027 111.911 333.946 108.642C329.865 105.374 328.774 99.9277 330.953 101.561C333.13 103.195 338.572 112.728 334.491 115.179C330.41 117.628 322.789 120.625 321.7 118.719C320.612 116.814 314.353 98.2947 320.884 93.6649C327.415 89.0352 333.946 90.941 341.295 94.4815C348.641 98.0219 358.167 103.741 366.604 106.736C375.039 109.731 378.85 113.273 374.769 115.452C370.687 117.63 368.238 116.814 368.238 120.081C368.238 123.349 369.326 129.339 369.326 129.339C369.326 129.339 375.041 124.709 378.577 125.528C382.115 126.344 384.02 129.885 388.646 131.247C393.273 132.608 398.715 135.605 396.266 138.327C393.816 141.05 375.038 139.144 378.032 137.238C381.025 135.332 426.551 140.563 444 138.055" stroke="black" stroke-miterlimit="10" stroke-linecap="round" stroke-linejoin="round"/>
</svg>