<?xml version="1.0" encoding="UTF-8"?>
<!DOCTYPE svg PUBLIC "-//W3C//DTD SVG 1.1//EN" "http://www.w3.org/Graphics/SVG/1.1/DTD/svg11.dtd">
<!-- Creator: CorelDRAW X7 -->
<svg xmlns="http://www.w3.org/2000/svg" xml:space="preserve" width="378px" height="378px" version="1.1" style="shape-rendering:geometricPrecision; text-rendering:geometricPrecision; image-rendering:optimizeQuality; fill-rule:evenodd; clip-rule:evenodd"
viewBox="0 0 42601 42600"
 xmlns:xlink="http://www.w3.org/1999/xlink">
 <defs>
  <style type="text/css">
   <![CDATA[
    .fil0 {fill:none}
    .fil1 {fill:black}
   ]]>
  </style>
 </defs>
 <g id="Слой_x0020_1">
  <metadata id="CorelCorpID_0Corel-Layer"/>
  <rect class="fil0" width="42600" height="42600"/>
  <path id="Vector.svg" class="fil1" d="M42601 39498l-120 -8984c-20,-820 -354,-1602 -933,-2184 -579,-582 -1360,-921 -2181,-947l-8770 -216c-936,-27 -1835,368 -2449,1074l-3820 4438c-3138,-835 -13695,-11365 -14601,-14604l4556 -4147c671,-611 1043,-1482 1019,-2388l-251 -8409c-21,-826 -361,-1612 -947,-2194 -586,-584 -1375,-918 -2202,-937l-8764 119 0 0c-838,-19 -1647,304 -2239,896 -592,592 -917,1399 -898,2235l0 4450c250,16370 21069,34776 34985,34900l4476 0c827,-1 1620,-327 2208,-908 587,-581 921,-1369 931,-2194l0 0zm-7579 1438c-6304,-79 -14521,-4279 -21486,-10928 -7282,-6989 -11690,-15321 -11798,-22332l0 -4410c-22,-386 123,-764 399,-1037 275,-272 654,-414 1042,-389l8763 -119 0 -1c371,27 719,189 977,455 259,267 410,619 424,989l217 8438 0 52c-1,398 -169,777 -462,1046l-5176 4721 0 392c137,3733 13097,16650 16718,16650l434 1 4361 -5115 0 0c282,-333 702,-517 1139,-500l8792 216 0 0c375,19 729,177 993,443 264,266 420,620 436,995l97 8995c-3,786 -641,1423 -1429,1426l-4441 12z"/>
 </g>
</svg>
