<?xml version="1.0" encoding="UTF-8"?>
<!DOCTYPE svg PUBLIC "-//W3C//DTD SVG 1.1//EN" "http://www.w3.org/Graphics/SVG/1.1/DTD/svg11.dtd">
<!-- Creator: CorelDRAW X7 -->
<svg xmlns="http://www.w3.org/2000/svg" xml:space="preserve" width="378px" height="378px" version="1.1" style="shape-rendering:geometricPrecision; text-rendering:geometricPrecision; image-rendering:optimizeQuality; fill-rule:evenodd; clip-rule:evenodd"
viewBox="0 0 77568 77568"
 xmlns:xlink="http://www.w3.org/1999/xlink">
 <defs>
  <style type="text/css">
   <![CDATA[
    .fil0 {fill:none}
    .fil1 {fill:#231F20}
   ]]>
  </style>
 </defs>
 <g id="Слой_x0020_1">
  <metadata id="CorelCorpID_0Corel-Layer"/>
  <rect class="fil0" width="77568" height="77568"/>
  <path class="fil1" d="M77503 42924c-778,-952 -1791,-1740 -2796,-2439 -1015,-706 -2101,-1310 -3236,-1800 -2199,-947 -4583,-1486 -6985,-1412 -2305,71 -4641,711 -6502,2112 -1054,794 -1896,1812 -2866,2699 -802,734 -1780,1415 -2876,1589 0,-42 0,-84 0,-126 -19,0 -38,0 -56,0 42,-293 45,-589 -15,-891 -109,-538 -463,-1015 -969,-1244 -474,-213 -1043,-203 -1428,182 -405,402 -441,1049 -215,1550 362,804 1232,1092 2093,1100 -22,135 -45,270 -70,406 -18,95 43,159 113,172 3,153 6,307 9,460 1,109 2,217 2,326 2,163 3,326 4,490 -107,344 -91,720 -146,1075 -60,390 -150,775 -270,1150 -232,730 -578,1421 -1019,2046 -888,1260 -2195,2199 -3657,2677 -404,133 -818,231 -1237,295 -292,44 -585,64 -873,113 -1398,-28 -2797,-61 -4195,-80 -2837,-38 -5673,-63 -8511,-90 -1130,-11 -2265,-56 -3398,-69 -444,-129 -882,-267 -1304,-468 -654,-313 -1262,-719 -1794,-1213 -1110,-1029 -1841,-2401 -2111,-3888 -50,-279 -82,-561 -98,-843 18,20 36,40 53,60 -3,-210 -4,-420 -5,-630 20,28 40,56 60,84 -4,-338 -9,-676 -13,-1013 496,-202 905,-573 1245,-992 431,-533 793,-1122 1336,-1553 533,-422 1193,-699 1867,-793 1467,-205 2957,529 3731,1784 55,90 135,132 217,138 365,414 774,789 1221,1115 2686,1951 6621,1808 9239,-194 1310,-1002 2155,-2409 2622,-3979 354,-1190 452,-2451 248,-3671 606,33 1213,51 1817,77 901,38 1802,77 2702,116 745,32 1623,130 2265,-337 211,-155 387,-371 492,-615 16,-2 32,-3 49,-5 0,-43 -1,-86 -1,-128 13,-41 23,-83 32,-124 37,-189 39,-417 -33,-602 -2,-1094 -6,-2188 -11,-3282 -2,-274 -2,-549 -3,-822 -1,-2 -2,-3 -3,-4 0,-21 0,-41 1,-62 8,-416 -22,-830 -80,-1241 -114,-816 -364,-1609 -728,-2347 -703,-1422 -1883,-2593 -3292,-3318 -580,-298 -1228,-564 -1886,-667 -31,-32 -60,-65 -92,-97 -930,1 -1860,21 -2789,14 -1404,-10 -2807,-20 -4211,-30 -2837,-20 -5673,-24 -8510,-15 -103,0 -205,0 -307,1 -302,-56 -608,-35 -920,1 -415,47 -827,135 -1229,253 -778,227 -1527,574 -2199,1025 -1379,926 -2414,2278 -2985,3834 -145,397 -257,807 -335,1222 -26,22 -52,43 -78,65 0,130 -1,258 -1,388 -34,219 -60,446 -48,666 -23,35 -45,70 -68,106l0 148c6,1538 5,3076 3,4614 0,345 0,690 -1,1034 -389,11 -780,65 -1163,113 -546,67 -1090,148 -1633,239 -4305,727 -8522,2132 -12931,2047 -1119,-22 -2241,-137 -3334,-383 -551,-124 -1095,-281 -1626,-477 -538,-198 -1054,-446 -1580,-674 -161,-69 -282,131 -138,236 738,535 1633,877 2498,1146 895,278 1817,458 2749,558 1882,203 3780,91 5649,-178 2082,-300 4130,-786 6187,-1220 1029,-217 2060,-421 3099,-584 518,-82 1038,-151 1559,-206 218,-23 441,-46 664,-55 0,151 0,301 0,451 -112,679 67,1393 724,1748 397,215 874,196 1229,-93 300,-245 465,-643 461,-1027 -10,-921 -873,-1455 -1694,-1599 -31,-21 -67,-37 -106,-45 -19,-1579 -41,-3159 -73,-4738 -1,-109 -2,-217 -3,-326 -1,-163 -3,-326 -4,-490 107,-344 92,-720 147,-1075 59,-390 150,-774 269,-1150 232,-730 578,-1420 1019,-2046 888,-1259 2196,-2198 3658,-2677 403,-132 818,-231 1237,-295 291,-44 584,-64 873,-112 1398,27 2796,60 4194,79 2837,38 5674,63 8511,90 1131,11 2266,56 3399,70 444,128 882,266 1304,468 654,312 1262,719 1794,1212 1110,1030 1841,2401 2111,3888 50,279 82,561 97,843 -17,-20 -35,-40 -52,-60 2,210 3,420 5,630 -20,-27 -41,-55 -61,-83 23,1720 46,3441 69,5162 -57,73 -124,138 -199,190 -524,361 -1269,261 -1867,239 -1480,-55 -2961,-124 -4442,-159 -81,-2 -163,-2 -246,-2 -52,-222 -114,-442 -188,-659 -1047,-3112 -4207,-5233 -7466,-5206 -407,3 -814,70 -1210,162 -73,17 -122,63 -150,120 -1156,218 -2243,707 -3193,1436 -1294,993 -2301,2365 -2769,3935 -452,1519 -371,3149 135,4638 29,-23 58,-45 87,-67 9,34 19,68 28,102 59,208 310,208 424,55 447,-596 444,-1392 423,-2103 -20,-674 -10,-1328 154,-1988 312,-1254 1024,-2391 1982,-3253 954,-860 2174,-1436 3462,-1541 1274,-103 2564,220 3667,857 1205,696 2319,1838 2743,3190 25,80 75,128 131,149 20,61 48,120 83,175 194,305 573,385 909,415 101,9 203,17 304,25 164,801 190,1631 98,2453 -83,751 -268,1525 -603,2205 -332,672 -789,1313 -1302,1858 -2112,2244 -5743,2841 -8498,1488 -948,-465 -1758,-1150 -2396,-1972 -24,-33 -48,-65 -73,-97 -21,-28 -43,-57 -65,-86 0,0 -1,1 -2,1 -646,-790 -1564,-1358 -2570,-1552 -1242,-239 -2548,88 -3544,863 -500,389 -862,893 -1240,1394 -280,371 -594,747 -1000,975 -7,-477 -13,-954 -20,-1431 13,-54 22,-109 28,-165 -69,-295 -176,-576 -353,-829 -149,-211 -341,-386 -548,-541 -289,-99 -611,-114 -908,-37 -648,168 -1123,776 -1223,1425 -104,668 152,1355 644,1815 457,428 1069,615 1681,572 1,223 1,446 2,668 1,1 3,3 4,4 -1,21 -1,41 -1,62 -9,416 21,829 79,1241 114,816 364,1608 729,2346 702,1423 1882,2594 3291,3318 580,298 1228,564 1886,668 31,32 61,65 92,96 930,0 1861,-20 2789,-13 1404,10 2807,20 4211,30 2837,20 5673,24 8510,15 103,0 205,-1 307,-1 302,56 608,34 920,-1 415,-47 828,-135 1229,-253 778,-227 1526,-574 2200,-1026 1379,-925 2414,-2277 2984,-3834 145,-397 258,-806 336,-1221 25,-22 51,-43 77,-65 0,-130 1,-259 1,-388 35,-219 60,-447 49,-666 22,-35 45,-71 67,-106l0 -148c-2,-661 -3,-1322 -4,-1982 222,-30 434,-75 627,-132 1310,-390 2358,-1304 3304,-2251 940,-941 1845,-1892 3005,-2565 1045,-606 2197,-1000 3382,-1219 2425,-446 4949,-143 7273,638 2453,825 4725,2178 6613,3949 233,219 469,433 709,646 240,214 547,-105 347,-349zm-31807 -12426c634,182 1259,-200 1504,-789 255,-613 -5,-1329 -597,-1637 -641,-334 -1340,-72 -1661,516 -112,170 -187,362 -212,548 -81,624 379,1194 966,1362zm-448 -1744c316,-349 892,-432 1263,-111 416,359 368,989 -74,1312 -442,323 -1068,95 -1283,-391 -118,-267 -67,-571 94,-810zm-22205 9326c18,0 36,0 53,0 -1,-66 -2,-133 -3,-199 24,-83 51,-166 79,-247 38,8 77,15 116,25 399,98 813,340 973,738 123,306 36,726 -258,905 -360,220 -778,-113 -920,-444 -105,-250 -96,-516 -40,-778zm20851 -1436c-170,-26 -406,-119 -513,-271 20,-53 21,-117 -10,-189 -10,-25 -22,-50 -33,-76 6,-19 14,-39 25,-59 44,-91 -45,-195 -128,-171 -233,-504 -507,-976 -857,-1415 -421,-529 -926,-987 -1482,-1370 -1103,-759 -2435,-1211 -3777,-1218 -2723,-14 -5184,1883 -6154,4378 -278,713 -417,1472 -423,2237 -5,671 27,1367 -193,1998 -248,-907 -330,-1860 -217,-2797 365,-3057 2932,-5539 5884,-6189 93,-20 185,-38 278,-54 1409,-99 2822,119 4102,738 1349,653 2526,1689 3266,2999 268,475 469,976 611,1492 -128,-5 -255,-15 -379,-33zm-21399 7182c-1,48 -11,91 -28,128 4,2 8,4 11,6 1,304 2,609 3,913 -463,44 -938,-87 -1280,-418 -403,-389 -587,-969 -402,-1508 161,-469 598,-785 1071,-750 1,5 2,12 4,17 36,133 155,205 247,298 97,99 179,204 237,331 48,108 93,240 106,358 15,136 -13,256 42,385 -6,81 -10,160 -11,240zm29240 -287c-22,-1 -42,-1 -62,-2 1,59 2,119 2,179 -504,-4 -1043,-123 -1412,-481 -322,-314 -473,-917 -119,-1270 310,-310 801,-159 1105,80 460,363 519,948 486,1494z"/>
 </g>
</svg>
