<?xml version="1.0" encoding="UTF-8"?>
<!DOCTYPE svg PUBLIC "-//W3C//DTD SVG 1.1//EN" "http://www.w3.org/Graphics/SVG/1.1/DTD/svg11.dtd">
<!-- Creator: CorelDRAW X7 -->
<svg xmlns="http://www.w3.org/2000/svg" xml:space="preserve" width="378px" height="378px" version="1.1" style="shape-rendering:geometricPrecision; text-rendering:geometricPrecision; image-rendering:optimizeQuality; fill-rule:evenodd; clip-rule:evenodd"
viewBox="0 0 73730 73730"
 xmlns:xlink="http://www.w3.org/1999/xlink">
 <defs>
  <style type="text/css">
   <![CDATA[
    .fil0 {fill:none}
    .fil1 {fill:black}
   ]]>
  </style>
 </defs>
 <g id="Слой_x0020_1">
  <metadata id="CorelCorpID_0Corel-Layer"/>
  <rect class="fil0" width="73730" height="73730"/>
  <path id="mountains.svg" class="fil1" d="M11962 47803c-86,0 -139,-24 -180,-99 -65,-123 29,-214 114,-293l29 -28c299,-289 2035,-852 3099,-1011 582,-83 1298,-134 1994,-186 74,-67 152,-135 229,-202 479,-424 1024,-907 1544,-1204 994,-570 2694,-1311 3811,-1573 512,-119 1150,-245 1768,-368 766,-151 1491,-297 1880,-408 745,-214 1785,-817 2140,-1379 427,-674 1155,-959 2264,-1220 1020,-242 2878,-828 3390,-1490 344,-452 733,-951 807,-1169 -90,40 -213,92 -377,123 -463,95 -1187,16 -1691,-380 -217,-171 -393,-392 -552,-582 -168,-206 -344,-420 -471,-444 -258,-48 -1134,325 -1359,578 -127,143 -381,499 -655,876 -254,356 -520,721 -717,967 -507,633 -683,776 -864,701 -110,-48 -151,-159 -122,-329 20,-107 57,-242 98,-384 90,-309 213,-737 106,-943 -36,-76 -86,-95 -118,-107 -226,-68 -700,158 -1036,336l-323 171c-721,384 -1712,915 -2522,1062 -913,166 -1098,102 -1134,-72l-33 -150 151 -44c13,-4 1225,-352 2416,-1006 1195,-658 2018,-1312 2321,-1838 66,-115 115,-215 155,-301 172,-357 287,-535 864,-397 242,60 438,147 598,214 250,111 336,135 385,91 127,-110 565,-606 917,-1006 278,-313 516,-586 602,-666 110,-106 257,-154 413,-134 201,23 401,158 516,352 57,96 123,246 204,436 144,329 336,777 545,1038 295,376 1228,983 2018,1082 778,95 938,27 1339,-345 401,-368 1421,-1232 2227,-1252 238,-8 557,-4 901,0 642,8 1445,20 1670,-55 504,-163 753,-436 810,-883 25,-183 33,-381 41,-575 25,-535 46,-1042 361,-1292 254,-202 946,-332 1543,-408 -372,-75 -729,-190 -970,-376 -438,-333 -454,-353 -680,-650l-135 -178c-348,-456 -397,-503 -1011,-1014 -221,-182 -545,-381 -888,-587 -602,-360 -1228,-736 -1474,-1157 -352,-601 -1007,-1259 -1187,-1342 -21,-8 -37,-16 -49,-20 -9,39 -21,126 -9,305 13,253 62,634 127,1014 74,67 148,139 221,202 221,202 447,412 615,606 425,495 781,1291 781,1438l0 115 -118 48c-254,95 -1306,-840 -1392,-931 -184,-207 -332,-769 -426,-1316 -262,-249 -459,-475 -520,-673 -4,-16 -8,-32 -12,-47 -127,130 -299,281 -545,447 -315,214 -520,388 -741,571 -172,146 -352,293 -585,467 -585,432 -1142,646 -1470,705 -90,16 -258,48 -290,83 4,0 16,76 180,258 327,360 684,681 1093,978 143,104 385,139 688,183 139,20 286,43 446,71 581,111 1875,974 2387,1410 53,48 118,99 196,155 1114,412 2137,1077 2395,1268 200,146 368,273 287,436 -82,162 -287,106 -525,43 -376,-99 -1678,-959 -2329,-1454 -221,-79 -450,-151 -671,-202 -267,-63 -500,-115 -705,-163 -793,-178 -1232,-277 -1907,-609 -430,-214 -954,-511 -1417,-777 -397,-226 -773,-440 -892,-484 -262,-99 -733,36 -1396,401 -172,95 -373,198 -585,313 -713,376 -1785,947 -1961,1176 -46,56 -95,127 -148,206 -270,389 -679,971 -1424,1395 -205,115 -471,261 -762,420 -884,487 -2100,1152 -2489,1481 -524,444 -802,801 -983,1629 -77,361 -135,717 -184,1030 -73,463 -131,828 -229,1030 -213,440 -548,356 -790,297 -90,-24 -254,-36 -430,-44 -53,202 -151,412 -368,583 -279,222 -696,166 -1065,122 -65,-7 -135,-15 -196,-23 -258,202 -561,432 -901,665 -848,587 -1932,1197 -2759,1554 -929,400 -1126,403 -1240,265 -50,-59 -82,-166 36,-317 225,-289 1707,-1410 2436,-1842 676,-401 1404,-535 1842,-619 74,-15 144,-27 201,-39 82,-16 176,-20 274,-16 94,-75 185,-146 267,-214 237,-190 396,-317 491,-368 118,-63 397,-87 691,-91 5,-24 5,-52 9,-76 4,-55 12,-107 16,-158 8,-63 12,-119 21,-174 24,-226 44,-460 225,-880 204,-487 831,-1379 1080,-1537 29,-20 54,-48 78,-83 -569,162 -1911,-40 -2812,-353 -971,-341 -1757,-662 -2325,-1454 -627,-875 -840,-1018 -913,-1022l-13 36c-159,186 -311,364 -340,1034 254,376 803,725 1343,1065 119,76 238,151 352,226 983,642 1339,1284 1466,1712 70,237 221,515 364,781 103,194 201,371 267,534 61,151 138,341 -13,440 -147,99 -283,-20 -500,-214 -307,-273 -544,-575 -794,-1014 -188,-333 -945,-975 -2018,-1712 -720,-495 -835,-848 -814,-1723 -82,-143 -131,-293 -140,-452 -110,91 -217,210 -327,329 -320,349 -684,745 -1347,812 -623,64 -1081,258 -1466,626 29,-4 58,-4 86,-4 86,12 205,64 278,254 54,131 50,238 50,305 0,20 0,43 0,51 0,-8 41,20 266,68 159,31 1560,332 1601,661 8,68 -21,159 -123,206 -189,92 -459,12 -770,-83 -172,-51 -352,-107 -516,-127 -340,-47 -483,91 -982,614 -127,135 -238,286 -344,429 -311,427 -639,867 -1310,800 -717,-76 -1019,221 -1368,653 -94,115 -208,290 -348,496 -417,625 -990,1477 -1686,1877 -315,182 -528,317 -696,424 -307,198 -479,305 -802,392 -185,48 -299,87 -373,115 25,12 45,20 70,32 262,115 659,285 1019,685 155,175 278,353 393,527 86,127 168,250 254,353 118,28 241,48 360,67 172,32 340,60 496,103 470,131 724,495 753,658l20 103 -176 150 -111 -47c-61,-28 -343,-143 -974,-361 -233,-83 -413,-218 -561,-376 -266,-71 -532,-174 -765,-372 -74,-64 -156,-131 -238,-206 -405,-357 -1019,-900 -1375,-801 -332,92 -1138,642 -2153,1482 -82,67 -164,151 -255,242 -384,388 -908,923 -1989,942l-4 -336c938,-16 1384,-471 1744,-836 98,-99 193,-194 282,-270 631,-515 1761,-1406 2285,-1549 544,-146 1187,420 1707,876 82,71 160,143 233,202 49,39 98,75 152,111 -103,-151 -205,-305 -336,-444 -311,-345 -651,-491 -900,-598 -91,-40 -164,-71 -222,-103 -155,-91 -163,-202 -155,-261 25,-171 213,-278 729,-412 270,-72 409,-159 704,-349 172,-107 389,-250 712,-432 626,-360 1175,-1177 1572,-1775 139,-210 262,-392 364,-519 377,-463 786,-872 1679,-780 450,48 667,-218 991,-658 110,-151 225,-309 364,-456 385,-404 630,-661 970,-724 -417,-88 -536,-187 -532,-448 0,-60 0,-111 -29,-186 -4,-8 -4,-12 -8,-16 -57,43 -164,158 -360,443 -172,246 -676,721 -1122,1138 -221,273 -422,483 -577,582 -152,99 -238,51 -287,-8 -110,-135 -110,-135 516,-717 25,-24 49,-48 78,-71 381,-468 823,-1106 1081,-1482 507,-737 1146,-1106 2071,-1201 532,-51 831,-380 1126,-701 115,-127 237,-257 364,-364 189,-159 287,-341 324,-412l69 -131 160 20 110 40c41,-56 82,-104 119,-147l37 -44c66,-75 147,-126 258,-114 262,11 573,317 1183,1168 512,713 1216,998 2157,1327 1016,357 2301,479 2641,333 61,-28 102,-47 131,-67l41 -87 70 -99 245 59 21 139c0,8 0,12 0,19 12,48 12,107 0,175 -29,158 -140,440 -340,566 -143,95 -741,892 -950,1387 -160,372 -176,562 -201,785 -3,59 -12,122 -20,185 -8,48 -12,96 -16,147 0,16 -5,32 -5,47 201,9 377,28 463,48 254,64 307,68 393,-111 78,-158 135,-519 201,-939 49,-317 106,-677 188,-1050 197,-907 536,-1334 1093,-1810 418,-353 1597,-1003 2547,-1521 286,-159 552,-301 757,-420 679,-385 1060,-931 1314,-1292 57,-83 110,-158 155,-218 209,-269 991,-697 2076,-1272 213,-110 409,-217 581,-308 778,-425 1319,-559 1691,-420 139,51 451,225 946,511 458,261 978,558 1400,764 634,317 1031,404 1826,583 172,39 360,79 573,130 -598,-423 -1392,-899 -1748,-970 -152,-32 -299,-52 -430,-72 -340,-47 -631,-90 -843,-245 -430,-313 -803,-646 -1147,-1026 -151,-167 -315,-388 -241,-594 74,-210 327,-254 552,-298 287,-51 787,-249 1323,-641 229,-167 401,-313 569,-456 217,-182 442,-369 770,-594 446,-305 618,-539 744,-713 29,-40 58,-80 87,-115 40,-52 135,-167 266,-91l28 15c13,-154 58,-265 156,-332 147,-95 323,-20 393,8 282,123 987,863 1347,1481 200,345 815,713 1355,1038 356,214 692,416 933,618 631,523 700,594 1061,1070l135 182c200,270 200,270 614,587 421,324 1424,404 1903,443l139 12c176,16 389,36 381,222 -8,146 -110,218 -692,218 -503,0 -2010,182 -2300,412 -197,155 -213,610 -234,1046 -8,202 -16,412 -41,602 -73,578 -417,959 -1048,1161 -262,83 -909,83 -1785,71 -335,-4 -650,-8 -884,0 -708,20 -1707,891 -1998,1161 -478,439 -733,543 -1621,436 -847,-107 -1867,-721 -2251,-1213 -238,-301 -430,-752 -590,-1113 -74,-174 -139,-321 -184,-396 -61,-99 -164,-174 -258,-186 -49,-8 -90,8 -123,39 -73,72 -323,353 -581,646 -393,448 -803,911 -946,1034 -229,202 -487,87 -761,-32 -156,-67 -328,-142 -537,-193 -323,-80 -323,-80 -462,209 -45,91 -95,198 -168,321 -332,579 -1204,1280 -2456,1965 -222,123 -446,234 -659,337 503,-214 1015,-487 1432,-709l324 -174c650,-341 1031,-444 1306,-361 143,43 253,139 327,277 168,325 29,801 -82,1185 -8,23 -16,47 -20,75 74,-83 172,-202 299,-356 188,-238 450,-603 704,-955 274,-385 536,-749 675,-903 291,-325 1278,-761 1687,-690 258,48 454,290 680,567 151,190 311,384 499,531 442,348 1077,380 1396,312 139,-27 237,-71 319,-106 111,-48 213,-92 324,-44 106,47 139,154 151,186 86,278 -188,650 -872,1541 -700,911 -3291,1549 -3586,1616 -1024,242 -1687,496 -2051,1070 -454,717 -1662,1335 -2342,1526 -405,114 -1133,261 -1907,411 -614,123 -1253,250 -1757,365 -1084,254 -2742,979 -3713,1537 -454,261 -945,686 -1387,1078 458,-36 880,-72 1232,-119 696,-99 1171,-416 1772,-824 238,-159 492,-329 782,-503 1056,-634 3066,-1300 4049,-1514 684,-150 2763,-610 3795,-1054 708,-305 1695,-998 2350,-1457 242,-171 438,-305 544,-373 230,-143 414,-218 553,-119 147,99 107,286 90,377 -16,79 -102,218 -237,388 393,-150 765,-555 1158,-983 164,-177 328,-356 500,-523 667,-645 1392,-1228 2034,-1635 307,-195 602,-460 913,-741 356,-321 757,-686 1261,-1015 696,-459 1687,-475 2481,-491 324,-4 631,-12 868,-48 655,-98 680,-233 769,-748l50 -274c90,-530 180,-1034 503,-1501 287,-412 1060,-570 1879,-737 291,-59 586,-119 860,-190 655,-170 1044,-681 1421,-1173 163,-213 319,-416 491,-586 561,-543 872,-844 1686,-1141 303,-111 565,-262 819,-408 377,-218 733,-420 1130,-420 197,0 361,71 499,186 328,-396 1261,-951 2080,-1391 176,-94 319,-71 405,-35 295,123 406,563 533,1069 41,163 82,329 131,484 192,606 1031,1573 1588,2214l180 210c213,250 610,622 1065,1058 708,674 1588,1510 2182,2250 974,1217 2108,3233 2472,4018 336,725 1363,2004 2145,2876 479,539 582,729 467,883 -119,163 -356,72 -581,-16 -291,-110 -1196,-594 -2072,-1061 -438,-234 -855,-456 -1158,-610 -877,-448 -3058,-1724 -4147,-2639 -123,-103 -242,-214 -361,-333 267,943 926,1605 1621,2306l74 75c450,452 1065,995 1433,1304 156,95 266,174 319,229 140,147 78,242 29,286 -45,43 -135,23 -258,-44l-8 4c-4,-8 -12,-12 -20,-20 -86,-47 -185,-114 -295,-198 -725,-435 -2452,-1287 -3455,-1755 -123,-59 -307,-146 -533,-253 -1236,-598 -3807,-1846 -5268,-2187 -131,-32 -266,-48 -402,-48 -642,880 -1760,2242 -2472,2572 -418,194 -1491,594 -2567,950 -1101,872 -2534,1019 -3709,1141 -246,24 -483,52 -704,79 -434,60 -581,76 -614,-103 -37,-198 -37,-198 2006,-649 368,-83 732,-163 1023,-230 496,-115 1163,-313 1830,-535 115,-95 229,-202 336,-317 1384,-1485 3115,-3118 4687,-3236 13,-16 21,-32 33,-48 635,-891 1633,-2076 2047,-2500l78 -79c-176,127 -393,273 -651,420 -238,134 -553,333 -893,543 -761,471 -1621,1006 -2067,1160 -721,254 -3238,393 -3263,393 -454,23 -700,134 -1461,649 -753,511 -1904,1355 -2412,1763 -528,428 -2255,1355 -2992,1712 -688,333 -1294,784 -1998,1307l-90 67c-700,523 -3893,2599 -4905,3074 -867,409 -3057,651 -4232,777 -201,20 -369,40 -500,56 -184,24 -348,51 -487,83 123,20 262,47 422,79 458,87 1027,190 1641,269 1155,143 2628,-352 3705,-717l360 -119c725,-237 2277,-946 3521,-1517 708,-325 1318,-602 1601,-713 143,-55 438,-174 540,32 193,384 -1224,1161 -1236,1169 -213,114 -434,233 -655,348 -500,265 -1052,555 -1335,757 287,-12 790,-79 1253,-139 200,-27 414,-55 630,-79 1401,-174 2813,-745 3533,-1200 1028,-654 5330,-1292 5822,-1363 2968,-432 3009,-305 3054,-159 12,36 32,159 -135,234 -348,155 -1486,634 -2104,824 -267,83 -918,400 -1605,737 -880,432 -1880,919 -2481,1117 -234,75 -495,167 -762,258 242,-60 443,-115 590,-166 806,-278 3737,-880 4966,-1047 1154,-154 3172,-986 4335,-1977 250,-213 438,-404 586,-574 -21,-44 -37,-91 -50,-139 -94,-459 54,-1002 315,-1161 115,-71 246,-67 352,12 111,80 173,215 181,377 8,174 -45,479 -360,911 352,262 1256,388 2243,289 978,-95 1445,337 1986,840 192,178 392,365 634,547 377,281 835,654 1236,982 189,155 389,317 561,452 -147,-452 -311,-1062 -344,-1327 -12,-107 29,-198 111,-250 229,-150 716,28 2088,753 1522,804 2288,1121 2522,1161 61,-289 -107,-1518 -590,-2199 -176,-250 -541,-523 -913,-749 -495,-75 -884,-190 -1089,-364 -106,-91 -221,-202 -180,-333l29 -103 135 -32c167,-28 695,198 1219,512 905,130 2158,138 2821,142 299,0 524,4 631,12 626,52 1441,1038 1780,1549 303,455 1286,800 2240,1133l426 150c1142,409 3361,1676 3451,1732l-176 289c-25,-12 -2285,-1307 -3398,-1708l-422 -150c-1052,-369 -2047,-717 -2411,-1268 -430,-646 -1134,-1367 -1519,-1399 -102,-7 -315,-7 -602,-11 -753,-4 -1535,-20 -2219,-76 201,159 377,321 483,476 492,693 741,2013 639,2472 -24,111 -69,182 -143,226 -119,71 -320,186 -2882,-1169 -348,-182 -1343,-709 -1674,-761 69,416 368,1415 478,1625l66 122 -107 116c-147,114 -208,63 -1236,-773 -401,-329 -856,-697 -1224,-975 -258,-194 -471,-392 -663,-570 -516,-479 -893,-828 -1707,-745 -950,95 -1998,8 -2489,-361 -152,175 -344,361 -582,567 -1248,1062 -3316,1898 -4515,2060 -1200,162 -4131,761 -4896,1030 -668,230 -1978,460 -2702,574 -144,24 -221,-43 -242,-118 -45,-175 -53,-210 2886,-1181 577,-190 1564,-673 2436,-1097 733,-357 1363,-666 1654,-757 348,-107 868,-313 1314,-495 -466,47 -1129,127 -1969,245 -2255,329 -4998,880 -5682,1312 -921,582 -2436,1101 -3680,1252 -217,27 -426,55 -627,79 -1277,166 -1650,206 -1768,0 -25,-40 -66,-147 41,-270 192,-233 847,-578 1600,-978 217,-115 438,-230 651,-345 303,-166 565,-345 757,-495 -319,139 -802,361 -1346,606 -1253,575 -2813,1288 -3558,1534l-356 118c-1109,373 -2632,888 -3864,733 -627,-79 -1204,-186 -1667,-269 -446,-83 -868,-163 -982,-139 -49,8 -168,32 -246,-55l-65 -76 36 -99c87,-210 852,-392 1347,-451 131,-16 303,-36 504,-56 1154,-126 3304,-360 4122,-745 999,-467 4152,-2519 4847,-3038l91 -68c687,-511 1334,-994 2055,-1342 753,-365 2439,-1276 2927,-1673 516,-415 1674,-1263 2436,-1782 769,-527 1080,-682 1641,-713 692,-36 2604,-175 3165,-373 405,-142 1289,-689 1997,-1129 344,-214 664,-412 905,-550 319,-183 582,-373 770,-511 274,-199 413,-302 557,-270 61,12 114,48 151,103 143,230 -4,377 -324,706l-147 150c-381,396 -1289,1466 -1912,2325 82,8 168,24 250,44 1502,353 4098,1608 5343,2215 220,107 401,194 524,253 20,8 1166,547 2206,1078 -118,-115 -237,-234 -352,-349l-74 -75c-704,-705 -1432,-1438 -1715,-2480 -57,-206 -110,-424 -164,-642 -704,-896 -1220,-1906 -1301,-2163 -74,-230 -132,-412 24,-507 160,-99 331,23 679,333 480,419 705,1315 918,2190 241,302 499,583 769,809 1069,895 3222,2155 4082,2595 307,158 724,380 1163,614 826,439 1764,938 2030,1042 0,0 0,0 4,0 -61,-80 -152,-191 -282,-333 -287,-321 -1744,-1981 -2199,-2960 -356,-772 -1473,-2753 -2431,-3950 -578,-721 -1450,-1549 -2150,-2214 -462,-440 -864,-816 -1089,-1082l-180 -210c-610,-701 -1441,-1660 -1654,-2333 -49,-159 -94,-333 -139,-503 -82,-329 -196,-781 -331,-840 -21,-12 -54,0 -95,20 -888,479 -1936,1153 -2026,1351 69,102 127,218 172,332 33,60 65,119 102,179 266,463 422,760 406,954 -25,258 -99,944 -1356,1371 -773,262 -1101,460 -1293,579 -94,55 -168,99 -250,130l-139 52 -95 -123c-81,-147 -81,-147 631,-670 426,-312 1003,-736 1253,-978 123,-119 225,-210 311,-281 233,-203 270,-234 258,-472 -8,-166 -58,-396 -144,-606 -57,-103 -102,-190 -135,-265 -114,-175 -261,-297 -434,-297 -303,0 -601,174 -949,372 -254,147 -541,313 -872,432 -745,273 -1019,539 -1564,1066 -156,150 -303,340 -459,546 -393,515 -835,1094 -1609,1296 -282,75 -585,134 -880,194 -716,146 -1457,297 -1662,594 -282,412 -360,856 -450,1371l-49 273c-102,587 -197,899 -1060,1026 -258,40 -578,44 -914,52 -789,16 -1682,31 -2292,432 -479,317 -855,657 -1220,982 -323,293 -626,567 -962,777 -626,396 -1330,963 -1981,1592 -164,159 -324,333 -483,507 -455,496 -884,963 -1409,1110 -163,47 -303,94 -434,146 -348,381 -769,777 -1093,1015 -737,542 -2092,1338 -3250,1822 -745,309 -917,341 -1011,178 -103,-170 53,-305 565,-670 569,-407 2587,-1568 3381,-1996 143,-80 274,-147 389,-214 311,-170 549,-301 815,-412 254,-278 446,-523 511,-634 -28,16 -61,32 -98,55 -106,64 -294,199 -528,361 -663,467 -1670,1172 -2411,1490 -1061,459 -3165,923 -3861,1073 -962,210 -2919,856 -3942,1474 -287,170 -536,341 -766,495 -638,428 -1141,769 -1920,880 -470,67 -1068,111 -1698,154 -271,234 -488,404 -651,468 -455,174 -2551,566 -3574,685 -340,40 -573,79 -725,103 -160,20 -242,32 -303,32zm4602 -1244c-533,39 -1057,87 -1491,150 -765,111 -1748,412 -2357,650 53,-8 114,-16 176,-20 1072,-126 3094,-511 3487,-665 50,-20 111,-60 185,-115zm14496 -4592c-70,40 -144,79 -221,119 -725,388 -2473,1390 -3181,1862 1118,-472 2407,-1236 3119,-1755 90,-68 189,-143 283,-226zm-12167 -1458c-418,79 -1040,218 -1601,551 -606,360 -1592,1097 -2075,1509 127,-47 295,-115 516,-210 806,-348 1866,-943 2698,-1517 167,-115 319,-226 462,-333zm33794 777c-69,75 -176,328 -159,626 167,-282 184,-460 180,-531 0,-44 -8,-75 -21,-95zm-32779 -1134c262,32 532,48 672,-63 118,-95 184,-206 225,-325 -213,4 -401,20 -454,48 -66,36 -238,174 -439,333 0,4 0,7 -4,7zm29623 -2927c-1314,265 -2780,1632 -4000,2924 811,-282 1528,-559 1843,-702 548,-257 1494,-1346 2157,-2222zm-33626 -1941c32,491 192,693 659,1014 663,456 1826,1299 2124,1822 189,333 352,551 504,714 -25,-44 -49,-92 -74,-139 -151,-282 -311,-575 -389,-844 -110,-372 -430,-939 -1326,-1521 -115,-76 -229,-147 -348,-222 -418,-262 -839,-531 -1150,-824zm39407 -563c94,226 348,713 696,1248 -148,-499 -328,-931 -586,-1153 -41,-35 -78,-67 -110,-95zm-2952 -4603c-49,186 -172,289 -348,443 -82,68 -180,155 -295,270 -143,138 -372,321 -622,515 53,-20 107,-36 164,-56 1048,-356 1101,-867 1125,-1085 -8,-24 -12,-52 -24,-87zm-14431 -1942c78,325 164,587 250,682 155,174 475,420 733,602 -127,-253 -311,-579 -533,-832 -122,-143 -282,-297 -450,-452zm-589 -1557c-37,96 -74,242 -33,381 12,44 45,99 90,158 -33,-230 -49,-424 -57,-539z"/>
 </g>
</svg>
