<?xml version="1.0" encoding="UTF-8"?>
<!DOCTYPE svg PUBLIC "-//W3C//DTD SVG 1.1//EN" "http://www.w3.org/Graphics/SVG/1.1/DTD/svg11.dtd">
<!-- Creator: CorelDRAW X7 -->
<svg xmlns="http://www.w3.org/2000/svg" xml:space="preserve" width="378px" height="378px" version="1.1" style="shape-rendering:geometricPrecision; text-rendering:geometricPrecision; image-rendering:optimizeQuality; fill-rule:evenodd; clip-rule:evenodd"
viewBox="0 0 120889 120889"
 xmlns:xlink="http://www.w3.org/1999/xlink">
 <defs>
  <style type="text/css">
   <![CDATA[
    .fil0 {fill:none}
    .fil1 {fill:black}
   ]]>
  </style>
 </defs>
 <g id="Слой_x0020_1">
  <metadata id="CorelCorpID_0Corel-Layer"/>
  <rect class="fil0" width="120889" height="120889"/>
  <path class="fil1" d="M28252 120889l32193 -12896 32192 12896 -32192 -87389 -32193 87389zm32085 -98050c-1953,0 -3602,-339 -4947,-1001 -1344,-662 -2510,-1520 -3460,-2576l3173 -3201c1506,1681 3352,2504 5556,2504 1183,0 2062,-233 2635,-715 574,-483 861,-1127 861,-1915 0,-607 -180,-1108 -502,-1520 -341,-411 -1022,-679 -2061,-823l-2187 -286c-2348,-304 -4069,-1001 -5163,-2128 -1093,-1127 -1631,-2611 -1631,-4471 0,-1002 197,-1896 574,-2718 376,-823 932,-1539 1631,-2130 699,-590 1577,-1055 2599,-1376 1022,-322 2187,-483 3496,-483 1667,0 3137,268 4409,787 1273,536 2366,1305 3262,2307l-3208 3238c-538,-609 -1165,-1110 -1918,-1485 -753,-393 -1703,-572 -2832,-572 -1076,0 -1882,196 -2420,572 -538,375 -789,894 -789,1573 0,752 215,1288 610,1628 412,340 1075,572 2007,715l2188 358c2275,358 3978,1056 5072,2111 1093,1037 1649,2522 1649,4453 0,1055 -197,2022 -574,2916 -376,894 -932,1645 -1667,2289 -734,626 -1631,1127 -2706,1466 -1058,305 -2294,483 -3657,483zm-2080 29226l0 51993 -22549 8961 22549 -60954zm4374 51993l0 -51993 22549 61168 -22549 -9175z"/>
 </g>
</svg>
