<svg width="274" height="103" viewBox="0 0 274 103" fill="none" xmlns="http://www.w3.org/2000/svg">
<path d="M273.501 102.563C260.166 101.938 246.818 101.567 233.468 101.457C220.119 101.347 133.889 101.496 120.545 101.905C113.008 102.136 105.473 102.451 97.9424 102.845C97.3987 102.874 97.2783 102.144 97.6809 101.878C101.788 99.1619 105.841 96.3625 109.833 93.4801C113.278 90.9919 117.005 88.5411 119.665 85.1711C120.226 84.4614 120.726 83.7039 121.149 82.905C121.593 82.0666 122.365 80.7136 122.058 79.732C121.431 77.7357 117.767 80.1844 116.856 80.7281C115.092 81.7802 113.39 82.9485 111.526 83.8222C109.891 84.59 107.741 85.4346 105.907 85.0133C104.232 84.6274 103.442 82.8925 102.609 81.5665C101.698 80.1159 100.796 78.6592 99.7872 77.275C98.0109 74.8367 95.4335 71.7468 92.08 72.8507C87.635 74.3137 83.2211 75.8929 78.6931 77.0903C76.6615 77.6278 74.1754 77.7482 73.1026 79.8275C72.0214 81.9234 71.43 84.4219 70.9278 86.7129C70.5708 88.3461 70.3716 89.9294 70.3695 91.6C70.3695 92.2661 70.3799 92.9405 70.4692 93.6004C70.5563 94.2562 70.6601 94.5737 71.2515 94.8974C72.7498 95.7171 74.5344 96.1384 76.1759 96.57C78.0913 97.0743 80.0419 97.4623 82.0154 97.6512C85.4893 97.9853 89.0212 97.7134 92.3145 96.5077C95.8423 95.2149 98.8617 92.872 101.29 90.0332C101.989 89.2156 102.811 88.2548 102.564 87.0968C102.356 86.1215 101.532 85.3641 100.841 84.7041C99.5776 83.4964 98.4363 82.2803 97.656 80.697C96.0374 77.4141 95.915 73.604 96.33 70.0306C96.7616 66.3181 97.7017 62.6264 98.9239 59.0986C100.086 55.7451 101.63 52.4559 103.967 49.754C106.299 47.0563 109.653 44.84 113.317 44.7425C115.029 44.6968 116.7 45.1907 118.016 46.3072C119.149 47.2701 119.941 48.5836 120.676 49.8578C121.406 51.1278 122.083 52.4995 123.125 53.5516C124.065 54.502 125.8 55.3176 127.047 54.4315C128.263 53.5661 128.495 51.5055 128.574 50.138C128.678 48.3408 128.269 46.5043 127.808 44.7799C126.937 41.5094 125.397 38.4672 124.104 35.3503C123.027 32.7542 122.025 30.0918 120.587 27.67C119.088 25.1466 117.468 22.5858 115.548 20.3592C115.195 19.9483 114.82 19.5768 114.399 19.2344C114.15 19.0331 113.803 18.6907 113.458 18.6596C113.093 18.6285 112.722 18.9211 112.431 19.1058C110.84 20.1205 110.159 21.486 110.227 23.3827C110.377 27.4916 113.93 30.4736 114.326 34.5389C114.511 36.4273 113.94 38.3468 112.917 39.9281C111.998 41.3496 110.746 42.3581 109.381 43.3168C107.992 44.2901 106.575 45.2302 105.093 46.0582C103.705 46.8343 102.199 47.6021 100.619 47.8885C97.0999 48.5255 93.4496 46.2117 90.9802 43.9456C89.5794 42.6611 88.3426 41.1856 87.2926 39.6002C86.4605 38.3468 85.8421 37.1225 85.6387 35.62C85.2133 32.4824 86.0247 29.16 87.1681 26.2527C87.7305 24.8229 88.4028 23.4284 89.2391 22.1376C89.9467 21.0461 90.8121 19.8321 91.941 19.139C93.2359 18.3421 94.8338 18.4895 96.247 18.8298C97.986 19.2469 99.6295 19.9794 101.356 20.4401C102.711 20.8033 104.558 21.1 105.913 20.5584C106.671 20.2534 107.154 19.5893 107.625 18.9584C108.237 18.1387 108.964 17.3979 109.518 16.5346C110.07 15.6755 110.288 14.7956 109.536 13.9718C108.827 13.1936 107.737 12.764 106.824 12.2701C105.193 11.3882 103.574 10.4813 101.947 9.5911C98.6085 7.76702 95.2094 6.07575 91.6629 4.69576C87.7118 3.15805 83.4971 1.67638 79.189 1.9752C78.3444 2.03331 77.3401 2.12047 76.5992 2.56248C75.8459 3.01279 75.2607 3.74948 74.6921 4.40316C74.2045 4.96553 73.7251 5.54866 73.1607 6.03632C72.4198 6.67755 71.5005 7.07806 70.6269 7.50555C66.518 9.51847 62.1498 11.0001 57.6632 11.8925C55.4428 12.3345 53.1913 12.6354 50.9335 12.7931C49.4476 12.8948 47.25 13.1396 46.5528 11.4276C45.9012 9.83182 47.5094 8.35429 48.7379 7.62176C50.6533 6.48041 52.8136 5.63166 54.8721 4.78499C59.0391 3.0709 63.3472 1.71788 67.7424 0.721798C68.3919 0.574461 68.67 1.5747 68.0184 1.72203C63.3721 2.77415 58.817 4.22469 54.4301 6.08405C53.2846 6.56964 52.1516 7.08429 51.0289 7.62383C50.0722 8.08452 49.0554 8.51201 48.2751 9.25492C47.5841 9.91275 46.9325 11.133 48.1589 11.6434C49.1073 12.0377 50.3566 11.8012 51.3485 11.7244C56.0488 11.3612 60.6971 10.3402 65.1256 8.72782C67.3771 7.90813 69.61 6.95148 71.708 5.78938C73.1959 4.96553 74.0509 3.35105 75.3085 2.24705C76.6386 1.07873 78.4461 0.910639 80.1561 0.904414C82.2313 0.896113 84.321 1.24474 86.3235 1.77599C90.3514 2.84263 94.2901 4.53597 98.0233 6.37043C101.366 8.01396 104.585 9.892 107.866 11.6538C109.329 12.4382 111.315 13.4655 111.064 15.4431C110.958 16.2835 110.481 17.0099 109.978 17.6698C109.358 18.4853 108.706 19.2863 108.071 20.0894C105.967 22.7498 102.242 21.8803 99.449 20.9382C97.7971 20.3799 96.0664 19.6183 94.2963 19.5934C92.7171 19.5727 91.7107 20.5314 90.8017 21.7143C88.7784 24.3518 87.5043 27.6825 86.8838 30.9281C86.5933 32.4492 86.4439 34.0533 86.6763 35.5951C86.9191 37.2179 87.7823 38.5481 88.7286 39.8575C91.057 43.0761 94.4914 46.2242 98.5525 46.8675C100.231 47.1331 101.757 46.5853 103.251 45.8589C104.863 45.0745 106.386 44.1137 107.868 43.1093C109.318 42.1257 110.796 41.1587 111.821 39.704C113.056 37.9525 113.629 35.7923 113.137 33.6797C112.236 29.8137 108.941 26.8628 109.196 22.673C109.294 21.0585 109.931 19.5893 111.271 18.6389C111.859 18.2218 112.589 17.6469 113.346 17.6262C114.008 17.6096 114.552 18.035 115.04 18.4313C117.171 20.162 118.696 22.7622 120.168 25.0408C120.908 26.1863 121.641 27.3463 122.274 28.5582C123.037 30.0212 123.635 31.5859 124.276 33.1049C125.486 35.9687 126.837 38.8116 127.922 41.721C129.139 44.9811 130.047 48.6168 129.344 52.0886C129.064 53.4707 128.479 55.0125 127.078 55.5936C125.773 56.1352 124.187 55.7202 123.089 54.9046C120.676 53.1096 119.933 49.9035 117.966 47.7224C115.104 44.5516 110.489 45.7988 107.426 47.9798C104.319 50.1898 102.253 53.5952 100.806 57.0587C99.3514 60.547 98.3222 64.2865 97.6685 68.0052C97.0169 71.7135 96.7782 75.7581 98.1769 79.3315C98.8949 81.168 100.08 82.5605 101.493 83.899C102.738 85.0798 104.068 86.5739 103.52 88.427C103.244 89.365 102.57 90.139 101.943 90.8633C101.3 91.6103 100.617 92.3242 99.891 92.9945C98.5483 94.2354 97.0625 95.3353 95.4584 96.2131C92.4058 97.8857 88.9797 98.7178 85.5121 98.8174C81.6917 98.9274 77.8921 98.1928 74.2439 97.1075C72.9075 96.709 71.0834 96.3251 70.0417 95.3249C69.2033 94.5176 69.334 92.7538 69.332 91.6996C69.3216 87.7484 70.3633 83.7433 71.8491 80.1014C72.2082 79.2236 72.6564 78.3769 73.418 77.7834C74.1879 77.1837 75.13 76.8953 76.0638 76.6711C78.2614 76.1399 80.4362 75.5506 82.5985 74.8823C84.9165 74.1643 87.2179 73.3924 89.5172 72.6204C91.2105 72.0518 92.9122 71.2176 94.7259 71.6803C97.822 72.471 99.9885 75.6605 101.657 78.157C102.614 79.5868 103.493 81.0643 104.421 82.5107C105.071 83.5234 105.809 84.1356 107.071 84.065C108.154 84.0027 109.24 83.6707 110.242 83.2681C112.178 82.492 113.925 81.3092 115.696 80.2238C117.204 79.3004 118.991 78.0138 120.836 77.9868C122.772 77.9598 123.457 79.6698 122.942 81.3444C122.382 83.1664 121.313 84.8287 120.099 86.2813C117.333 89.5912 113.589 92.0544 110.117 94.555C106.202 97.3772 102.23 100.119 98.2039 102.781C98.1167 102.459 98.0296 102.136 97.9424 101.814C111.273 101.115 124.619 100.671 137.966 100.488C224.192 100.305 237.546 100.38 250.892 100.716C258.431 100.905 265.968 101.179 273.499 101.532C274.165 101.557 274.169 102.594 273.501 102.563Z" fill="black"/>
<path d="M128.739 53.4417C129.905 54.2821 130.345 55.6227 130.493 57.0006C130.661 58.5673 130.532 60.1922 130.387 61.7569C130.069 65.2079 129.316 68.6153 128.129 71.8713C127.59 73.3467 127.021 75.0256 125.77 76.0631C125.157 76.5716 124.439 76.9181 123.64 76.9887C123.267 77.0219 122.854 76.9866 122.507 76.8351C122.074 76.6442 121.875 76.2644 121.827 75.81C121.738 74.9778 121.785 74.1125 121.854 73.2824C121.926 72.4046 122.055 71.531 122.227 70.6677C122.568 68.966 123.082 67.3018 123.663 65.6686C124.865 62.2819 126.243 58.9533 127.548 55.6061C127.716 55.1724 127.886 54.7407 128.054 54.307C128.156 54.0455 128.403 53.865 128.694 53.9439C128.943 54.0123 129.158 54.3195 129.057 54.583C127.812 57.7726 126.546 60.9559 125.326 64.1537C124.184 67.1503 123.111 70.2527 122.877 73.4733C122.848 73.8738 122.831 74.2743 122.829 74.6769C122.829 74.8699 122.831 75.0629 122.835 75.2559C122.839 75.4261 122.819 75.6315 122.866 75.7954C122.925 75.9988 123.306 75.9656 123.479 75.9615C123.784 75.9532 124.091 75.8722 124.367 75.7456C125.697 75.1355 126.32 73.6954 126.82 72.4108C127.986 69.4247 128.797 66.2849 129.202 63.1037C129.405 61.5016 129.515 59.883 129.515 58.2664C129.515 57.1168 129.428 55.8468 128.745 54.8756C128.602 54.6722 128.415 54.4834 128.214 54.3381C127.988 54.1742 127.878 53.8857 128.027 53.6284C128.16 53.4043 128.511 53.2777 128.739 53.4417Z" fill="black"/>
<path d="M0.500228 100.92C10.8678 100.92 16.593 100.92 26.9606 100.918C32.1444 100.918 37.3282 100.918 42.512 100.918C43.8152 100.918 45.1205 100.918 46.4237 100.918C47.563 100.918 48.8392 101.076 49.8311 100.404C50.6633 99.8413 51.319 99.0216 52.1159 98.4053C52.8879 97.8076 53.7117 97.2867 54.5874 96.853C58.4908 94.9148 63.1953 94.616 67.2564 96.2512C67.7793 96.4608 67.7378 97.2473 67.1194 97.2701C61.7717 97.461 56.4177 97.3677 51.0804 96.99C51.2464 96.8634 51.4145 96.7368 51.5805 96.6081C51.4954 97.1477 51.4083 97.6872 51.3232 98.2247C51.2319 98.7954 50.2379 98.6688 50.3043 98.0877C50.5512 95.9275 48.3121 94.5288 46.7495 93.5016C44.5477 92.0531 42.4725 90.4158 40.5758 88.5876C38.787 86.8631 36.882 84.9457 35.8195 82.6671C34.7156 80.2973 34.7467 77.6742 35.3526 75.1737C35.666 73.8767 36.1225 72.615 36.6309 71.3823C37.1041 70.2327 37.5834 69.0581 38.1811 67.9666C38.7248 66.9726 39.4822 66.1363 40.5966 65.8042C41.8521 65.4286 43.2839 65.493 44.5809 65.41C47.4882 65.2232 50.3956 65.0344 53.3008 64.8476C55.8242 64.6857 58.3435 64.6442 60.6469 65.8354C64.7828 67.9728 66.8642 72.5133 70.4708 75.2961C70.9834 75.6925 70.5061 76.5806 69.9479 76.1926C67.8644 74.742 65.8224 73.2313 63.8261 71.6645C62.8446 70.8946 61.8754 70.1102 60.9167 69.3113C60.0742 68.6078 59.2068 67.9105 58.5199 67.0493C57.0465 65.2024 57.0175 62.9343 57.3287 60.6931C57.6774 58.1863 58.1277 55.6878 58.5303 53.1893C59.0055 50.2487 59.4807 47.3061 59.9559 44.3656C60.0368 43.8676 60.8711 43.8717 60.9561 44.3656C61.8402 49.5058 60.5556 54.619 59.1881 59.5517C58.9204 60.5188 58.6734 61.6124 57.8517 62.2723C56.9697 62.982 55.6935 62.9322 54.6227 62.9945C51.981 63.148 49.3289 63.1418 46.6872 62.9779C44.5083 62.843 41.8708 62.9052 40.2563 61.1932C39.5071 60.4005 39.007 59.4106 38.5027 58.456C37.9051 57.323 37.3261 56.1796 36.7679 55.0258C36.2097 53.872 35.6701 52.7099 35.1493 51.5395C34.6595 50.4355 34.1221 49.3211 33.8212 48.1466C33.5389 47.053 33.4829 45.8929 33.9291 44.8346C34.3379 43.8676 35.0829 43.1122 35.8984 42.4751C39.1357 39.9517 43.5724 38.9867 45.741 35.2328C47.731 31.79 47.7061 27.5878 48.7749 23.838C49.3123 21.9496 50.1383 20.1877 51.3875 18.6646C52.6388 17.1372 54.2388 15.917 55.9363 14.923C57.6753 13.9062 59.5346 13.1093 61.4127 12.3872C63.5833 11.5529 65.7851 10.7249 68.0346 10.1335C70.4106 9.50888 72.8822 9.23703 75.306 9.75375C77.5783 10.2373 79.6804 11.3164 81.6498 12.5158C82.6334 13.1155 83.6108 13.7381 84.5592 14.3918C85.4245 14.9894 86.2338 15.6805 86.6717 16.662C87.1282 17.683 87.1926 18.8243 87.3005 19.9221C87.4271 21.1983 87.535 22.4808 87.4893 23.7633C87.3461 27.9468 85.19 31.624 82.0046 34.2595C78.4955 37.1647 74.1231 38.5945 69.6864 39.3499C67.2543 39.7629 64.7952 39.9994 62.3382 40.2256C61.0806 40.3418 59.8148 40.4601 58.5552 40.2962C57.42 40.1488 56.3638 39.74 55.3905 39.1424C54.438 38.5572 53.581 37.8288 52.7301 37.1087C51.7341 36.262 50.738 35.4154 49.7419 34.5687C48.779 33.7511 47.8431 32.8671 46.818 32.1262C45.9236 31.4808 44.7905 30.8811 43.6907 31.3937C42.6614 31.873 41.8791 32.9252 41.1092 33.7241C40.1816 34.687 39.256 35.6478 38.3284 36.6107C36.7243 38.277 35.1555 40.1987 33.099 41.3296C31.4119 42.2593 29.1811 42.5623 27.4732 41.4998C25.7985 40.458 25.3295 38.4804 25.5827 36.6314C25.8649 34.5625 26.9108 32.7342 27.8363 30.8977C28.8096 28.9657 29.8036 27.0441 30.8868 25.1744C33.0015 21.5241 35.5062 18.1022 38.6023 15.2198C40.1276 13.7983 41.7711 12.5054 43.5101 11.3558C44.087 10.974 44.6764 10.6087 45.245 10.2124C45.8924 9.76205 46.4673 9.22251 47.0981 8.75144C48.9637 7.35485 51.1157 6.41895 53.2572 5.53285C55.6499 4.54299 58.0675 3.61538 60.5058 2.74796C62.8923 1.89506 65.2912 1.10857 67.7067 0.378109C68.3479 0.185118 68.6218 1.18535 67.9827 1.37834C63.2741 2.80191 58.634 4.44338 54.0811 6.30481C51.9748 7.16601 49.8519 8.06456 47.9842 9.38437C47.3119 9.85959 46.7121 10.4261 46.0481 10.9117C45.5376 11.2832 45.0022 11.6214 44.4709 11.9659C41.1444 14.1303 38.1811 16.7824 35.6992 19.8848C33.211 22.9954 31.2604 26.4942 29.4467 30.0282C28.9569 30.9849 28.4755 31.9457 27.9941 32.9086C27.5562 33.7864 27.1308 34.6559 26.8631 35.6021C26.392 37.2623 26.2986 39.4101 27.8862 40.5203C29.5484 41.6824 31.7667 41.037 33.2961 39.9891C34.1905 39.3748 34.9667 38.6008 35.7199 37.8247C36.5832 36.9365 37.4382 36.0421 38.2973 35.1498C39.1772 34.2367 40.0591 33.3215 40.939 32.4084C41.6487 31.6718 42.3605 30.8521 43.3151 30.4287C45.4214 29.499 47.3326 31.1509 48.8392 32.4333C50.684 34.0001 52.5019 35.6063 54.3799 37.1315C55.2204 37.8122 56.1251 38.468 57.1378 38.8705C58.2563 39.3146 59.4516 39.3769 60.6407 39.3188C62.9898 39.2026 65.3597 38.9307 67.6901 38.6111C69.9832 38.2957 72.2679 37.8537 74.4738 37.1378C78.2444 35.9134 81.8282 33.7511 84.1524 30.4723C85.2378 28.9408 86.0118 27.1998 86.3127 25.3404C86.5098 24.1243 86.4932 22.8772 86.4144 21.6487C86.3397 20.4949 86.2733 19.2996 86.0533 18.1624C85.8396 17.0604 85.3228 16.247 84.4305 15.5663C83.5776 14.9147 82.6376 14.3523 81.7307 13.7817C79.8444 12.5967 77.8709 11.4927 75.7065 10.9138C71.1307 9.68942 66.4989 11.5778 62.2573 13.1716C58.7295 14.4955 55.0668 16.0976 52.5019 18.9551C49.8996 21.8541 49.3704 25.687 48.6815 29.3725C48.3411 31.1841 47.9406 32.9895 47.1873 34.6808C46.4071 36.4322 45.2056 37.8807 43.6637 39.0137C42.0554 40.1945 40.221 41.0038 38.4986 41.9978C36.826 42.9628 34.6803 44.2701 34.6367 46.4408C34.6118 47.6008 35.0621 48.7338 35.5103 49.7839C35.9897 50.9024 36.4898 52.0126 37.0065 53.1145C38.0005 55.2374 38.9946 57.4185 40.2231 59.4189C40.7792 60.3258 41.4765 61.0936 42.5141 61.4256C43.5952 61.7701 44.7843 61.8033 45.909 61.8863C48.3847 62.071 50.8729 62.1146 53.3548 62.017C53.942 61.9942 54.5293 61.9631 55.1166 61.9257C55.6852 61.8884 56.3181 61.8988 56.8556 61.6767C57.8413 61.2658 58.0218 59.8983 58.2709 58.9956C58.9266 56.6257 59.5533 54.2414 59.9227 51.8072C60.2817 49.4373 60.3689 47.0073 59.9621 44.6395C60.2962 44.6395 60.6283 44.6395 60.9624 44.6395C60.1696 49.5411 59.379 54.4447 58.5863 59.3463C58.2418 61.4817 57.7375 63.9324 58.9619 65.8872C59.5201 66.7775 60.344 67.4727 61.1408 68.143C62.0456 68.9066 62.9608 69.6558 63.8863 70.3925C66.0279 72.0983 68.2276 73.7293 70.475 75.294C70.3007 75.5928 70.1263 75.8917 69.952 76.1905C66.8061 73.7625 64.8388 70.1538 61.6991 67.7342C59.8356 66.2981 57.7334 65.7503 55.3947 65.7856C52.6513 65.825 49.8996 66.1051 47.1624 66.2815C45.7098 66.3749 44.2551 66.4683 42.8025 66.5638C41.5989 66.6405 40.4015 66.6903 39.5881 67.7051C38.8804 68.5891 38.4654 69.7491 38.0151 70.7764C37.4963 71.9613 37.0169 73.167 36.6434 74.4058C35.915 76.8276 35.6037 79.4797 36.6019 81.8765C37.5399 84.128 39.4034 85.9915 41.1237 87.6683C43.1615 89.6563 45.3986 91.3351 47.7539 92.9206C49.4887 94.0889 51.6179 95.7345 51.3481 98.0898C51.0078 98.0442 50.6695 97.9985 50.3292 97.9529C50.4142 97.4133 50.5014 96.8738 50.5865 96.3363C50.6197 96.1267 50.8791 95.9399 51.0866 95.9545C56.424 96.3322 61.7779 96.4255 67.1256 96.2346C67.08 96.5749 67.0343 96.9132 66.9887 97.2535C63.3758 95.8009 59.2192 95.9088 55.6644 97.4942C54.7721 97.8927 53.9192 98.3803 53.1244 98.9489C52.2964 99.5424 51.6241 100.287 50.8459 100.935C49.9971 101.643 49.0737 101.923 47.9759 101.954C46.7267 101.989 45.4733 101.958 44.2261 101.958C33.9249 101.958 23.6258 101.958 13.3246 101.96C7.50585 101.96 6.32732 101.96 0.50853 101.96C-0.167977 101.958 -0.167978 100.92 0.500228 100.92Z" fill="black"/>
<path d="M35.7795 71.33C36.0638 64.4342 33.8122 57.7937 31.5627 51.3731C31.3469 50.7588 31.1871 50.1653 31.102 49.5179C31.0232 48.9161 30.9838 48.3101 30.9049 47.7104C30.8344 47.1771 30.7389 46.6064 30.4899 46.125C30.2699 45.6996 29.9586 45.4485 29.6162 45.2098C28.726 44.5873 27.7237 44.0768 26.6798 43.7696C26.1943 43.6265 25.7751 43.5351 25.2791 43.56C25.2251 43.5621 25.1712 43.5663 25.1172 43.5725C25.2189 43.558 25.0529 43.587 25.0488 43.587C24.999 43.5995 24.9512 43.6119 24.9035 43.6244C24.8952 43.6265 24.7458 43.6846 24.8454 43.641C24.7603 43.6783 24.6752 43.7261 24.6005 43.7842C24.6877 43.7157 24.5715 43.8174 24.5652 43.8257C24.5424 43.8485 24.5217 43.8713 24.5009 43.8962C24.5486 43.8319 24.5549 43.8236 24.5217 43.8693C24.4428 43.9855 24.3764 44.1079 24.3183 44.2366C24.2581 44.3673 24.3557 44.1369 24.3017 44.276C24.2851 44.3196 24.2685 44.3631 24.2519 44.4088C24.2125 44.5209 24.1751 44.6329 24.1419 44.745C24.0029 45.2119 23.9074 45.6933 23.8265 46.1748C23.6522 47.2124 23.5588 48.2748 23.5069 49.3353C23.4032 51.4042 23.6418 53.4711 23.7974 55.5317C23.8659 56.4344 23.9385 57.3351 24.0299 58.2357C24.0693 58.6238 24.1129 59.0118 24.1606 59.3999C24.173 59.4953 24.1855 59.5887 24.1979 59.6842C24.2187 59.8398 24.1834 59.5783 24.2042 59.734C24.2104 59.7817 24.2166 59.8274 24.2228 59.8751C24.2498 60.0639 24.2768 60.2528 24.3058 60.4395C24.5901 62.2761 25.0093 64.0877 25.4555 65.891C25.7896 67.2399 26.1403 68.5825 26.4931 69.9252C26.6674 70.5913 26.8085 71.2823 27.0368 71.9318C27.182 72.3448 27.3792 72.7474 27.6054 73.1894C28.1221 74.2083 28.6969 75.1961 29.2883 76.1735C29.8341 77.0762 30.3467 78.064 31.266 78.6409C31.7889 78.9688 32.4156 79.1784 33.0382 79.0808C32.9344 79.334 32.8307 79.5892 32.729 79.8424C32.5983 79.5892 32.3928 79.4896 32.121 79.4813C31.8263 79.473 31.5254 79.5581 31.3116 79.7698C30.6829 80.3923 31.0564 81.5275 31.5337 82.1438C32.1915 82.9905 33.1731 83.5549 34.0073 84.2086C34.8913 84.8996 35.7255 85.6508 36.5286 86.4311C39.6725 89.4899 42.3599 93.0592 45.9479 95.6387C47.8549 97.0103 49.9778 98.0708 52.3083 98.4713C52.5843 98.519 52.7399 98.8593 52.6714 99.1104C52.5905 99.403 52.3103 99.5213 52.0323 99.4736C47.4026 98.6788 43.688 95.456 40.5482 92.1648C38.8487 90.3843 37.23 88.5229 35.4433 86.8275C34.5697 85.9995 33.6587 85.213 32.6875 84.5012C31.7516 83.8164 30.7347 83.1046 30.2554 82.0068C29.776 80.9132 29.8279 79.4232 30.9589 78.7467C31.8221 78.23 33.1316 78.3587 33.6275 79.3195C33.7645 79.5851 33.669 80.0271 33.3183 80.0811C31.7495 80.3239 30.3135 79.5 29.3921 78.2632C28.7696 77.4269 28.257 76.4786 27.7361 75.5779C27.1571 74.5756 26.5844 73.5567 26.1486 72.4838C25.9079 71.8903 25.7772 71.2553 25.6132 70.639C25.4119 69.8795 25.2127 69.12 25.0176 68.3584C24.4656 66.2251 23.9178 64.0856 23.5173 61.9191C23.206 60.2403 23.013 58.5449 22.8698 56.8453C22.7806 55.7787 22.7038 54.712 22.627 53.6433C22.5503 52.5829 22.4299 51.5183 22.4403 50.4538C22.4506 49.3768 22.5233 48.2997 22.6478 47.231C22.7681 46.1934 22.903 45.1164 23.2579 44.1286C23.3907 43.7572 23.5546 43.3754 23.8369 43.089C24.2 42.7196 24.7001 42.566 25.2044 42.5245C26.3416 42.4291 27.5286 42.9043 28.5351 43.3816C29.0497 43.6265 29.5498 43.9066 30.025 44.2262C30.4795 44.5312 30.9174 44.8612 31.2286 45.3177C31.9384 46.3574 31.957 47.7519 32.0836 48.9576C32.1459 49.5511 32.2351 50.1342 32.4322 50.6987C32.7228 51.5266 33.0133 52.3546 33.2976 53.1826C33.8807 54.8801 34.441 56.5838 34.9391 58.3083C35.9185 61.6992 36.6614 65.1813 36.8212 68.7153C36.8607 69.5848 36.8627 70.4564 36.8254 71.328C36.788 71.9941 35.7504 71.9982 35.7795 71.33Z" fill="black"/>
</svg>
